<svg width="32" height="32" viewBox="0 0 32 32" fill="none" xmlns="http://www.w3.org/2000/svg">
<path d="M15.512 15.248C16.4955 14.5419 17.2296 13.542 17.6086 12.3921C17.9875 11.2423 17.9919 10.0018 17.621 8.84935C17.2502 7.69686 16.5232 6.69177 15.5447 5.97876C14.5662 5.26575 13.3867 4.88159 12.176 4.88159C10.9653 4.88159 9.78586 5.26575 8.80739 5.97876C7.82892 6.69177 7.10191 7.69686 6.73103 8.84935C6.36015 10.0018 6.36452 11.2423 6.74351 12.3921C7.1225 13.542 7.85657 14.5419 8.84004 15.248C5.60004 16.288 3.09604 18.88 1.78404 22.728C1.60755 23.2333 1.55612 23.7737 1.63414 24.3031C1.71217 24.8326 1.91732 25.3352 2.23204 25.768C2.5463 26.2096 2.96136 26.5699 3.44276 26.819C3.92416 27.068 4.45803 27.1987 5.00004 27.2H19.352C19.8939 27.198 20.4276 27.0671 20.9089 26.8181C21.3902 26.5691 21.8053 26.2092 22.12 25.768C22.4335 25.3346 22.6379 24.832 22.7159 24.3028C22.7939 23.7737 22.7432 23.2335 22.568 22.728C21.248 18.88 18.76 16.288 15.512 15.248ZM8.05604 10.568C8.06708 9.75566 8.31807 8.96468 8.77744 8.29455C9.23681 7.62443 9.88406 7.10508 10.6378 6.80182C11.3915 6.49856 12.2181 6.42491 13.0136 6.59015C13.8091 6.75539 14.5379 7.15213 15.1085 7.73049C15.6791 8.30885 16.066 9.04301 16.2205 9.84064C16.375 10.6383 16.2902 11.4638 15.9768 12.2134C15.6634 12.9629 15.1353 13.6031 14.4591 14.0534C13.7828 14.5037 12.9885 14.744 12.176 14.744C11.0762 14.7356 10.0247 14.2911 9.25231 13.5082C8.47988 12.7253 8.04965 11.6679 8.05604 10.568ZM20.8 24.84C20.6347 25.0747 20.4155 25.2662 20.1607 25.3985C19.9059 25.5308 19.6231 25.5999 19.336 25.6H5.00004C4.71298 25.5999 4.43016 25.5308 4.17539 25.3985C3.92062 25.2662 3.70135 25.0747 3.53604 24.84C3.36976 24.6126 3.26107 24.3482 3.21927 24.0696C3.17748 23.7909 3.20382 23.5063 3.29604 23.24C4.17604 20.656 6.49604 16.336 12.176 16.336C17.856 16.336 20.176 20.656 21.056 23.24C21.146 23.5075 21.1697 23.7929 21.1251 24.0716C21.0805 24.3503 20.969 24.614 20.8 24.84Z" fill="black"/>
<path d="M30.216 22.728C28.904 18.88 26.408 16.328 23.16 15.248C24.1425 14.534 24.8749 13.5284 25.2531 12.3741C25.6313 11.2199 25.636 9.9759 25.2665 8.81887C24.8971 7.66184 24.1723 6.65071 23.1953 5.92923C22.2182 5.20775 21.0386 4.81263 19.824 4.80005C19.6119 4.80005 19.4084 4.88433 19.2584 5.03436C19.1083 5.18439 19.024 5.38788 19.024 5.60005C19.024 5.81222 19.1083 6.0157 19.2584 6.16573C19.4084 6.31576 19.6119 6.40005 19.824 6.40005C20.8989 6.44713 21.9142 6.90725 22.6581 7.6845C23.4021 8.46175 23.8173 9.49614 23.8173 10.572C23.8173 11.648 23.4021 12.6823 22.6581 13.4596C21.9142 14.2368 20.8989 14.697 19.824 14.744C19.6119 14.744 19.4084 14.8283 19.2584 14.9784C19.1083 15.1284 19.024 15.3319 19.024 15.544C19.024 15.7562 19.1083 15.9597 19.2584 16.1097C19.4084 16.2598 19.6119 16.344 19.824 16.344C25.496 16.344 27.824 20.664 28.704 23.248C28.7963 23.5143 28.8226 23.7989 28.7808 24.0776C28.739 24.3562 28.6303 24.6206 28.4641 24.848C28.2987 25.0827 28.0795 25.2743 27.8247 25.4065C27.5699 25.5388 27.2871 25.6079 27 25.608H24.744C24.5319 25.608 24.3284 25.6923 24.1784 25.8424C24.0283 25.9924 23.944 26.1959 23.944 26.408C23.944 26.6202 24.0283 26.8237 24.1784 26.9737C24.3284 27.1238 24.5319 27.208 24.744 27.208H27C27.5421 27.2067 28.0759 27.076 28.5573 26.827C29.0387 26.5779 29.4538 26.2177 29.768 25.776C30.0841 25.3423 30.29 24.8383 30.368 24.3073C30.4461 23.7764 30.3939 23.2344 30.216 22.728Z" fill="black"/>
</svg>
