<svg width="32" height="32" viewBox="0 0 32 32" fill="none" xmlns="http://www.w3.org/2000/svg">
<path d="M16.368 27.1999H6.304C6.00008 27.2 5.69916 27.1398 5.41858 27.0231C5.138 26.9063 4.8833 26.7351 4.66914 26.5195C4.45498 26.3038 4.28561 26.048 4.17076 25.7666C4.05592 25.4852 3.99789 25.1839 4 24.88V13.4399H25.6V14.728C25.6 14.9401 25.6843 15.1436 25.8343 15.2936C25.9843 15.4437 26.1878 15.528 26.4 15.528C26.6122 15.528 26.8157 15.4437 26.9657 15.2936C27.1157 15.1436 27.2 14.9401 27.2 14.728V12.64V9.27195C27.2021 8.75822 27.103 8.2491 26.9083 7.77367C26.7137 7.29824 26.4273 6.8658 26.0655 6.50105C25.7037 6.1363 25.2737 5.84638 24.7998 5.64785C24.326 5.44931 23.8177 5.34605 23.304 5.34395H21.048V3.99995C21.048 3.78778 20.9637 3.58429 20.8137 3.43427C20.6637 3.28424 20.4602 3.19995 20.248 3.19995C20.0358 3.19995 19.8323 3.28424 19.6823 3.43427C19.5323 3.58429 19.448 3.78778 19.448 3.99995V5.34395H10.208V3.99995C10.208 3.78778 10.1237 3.58429 9.97368 3.43427C9.82365 3.28424 9.62017 3.19995 9.408 3.19995C9.19582 3.19995 8.99234 3.28424 8.84231 3.43427C8.69228 3.58429 8.608 3.78778 8.608 3.99995V5.34395H6.304C5.78959 5.345 5.28044 5.44749 4.80569 5.64556C4.33095 5.84362 3.89992 6.13338 3.5373 6.49823C3.17467 6.86308 2.88757 7.29588 2.69241 7.77183C2.49726 8.24778 2.39789 8.75755 2.4 9.27195V12.608V24.88C2.39894 25.3937 2.49909 25.9026 2.69472 26.3776C2.89034 26.8526 3.17761 27.2845 3.54014 27.6485C3.90266 28.0125 4.33332 28.3015 4.80755 28.4991C5.28177 28.6967 5.79026 28.7989 6.304 28.7999H16.368C16.5802 28.7999 16.7837 28.7157 16.9337 28.5656C17.0837 28.4156 17.168 28.2121 17.168 27.9999C17.168 27.7878 17.0837 27.5843 16.9337 27.4343C16.7837 27.2842 16.5802 27.1999 16.368 27.1999ZM6.304 6.94395H8.608V8.29595C8.608 8.50812 8.69228 8.71161 8.84231 8.86164C8.99234 9.01167 9.19582 9.09595 9.408 9.09595C9.62017 9.09595 9.82365 9.01167 9.97368 8.86164C10.1237 8.71161 10.208 8.50812 10.208 8.29595V6.94395H19.448V8.29595C19.448 8.50812 19.5323 8.71161 19.6823 8.86164C19.8323 9.01167 20.0358 9.09595 20.248 9.09595C20.4602 9.09595 20.6637 9.01167 20.8137 8.86164C20.9637 8.71161 21.048 8.50812 21.048 8.29595V6.94395H23.336C23.9436 6.95655 24.5218 7.20788 24.9455 7.64356C25.3692 8.07924 25.6043 8.66423 25.6 9.27195V11.84H4V9.27195C3.99789 8.96766 4.05587 8.66595 4.17061 8.38412C4.28536 8.10229 4.45461 7.84588 4.66866 7.6296C4.88271 7.41332 5.13735 7.24142 5.41798 7.12376C5.69861 7.0061 5.9997 6.945 6.304 6.94395Z" fill="black"/>
<path d="M23.736 16.9841C22.5647 16.9746 21.417 17.3132 20.4385 17.957C19.46 18.6008 18.6948 19.5208 18.2399 20.6002C17.7851 21.6796 17.6611 22.8698 17.8838 24.0198C18.1065 25.1697 18.6657 26.2276 19.4906 27.0592C20.3154 27.8908 21.3688 28.4587 22.5169 28.6907C23.665 28.9228 24.8561 28.8085 25.9392 28.3625C27.0223 27.9165 27.9485 27.1588 28.6002 26.1855C29.252 25.2123 29.6 24.0674 29.6 22.8961C29.6043 21.3351 28.9893 19.8362 27.8901 18.7279C26.7908 17.6197 25.2969 16.9925 23.736 16.9841ZM23.736 27.2001C22.8809 27.2096 22.0422 26.9646 21.3266 26.4963C20.611 26.0279 20.0509 25.3574 19.7174 24.5699C19.3839 23.7824 19.2921 22.9135 19.4537 22.0737C19.6152 21.2339 20.0229 20.4611 20.6248 19.8536C21.2267 19.246 21.9956 18.8312 22.8339 18.6618C23.6721 18.4924 24.5418 18.5761 25.3324 18.9022C26.123 19.2283 26.7987 19.7822 27.2737 20.4934C27.7487 21.2045 28.0015 22.0409 28 22.8961C28.0021 24.0313 27.5549 25.1212 26.7559 25.9277C25.9569 26.7342 24.8712 27.1916 23.736 27.2001Z" fill="black"/>
<path d="M26.8 20.4481C26.7256 20.3731 26.6372 20.3136 26.5397 20.273C26.4422 20.2323 26.3376 20.2114 26.232 20.2114C26.1264 20.2114 26.0218 20.2323 25.9243 20.273C25.8269 20.3136 25.7384 20.3731 25.664 20.4481L23.36 22.5921L22.744 21.9761C22.6699 21.9009 22.5818 21.8412 22.4846 21.8001C22.3875 21.759 22.2831 21.7375 22.1777 21.7368C21.9646 21.7353 21.7597 21.8185 21.608 21.9681C21.4563 22.1176 21.3702 22.3214 21.3687 22.5344C21.3672 22.7474 21.4504 22.9524 21.6 23.1041L22.76 24.2721C22.9095 24.4186 23.1106 24.5007 23.32 24.5007C23.5294 24.5007 23.7305 24.4186 23.88 24.2721L26.76 21.6001C26.8401 21.5282 26.9048 21.4408 26.9504 21.3433C26.9959 21.2458 27.0213 21.1401 27.025 21.0326C27.0288 20.925 27.0108 20.8178 26.9721 20.7174C26.9334 20.6169 26.8749 20.5253 26.8 20.4481Z" fill="black"/>
</svg>
