<svg width="32" height="32" viewBox="0 0 32 32" fill="none" xmlns="http://www.w3.org/2000/svg">
<path d="M5.6 28C5.02859 27.9932 4.46894 27.8368 3.97675 27.5465C3.48455 27.2561 3.07698 26.8419 2.7946 26.3451C2.51221 25.8483 2.36486 25.2862 2.36722 24.7148C2.36957 24.1433 2.52154 23.5825 2.808 23.088L13.216 5.60002C13.5012 5.11025 13.9098 4.70384 14.4011 4.42136C14.8924 4.13889 15.4493 3.99023 16.016 3.99023C16.5827 3.99023 17.1396 4.13889 17.6309 4.42136C18.1222 4.70384 18.5308 5.11025 18.816 5.60002L29.216 23.096C29.4938 23.5843 29.6451 24.1343 29.656 24.696C29.6602 25.127 29.5792 25.5547 29.4177 25.9543C29.2561 26.3539 29.0172 26.7177 28.7147 27.0247C28.4121 27.3317 28.0519 27.576 27.6547 27.7433C27.2574 27.9107 26.831 27.9979 26.4 28H5.6ZM14.592 6.40002L4.192 23.896C3.97334 24.2797 3.91454 24.734 4.02833 25.1607C4.14212 25.5874 4.41934 25.9522 4.8 26.176C5.04229 26.3198 5.31826 26.3971 5.6 26.4H26.4C26.8357 26.3833 27.2475 26.1963 27.5467 25.8791C27.8459 25.5619 28.0087 25.14 28 24.704C27.9971 24.4223 27.9198 24.1463 27.776 23.904L17.408 6.40002C17.2952 6.21344 17.1467 6.05096 16.971 5.92191C16.7953 5.79287 16.5958 5.69979 16.384 5.64802C16.175 5.59482 15.9575 5.5844 15.7444 5.61739C15.5313 5.65039 15.3271 5.72611 15.144 5.84002C14.9183 5.98039 14.7291 6.17231 14.592 6.40002Z" fill="black"/>
<path d="M16 18.96C15.7878 18.96 15.5844 18.8757 15.4343 18.7257C15.2843 18.5757 15.2 18.3722 15.2 18.16V12.352C15.2 12.1398 15.2843 11.9363 15.4343 11.7863C15.5844 11.6363 15.7878 11.552 16 11.552C16.2122 11.552 16.4157 11.6363 16.5657 11.7863C16.7157 11.9363 16.8 12.1398 16.8 12.352V18.16C16.8 18.3722 16.7157 18.5757 16.5657 18.7257C16.4157 18.8757 16.2122 18.96 16 18.96Z" fill="black"/>
<path d="M16 23.0481C15.8947 23.0487 15.7904 23.0285 15.6929 22.9887C15.5954 22.9489 15.5068 22.8902 15.432 22.8161C15.3579 22.7413 15.2992 22.6527 15.2594 22.5552C15.2196 22.4577 15.1994 22.3533 15.2 22.2481C15.2009 22.0382 15.2842 21.8371 15.432 21.6881C15.5064 21.6131 15.5949 21.5536 15.6924 21.5129C15.7899 21.4723 15.8944 21.4514 16 21.4514C16.1056 21.4514 16.2102 21.4723 16.3077 21.5129C16.4052 21.5536 16.4937 21.6131 16.568 21.6881C16.7158 21.8371 16.7991 22.0382 16.8 22.2481C16.798 22.3551 16.7763 22.4609 16.736 22.5601C16.697 22.6554 16.64 22.7423 16.568 22.8161C16.4933 22.8902 16.4046 22.9489 16.3072 22.9887C16.2097 23.0285 16.1053 23.0487 16 23.0481Z" fill="black"/>
</svg>
