<svg width="32" height="32" viewBox="0 0 32 32" fill="none" xmlns="http://www.w3.org/2000/svg">
<path d="M28.4079 3.56793C28.0359 3.33958 27.6108 3.2121 27.1745 3.19808C26.7382 3.18405 26.3058 3.28395 25.9199 3.48793L14.8879 9.26393H3.1999C2.98773 9.26393 2.78425 9.34822 2.63422 9.49825C2.48419 9.64828 2.3999 9.85176 2.3999 10.0639V19.9279C2.3999 20.1401 2.48419 20.3436 2.63422 20.4936C2.78425 20.6436 2.98773 20.7279 3.1999 20.7279H5.4239L8.5759 27.6879C8.70686 27.9679 8.90321 28.2123 9.14839 28.4004C9.39357 28.5886 9.6804 28.7151 9.9847 28.7692C10.289 28.8233 10.6018 28.8035 10.8969 28.7114C11.1919 28.6193 11.4605 28.4576 11.6799 28.2399C12.0302 27.8837 12.2257 27.4035 12.2239 26.9039V20.7279H14.9119L25.9199 26.4959C26.2811 26.691 26.6854 26.7928 27.0959 26.7919C27.558 26.7818 28.0088 26.6463 28.3999 26.3999C28.7629 26.1848 29.0642 25.8795 29.2744 25.5137C29.4847 25.1479 29.5968 24.7339 29.5999 24.3119V5.67993C29.601 5.25484 29.4917 4.83674 29.2828 4.46654C29.0738 4.09634 28.7724 3.78671 28.4079 3.56793ZM10.6239 26.9119C10.6249 26.949 10.6183 26.9858 10.6045 27.0202C10.5908 27.0546 10.5702 27.0858 10.5439 27.1119C10.4719 27.1759 10.1279 27.2319 10.0399 27.0239L7.1999 20.7279H10.6159L10.6239 26.9119ZM14.2879 19.1279H3.9999V10.8639H14.2879V19.1279ZM27.9999 24.3119C28 24.4621 27.9609 24.6097 27.8866 24.7402C27.8122 24.8706 27.7051 24.9795 27.5759 25.0559C27.4367 25.1344 27.2797 25.1757 27.1199 25.1757C26.9601 25.1757 26.8031 25.1344 26.6639 25.0559L15.8879 19.4559V10.5439L26.6639 4.94393C26.8023 4.8631 26.9596 4.8205 27.1199 4.8205C27.2802 4.8205 27.4375 4.8631 27.5759 4.94393C27.704 5.01971 27.8103 5.12728 27.8846 5.25623C27.9589 5.38518 27.9986 5.53112 27.9999 5.67993V24.3119Z" fill="black"/>
</svg>
