<svg width="32" height="32" viewBox="0 0 32 32" fill="none" xmlns="http://www.w3.org/2000/svg">
<path d="M18.0801 17.5199L16.0001 19.6399L12.4001 16.0399L14.4801 13.9199C14.5551 13.8455 14.6146 13.7571 14.6552 13.6596C14.6958 13.5621 14.7168 13.4575 14.7168 13.3519C14.7168 13.2463 14.6958 13.1417 14.6552 13.0442C14.6146 12.9468 14.5551 12.8583 14.4801 12.7839C14.3302 12.6349 14.1275 12.5513 13.9161 12.5513C13.7048 12.5513 13.502 12.6349 13.3521 12.7839L11.2001 14.9039L10.0801 13.7599C10.0057 13.6849 9.91722 13.6254 9.81974 13.5848C9.72225 13.5442 9.61769 13.5233 9.51208 13.5233C9.40647 13.5233 9.3019 13.5442 9.20441 13.5848C9.10693 13.6254 9.01845 13.6849 8.94408 13.7599L5.24808 17.4559C4.28916 18.4188 3.65379 19.6563 3.43015 20.9967C3.20651 22.3371 3.4057 23.7139 4.00008 24.9359L3.04008 25.8559C2.62846 26.2675 2.39722 26.8258 2.39722 27.4079C2.39722 27.99 2.62846 28.5483 3.04008 28.9599C3.45169 29.3715 4.00996 29.6028 4.59208 29.6028C5.17419 29.6028 5.73246 29.3715 6.14408 28.9599L7.06408 27.9999C8.28929 28.5903 9.66801 28.7843 11.0086 28.5549C12.3492 28.3255 13.5849 27.6841 14.5441 26.7199L18.2401 23.0239C18.3151 22.9495 18.3746 22.8611 18.4152 22.7636C18.4558 22.6661 18.4768 22.5615 18.4768 22.4559C18.4768 22.3503 18.4558 22.2457 18.4152 22.1482C18.3746 22.0508 18.3151 21.9623 18.2401 21.8879L17.0961 20.7999L19.2001 18.6479C19.3491 18.498 19.4327 18.2953 19.4327 18.0839C19.4327 17.8726 19.3491 17.6698 19.2001 17.5199C19.0506 17.3733 18.8495 17.2912 18.6401 17.2912C18.4307 17.2912 18.2297 17.3733 18.0801 17.5199ZM13.4081 25.5999C12.6324 26.3949 11.6119 26.9061 10.5106 27.0512C9.40932 27.1963 8.29125 26.9669 7.33608 26.3999C7.19156 26.3128 7.02321 26.2737 6.8551 26.2881C6.68699 26.3024 6.52772 26.3696 6.40008 26.4799L5.01608 27.8239C4.90044 27.8963 4.76336 27.9265 4.62801 27.9095C4.49266 27.8924 4.36735 27.8292 4.27326 27.7304C4.17918 27.6316 4.1221 27.5034 4.11168 27.3673C4.10126 27.2313 4.13814 27.0959 4.21608 26.9839L5.52008 25.6399C5.64588 25.5138 5.726 25.3493 5.74774 25.1725C5.76947 24.9957 5.73159 24.8167 5.64008 24.6639C5.06749 23.7118 4.83117 22.595 4.96897 21.4925C5.10678 20.3901 5.61074 19.3658 6.40008 18.5839L9.53608 15.4559L16.5681 22.4879L13.4081 25.5999Z" fill="black"/>
<path d="M28.96 3.04006C28.5467 2.63163 27.9891 2.40259 27.408 2.40259C26.827 2.40259 26.2693 2.63163 25.856 3.04006L24.936 4.00006C23.7108 3.40968 22.3321 3.2157 20.9915 3.4451C19.651 3.6745 18.4152 4.31588 17.456 5.28006L13.76 8.94406C13.685 9.01843 13.6255 9.10691 13.5849 9.2044C13.5443 9.30189 13.5234 9.40645 13.5234 9.51206C13.5234 9.61767 13.5443 9.72223 13.5849 9.81972C13.6255 9.91721 13.685 10.0057 13.76 10.0801L21.92 18.2401C21.9941 18.3156 22.0825 18.3758 22.18 18.417C22.2775 18.4582 22.3822 18.4796 22.488 18.4801C22.5939 18.4796 22.6986 18.4582 22.7961 18.417C22.8936 18.3758 22.9819 18.3156 23.056 18.2401L26.752 14.5441C27.7109 13.5812 28.3463 12.3437 28.5699 11.0033C28.7936 9.66287 28.5944 8.2861 28 7.06406L28.96 6.14406C29.3704 5.73178 29.6008 5.17376 29.6008 4.59206C29.6008 4.01036 29.3704 3.45234 28.96 3.04006ZM27.824 5.01606L26.48 6.40006C26.3697 6.52771 26.3025 6.68697 26.2882 6.85508C26.2738 7.02319 26.3129 7.19154 26.4 7.33606C26.9756 8.28563 27.2159 9.40087 27.0825 10.5032C26.949 11.6056 26.4496 12.6313 25.664 13.4161L22.528 16.5441L15.496 9.51206L18.592 6.40006C19.3755 5.61517 20.3998 5.11601 21.5008 4.98256C22.6018 4.84911 23.7157 5.08909 24.664 5.66406C24.8168 5.75557 24.9958 5.79346 25.1726 5.77172C25.3494 5.74998 25.5139 5.66986 25.64 5.54406L26.984 4.20006C27.096 4.12212 27.2314 4.08525 27.3674 4.09567C27.5035 4.10609 27.6317 4.16316 27.7305 4.25725C27.8293 4.35133 27.8926 4.47664 27.9096 4.61199C27.9266 4.74735 27.8964 4.88443 27.824 5.00006V5.01606Z" fill="black"/>
</svg>
