<svg width="32" height="32" viewBox="0 0 32 32" fill="none" xmlns="http://www.w3.org/2000/svg">
<path d="M28.8 7.48819H9.18399C8.97182 7.48819 8.76834 7.57248 8.61831 7.72251C8.46828 7.87254 8.38399 8.07602 8.38399 8.28819V24.9042C8.39688 25.4991 8.17338 26.0748 7.7625 26.5052C7.35161 26.9356 6.78684 27.1855 6.19199 27.2002C5.59714 27.1855 5.03238 26.9356 4.62149 26.5052C4.2106 26.0748 3.98711 25.4991 3.99999 24.9042V4.8002H25C25.2122 4.8002 25.4157 4.71591 25.5657 4.56588C25.7157 4.41585 25.8 4.21237 25.8 4.0002C25.8 3.78802 25.7157 3.58454 25.5657 3.43451C25.4157 3.28448 25.2122 3.2002 25 3.2002H3.19999C2.98782 3.2002 2.78434 3.28448 2.63431 3.43451C2.48428 3.58454 2.39999 3.78802 2.39999 4.0002V24.9042C2.38929 25.9228 2.78206 26.9042 3.49255 27.6342C4.20303 28.3642 5.17349 28.7833 6.19199 28.8002H25.2C26.3847 28.7812 27.5134 28.2929 28.3384 27.4425C29.1634 26.592 29.6171 25.4489 29.6 24.2642V8.26418C29.5938 8.0562 29.5067 7.85884 29.3574 7.71396C29.208 7.56908 29.0081 7.4881 28.8 7.48819ZM28 24.2882C28.0108 25.0445 27.7228 25.7745 27.1985 26.3197C26.6743 26.8649 25.9561 27.1813 25.2 27.2002H9.24799C9.72796 26.5309 9.98542 25.7278 9.98399 24.9042V9.08819H28V24.2882Z" fill="black"/>
<path d="M18.888 22.456C19.0383 22.6009 19.2392 22.6813 19.448 22.68H19.488C19.5967 22.6745 19.7032 22.6468 19.8009 22.5986C19.8985 22.5505 19.9853 22.4829 20.056 22.4L24.28 17.368C24.3478 17.2877 24.3991 17.1948 24.431 17.0946C24.4629 16.9944 24.4747 16.8889 24.4658 16.7841C24.4569 16.6794 24.4274 16.5774 24.379 16.484C24.3307 16.3907 24.2644 16.3078 24.184 16.24C24.1031 16.1727 24.0098 16.1219 23.9093 16.0907C23.8088 16.0594 23.7032 16.0483 23.5984 16.058C23.4936 16.0677 23.3918 16.0979 23.2987 16.147C23.2056 16.1961 23.1231 16.263 23.056 16.344L20.208 19.728V12.528C20.208 12.3159 20.1237 12.1124 19.9737 11.9623C19.8236 11.8123 19.6201 11.728 19.408 11.728C19.1958 11.728 18.9923 11.8123 18.8423 11.9623C18.6923 12.1124 18.608 12.3159 18.608 12.528V19.944L14.856 16.272C14.7061 16.123 14.5033 16.0394 14.292 16.0394C14.0806 16.0394 13.8779 16.123 13.728 16.272C13.653 16.3464 13.5935 16.4349 13.5529 16.5324C13.5122 16.6299 13.4913 16.7344 13.4913 16.84C13.4913 16.9456 13.5122 17.0502 13.5529 17.1477C13.5935 17.2452 13.653 17.3337 13.728 17.408L18.888 22.456Z" fill="black"/>
</svg>
