<svg width="32" height="32" viewBox="0 0 32 32" fill="none" xmlns="http://www.w3.org/2000/svg">
<path d="M20.3361 12.8003H11.6641C11.5772 12.801 11.4923 12.8261 11.4189 12.8727C11.3456 12.9193 11.2869 12.9856 11.2493 13.0639C11.2118 13.1423 11.1971 13.2296 11.2067 13.3159C11.2164 13.4023 11.2501 13.4842 11.3041 13.5523L15.6401 19.0243C15.6827 19.0791 15.7373 19.1235 15.7997 19.154C15.8621 19.1845 15.9306 19.2004 16.0001 19.2004C16.0695 19.2004 16.1381 19.1845 16.2005 19.154C16.2628 19.1235 16.3174 19.0791 16.3601 19.0243L20.6961 13.5523C20.75 13.4842 20.7837 13.4023 20.7934 13.3159C20.8031 13.2296 20.7883 13.1423 20.7508 13.0639C20.7133 12.9856 20.6545 12.9193 20.5812 12.8727C20.5079 12.8261 20.4229 12.801 20.3361 12.8003Z" fill="black"/>
</svg>
