<svg width="32" height="32" viewBox="0 0 32 32" fill="none" xmlns="http://www.w3.org/2000/svg">
<path d="M12.8 11.6638V20.3358C12.8008 20.4227 12.8258 20.5076 12.8725 20.581C12.9191 20.6543 12.9853 20.713 13.0637 20.7505C13.142 20.7881 13.2294 20.8028 13.3157 20.7931C13.402 20.7835 13.4839 20.7498 13.552 20.6958L19.024 16.3598C19.0789 16.3172 19.1233 16.2626 19.1538 16.2002C19.1843 16.1378 19.2002 16.0693 19.2002 15.9998C19.2002 15.9304 19.1843 15.8618 19.1538 15.7994C19.1233 15.737 19.0789 15.6825 19.024 15.6398L13.552 11.3038C13.4839 11.2499 13.402 11.2162 13.3157 11.2065C13.2294 11.1968 13.142 11.2116 13.0637 11.2491C12.9853 11.2866 12.9191 11.3454 12.8725 11.4187C12.8258 11.492 12.8008 11.5769 12.8 11.6638Z" fill="black"/>
</svg>
