<svg width="32" height="32" viewBox="0 0 32 32" fill="none" xmlns="http://www.w3.org/2000/svg">
<path d="M20.72 24.8C18.168 24.24 13.976 22.48 13.168 16.856C13.1545 16.7507 13.1033 16.6537 13.0239 16.5832C12.9445 16.5126 12.8422 16.4731 12.736 16.472H9.248C9.16491 16.4732 9.08318 16.4508 9.01228 16.4075C8.94139 16.3641 8.88422 16.3016 8.84739 16.2271C8.81056 16.1526 8.79558 16.0692 8.80418 15.9865C8.81279 15.9039 8.84462 15.8254 8.896 15.76L15.656 7.36805C15.6972 7.31637 15.7495 7.27464 15.8091 7.24596C15.8686 7.21729 15.9339 7.20239 16 7.20239C16.0661 7.20239 16.1313 7.21729 16.1909 7.24596C16.2505 7.27464 16.3028 7.31637 16.344 7.36805L23.104 15.752C23.1554 15.8174 23.1872 15.8959 23.1958 15.9785C23.2044 16.0612 23.1894 16.1446 23.1526 16.2191C23.1158 16.2936 23.0586 16.3561 22.9877 16.3995C22.9168 16.4428 22.8351 16.4652 22.752 16.464H19.2C19.1016 16.4634 19.006 16.4964 18.9289 16.5575C18.8518 16.6186 18.7979 16.7041 18.776 16.8C18.4325 18.0956 18.4677 19.4625 18.8775 20.7387C19.2873 22.0148 20.0544 23.1467 21.088 24C21.1405 24.0242 21.1878 24.0585 21.2271 24.1009C21.2663 24.1433 21.2969 24.1931 21.3169 24.2473C21.337 24.3015 21.3462 24.3592 21.344 24.417C21.3417 24.4747 21.3282 24.5315 21.304 24.584C21.2798 24.6366 21.2456 24.6838 21.2031 24.7231C21.1607 24.7624 21.111 24.7929 21.0567 24.813C21.0025 24.8331 20.9449 24.8422 20.8871 24.84C20.8293 24.8378 20.7725 24.8242 20.72 24.8V24.8Z" fill="black"/>
</svg>
