<svg width="32" height="32" viewBox="0 0 32 32" fill="none" xmlns="http://www.w3.org/2000/svg">
<path d="M19.2002 20.3358V11.6638C19.1995 11.5769 19.1744 11.492 19.1278 11.4187C19.0811 11.3454 19.0149 11.2866 18.9365 11.2491C18.8582 11.2116 18.7708 11.1968 18.6845 11.2065C18.5982 11.2162 18.5163 11.2499 18.4482 11.3038L12.9762 15.6398C12.9213 15.6825 12.877 15.737 12.8464 15.7994C12.8159 15.8618 12.8 15.9304 12.8 15.9998C12.8 16.0693 12.8159 16.1378 12.8464 16.2002C12.877 16.2626 12.9213 16.3172 12.9762 16.3598L18.4482 20.6958C18.5163 20.7498 18.5982 20.7835 18.6845 20.7931C18.7708 20.8028 18.8582 20.7881 18.9365 20.7505C19.0149 20.713 19.0811 20.6543 19.1278 20.581C19.1744 20.5076 19.1995 20.4227 19.2002 20.3358Z" fill="black"/>
</svg>
