<svg width="32" height="32" viewBox="0 0 32 32" fill="none" xmlns="http://www.w3.org/2000/svg">
<path d="M20.72 7.20003C18.168 7.76003 13.976 9.52003 13.168 15.144C13.1545 15.2494 13.1033 15.3463 13.0239 15.4169C12.9445 15.4875 12.8422 15.527 12.736 15.528H9.248C9.16491 15.5269 9.08318 15.5493 9.01228 15.5926C8.94139 15.636 8.88422 15.6985 8.84739 15.773C8.81056 15.8475 8.79558 15.9309 8.80418 16.0135C8.81279 16.0962 8.84462 16.1747 8.896 16.24L15.656 24.624C15.6972 24.6757 15.7495 24.7174 15.8091 24.7461C15.8686 24.7748 15.9339 24.7897 16 24.7897C16.0661 24.7897 16.1313 24.7748 16.1909 24.7461C16.2505 24.7174 16.3028 24.6757 16.344 24.624L23.104 16.24C23.1554 16.1747 23.1872 16.0962 23.1958 16.0135C23.2044 15.9309 23.1894 15.8475 23.1526 15.773C23.1158 15.6985 23.0586 15.636 22.9877 15.5926C22.9168 15.5493 22.8351 15.5269 22.752 15.528H19.2C19.1016 15.5287 19.006 15.4957 18.9289 15.4346C18.8518 15.3735 18.7979 15.2879 18.776 15.192C18.4325 13.8965 18.4677 12.5296 18.8775 11.2534C19.2873 9.97728 20.0544 8.84541 21.088 7.99203C21.179 7.93518 21.2461 7.84702 21.2767 7.74414C21.3073 7.64126 21.2992 7.53076 21.254 7.43343C21.2087 7.3361 21.1295 7.25865 21.0311 7.21567C20.9328 7.17268 20.8221 7.16712 20.72 7.20003V7.20003Z" fill="black"/>
</svg>
