<svg width="32" height="32" viewBox="0 0 32 32" fill="none" xmlns="http://www.w3.org/2000/svg">
<path d="M19.416 9.104H7.464C7.25183 9.104 7.04835 9.18829 6.89832 9.33832C6.74829 9.48835 6.664 9.69183 6.664 9.904V15.912C6.664 16.1242 6.74829 16.3277 6.89832 16.4777C7.04835 16.6277 7.25183 16.712 7.464 16.712H19.416C19.6282 16.712 19.8317 16.6277 19.9817 16.4777C20.1317 16.3277 20.216 16.1242 20.216 15.912V9.904C20.216 9.69183 20.1317 9.48835 19.9817 9.33832C19.8317 9.18829 19.6282 9.104 19.416 9.104ZM18.616 15.112H8.264V10.704H18.616V15.112Z" fill="black"/>
<path d="M19.416 21.1201H7.464C7.25183 21.1201 7.04835 21.2044 6.89832 21.3544C6.74829 21.5045 6.664 21.7079 6.664 21.9201C6.664 22.1323 6.74829 22.3358 6.89832 22.4858C7.04835 22.6358 7.25183 22.7201 7.464 22.7201H19.416C19.6282 22.7201 19.8317 22.6358 19.9817 22.4858C20.1317 22.3358 20.216 22.1323 20.216 21.9201C20.216 21.7079 20.1317 21.5045 19.9817 21.3544C19.8317 21.2044 19.6282 21.1201 19.416 21.1201Z" fill="black"/>
<path d="M28.8 8.3359C28.5878 8.3359 28.3844 8.42019 28.2343 8.57022C28.0843 8.72025 28 8.92373 28 9.1359V25.7599C28.0195 26.3323 27.8117 26.8892 27.422 27.3089C27.0322 27.7286 26.4923 27.977 25.92 27.9999H24.624V5.1679C24.624 4.8044 24.5524 4.44446 24.4133 4.10863C24.2742 3.77281 24.0703 3.46766 23.8133 3.21063C23.5562 2.9536 23.2511 2.74971 22.9153 2.6106C22.5794 2.4715 22.2195 2.3999 21.856 2.3999H5.16801C4.43389 2.3999 3.72984 2.69153 3.21074 3.21063C2.69164 3.72973 2.40001 4.43378 2.40001 5.1679V25.7599C2.38939 26.2537 2.47617 26.7448 2.65538 27.205C2.83459 27.6653 3.10272 28.0857 3.44446 28.4423C3.78621 28.7989 4.19486 29.0847 4.64707 29.2833C5.09929 29.4819 5.5862 29.5895 6.08001 29.5999H25.92C26.4138 29.5895 26.9007 29.4819 27.3529 29.2833C27.8052 29.0847 28.2138 28.7989 28.5556 28.4423C28.8973 28.0857 29.1654 27.6653 29.3446 27.205C29.5239 26.7448 29.6106 26.2537 29.6 25.7599V9.1359C29.6 8.92373 29.5157 8.72025 29.3657 8.57022C29.2157 8.42019 29.0122 8.3359 28.8 8.3359ZM23.024 27.9999H6.08001C5.50773 27.977 4.96778 27.7286 4.57806 27.3089C4.18834 26.8892 3.98053 26.3323 4.00001 25.7599V5.1679C4.00001 4.85813 4.12307 4.56104 4.34211 4.342C4.56115 4.12296 4.85824 3.9999 5.16801 3.9999H21.856C22.0094 3.9999 22.1613 4.03011 22.303 4.08881C22.4447 4.14751 22.5735 4.23354 22.6819 4.342C22.7904 4.45046 22.8764 4.57922 22.9351 4.72093C22.9938 4.86264 23.024 5.01452 23.024 5.1679V27.9999Z" fill="black"/>
</svg>
