<svg width="32" height="32" viewBox="0 0 32 32" fill="none" xmlns="http://www.w3.org/2000/svg">
<path d="M9.39203 24C9.46734 24.0721 9.55378 24.1315 9.64804 24.176C9.74726 24.2153 9.85334 24.2343 9.96003 24.232C10.064 24.2333 10.1673 24.2143 10.264 24.176C10.3583 24.1315 10.4447 24.0721 10.52 24L16.464 18.024C16.6136 17.8734 16.6972 17.6695 16.6965 17.4572C16.6957 17.2449 16.6107 17.0416 16.46 16.892C16.3094 16.7424 16.1055 16.6588 15.8932 16.6596C15.6809 16.6603 15.4776 16.7454 15.328 16.896L10.752 21.496V4.8C10.752 4.58783 10.6677 4.38434 10.5177 4.23431C10.3677 4.08429 10.1642 4 9.95203 4C9.73986 4 9.53638 4.08429 9.38635 4.23431C9.23632 4.38434 9.15203 4.58783 9.15203 4.8V21.528L4.56803 16.92C4.49397 16.8454 4.40594 16.7861 4.30897 16.7456C4.21199 16.705 4.10798 16.6839 4.00286 16.6836C3.89775 16.6832 3.79359 16.7035 3.69633 16.7434C3.59907 16.7833 3.51063 16.8419 3.43603 16.916C3.36144 16.9901 3.30217 17.0781 3.2616 17.1751C3.22103 17.272 3.19996 17.3761 3.19959 17.4812C3.19922 17.5863 3.21955 17.6904 3.25944 17.7877C3.29932 17.885 3.35797 17.9734 3.43203 18.048L9.39203 24Z" fill="black"/>
<path d="M18.6721 5.6H28.0001C28.2122 5.6 28.4157 5.51571 28.5658 5.36569C28.7158 5.21566 28.8001 5.01217 28.8001 4.8C28.8001 4.58783 28.7158 4.38434 28.5658 4.23431C28.4157 4.08429 28.2122 4 28.0001 4H18.6721C18.4599 4 18.2564 4.08429 18.1064 4.23431C17.9564 4.38434 17.8721 4.58783 17.8721 4.8C17.8721 5.01217 17.9564 5.21566 18.1064 5.36569C18.2564 5.51571 18.4599 5.6 18.6721 5.6Z" fill="black"/>
<path d="M28.0001 11.4639H18.6721C18.4599 11.4639 18.2564 11.5482 18.1064 11.6982C17.9564 11.8482 17.8721 12.0517 17.8721 12.2639C17.8721 12.476 17.9564 12.6795 18.1064 12.8296C18.2564 12.9796 18.4599 13.0639 18.6721 13.0639H28.0001C28.2122 13.0639 28.4157 12.9796 28.5658 12.8296C28.7158 12.6795 28.8001 12.476 28.8001 12.2639C28.8001 12.0517 28.7158 11.8482 28.5658 11.6982C28.4157 11.5482 28.2122 11.4639 28.0001 11.4639Z" fill="black"/>
<path d="M28.0001 18.936H18.6721C18.4599 18.936 18.2564 19.0203 18.1064 19.1703C17.9564 19.3204 17.8721 19.5239 17.8721 19.736C17.8721 19.9482 17.9564 20.1517 18.1064 20.3017C18.2564 20.4518 18.4599 20.536 18.6721 20.536H28.0001C28.2122 20.536 28.4157 20.4518 28.5658 20.3017C28.7158 20.1517 28.8001 19.9482 28.8001 19.736C28.8001 19.5239 28.7158 19.3204 28.5658 19.1703C28.4157 19.0203 28.2122 18.936 28.0001 18.936Z" fill="black"/>
<path d="M28 26.3999H4.55195C4.33978 26.3999 4.1363 26.4842 3.98627 26.6342C3.83624 26.7842 3.75195 26.9877 3.75195 27.1999C3.75195 27.4121 3.83624 27.6156 3.98627 27.7656C4.1363 27.9156 4.33978 27.9999 4.55195 27.9999H28C28.2121 27.9999 28.4156 27.9156 28.5656 27.7656C28.7157 27.6156 28.8 27.4121 28.8 27.1999C28.8 26.9877 28.7157 26.7842 28.5656 26.6342C28.4156 26.4842 28.2121 26.3999 28 26.3999Z" fill="black"/>
</svg>
