<svg width="32" height="32" viewBox="0 0 32 32" fill="none" xmlns="http://www.w3.org/2000/svg">
<path d="M9.07995 29.5999C7.54189 29.6193 6.05529 29.0464 4.92795 27.9999C4.38171 27.4868 3.94652 26.867 3.6493 26.179C3.35208 25.491 3.19915 24.7494 3.19995 23.9999C3.20286 23.2069 3.36835 22.4229 3.6862 21.6964C4.00406 20.9699 4.46752 20.3162 5.04795 19.7759L17.896 7.53589C18.6449 6.81339 19.6411 6.40369 20.6817 6.39032C21.7222 6.37694 22.7287 6.76088 23.496 7.46389C23.854 7.8021 24.1389 8.21019 24.3329 8.66291C24.5269 9.11563 24.626 9.60335 24.624 10.0959C24.623 10.6154 24.5152 11.1292 24.3074 11.6053C24.0996 12.0815 23.7962 12.5099 23.416 12.8639L13.6 22.1999C13.4501 22.3489 13.2473 22.4325 13.036 22.4325C12.8246 22.4325 12.6218 22.3489 12.472 22.1999C12.397 22.1255 12.3375 22.037 12.2968 21.9396C12.2562 21.8421 12.2353 21.7375 12.2353 21.6319C12.2353 21.5263 12.2562 21.4217 12.2968 21.3242C12.3375 21.2267 12.397 21.1383 12.472 21.0639L22.28 11.7039C22.5019 11.5002 22.6795 11.253 22.802 10.9778C22.9245 10.7026 22.9891 10.4051 22.992 10.1039C22.9995 9.82986 22.9509 9.55717 22.8491 9.30263C22.7473 9.0481 22.5944 8.81711 22.4 8.62389C21.9348 8.20841 21.3293 7.98479 20.7058 7.99816C20.0822 8.01152 19.4869 8.26086 19.04 8.69589L6.15195 20.9119C5.72515 21.305 5.3846 21.7825 5.15188 22.314C4.91915 22.8456 4.79932 23.4196 4.79995 23.9999C4.79987 24.5324 4.90918 25.0593 5.12111 25.5478C5.33304 26.0363 5.64306 26.4761 6.03195 26.8399C6.90688 27.6228 8.04567 28.0456 9.21953 28.0234C10.3934 28.0011 11.5153 27.5354 12.36 26.7199L25.208 14.4799C25.8301 13.9017 26.3277 13.2026 26.6702 12.4254C27.0128 11.6482 27.193 10.8092 27.2 9.95989C27.2001 9.17057 27.0391 8.38952 26.7268 7.66459C26.4145 6.93965 25.9576 6.28608 25.384 5.74389C24.098 4.593 22.4245 3.97076 20.699 4.00192C18.9735 4.03307 17.3235 4.71533 16.08 5.91189L6.25595 15.2559C6.10213 15.4023 5.89645 15.4816 5.68416 15.4763C5.47186 15.4711 5.27035 15.3817 5.12395 15.2279C4.97756 15.0741 4.89826 14.8684 4.90351 14.6561C4.90876 14.4438 4.99813 14.2423 5.15195 14.0959L14.976 4.75189C16.5176 3.27586 18.5608 2.43807 20.6949 2.40691C22.829 2.37574 24.8958 3.15351 26.48 4.58389C27.2143 5.27327 27.7991 6.10619 28.1982 7.03097C28.5973 7.95575 28.8021 8.95268 28.8 9.95989C28.7951 11.0271 28.571 12.082 28.1417 13.059C27.7123 14.0361 27.0868 14.9145 26.304 15.6399L13.456 27.8559C12.2752 28.9773 10.7084 29.6017 9.07995 29.5999Z" fill="black"/>
</svg>
