<svg width="32" height="32" viewBox="0 0 32 32" fill="none" xmlns="http://www.w3.org/2000/svg">
<path d="M26.4001 4.80005H11.7521C11.393 4.80291 11.0391 4.88633 10.7165 5.04417C10.3939 5.20202 10.1108 5.43025 9.88814 5.71205L2.96014 14.4C2.60979 14.8599 2.42004 15.422 2.42004 16C2.42004 16.5781 2.60979 17.1402 2.96014 17.6L9.88814 26.2641C10.1084 26.5503 10.3904 26.7831 10.7131 26.9451C11.0359 27.1072 11.391 27.1943 11.7521 27.2001H26.4001C26.8337 27.1876 27.2606 27.0898 27.6563 26.912C28.052 26.7343 28.4087 26.4802 28.706 26.1644C29.0033 25.8485 29.2353 25.4771 29.3887 25.0713C29.5422 24.6656 29.614 24.2336 29.6001 23.8001V8.20005C29.614 7.7665 29.5422 7.33449 29.3887 6.92877C29.2353 6.52305 29.0033 6.15161 28.706 5.83574C28.4087 5.51987 28.052 5.26579 27.6563 5.08806C27.2606 4.91034 26.8337 4.81246 26.4001 4.80005ZM28.0001 23.8001C28.0142 24.0235 27.9839 24.2475 27.9109 24.4592C27.838 24.6709 27.7238 24.866 27.5751 25.0333C27.4263 25.2007 27.2459 25.3369 27.0443 25.4342C26.8426 25.5314 26.6237 25.5878 26.4001 25.6001H11.7521C11.6327 25.5974 11.5153 25.5679 11.4087 25.5139C11.3021 25.4599 11.209 25.3828 11.1361 25.2881L4.21614 16.6241C4.07599 16.4462 3.99978 16.2264 3.99978 16C3.99978 15.7737 4.07599 15.5538 4.21614 15.376L11.1361 6.71205C11.209 6.61734 11.3021 6.54016 11.4087 6.48617C11.5153 6.43218 11.6327 6.40275 11.7521 6.40005H26.4001C26.6237 6.41228 26.8426 6.46865 27.0443 6.56592C27.2459 6.66319 27.4263 6.79942 27.5751 6.96676C27.7238 7.13409 27.838 7.32923 27.9109 7.5409C27.9839 7.75258 28.0142 7.9766 28.0001 8.20005V23.8001ZM23.4001 12.232L19.6801 16L23.4001 19.768C23.4751 19.8424 23.5346 19.9309 23.5753 20.0284C23.6159 20.1259 23.6368 20.2304 23.6368 20.3361C23.6368 20.4417 23.6159 20.5462 23.5753 20.6437C23.5346 20.7412 23.4751 20.8297 23.4001 20.904C23.2502 21.0531 23.0475 21.1367 22.8361 21.1367C22.6248 21.1367 22.422 21.0531 22.2721 20.904L18.5601 17.1441L14.8641 20.8961C14.79 20.9716 14.7017 21.0318 14.6042 21.073C14.5067 21.1142 14.402 21.1356 14.2961 21.1361C14.0863 21.1352 13.8851 21.0518 13.7361 20.904C13.6612 20.8297 13.6016 20.7412 13.561 20.6437C13.5204 20.5462 13.4995 20.4417 13.4995 20.3361C13.4995 20.2304 13.5204 20.1259 13.561 20.0284C13.6016 19.9309 13.6612 19.8424 13.7361 19.768L17.4401 16L13.7201 12.232C13.6452 12.1577 13.5856 12.0692 13.545 11.9717C13.5044 11.8742 13.4835 11.7697 13.4835 11.664C13.4835 11.5584 13.5044 11.4539 13.545 11.3564C13.5856 11.2589 13.6452 11.1704 13.7201 11.096C13.87 10.947 14.0728 10.8634 14.2841 10.8634C14.4955 10.8634 14.6982 10.947 14.8481 11.096L18.5441 14.848L22.2401 11.096C22.39 10.947 22.5928 10.8634 22.8041 10.8634C23.0155 10.8634 23.2182 10.947 23.3681 11.096C23.4453 11.1683 23.5073 11.2551 23.5507 11.3514C23.5941 11.4478 23.6179 11.5518 23.6209 11.6574C23.6239 11.763 23.6059 11.8682 23.568 11.9668C23.5301 12.0654 23.4731 12.1556 23.4001 12.232Z" fill="black"/>
</svg>
