<svg width="32" height="32" viewBox="0 0 32 32" fill="none" xmlns="http://www.w3.org/2000/svg">
<path d="M21.72 12.056C21.72 10.1446 21.1532 8.27621 20.0913 6.68697C19.0294 5.09773 17.5201 3.85908 15.7543 3.12763C13.9884 2.39619 12.0453 2.20481 10.1706 2.57769C8.29602 2.95058 6.57406 3.87099 5.22252 5.22252C3.87099 6.57406 2.95058 8.29602 2.57769 10.1706C2.2048 12.0453 2.39618 13.9884 3.12763 15.7543C3.85907 17.5201 5.09773 19.0294 6.68697 20.0913C8.27621 21.1532 10.1446 21.72 12.056 21.72C14.6184 21.7179 17.0752 20.699 18.8871 18.8871C20.699 17.0752 21.7179 14.6184 21.72 12.056ZM4.048 12.056C4.048 10.4738 4.51719 8.92703 5.39624 7.61144C6.2753 6.29585 7.52472 5.27047 8.98653 4.66497C10.4483 4.05947 12.0569 3.90104 13.6087 4.20972C15.1606 4.5184 16.586 5.28033 17.7049 6.39915C18.8237 7.51797 19.5856 8.94343 19.8943 10.4953C20.203 12.0471 20.0445 13.6557 19.439 15.1175C18.8335 16.5793 17.8082 17.8287 16.4926 18.7078C15.177 19.5868 13.6303 20.056 12.048 20.056C9.92627 20.056 7.89144 19.2131 6.39115 17.7129C4.89086 16.2126 4.048 14.1777 4.048 12.056V12.056Z" fill="black"/>
<path d="M23.392 10.864C23.4308 11.2601 23.4495 11.658 23.448 12.056C23.4497 12.4354 23.431 12.8146 23.392 13.192C23.4889 13.0915 23.5579 12.9674 23.592 12.832C24.3363 13.2246 25.0139 13.7322 25.6 14.336C25.5119 14.3078 25.4204 14.2917 25.328 14.288C25.1606 14.2896 24.9975 14.3407 24.8591 14.4348C24.7207 14.5289 24.6132 14.6619 24.5503 14.817C24.4873 14.9721 24.4717 15.1423 24.5053 15.3063C24.5389 15.4703 24.6203 15.6206 24.7392 15.7384C24.8581 15.8562 25.0092 15.9362 25.1735 15.9683C25.3378 16.0003 25.5078 15.9831 25.6623 15.9187C25.8168 15.8543 25.9488 15.7456 26.0416 15.6063C26.1345 15.467 26.184 15.3034 26.184 15.136C26.1922 15.075 26.1922 15.0131 26.184 14.952C26.6839 15.5871 27.0857 16.2937 27.376 17.048C27.2822 17.1265 27.2064 17.2243 27.154 17.3347C27.1015 17.4452 27.0735 17.5657 27.072 17.688C27.0708 17.8858 27.1429 18.077 27.2744 18.2247C27.4059 18.3725 27.5874 18.4663 27.784 18.488C27.8353 18.7818 27.8701 19.0783 27.888 19.376C27.6663 19.3686 27.4507 19.4495 27.2887 19.6011C27.1266 19.7526 27.0314 19.9623 27.024 20.184C27.0166 20.4057 27.0975 20.6213 27.2491 20.7834C27.4006 20.9454 27.6103 21.0406 27.832 21.048C27.785 21.3606 27.7209 21.6704 27.64 21.976C27.5177 22.0107 27.4054 22.0741 27.3125 22.1609C27.2195 22.2477 27.1486 22.3553 27.1056 22.475C27.0626 22.5946 27.0487 22.7228 27.0651 22.8489C27.0815 22.975 27.1278 23.0954 27.2 23.2C26.9168 23.8255 26.5538 24.4117 26.12 24.944C26.0487 24.8056 25.941 24.6892 25.8085 24.6075C25.676 24.5257 25.5237 24.4816 25.368 24.48C25.2563 24.4789 25.1456 24.5002 25.0422 24.5424C24.9389 24.5846 24.8449 24.647 24.766 24.726C24.687 24.805 24.6246 24.8989 24.5824 25.0022C24.5401 25.1056 24.5189 25.2164 24.52 25.328C24.5216 25.4837 24.5657 25.636 24.6475 25.7685C24.7292 25.901 24.8456 26.0087 24.984 26.08C24.4416 26.5308 23.8417 26.9074 23.2 27.2C23.0955 27.1295 22.9759 27.0846 22.8507 27.0691C22.7256 27.0536 22.5986 27.0678 22.4801 27.1107C22.3615 27.1536 22.2548 27.2239 22.1686 27.3159C22.0824 27.4079 22.0191 27.5189 21.984 27.64C21.6784 27.7209 21.3686 27.785 21.056 27.832C21.0486 27.6103 20.9534 27.4006 20.7913 27.2491C20.6293 27.0975 20.4137 27.0166 20.192 27.024C19.9703 27.0314 19.7606 27.1266 19.6091 27.2887C19.4575 27.4507 19.3766 27.6663 19.384 27.888C19.0863 27.8701 18.7898 27.8354 18.496 27.784C18.4882 27.6158 18.4275 27.4543 18.3226 27.3225C18.2177 27.1908 18.0739 27.0955 17.9116 27.0503C17.7494 27.0051 17.577 27.0122 17.4191 27.0707C17.2611 27.1292 17.1257 27.236 17.032 27.376C16.276 27.084 15.5671 26.6824 14.928 26.184C14.9918 26.1917 15.0562 26.1917 15.12 26.184C15.2896 26.1856 15.4559 26.1367 15.5977 26.0437C15.7395 25.9506 15.8505 25.8174 15.9165 25.6612C15.9825 25.5049 16.0006 25.3325 15.9685 25.166C15.9364 24.9994 15.8555 24.8461 15.7361 24.7256C15.6167 24.6051 15.4642 24.5228 15.298 24.4891C15.1317 24.4554 14.9592 24.4719 14.8023 24.5364C14.6454 24.601 14.5113 24.7107 14.4168 24.8516C14.3224 24.9926 14.272 25.1584 14.272 25.328C14.2747 25.4213 14.2936 25.5133 14.328 25.6C13.712 25.019 13.1958 24.3406 12.8 23.592C12.9383 23.5592 13.0653 23.4902 13.168 23.392C12.7906 23.431 12.4114 23.4497 12.032 23.448C11.634 23.4495 11.2361 23.4308 10.84 23.392C11.4224 24.8943 12.3702 26.2275 13.5977 27.2712C14.8251 28.3148 16.2935 29.0358 17.8699 29.369C19.4462 29.7021 21.0808 29.6368 22.6256 29.1791C24.1703 28.7213 25.5766 27.8855 26.7169 26.7473C27.8573 25.6091 28.6958 24.2045 29.1565 22.6606C29.6172 21.1167 29.6856 19.4823 29.3555 17.9053C29.0254 16.3283 28.3072 14.8586 27.2659 13.6291C26.2246 12.3996 24.8931 11.4492 23.392 10.864Z" fill="black"/>
<path d="M22.792 26.2C22.9108 26.2115 23.0307 26.1981 23.1441 26.1605C23.2574 26.1229 23.3616 26.0621 23.45 25.9818C23.5384 25.9016 23.609 25.8038 23.6573 25.6946C23.7057 25.5854 23.7307 25.4674 23.7307 25.348C23.7307 25.2286 23.7057 25.1106 23.6573 25.0014C23.609 24.8922 23.5384 24.7944 23.45 24.7142C23.3616 24.6339 23.2574 24.5731 23.1441 24.5355C23.0307 24.4979 22.9108 24.4845 22.792 24.496C22.5803 24.5165 22.3838 24.6152 22.2408 24.7727C22.0979 24.9302 22.0187 25.1353 22.0187 25.348C22.0187 25.5607 22.0979 25.7658 22.2408 25.9233C22.3838 26.0808 22.5803 26.1795 22.792 26.2Z" fill="black"/>
<path d="M20.24 24.496C20.07 24.4944 19.9034 24.5435 19.7614 24.6369C19.6195 24.7304 19.5085 24.864 19.4427 25.0207C19.377 25.1775 19.3593 25.3502 19.3921 25.517C19.4249 25.6838 19.5066 25.8371 19.6268 25.9573C19.7469 26.0774 19.9002 26.1591 20.067 26.1919C20.2338 26.2247 20.4066 26.2071 20.5633 26.1413C20.72 26.0755 20.8536 25.9645 20.9471 25.8226C21.0405 25.6806 21.0896 25.514 21.088 25.344C21.0891 25.2324 21.0679 25.1216 21.0256 25.0182C20.9834 24.9149 20.921 24.821 20.842 24.742C20.7631 24.663 20.6691 24.6006 20.5658 24.5584C20.4624 24.5161 20.3517 24.4949 20.24 24.496V24.496Z" fill="black"/>
<path d="M16.84 25.344C16.84 25.5117 16.8897 25.6757 16.9829 25.8151C17.0761 25.9546 17.2085 26.0633 17.3635 26.1275C17.5184 26.1916 17.6889 26.2084 17.8534 26.1757C18.0179 26.143 18.169 26.0622 18.2876 25.9436C18.4062 25.825 18.487 25.6739 18.5197 25.5094C18.5524 25.3449 18.5356 25.1744 18.4715 25.0195C18.4073 24.8645 18.2986 24.7321 18.1591 24.6389C18.0197 24.5457 17.8557 24.496 17.688 24.496C17.4631 24.496 17.2474 24.5853 17.0884 24.7444C16.9293 24.9034 16.84 25.1191 16.84 25.344V25.344Z" fill="black"/>
<path d="M22.792 23.648C22.9108 23.6595 23.0307 23.6461 23.1441 23.6085C23.2574 23.5709 23.3616 23.5101 23.45 23.4298C23.5384 23.3496 23.609 23.2518 23.6573 23.1426C23.7057 23.0334 23.7307 22.9154 23.7307 22.796C23.7307 22.6766 23.7057 22.5586 23.6573 22.4494C23.609 22.3402 23.5384 22.2424 23.45 22.1622C23.3616 22.0819 23.2574 22.0211 23.1441 21.9835C23.0307 21.9459 22.9108 21.9325 22.792 21.944C22.5803 21.9645 22.3838 22.0632 22.2408 22.2207C22.0979 22.3782 22.0187 22.5833 22.0187 22.796C22.0187 23.0087 22.0979 23.2138 22.2408 23.3713C22.3838 23.5288 22.5803 23.6275 22.792 23.648V23.648Z" fill="black"/>
<path d="M20.24 21.944C20.07 21.9424 19.9034 21.9915 19.7614 22.0849C19.6195 22.1784 19.5085 22.312 19.4427 22.4687C19.377 22.6255 19.3593 22.7982 19.3921 22.965C19.4249 23.1318 19.5066 23.2851 19.6268 23.4053C19.7469 23.5254 19.9002 23.6071 20.067 23.6399C20.2338 23.6727 20.4066 23.6551 20.5633 23.5893C20.72 23.5235 20.8536 23.4126 20.9471 23.2706C21.0405 23.1286 21.0896 22.962 21.088 22.792C21.0891 22.6804 21.0679 22.5696 21.0256 22.4662C20.9834 22.3629 20.921 22.269 20.842 22.19C20.7631 22.111 20.6691 22.0486 20.5658 22.0064C20.4624 21.9641 20.3517 21.9429 20.24 21.944Z" fill="black"/>
<path d="M17.712 21.944C17.464 22.088 17.224 22.216 16.976 22.344C16.887 22.4764 16.8396 22.6324 16.84 22.792C16.8401 22.9587 16.8893 23.1216 16.9814 23.2605C17.0736 23.3994 17.2046 23.5081 17.3582 23.5729C17.5117 23.6377 17.681 23.6559 17.8448 23.625C18.0086 23.5942 18.1597 23.5158 18.2792 23.3996C18.3987 23.2834 18.4813 23.1345 18.5167 22.9717C18.5521 22.8088 18.5386 22.6391 18.4781 22.4838C18.4176 22.3285 18.3127 22.1944 18.1764 22.0984C18.0401 22.0024 17.8786 21.9487 17.712 21.944V21.944Z" fill="black"/>
<path d="M15.136 23.648C15.2491 23.649 15.3613 23.6277 15.466 23.5851C15.5708 23.5426 15.6661 23.4797 15.7465 23.4001C15.8268 23.3205 15.8906 23.2258 15.9341 23.1214C15.9776 23.017 16 22.9051 16 22.792V22.792C15.4748 22.9581 14.9406 23.0943 14.4 23.2C14.474 23.3315 14.5805 23.4418 14.7094 23.5202C14.8383 23.5987 14.9852 23.6427 15.136 23.648Z" fill="black"/>
<path d="M25.344 23.648C25.4628 23.6595 25.5827 23.6461 25.6961 23.6085C25.8094 23.5709 25.9136 23.5101 26.002 23.4298C26.0904 23.3496 26.161 23.2518 26.2093 23.1426C26.2577 23.0334 26.2827 22.9154 26.2827 22.796C26.2827 22.6766 26.2577 22.5586 26.2093 22.4494C26.161 22.3402 26.0904 22.2424 26.002 22.1622C25.9136 22.0819 25.8094 22.0211 25.6961 21.9835C25.5827 21.9459 25.4628 21.9325 25.344 21.944C25.1323 21.9645 24.9358 22.0632 24.7928 22.2207C24.6499 22.3782 24.5707 22.5833 24.5707 22.796C24.5707 23.0087 24.6499 23.2138 24.7928 23.3713C24.9358 23.5288 25.1323 23.6275 25.344 23.648V23.648Z" fill="black"/>
<path d="M22.792 21.088C22.9597 21.088 23.1237 21.0383 23.2631 20.9451C23.4026 20.8519 23.5113 20.7195 23.5755 20.5645C23.6396 20.4096 23.6564 20.2391 23.6237 20.0746C23.591 19.9101 23.5102 19.759 23.3916 19.6404C23.273 19.5218 23.1219 19.441 22.9574 19.4083C22.7929 19.3756 22.6224 19.3924 22.4675 19.4565C22.3125 19.5207 22.1801 19.6294 22.0869 19.7689C21.9937 19.9083 21.944 20.0723 21.944 20.24C21.944 20.4649 22.0333 20.6806 22.1924 20.8396C22.3514 20.9987 22.5671 21.088 22.792 21.088V21.088Z" fill="black"/>
<path d="M20.664 19.512C20.3168 19.9311 19.9311 20.3168 19.512 20.664C19.5819 20.7954 19.6871 20.9047 19.8157 20.9796C19.9443 21.0545 20.0912 21.092 20.24 21.088C20.3517 21.0891 20.4624 21.0679 20.5658 21.0256C20.6691 20.9834 20.7631 20.921 20.842 20.842C20.921 20.763 20.9834 20.6691 21.0256 20.5658C21.0679 20.4624 21.0891 20.3517 21.088 20.24C21.092 20.0912 21.0545 19.9443 20.9796 19.8157C20.9047 19.6871 20.7954 19.5819 20.664 19.512Z" fill="black"/>
<path d="M25.344 21.088C25.5117 21.088 25.6757 21.0383 25.8151 20.9451C25.9546 20.8519 26.0633 20.7195 26.1275 20.5645C26.1916 20.4096 26.2084 20.2391 26.1757 20.0746C26.143 19.9101 26.0622 19.759 25.9436 19.6404C25.825 19.5218 25.6739 19.441 25.5094 19.4083C25.3449 19.3756 25.1744 19.3924 25.0195 19.4565C24.8645 19.5207 24.7321 19.6294 24.6389 19.7689C24.5457 19.9083 24.496 20.0723 24.496 20.24C24.496 20.4649 24.5853 20.6806 24.7444 20.8396C24.9034 20.9987 25.1191 21.088 25.344 21.088V21.088Z" fill="black"/>
<path d="M22.792 18.536C23.0169 18.536 23.2326 18.4467 23.3916 18.2876C23.5507 18.1286 23.64 17.9129 23.64 17.688C23.64 17.4631 23.5507 17.2474 23.3916 17.0884C23.2326 16.9293 23.0169 16.84 22.792 16.84C22.6324 16.8396 22.4764 16.887 22.344 16.976C22.216 17.224 22.088 17.464 21.944 17.712C21.9502 17.9327 22.0423 18.1423 22.2007 18.2962C22.3591 18.45 22.5712 18.5361 22.792 18.536V18.536Z" fill="black"/>
<path d="M25.344 18.536C25.5117 18.536 25.6757 18.4863 25.8151 18.3931C25.9546 18.2999 26.0633 18.1675 26.1275 18.0125C26.1916 17.8576 26.2084 17.6871 26.1757 17.5226C26.143 17.3581 26.0622 17.207 25.9436 17.0884C25.825 16.9698 25.6739 16.889 25.5094 16.8563C25.3449 16.8236 25.1744 16.8404 25.0195 16.9045C24.8645 16.9687 24.7321 17.0774 24.6389 17.2169C24.5457 17.3563 24.496 17.5203 24.496 17.688C24.496 17.9129 24.5853 18.1286 24.7444 18.2876C24.9034 18.4467 25.1191 18.536 25.344 18.536V18.536Z" fill="black"/>
<path d="M23.648 15.136C23.6427 14.9852 23.5987 14.8383 23.5202 14.7094C23.4418 14.5805 23.3315 14.474 23.2 14.4C23.0812 14.9414 22.9316 15.4756 22.752 16C22.8684 16.0054 22.9847 15.9871 23.0938 15.946C23.2028 15.9049 23.3023 15.842 23.3862 15.7611C23.4701 15.6802 23.5366 15.5831 23.5816 15.4756C23.6266 15.3681 23.6492 15.2525 23.648 15.136Z" fill="black"/>
</svg>
