<svg width="32" height="32" viewBox="0 0 32 32" fill="none" xmlns="http://www.w3.org/2000/svg">
<path d="M24.272 23.784C24.9621 22.3003 25.3613 20.6981 25.448 19.064H28C28.2122 19.064 28.4157 18.9797 28.5657 18.8297C28.7157 18.6797 28.8 18.4762 28.8 18.264C28.8 18.0519 28.7157 17.8484 28.5657 17.6983C28.4157 17.5483 28.2122 17.464 28 17.464H25.448C25.3667 16.0148 25.0421 14.5896 24.488 13.248C25.4792 13.0779 26.4049 12.6399 27.165 11.9813C27.9251 11.3228 28.4905 10.4689 28.8 9.51203C28.8404 9.41018 28.8595 9.30112 28.856 9.19161C28.8525 9.0821 28.8265 8.97448 28.7797 8.8754C28.7329 8.77633 28.6663 8.68793 28.5839 8.61568C28.5016 8.54342 28.4052 8.48886 28.3009 8.45537C28.1966 8.42188 28.0865 8.41017 27.9775 8.42097C27.8684 8.43178 27.7628 8.46487 27.6671 8.51818C27.5714 8.5715 27.4876 8.64391 27.421 8.73092C27.3544 8.81794 27.3064 8.9177 27.28 9.02403C27.0344 9.77411 26.5689 10.433 25.9441 10.9152C25.3192 11.3974 24.5639 11.6806 23.776 11.728C23.1686 10.6991 22.3955 9.77735 21.488 9.00003C21.565 8.63173 21.6026 8.25628 21.6 7.88003C21.6 6.39482 21.01 4.97043 19.9598 3.92023C18.9096 2.87003 17.4852 2.28003 16 2.28003C14.5148 2.28003 13.0904 2.87003 12.0402 3.92023C10.99 4.97043 10.4 6.39482 10.4 7.88003C10.4053 8.25714 10.4509 8.6326 10.536 9.00003C9.62629 9.77515 8.85291 10.6973 8.24801 11.728C7.47322 11.6706 6.73265 11.3856 6.11923 10.9088C5.50581 10.432 5.04688 9.78468 4.80001 9.04803C4.72848 8.85379 4.58445 8.69484 4.39818 8.60457C4.21191 8.5143 3.9979 8.49974 3.80112 8.56395C3.60435 8.62816 3.44011 8.76615 3.34294 8.94891C3.24576 9.13167 3.22321 9.34499 3.28001 9.54403C3.59178 10.4871 4.15261 11.3285 4.90319 11.9791C5.65376 12.6296 6.5662 13.0653 7.54401 13.24C6.99076 14.5847 6.66628 16.0124 6.58401 17.464H4.00001C3.78784 17.464 3.58436 17.5483 3.43433 17.6983C3.2843 17.8484 3.20001 18.0519 3.20001 18.264C3.20001 18.4762 3.2843 18.6797 3.43433 18.8297C3.58436 18.9797 3.78784 19.064 4.00001 19.064H6.54401C6.63071 20.6981 7.02992 22.3003 7.72001 23.784C6.69381 23.9286 5.72916 24.3596 4.93675 25.0275C4.14434 25.6954 3.55627 26.5731 3.24001 27.56C3.20769 27.6603 3.19552 27.7661 3.20418 27.8711C3.21285 27.9761 3.24218 28.0784 3.2905 28.1721C3.33882 28.2658 3.40518 28.349 3.48575 28.4169C3.56632 28.4849 3.65953 28.5362 3.76001 28.568C3.83956 28.5801 3.92047 28.5801 4.00001 28.568C4.17648 28.5761 4.35065 28.5256 4.49537 28.4243C4.64008 28.3229 4.7472 28.1766 4.80001 28.008C5.06742 27.2107 5.5793 26.518 6.26291 26.0283C6.94652 25.5386 7.76709 25.2767 8.60801 25.28C9.38448 26.5573 10.4669 27.6211 11.7574 28.3753C13.048 29.1295 14.5061 29.5505 16 29.6C17.4962 29.5577 18.9582 29.1435 20.2543 28.3949C21.5504 27.6463 22.6397 26.5868 23.424 25.312C24.2614 25.3042 25.0801 25.5595 25.7647 26.0417C26.4494 26.524 26.9654 27.2089 27.24 28C27.2943 28.1671 27.402 28.3117 27.5466 28.4114C27.6912 28.5112 27.8646 28.5606 28.04 28.552C28.1223 28.5635 28.2057 28.5635 28.288 28.552C28.3896 28.5195 28.4837 28.467 28.5647 28.3976C28.6457 28.3282 28.712 28.2433 28.7597 28.1479C28.8074 28.0525 28.8355 27.9485 28.8425 27.842C28.8494 27.7356 28.835 27.6288 28.8 27.528C28.4743 26.541 27.8766 25.6659 27.0755 25.0035C26.2745 24.3412 25.3027 23.9185 24.272 23.784ZM12 7.88003C12 6.81916 12.4214 5.80175 13.1716 5.0516C13.9217 4.30146 14.9391 3.88003 16 3.88003C17.0609 3.88003 18.0783 4.30146 18.8284 5.0516C19.5786 5.80175 20 6.81916 20 7.88003C20 7.88003 20 7.95203 20 7.98403C18.7825 7.28431 17.4022 6.91742 15.9979 6.92023C14.5936 6.92304 13.2148 7.29545 12 8.00003C12 8.00003 12 7.91203 12 7.88003ZM8.09601 18.28C8.09601 13.248 11.216 9.08803 15.184 8.59203V27.952C11.2 27.456 8.10401 23.296 8.10401 18.264L8.09601 18.28ZM16.8 27.952V8.57603C20.8 9.07203 23.888 13.232 23.888 18.264C23.888 23.296 20.8 27.456 16.8 27.952Z" fill="black"/>
<path d="M11.952 16.448C12.5662 16.448 13.064 15.9609 13.064 15.36C13.064 14.7591 12.5662 14.272 11.952 14.272C11.3379 14.272 10.84 14.7591 10.84 15.36C10.84 15.9609 11.3379 16.448 11.952 16.448Z" fill="black"/>
<path d="M11.952 22.2561C12.5662 22.2561 13.064 21.769 13.064 21.1681C13.064 20.5672 12.5662 20.0801 11.952 20.0801C11.3379 20.0801 10.84 20.5672 10.84 21.1681C10.84 21.769 11.3379 22.2561 11.952 22.2561Z" fill="black"/>
<path d="M20.128 16.448C20.3421 16.4432 20.55 16.3754 20.7258 16.253C20.9015 16.1307 21.0372 15.9591 21.1159 15.76C21.1946 15.5608 21.2127 15.3428 21.1681 15.1334C21.1234 14.9239 21.018 14.7323 20.8649 14.5825C20.7118 14.4328 20.5179 14.3315 20.3076 14.2914C20.0972 14.2514 19.8797 14.2743 19.6823 14.3573C19.4849 14.4403 19.3163 14.5797 19.1978 14.7581C19.0793 14.9364 19.016 15.1458 19.016 15.36C19.017 15.5046 19.0467 15.6475 19.1032 15.7806C19.1598 15.9137 19.2421 16.0343 19.3455 16.1355C19.4488 16.2366 19.5712 16.3163 19.7055 16.3699C19.8398 16.4235 19.9834 16.4501 20.128 16.448Z" fill="black"/>
<path d="M20.128 20.08C19.9139 20.0847 19.706 20.1525 19.5302 20.2749C19.3545 20.3973 19.2188 20.5688 19.1401 20.768C19.0614 20.9671 19.0433 21.1851 19.0879 21.3945C19.1326 21.604 19.2381 21.7956 19.3911 21.9454C19.5442 22.0951 19.7381 22.1964 19.9484 22.2365C20.1588 22.2765 20.3763 22.2536 20.5737 22.1706C20.7712 22.0876 20.9397 21.9482 21.0582 21.7698C21.1767 21.5915 21.24 21.3821 21.24 21.1679C21.239 21.0233 21.2093 20.8804 21.1528 20.7473C21.0962 20.6142 21.0139 20.4936 20.9105 20.3924C20.8072 20.2913 20.6848 20.2116 20.5505 20.158C20.4162 20.1044 20.2726 20.0778 20.128 20.08Z" fill="black"/>
</svg>
