<svg width="32" height="32" viewBox="0 0 32 32" fill="none" xmlns="http://www.w3.org/2000/svg">
<path d="M17.192 27.9359H6.49604C6.16585 27.9349 5.83913 27.8686 5.53469 27.7408C5.23024 27.613 4.95407 27.4262 4.72209 27.1912C4.4901 26.9563 4.30688 26.6778 4.18296 26.3717C4.05904 26.0656 3.99687 25.7381 4.00004 25.4079V13.1519H27.088V14.5839C27.088 14.7961 27.1723 14.9996 27.3224 15.1496C27.4724 15.2997 27.6759 15.3839 27.888 15.3839C28.1002 15.3839 28.3037 15.2997 28.4537 15.1496C28.6038 14.9996 28.688 14.7961 28.688 14.5839V12.3839V8.79994C28.6901 8.25994 28.5859 7.72482 28.3812 7.22512C28.1765 6.72542 27.8753 6.27094 27.495 5.88762C27.1146 5.5043 26.6625 5.19965 26.1644 4.99106C25.6663 4.78247 25.132 4.67403 24.592 4.67194H22.12V3.13594C22.12 2.92376 22.0358 2.72028 21.8857 2.57025C21.7357 2.42022 21.5322 2.33594 21.32 2.33594C21.1079 2.33594 20.9044 2.42022 20.7544 2.57025C20.6043 2.72028 20.52 2.92376 20.52 3.13594V4.63194H10.6V3.13594C10.6 2.92376 10.5158 2.72028 10.3657 2.57025C10.2157 2.42022 10.0122 2.33594 9.80004 2.33594C9.58787 2.33594 9.38438 2.42022 9.23435 2.57025C9.08432 2.72028 9.00004 2.92376 9.00004 3.13594V4.63194H6.49604C5.95265 4.634 5.41505 4.74375 4.91433 4.95483C4.41361 5.16592 3.95969 5.47415 3.57881 5.86173C3.19794 6.2493 2.89766 6.70852 2.69533 7.21284C2.493 7.71717 2.39264 8.25659 2.40004 8.79994V12.3919V25.4079C2.39578 26.4971 2.82384 27.5435 3.59026 28.3174C4.35669 29.0914 5.39886 29.5296 6.48804 29.5359H17.192C17.4042 29.5359 17.6077 29.4517 17.7577 29.3016C17.9078 29.1516 17.992 28.9481 17.992 28.7359C17.992 28.5238 17.9078 28.3203 17.7577 28.1703C17.6077 28.0202 17.4042 27.9359 17.192 27.9359ZM4.00004 8.79994C3.9926 8.46672 4.05155 8.13535 4.17346 7.82514C4.29536 7.51493 4.47778 7.23208 4.71009 6.99307C4.9424 6.75406 5.21994 6.56367 5.52656 6.433C5.83318 6.30233 6.16274 6.23398 6.49604 6.23194H9.00004V7.71994C9.00004 7.93211 9.08432 8.13559 9.23435 8.28562C9.38438 8.43565 9.58787 8.51994 9.80004 8.51994C10.0122 8.51994 10.2157 8.43565 10.3657 8.28562C10.5158 8.13559 10.6 7.93211 10.6 7.71994V6.23194H20.52V7.71994C20.52 7.93211 20.6043 8.13559 20.7544 8.28562C20.9044 8.43565 21.1079 8.51994 21.32 8.51994C21.5322 8.51994 21.7357 8.43565 21.8857 8.28562C22.0358 8.13559 22.12 7.93211 22.12 7.71994V6.23194H24.592C24.925 6.23505 25.2541 6.30412 25.5602 6.43517C25.8663 6.56622 26.1435 6.75664 26.3756 6.99543C26.6077 7.23422 26.7901 7.51664 26.9124 7.82637C27.0347 8.1361 27.0944 8.467 27.088 8.79994V11.5919H4.00004V8.79994ZM25.016 17.0479C23.7777 17.0353 22.5634 17.3909 21.5276 18.0697C20.4917 18.7484 19.6809 19.7198 19.1982 20.8603C18.7155 22.0007 18.5826 23.259 18.8164 24.4752C19.0502 25.6913 19.6402 26.8106 20.5113 27.6908C21.3825 28.571 22.4957 29.1725 23.7094 29.4188C24.9231 29.6651 26.1826 29.5452 27.328 29.0742C28.4734 28.6032 29.453 27.8025 30.1425 26.7737C30.8319 25.7449 31.2 24.5344 31.2 23.2959C31.2064 21.648 30.559 20.0648 29.3997 18.8935C28.2404 17.7222 26.664 17.0585 25.016 17.0479ZM25.016 27.9359C24.0938 27.9486 23.1886 27.6867 22.4157 27.1834C21.6428 26.6801 21.0371 25.9582 20.6757 25.1096C20.3143 24.261 20.2136 23.3241 20.3863 22.4181C20.559 21.5121 20.9973 20.6779 21.6455 20.0218C22.2937 19.3656 23.1225 18.9172 24.0264 18.7335C24.9302 18.5498 25.8683 18.6392 26.7212 18.9902C27.5741 19.3413 28.3033 19.9382 28.8159 20.7049C29.3286 21.4717 29.6015 22.3736 29.6 23.2959C29.6064 24.5188 29.1273 25.6942 28.2679 26.5642C27.4084 27.4341 26.2389 27.9275 25.016 27.9359ZM27.04 24.8799L24.432 24.7999C24.3303 24.8005 24.2296 24.7802 24.136 24.7403C24.0424 24.7004 23.958 24.6417 23.888 24.5679C23.8124 24.4938 23.7523 24.4055 23.7111 24.308C23.6699 24.2105 23.6485 24.1058 23.648 23.9999V21.4399C23.648 21.2278 23.7323 21.0243 23.8824 20.8743C24.0324 20.7242 24.2359 20.6399 24.448 20.6399C24.6602 20.6399 24.8637 20.7242 25.0137 20.8743C25.1638 21.0243 25.248 21.2278 25.248 21.4399V23.1999L27.072 23.2959C27.2842 23.3012 27.4856 23.3906 27.6319 23.5444C27.7781 23.6982 27.8573 23.9038 27.852 24.1159C27.8467 24.3281 27.7574 24.5295 27.6036 24.6758C27.4498 24.822 27.2442 24.9012 27.032 24.8959L27.04 24.8799Z" fill="black"/>
</svg>
