<svg width="32" height="32" viewBox="0 0 32 32" fill="none" xmlns="http://www.w3.org/2000/svg">
<path d="M20.136 28.8C19.9736 28.8119 19.8104 28.8119 19.648 28.8C16.696 28.432 12.856 26.072 9.384 22.504C5.88 18.872 3.592 14.936 3.2 11.92C3.10779 11.1824 3.21847 10.4335 3.52013 9.75409C3.82179 9.07466 4.30301 8.49034 4.912 8.06401L6.168 7.20001C6.34433 7.07752 6.54415 6.99295 6.75483 6.95164C6.96551 6.91033 7.18248 6.91318 7.392 6.96001C7.60322 7.00019 7.80418 7.08254 7.98287 7.20212C8.16156 7.3217 8.31431 7.47607 8.432 7.65601L11.272 12.072C11.4832 12.3994 11.5775 12.7885 11.5398 13.1762C11.502 13.5639 11.3344 13.9275 11.064 14.208L11 14.272C10.6959 14.5708 10.5162 14.9737 10.4969 15.3996C10.4776 15.8255 10.6202 16.2429 10.896 16.568C11.56 17.368 12.216 18.112 12.864 18.8L12.968 18.896C13.608 19.536 14.312 20.2 15.056 20.856C15.3796 21.1485 15.8031 21.3057 16.2392 21.2953C16.6752 21.2848 17.0907 21.1076 17.4 20.8C17.6738 20.5209 18.0371 20.347 18.4262 20.309C18.8153 20.271 19.2054 20.3712 19.528 20.592L23.856 23.528C24.2041 23.7651 24.4448 24.1299 24.5256 24.5433C24.6065 24.9566 24.5211 25.3852 24.288 25.736L23.432 27.032C23.0713 27.576 22.5815 28.0221 22.0064 28.3306C21.4313 28.6391 20.7887 28.8004 20.136 28.8V28.8ZM7.08 8.52801L5.864 9.37601C5.48847 9.63322 5.1907 9.98851 5.00309 10.4032C4.81549 10.8179 4.74524 11.2762 4.8 11.728C5.12 14.408 7.248 18 10.48 21.328L10.52 21.368C13.72 24.688 17.224 26.864 19.832 27.192C20.2689 27.2444 20.7117 27.1723 21.1094 26.9841C21.5071 26.7958 21.8435 26.4991 22.08 26.128L22.952 24.8L18.632 21.856C18.6194 21.8463 18.6039 21.841 18.588 21.841C18.5721 21.841 18.5566 21.8463 18.544 21.856C17.9521 22.4604 17.1509 22.8148 16.3055 22.846C15.4601 22.8773 14.6349 22.5831 14 22.024C13.2 21.344 12.504 20.664 11.832 19.992L11.712 19.872C11.032 19.2 10.352 18.4 9.672 17.6C9.13809 16.9691 8.86137 16.1602 8.89695 15.3345C8.93253 14.5087 9.2778 13.7267 9.864 13.144L9.92 13.088C9.93513 13.0656 9.94322 13.0391 9.94322 13.012C9.94322 12.9849 9.93513 12.9585 9.92 12.936L7.08 8.52801ZM23.4 15.2C23.4193 13.4782 22.7576 11.8185 21.5589 10.5823C20.3602 9.34616 18.7216 8.63367 17 8.60001C16.7878 8.60001 16.5843 8.6843 16.4343 8.83433C16.2843 8.98436 16.2 9.18784 16.2 9.40001C16.2 9.61219 16.2843 9.81567 16.4343 9.9657C16.5843 10.1157 16.7878 10.2 17 10.2C18.2979 10.2315 19.5308 10.7747 20.4299 11.7113C21.329 12.6479 21.8215 13.9019 21.8 15.2C21.8 15.4122 21.8843 15.6157 22.0343 15.7657C22.1843 15.9157 22.3878 16 22.6 16C22.8122 16 23.0157 15.9157 23.1657 15.7657C23.3157 15.6157 23.4 15.4122 23.4 15.2ZM28.8 16.528C28.8406 13.0389 27.4955 9.67621 25.0599 7.17759C22.6243 4.67897 19.297 3.2485 15.808 3.20001C15.5958 3.20001 15.3923 3.2843 15.2423 3.43433C15.0923 3.58436 15.008 3.78784 15.008 4.00001C15.008 4.21219 15.0923 4.41567 15.2423 4.5657C15.3923 4.71573 15.5958 4.80001 15.808 4.80001C18.8726 4.84846 21.793 6.11034 23.9286 8.30891C26.0641 10.5075 27.2406 13.4633 27.2 16.528C27.2 16.7402 27.2843 16.9437 27.4343 17.0937C27.5843 17.2437 27.7878 17.328 28 17.328C28.2122 17.328 28.4157 17.2437 28.5657 17.0937C28.7157 16.9437 28.8 16.7402 28.8 16.528Z" fill="black"/>
</svg>
