<svg width="32" height="32" viewBox="0 0 32 32" fill="none" xmlns="http://www.w3.org/2000/svg">
<path d="M27.2 7.43994H4.80002C4.1635 7.43994 3.55306 7.6928 3.10297 8.14288C2.65288 8.59297 2.40002 9.20342 2.40002 9.83994V25.5999C2.40002 26.2365 2.65288 26.8469 3.10297 27.297C3.55306 27.7471 4.1635 27.9999 4.80002 27.9999H27.2C27.8365 27.9999 28.447 27.7471 28.8971 27.297C29.3472 26.8469 29.6 26.2365 29.6 25.5999V9.86394C29.6032 9.54675 29.5435 9.23209 29.4243 8.93813C29.3051 8.64417 29.1288 8.37676 28.9056 8.15135C28.6824 7.92594 28.4168 7.74701 28.124 7.6249C27.8313 7.50279 27.5172 7.43993 27.2 7.43994ZM28 25.5999C28 25.8121 27.9157 26.0156 27.7657 26.1656C27.6157 26.3157 27.4122 26.3999 27.2 26.3999H4.80002C4.58785 26.3999 4.38437 26.3157 4.23434 26.1656C4.08431 26.0156 4.00002 25.8121 4.00002 25.5999V9.86394C4.00002 9.65177 4.08431 9.44828 4.23434 9.29826C4.38437 9.14823 4.58785 9.06394 4.80002 9.06394H27.2C27.4122 9.06394 27.6157 9.14823 27.7657 9.29826C27.9157 9.44828 28 9.65177 28 9.86394V25.5999Z" fill="black"/>
<path d="M16 11.7522C14.8154 11.7411 13.6542 12.0823 12.664 12.7326C11.6737 13.3828 10.899 14.3127 10.4384 15.4041C9.97769 16.4955 9.85179 17.6992 10.0767 18.8623C10.3015 20.0254 10.867 21.0955 11.7013 21.9365C12.5356 22.7776 13.601 23.3517 14.7623 23.586C15.9236 23.8202 17.1283 23.704 18.2234 23.2522C19.3185 22.8003 20.2546 22.0332 20.9128 21.0482C21.571 20.0633 21.9215 18.9049 21.92 17.7202C21.9243 16.1444 21.3035 14.6312 20.1937 13.5125C19.0839 12.3937 17.5758 11.7607 16 11.7522ZM16 22.0802C15.136 22.0881 14.2892 21.8392 13.5669 21.3649C12.8447 20.8907 12.2796 20.2126 11.9435 19.4166C11.6074 18.6207 11.5153 17.7428 11.679 16.8944C11.8427 16.046 12.2547 15.2654 12.8629 14.6517C13.471 14.0379 14.2478 13.6186 15.0946 13.4472C15.9414 13.2757 16.8201 13.3596 17.6191 13.6884C18.4182 14.0172 19.1015 14.576 19.5824 15.2938C20.0632 16.0117 20.32 16.8562 20.32 17.7202C20.3243 18.8709 19.8718 19.9763 19.0618 20.7938C18.2519 21.6112 17.1507 22.0739 16 22.0802Z" fill="black"/>
<path d="M9.1761 5.6H14.2961C14.5083 5.6 14.7118 5.51571 14.8618 5.36569C15.0118 5.21566 15.0961 5.01217 15.0961 4.8C15.0961 4.58783 15.0118 4.38434 14.8618 4.23431C14.7118 4.08429 14.5083 4 14.2961 4H9.1761C8.96393 4 8.76044 4.08429 8.61041 4.23431C8.46038 4.38434 8.3761 4.58783 8.3761 4.8C8.3761 5.01217 8.46038 5.21566 8.61041 5.36569C8.76044 5.51571 8.96393 5.6 9.1761 5.6Z" fill="black"/>
</svg>
