<svg width="32" height="32" viewBox="0 0 32 32" fill="none" xmlns="http://www.w3.org/2000/svg">
<path d="M20.8 5.272C19.891 5.27298 18.9864 5.39951 18.112 5.648C16.6743 5.08549 15.1438 4.79784 13.6 4.8C7.408 4.8 2.4 9.184 2.4 14.584C2.41181 15.8737 2.69749 17.1461 3.23813 18.317C3.77876 19.4879 4.56202 20.5306 5.536 21.376V26.4C5.53625 26.5418 5.57415 26.6809 5.64584 26.8032C5.71753 26.9255 5.82043 27.0265 5.944 27.096C6.06357 27.1638 6.19857 27.1996 6.336 27.2C6.48306 27.199 6.627 27.1575 6.752 27.08L11.432 24.184C12.1378 24.3025 12.8523 24.3614 13.568 24.36C15.2131 24.3823 16.8448 24.0624 18.3597 23.4206C19.8746 22.7789 21.2396 21.8292 22.368 20.632H22.4L25.96 22.832C26.085 22.9095 26.2289 22.951 26.376 22.952C26.5127 22.954 26.6477 22.921 26.768 22.856C26.8928 22.7859 26.9964 22.6836 27.0682 22.5597C27.14 22.4359 27.1772 22.2951 27.176 22.152V18.344C27.9262 17.673 28.5274 16.8521 28.9408 15.9344C29.3542 15.0167 29.5706 14.0225 29.576 13.016C29.6 8.744 25.648 5.272 20.8 5.272ZM11.424 22.56C11.2283 22.5227 11.0258 22.5598 10.856 22.664L7.136 24.968V21.016C7.13619 20.8985 7.11049 20.7823 7.06071 20.6759C7.01093 20.5694 6.93831 20.4752 6.848 20.4C5.97213 19.702 5.26227 18.8182 4.76973 17.8124C4.27719 16.8066 4.01428 15.7039 4 14.584C4 10.072 8.296 6.4 13.6 6.4C14.3553 6.39989 15.1086 6.47764 15.848 6.632C14.7048 7.27127 13.7484 8.19806 13.0734 9.3206C12.3985 10.4431 12.0285 11.7225 12 13.032C12 17.032 15.48 20.336 19.92 20.728C18.0868 22.0676 15.8704 22.7803 13.6 22.76C12.8699 22.7637 12.1412 22.6967 11.424 22.56V22.56ZM25.824 17.376C25.7347 17.4504 25.6627 17.5433 25.613 17.6483C25.5632 17.7533 25.537 17.8678 25.536 17.984V20.712L22.944 19.112C22.8167 19.0331 22.6698 18.9915 22.52 18.992C22.4696 18.9842 22.4184 18.9842 22.368 18.992C21.8408 19.0937 21.305 19.1446 20.768 19.144C16.768 19.144 13.568 16.392 13.568 13.008C13.568 9.624 16.8 6.872 20.8 6.872C24.8 6.872 28 9.624 28 13.016C27.9872 13.8552 27.7891 14.6812 27.4198 15.435C27.0505 16.1887 26.5193 16.8515 25.864 17.376H25.824Z" fill="black"/>
</svg>
