<svg width="32" height="32" viewBox="0 0 32 32" fill="none" xmlns="http://www.w3.org/2000/svg">
<path d="M11.2 24.0001C11.0947 24.0007 10.9903 23.9805 10.8928 23.9407C10.7954 23.9009 10.7067 23.8422 10.632 23.7681L5.83195 18.9681C5.68131 18.8175 5.59668 18.6131 5.59668 18.4001C5.59668 18.1871 5.68131 17.9827 5.83195 17.8321C5.9826 17.6815 6.18691 17.5968 6.39995 17.5968C6.61299 17.5968 6.81731 17.6815 6.96795 17.8321L11.2 22.0721L25.032 8.2321C25.1826 8.08146 25.3869 7.99683 25.6 7.99683C25.813 7.99683 26.0173 8.08146 26.168 8.2321C26.3186 8.38274 26.4032 8.58706 26.4032 8.8001C26.4032 9.01314 26.3186 9.21746 26.168 9.3681L11.768 23.7681C11.6932 23.8422 11.6045 23.9009 11.5071 23.9407C11.4096 23.9805 11.3052 24.0007 11.2 24.0001Z" fill="black"/>
</svg>
