<svg width="32" height="32" viewBox="0 0 32 32" fill="none" xmlns="http://www.w3.org/2000/svg">
<path d="M16 2.3999C13.3102 2.3999 10.6808 3.19753 8.44428 4.69192C6.20777 6.1863 4.46462 8.31033 3.43527 10.7954C2.40592 13.2805 2.13659 16.015 2.66135 18.6531C3.18611 21.2913 4.48138 23.7146 6.38338 25.6166C8.28537 27.5186 10.7087 28.8138 13.3468 29.3386C15.9849 29.8633 18.7195 29.594 21.2045 28.5647C23.6896 27.5353 25.8136 25.7922 27.308 23.5557C28.8024 21.3191 29.6 18.6897 29.6 15.9999C29.6 12.393 28.1672 8.93374 25.6167 6.38325C23.0662 3.83276 19.607 2.3999 16 2.3999ZM16 27.9999C13.6267 27.9999 11.3066 27.2961 9.33319 25.9775C7.3598 24.659 5.82173 22.7848 4.91348 20.5921C4.00522 18.3994 3.76758 15.9866 4.23061 13.6588C4.69363 11.331 5.83652 9.19285 7.51475 7.51462C9.19298 5.83639 11.3312 4.6935 13.6589 4.23048C15.9867 3.76746 18.3995 4.0051 20.5922 4.91335C22.7849 5.8216 24.6591 7.35967 25.9777 9.33306C27.2962 11.3064 28 13.6265 28 15.9999C28 17.5758 27.6896 19.1362 27.0866 20.5921C26.4835 22.048 25.5996 23.3709 24.4853 24.4852C23.371 25.5995 22.0481 26.4834 20.5922 27.0865C19.1363 27.6895 17.5759 27.9999 16 27.9999Z" fill="black"/>
<path d="M21.1201 15.2001H16.8001V10.8801C16.8001 10.6679 16.7158 10.4644 16.5658 10.3144C16.4157 10.1644 16.2123 10.0801 16.0001 10.0801C15.7879 10.0801 15.5844 10.1644 15.4344 10.3144C15.2844 10.4644 15.2001 10.6679 15.2001 10.8801V15.2001H10.8801C10.6679 15.2001 10.4644 15.2844 10.3144 15.4344C10.1644 15.5844 10.0801 15.7879 10.0801 16.0001C10.0801 16.2123 10.1644 16.4157 10.3144 16.5658C10.4644 16.7158 10.6679 16.8001 10.8801 16.8001H15.2001V21.1201C15.2001 21.3323 15.2844 21.5357 15.4344 21.6858C15.5844 21.8358 15.7879 21.9201 16.0001 21.9201C16.2123 21.9201 16.4157 21.8358 16.5658 21.6858C16.7158 21.5357 16.8001 21.3323 16.8001 21.1201V16.8001H21.1201C21.3323 16.8001 21.5357 16.7158 21.6858 16.5658C21.8358 16.4157 21.9201 16.2123 21.9201 16.0001C21.9201 15.7879 21.8358 15.5844 21.6858 15.4344C21.5357 15.2844 21.3323 15.2001 21.1201 15.2001Z" fill="black"/>
</svg>
