<svg width="32" height="32" viewBox="0 0 32 32" fill="none" xmlns="http://www.w3.org/2000/svg">
<path d="M16 2.3999C13.3102 2.3999 10.6808 3.19753 8.44428 4.69192C6.20777 6.1863 4.46462 8.31033 3.43527 10.7954C2.40592 13.2805 2.13659 16.015 2.66135 18.6531C3.18611 21.2913 4.48138 23.7146 6.38338 25.6166C8.28537 27.5186 10.7087 28.8138 13.3468 29.3386C15.9849 29.8633 18.7195 29.594 21.2045 28.5647C23.6896 27.5353 25.8136 25.7922 27.308 23.5557C28.8024 21.3191 29.6 18.6897 29.6 15.9999C29.6 12.393 28.1672 8.93374 25.6167 6.38325C23.0662 3.83276 19.607 2.3999 16 2.3999ZM16 27.9999C13.6267 27.9999 11.3066 27.2961 9.33319 25.9775C7.3598 24.659 5.82173 22.7848 4.91348 20.5921C4.00522 18.3994 3.76758 15.9866 4.23061 13.6588C4.69363 11.331 5.83652 9.19285 7.51475 7.51462C9.19298 5.83639 11.3312 4.6935 13.6589 4.23048C15.9867 3.76746 18.3995 4.0051 20.5922 4.91335C22.7849 5.8216 24.6591 7.35967 25.9777 9.33306C27.2962 11.3064 28 13.6265 28 15.9999C28 17.5758 27.6896 19.1362 27.0866 20.5921C26.4835 22.048 25.5996 23.3709 24.4853 24.4852C23.371 25.5995 22.0481 26.4834 20.5922 27.0865C19.1363 27.6895 17.5759 27.9999 16 27.9999Z" fill="black"/>
<path d="M21.48 17.8479L16.8 15.5039V8.30391C16.8 8.09173 16.7157 7.88825 16.5656 7.73822C16.4156 7.58819 16.2121 7.50391 16 7.50391C15.7878 7.50391 15.5843 7.58819 15.4343 7.73822C15.2842 7.88825 15.2 8.09173 15.2 8.30391V15.9999C15.2004 16.1476 15.2417 16.2924 15.3194 16.418C15.3971 16.5437 15.508 16.6454 15.64 16.7119L20.76 19.2719C20.8706 19.3311 20.9944 19.3614 21.12 19.3599C21.2677 19.3595 21.4124 19.3181 21.5381 19.2404C21.6638 19.1628 21.7655 19.0518 21.832 18.9199C21.9268 18.731 21.9431 18.5122 21.8771 18.3113C21.8112 18.1104 21.6684 17.9438 21.48 17.8479Z" fill="black"/>
</svg>
