<svg width="32" height="32" viewBox="0 0 32 32" fill="none" xmlns="http://www.w3.org/2000/svg">
<path d="M24.536 14.7599C24.3238 14.7599 24.1204 14.8442 23.9703 14.9942C23.8203 15.1443 23.736 15.3478 23.736 15.5599V21.1599C23.736 21.6097 23.5573 22.0411 23.2393 22.3592C22.9212 22.6772 22.4898 22.8559 22.04 22.8559H10.84C10.3902 22.8559 9.95883 22.6772 9.64077 22.3592C9.32271 22.0411 9.14402 21.6097 9.14402 21.1599V9.93593C9.14402 9.48612 9.32271 9.05474 9.64077 8.73668C9.95883 8.41862 10.3902 8.23993 10.84 8.23993H16.44C16.6522 8.23993 16.8557 8.15565 17.0057 8.00562C17.1557 7.85559 17.24 7.6521 17.24 7.43993C17.24 7.22776 17.1557 7.02428 17.0057 6.87425C16.8557 6.72422 16.6522 6.63993 16.44 6.63993H10.84C10.4055 6.63783 9.97475 6.72147 9.57257 6.88607C9.17038 7.05066 8.80462 7.29299 8.49622 7.59915C8.18782 7.90532 7.94285 8.26932 7.77534 8.6703C7.60783 9.07128 7.52107 9.50137 7.52002 9.93593V21.1839C7.52213 22.0574 7.87007 22.8946 8.48773 23.5122C9.10539 24.1299 9.94252 24.4778 10.816 24.4799H22.016C22.8895 24.4778 23.7266 24.1299 24.3443 23.5122C24.962 22.8946 25.3099 22.0574 25.312 21.1839V15.5839C25.3152 15.4789 25.2977 15.3742 25.2604 15.2759C25.2231 15.1776 25.1669 15.0876 25.0948 15.0111C25.0227 14.9346 24.9363 14.873 24.8404 14.8299C24.7445 14.7868 24.6411 14.763 24.536 14.7599Z" fill="black"/>
<path d="M28.8 6.6399H25.336V3.1999C25.336 2.98773 25.2517 2.78425 25.1017 2.63422C24.9516 2.48419 24.7482 2.3999 24.536 2.3999C24.3238 2.3999 24.1203 2.48419 23.9703 2.63422C23.8203 2.78425 23.736 2.98773 23.736 3.1999V6.6399H20.496C20.2838 6.6399 20.0803 6.72419 19.9303 6.87422C19.7803 7.02425 19.696 7.22773 19.696 7.4399C19.696 7.65208 19.7803 7.85556 19.9303 8.00559C20.0803 8.15562 20.2838 8.2399 20.496 8.2399H23.736V11.6719C23.736 11.8841 23.8203 12.0876 23.9703 12.2376C24.1203 12.3876 24.3238 12.4719 24.536 12.4719C24.7482 12.4719 24.9516 12.3876 25.1017 12.2376C25.2517 12.0876 25.336 11.8841 25.336 11.6719V8.2399H28.8C29.0122 8.2399 29.2156 8.15562 29.3657 8.00559C29.5157 7.85556 29.6 7.65208 29.6 7.4399C29.6 7.22773 29.5157 7.02425 29.3657 6.87422C29.2156 6.72419 29.0122 6.6399 28.8 6.6399Z" fill="black"/>
<path d="M17.264 27.9999H5.76002C5.531 28.0021 5.3038 27.959 5.0914 27.8733C4.879 27.7876 4.68556 27.6609 4.52212 27.5005C4.35869 27.34 4.22846 27.1489 4.13888 26.9381C4.0493 26.7273 4.00212 26.501 4.00002 26.2719V14.8959C4.00002 14.6838 3.91574 14.4803 3.76571 14.3303C3.61568 14.1802 3.4122 14.0959 3.20002 14.0959C2.98785 14.0959 2.78437 14.1802 2.63434 14.3303C2.48431 14.4803 2.40002 14.6838 2.40002 14.8959V26.2719C2.40212 26.7111 2.49069 27.1455 2.66068 27.5504C2.83068 27.9553 3.07876 28.3228 3.39076 28.6318C3.70277 28.9409 4.07259 29.1854 4.47911 29.3515C4.88563 29.5176 5.32088 29.6021 5.76002 29.5999H17.264C17.4762 29.5999 17.6797 29.5157 17.8297 29.3656C17.9797 29.2156 18.064 29.0121 18.064 28.7999C18.064 28.5878 17.9797 28.3843 17.8297 28.2343C17.6797 28.0842 17.4762 27.9999 17.264 27.9999Z" fill="black"/>
</svg>
