<svg width="32" height="32" viewBox="0 0 32 32" fill="none" xmlns="http://www.w3.org/2000/svg">
<path d="M25.6167 24.4852L17.1314 15.9999L25.6167 7.51461C25.7667 7.36458 25.851 7.1611 25.851 6.94893C25.851 6.73676 25.7667 6.53327 25.6167 6.38324C25.4666 6.23321 25.2631 6.14893 25.051 6.14893C24.8388 6.14893 24.6353 6.23321 24.4853 6.38324L16 14.8685L7.51474 6.38324C7.36471 6.23321 7.16123 6.14893 6.94905 6.14893C6.73688 6.14893 6.5334 6.23321 6.38337 6.38324C6.23334 6.53327 6.14905 6.73676 6.14905 6.94893C6.14905 7.1611 6.23334 7.36458 6.38337 7.51461L14.8686 15.9999L6.38337 24.4852C6.23334 24.6352 6.14905 24.8387 6.14905 25.0509C6.14905 25.263 6.23334 25.4665 6.38337 25.6166C6.5334 25.7666 6.73688 25.8509 6.94905 25.8509C7.16123 25.8509 7.36471 25.7666 7.51474 25.6166L16 17.1313L24.4853 25.6166C24.6353 25.7666 24.8388 25.8509 25.051 25.8509C25.2631 25.8509 25.4666 25.7666 25.6167 25.6166C25.7667 25.4665 25.851 25.263 25.851 25.0509C25.851 24.8387 25.7667 24.6352 25.6167 24.4852Z" fill="black"/>
</svg>
