<svg width="32" height="32" viewBox="0 0 32 32" fill="none" xmlns="http://www.w3.org/2000/svg">
<path d="M28.8 19.7038H20.36C20.1478 19.7038 19.9443 19.6195 19.7943 19.4695C19.6443 19.3195 19.56 19.116 19.56 18.9038C19.56 18.6916 19.6443 18.4882 19.7943 18.3381C19.9443 18.1881 20.1478 18.1038 20.36 18.1038H27.08L23.424 13.7678C23.3022 13.6235 23.2353 13.4407 23.2353 13.2518C23.2353 13.0629 23.3022 12.8801 23.424 12.7358L27.08 8.39981H11.688C11.4758 8.39981 11.2723 8.31552 11.1223 8.16549C10.9723 8.01546 10.888 7.81198 10.888 7.59981C10.888 7.38763 10.9723 7.18415 11.1223 7.03412C11.2723 6.88409 11.4758 6.79981 11.688 6.79981H28.8C28.953 6.79943 29.1029 6.84294 29.232 6.92518C29.361 7.00742 29.4637 7.12494 29.528 7.26381C29.5904 7.402 29.6123 7.55508 29.591 7.70522C29.5698 7.85536 29.5063 7.99636 29.408 8.11181L25.08 13.2478L29.408 18.3998C29.5079 18.516 29.5723 18.6585 29.5936 18.8102C29.6148 18.962 29.5921 19.1166 29.528 19.2558C29.4614 19.3917 29.3577 19.5059 29.2288 19.5852C29.1 19.6645 28.9513 19.7056 28.8 19.7038Z" fill="black"/>
<path d="M11.688 6.79984C9.8719 6.81563 8.1011 7.36859 6.59873 8.38906C5.09636 9.40952 3.92963 10.8518 3.24556 12.5342C2.56148 14.2166 2.39067 16.0639 2.75463 17.8432C3.1186 19.6225 4.00107 21.2543 5.29084 22.533C6.58061 23.8116 8.21998 24.6799 10.0024 25.0285C11.7848 25.377 13.6305 25.1902 15.3069 24.4916C16.9833 23.793 18.4155 22.6138 19.4229 21.1027C20.4303 19.5915 20.9679 17.816 20.968 15.9998C20.9532 13.5505 19.9682 11.207 18.2288 9.48255C16.4893 7.75813 14.1373 6.79344 11.688 6.79984ZM11.688 23.5998C10.1884 23.5841 8.72693 23.1249 7.48768 22.2803C6.24844 21.4357 5.28679 20.2433 4.72381 18.8532C4.16083 17.4632 4.02169 15.9377 4.32391 14.4687C4.62613 12.9998 5.3562 11.6531 6.42219 10.5982C7.48819 9.54329 8.84246 8.82737 10.3145 8.54054C11.7865 8.25372 13.3105 8.40883 14.6946 8.98633C16.0786 9.56383 17.2609 10.5379 18.0925 11.7859C18.9241 13.034 19.3679 14.5001 19.368 15.9998C19.3553 18.0254 18.5395 19.9633 17.0997 21.3881C15.6599 22.8129 13.7136 23.6084 11.688 23.5998Z" fill="black"/>
<path d="M15.824 16.9358L12.488 15.4798V11.2878C12.488 11.0756 12.4037 10.8721 12.2537 10.7221C12.1037 10.5721 11.9002 10.4878 11.688 10.4878C11.4758 10.4878 11.2723 10.5721 11.1223 10.7221C10.9723 10.8721 10.888 11.0756 10.888 11.2878V15.9998C10.8875 16.1559 10.9326 16.3088 11.0179 16.4396C11.1032 16.5704 11.2249 16.6733 11.368 16.7358L15.2 18.3998C15.3 18.4473 15.4093 18.4719 15.52 18.4718C15.705 18.4733 15.8847 18.4107 16.0287 18.2946C16.1727 18.1785 16.272 18.0161 16.3097 17.835C16.3474 17.6539 16.3213 17.4654 16.2356 17.3014C16.15 17.1375 16.0102 17.0083 15.84 16.9358H15.824Z" fill="black"/>
</svg>
