<svg width="32" height="32" viewBox="0 0 32 32" fill="none" xmlns="http://www.w3.org/2000/svg">
<path d="M17.736 8.00007C17.6331 7.97776 17.5267 7.97602 17.423 7.99493C17.3194 8.01384 17.2205 8.05304 17.132 8.11028C17.0436 8.16751 16.9673 8.24166 16.9076 8.32846C16.8479 8.41526 16.8059 8.513 16.784 8.61607L13.656 23.0161C13.6288 23.1207 13.6231 23.2297 13.6392 23.3366C13.6553 23.4435 13.6929 23.5461 13.7497 23.638C13.8065 23.73 13.8814 23.8095 13.9698 23.8717C14.0582 23.9339 14.1583 23.9776 14.264 24.0001H14.44C14.6261 24.0042 14.8077 23.9434 14.9537 23.828C15.0998 23.7127 15.201 23.55 15.24 23.3681L18.368 8.96807C18.3926 8.86286 18.3955 8.75378 18.3767 8.6474C18.358 8.54101 18.3178 8.43953 18.2588 8.34908C18.1997 8.25862 18.123 8.18106 18.0331 8.12108C17.9433 8.0611 17.8422 8.01994 17.736 8.00007Z" fill="black"/>
<path d="M10.448 10.632C10.3856 10.5474 10.3071 10.4759 10.217 10.4216C10.1268 10.3673 10.0269 10.3313 9.92288 10.3157C9.81885 10.3001 9.71276 10.3052 9.61069 10.3306C9.50862 10.3561 9.41256 10.4014 9.32803 10.464L2.72003 15.36C2.61914 15.4344 2.53713 15.5314 2.48062 15.6433C2.4241 15.7551 2.39465 15.8787 2.39465 16.004C2.39465 16.1294 2.4241 16.2529 2.48062 16.3648C2.53713 16.4767 2.61914 16.5737 2.72003 16.648L9.32803 21.544C9.4675 21.645 9.63584 21.6983 9.80803 21.696C9.93223 21.696 10.0547 21.6671 10.1658 21.6116C10.2769 21.556 10.3735 21.4754 10.448 21.376C10.5106 21.2915 10.556 21.1954 10.5814 21.0934C10.6069 20.9913 10.6119 20.8852 10.5963 20.7812C10.5807 20.6772 10.5448 20.5772 10.4905 20.4871C10.4362 20.397 10.3647 20.3185 10.28 20.256L4.54403 16L10.28 11.752C10.3647 11.6896 10.4362 11.6111 10.4905 11.521C10.5448 11.4308 10.5807 11.3309 10.5963 11.2269C10.6119 11.1228 10.6069 11.0168 10.5814 10.9147C10.556 10.8126 10.5106 10.7166 10.448 10.632Z" fill="black"/>
<path d="M29.28 15.36L22.672 10.464C22.5012 10.3377 22.2873 10.2845 22.0773 10.316C21.8672 10.3475 21.6783 10.4612 21.552 10.632C21.4258 10.8028 21.3726 11.0167 21.4041 11.2267C21.4356 11.4368 21.5492 11.6257 21.72 11.752L27.456 16L21.72 20.2559C21.6354 20.3184 21.5639 20.3969 21.5096 20.487C21.4553 20.5771 21.4194 20.6771 21.4037 20.7811C21.3881 20.8851 21.3932 20.9912 21.4187 21.0933C21.4441 21.1954 21.4894 21.2914 21.552 21.3759C21.6266 21.4753 21.7232 21.5559 21.8343 21.6115C21.9454 21.667 22.0678 21.696 22.192 21.696C22.3642 21.6983 22.5326 21.645 22.672 21.5439L29.28 16.648C29.3809 16.5736 29.4629 16.4766 29.5195 16.3647C29.576 16.2529 29.6054 16.1293 29.6054 16.004C29.6054 15.8786 29.576 15.755 29.5195 15.6432C29.4629 15.5313 29.3809 15.4343 29.28 15.36Z" fill="black"/>
</svg>
