<svg width="32" height="32" viewBox="0 0 32 32" fill="none" xmlns="http://www.w3.org/2000/svg">
<path d="M4.61603 29.5999C4.26996 29.6004 3.92915 29.5152 3.62403 29.3519C3.25077 29.1569 2.93881 28.8623 2.72276 28.5008C2.50671 28.1393 2.395 27.725 2.40003 27.3039V5.6479C2.38715 4.80326 2.70876 3.98779 3.29474 3.37934C3.88071 2.77088 4.6835 2.41881 5.52803 2.3999H26.2401C27.1312 2.3999 27.9858 2.7539 28.6159 3.38402C29.2461 4.01415 29.6001 4.86877 29.6001 5.7599V20.2639C29.6001 21.155 29.2461 22.0097 28.6159 22.6398C27.9858 23.2699 27.1312 23.6239 26.2401 23.6239H13.0561L5.89603 29.1839C5.52281 29.4519 5.07551 29.5973 4.61603 29.5999ZM5.52803 3.9999C5.10785 4.01863 4.71194 4.20205 4.42598 4.51047C4.14002 4.81889 3.987 5.22751 4.00003 5.6479V27.3039C3.99682 27.432 4.02865 27.5586 4.09209 27.67C4.15553 27.7814 4.24817 27.8733 4.36003 27.9359C4.45328 27.9842 4.55824 28.0053 4.66292 27.9969C4.7676 27.9884 4.86778 27.9506 4.95203 27.8879L12.2961 22.1999C12.4357 22.0915 12.6073 22.0325 12.7841 22.0319H26.2401C26.7069 22.0319 27.1545 21.8465 27.4846 21.5164C27.8146 21.1863 28.0001 20.7387 28.0001 20.2719V5.7599C27.998 5.29377 27.8119 4.84733 27.4823 4.51772C27.1526 4.18811 26.7062 4.00201 26.2401 3.9999H5.52803ZM22.7761 10.0239C22.7761 9.81173 22.6918 9.60825 22.5418 9.45822C22.3917 9.30819 22.1882 9.2239 21.9761 9.2239H10.8801C10.6679 9.2239 10.4644 9.30819 10.3144 9.45822C10.1644 9.60825 10.0801 9.81173 10.0801 10.0239C10.0801 10.2361 10.1644 10.4396 10.3144 10.5896C10.4644 10.7396 10.6679 10.8239 10.8801 10.8239H21.9761C22.0811 10.8239 22.1852 10.8032 22.2822 10.763C22.3793 10.7228 22.4675 10.6639 22.5418 10.5896C22.616 10.5153 22.675 10.4271 22.7152 10.33C22.7554 10.233 22.7761 10.129 22.7761 10.0239ZM19.3601 15.9999C19.3601 15.7877 19.2758 15.5842 19.1258 15.4342C18.9757 15.2842 18.7722 15.1999 18.5601 15.1999H10.8801C10.6679 15.1999 10.4644 15.2842 10.3144 15.4342C10.1644 15.5842 10.0801 15.7877 10.0801 15.9999C10.0801 16.2121 10.1644 16.4156 10.3144 16.5656C10.4644 16.7156 10.6679 16.7999 10.8801 16.7999H18.5601C18.7722 16.7999 18.9757 16.7156 19.1258 16.5656C19.2758 16.4156 19.3601 16.2121 19.3601 15.9999Z" fill="black"/>
</svg>
