<svg width="32" height="32" viewBox="0 0 32 32" fill="none" xmlns="http://www.w3.org/2000/svg">
<path d="M3.20002 16.7999H18.152V17.9679C18.152 18.1801 18.2363 18.3836 18.3863 18.5336C18.5364 18.6836 18.7399 18.7679 18.952 18.7679C19.1642 18.7679 19.3677 18.6836 19.5177 18.5336C19.6677 18.3836 19.752 18.1801 19.752 17.9679V14.0319C19.752 13.8198 19.6677 13.6163 19.5177 13.4662C19.3677 13.3162 19.1642 13.2319 18.952 13.2319C18.7399 13.2319 18.5364 13.3162 18.3863 13.4662C18.2363 13.6163 18.152 13.8198 18.152 14.0319V15.1999H3.20002C2.98785 15.1999 2.78437 15.2842 2.63434 15.4342C2.48431 15.5843 2.40002 15.7878 2.40002 15.9999C2.40002 16.2121 2.48431 16.4156 2.63434 16.5656C2.78437 16.7156 2.98785 16.7999 3.20002 16.7999Z" fill="black"/>
<path d="M28.7999 15.2002H22.8959C22.6838 15.2002 22.4803 15.2845 22.3303 15.4345C22.1802 15.5845 22.0959 15.788 22.0959 16.0002C22.0959 16.2124 22.1802 16.4159 22.3303 16.5659C22.4803 16.7159 22.6838 16.8002 22.8959 16.8002H28.7999C29.0121 16.8002 29.2156 16.7159 29.3656 16.5659C29.5157 16.4159 29.5999 16.2124 29.5999 16.0002C29.5999 15.788 29.5157 15.5845 29.3656 15.4345C29.2156 15.2845 29.0121 15.2002 28.7999 15.2002Z" fill="black"/>
<path d="M28.8 26.032H13.848V24.864C13.848 24.6518 13.7638 24.4483 13.6137 24.2983C13.4637 24.1482 13.2602 24.064 13.048 24.064C12.8359 24.064 12.6324 24.1482 12.4824 24.2983C12.3323 24.4483 12.248 24.6518 12.248 24.864V28.8C12.248 29.0121 12.3323 29.2156 12.4824 29.3657C12.6324 29.5157 12.8359 29.6 13.048 29.6C13.2602 29.6 13.4637 29.5157 13.6137 29.3657C13.7638 29.2156 13.848 29.0121 13.848 28.8V27.632H28.8C29.0122 27.632 29.2157 27.5477 29.3657 27.3977C29.5158 27.2476 29.6 27.0441 29.6 26.832C29.6 26.6198 29.5158 26.4163 29.3657 26.2663C29.2157 26.1163 29.0122 26.032 28.8 26.032Z" fill="black"/>
<path d="M9.10402 26.0322H3.20002C2.98785 26.0322 2.78437 26.1165 2.63434 26.2665C2.48431 26.4166 2.40002 26.6201 2.40002 26.8322C2.40002 27.0444 2.48431 27.2479 2.63434 27.3979C2.78437 27.5479 2.98785 27.6322 3.20002 27.6322H9.10402C9.3162 27.6322 9.51968 27.5479 9.66971 27.3979C9.81974 27.2479 9.90403 27.0444 9.90403 26.8322C9.90403 26.6201 9.81974 26.4166 9.66971 26.2665C9.51968 26.1165 9.3162 26.0322 9.10402 26.0322Z" fill="black"/>
<path d="M13.048 7.9359C13.2602 7.9359 13.4637 7.85162 13.6137 7.70159C13.7638 7.55156 13.848 7.34808 13.848 7.1359V5.9679H28.8C29.0122 5.9679 29.2157 5.88362 29.3657 5.73359C29.5158 5.58356 29.6 5.38008 29.6 5.1679C29.6 4.95573 29.5158 4.75225 29.3657 4.60222C29.2157 4.45219 29.0122 4.3679 28.8 4.3679H13.848V3.1999C13.848 2.98773 13.7638 2.78425 13.6137 2.63422C13.4637 2.48419 13.2602 2.3999 13.048 2.3999C12.8359 2.3999 12.6324 2.48419 12.4824 2.63422C12.3323 2.78425 12.248 2.98773 12.248 3.1999V7.1359C12.248 7.34808 12.3323 7.55156 12.4824 7.70159C12.6324 7.85162 12.8359 7.9359 13.048 7.9359Z" fill="black"/>
<path d="M3.20002 5.96816H9.10402C9.3162 5.96816 9.51968 5.88388 9.66971 5.73385C9.81974 5.58382 9.90403 5.38034 9.90403 5.16816C9.90403 4.95599 9.81974 4.75251 9.66971 4.60248C9.51968 4.45245 9.3162 4.36816 9.10402 4.36816H3.20002C2.98785 4.36816 2.78437 4.45245 2.63434 4.60248C2.48431 4.75251 2.40002 4.95599 2.40002 5.16816C2.40002 5.38034 2.48431 5.58382 2.63434 5.73385C2.78437 5.88388 2.98785 5.96816 3.20002 5.96816Z" fill="black"/>
</svg>
