<svg width="32" height="32" viewBox="0 0 32 32" fill="none" xmlns="http://www.w3.org/2000/svg">
<path d="M24.296 26.288C24.5052 26.311 24.715 26.2506 24.88 26.12C25.048 26.04 25.128 25.8 25.216 25.64L25.384 24.52C25.384 24.28 25.552 24.12 25.8 23.96L26.888 23.48C27.0644 23.3925 27.2096 23.2529 27.304 23.08C27.3493 22.9896 27.366 22.8876 27.3517 22.7875C27.3374 22.6874 27.2928 22.5941 27.224 22.52L26.632 21.48C26.5517 21.2742 26.5517 21.0458 26.632 20.84L27.224 19.8C27.2896 19.621 27.3169 19.4302 27.304 19.24C27.2692 19.1463 27.2138 19.0617 27.1417 18.9925C27.0697 18.9232 26.983 18.8711 26.888 18.84L25.72 18.28C25.464 18.2 25.384 17.96 25.296 17.72L25.128 16.592C25.1145 16.492 25.0778 16.3965 25.0209 16.3132C24.9639 16.2298 24.8883 16.1609 24.8 16.112C24.6213 16.0118 24.4208 15.9569 24.216 15.952L23.04 16.112C22.918 16.134 22.7923 16.1234 22.6757 16.0813C22.5591 16.0391 22.4557 15.9669 22.376 15.872L21.576 15.072C21.449 14.9294 21.2706 14.8431 21.08 14.832C20.9828 14.8282 20.8862 14.848 20.7984 14.8898C20.7106 14.9316 20.6343 14.9942 20.576 15.072L19.776 15.872C19.5895 16.0326 19.35 16.1181 19.104 16.112L17.864 16C17.6559 15.9748 17.4462 16.0322 17.28 16.16C17.112 16.24 17.024 16.48 16.944 16.64L16.8 17.8C16.8 18.04 16.632 18.2 16.384 18.36L15.296 18.84C15.1196 18.9275 14.9744 19.0672 14.88 19.24C14.8297 19.3291 14.8103 19.4323 14.8248 19.5336C14.8393 19.6349 14.8868 19.7285 14.96 19.8L15.544 20.84C15.5881 20.9409 15.6108 21.0499 15.6108 21.16C15.6108 21.2701 15.5881 21.3791 15.544 21.48L14.96 22.52C14.8944 22.699 14.8671 22.8898 14.88 23.08C14.9148 23.1737 14.9702 23.2583 15.0423 23.3276C15.1143 23.3968 15.201 23.4489 15.296 23.48L16.384 23.96C16.632 24.04 16.72 24.28 16.8 24.52L16.968 25.64C16.983 25.7406 17.0211 25.8363 17.0794 25.9196C17.1377 26.0029 17.2146 26.0715 17.304 26.12C17.4816 26.2239 17.6824 26.2817 17.888 26.288L19.056 26.12C19.18 26.0974 19.3077 26.1085 19.4259 26.1522C19.5441 26.1958 19.6484 26.2703 19.728 26.368L20.528 27.168C20.6585 27.3104 20.8392 27.3965 21.032 27.408C21.1279 27.4112 21.2232 27.391 21.3096 27.3492C21.396 27.3074 21.471 27.2452 21.528 27.168L22.328 26.368C22.5083 26.2015 22.7467 26.1124 22.992 26.12L24.296 26.288ZM21.04 25.488C19.8497 25.5033 18.701 25.0509 17.8408 24.2281C16.9806 23.4053 16.4776 22.2778 16.44 21.088C16.4895 19.9023 16.9953 18.7815 17.8518 17.96C18.7083 17.1385 19.8492 16.6798 21.036 16.6798C22.2228 16.6798 23.3637 17.1385 24.2202 17.96C25.0767 18.7815 25.5825 19.9023 25.632 21.088C25.6195 21.6781 25.4908 22.26 25.2532 22.8002C25.0155 23.3405 24.6736 23.8286 24.2471 24.2366C23.8205 24.6445 23.3177 24.9644 22.7674 25.1777C22.2171 25.3911 21.6301 25.4938 21.04 25.48V25.488Z" fill="black"/>
<path d="M21.04 18.44C20.539 18.462 20.0555 18.6306 19.6495 18.9248C19.2435 19.2191 18.9329 19.6262 18.7562 20.0955C18.5795 20.5648 18.5445 21.0756 18.6556 21.5646C18.7666 22.0536 19.0189 22.4992 19.381 22.8461C19.743 23.193 20.199 23.4259 20.6923 23.516C21.1856 23.606 21.6945 23.5492 22.1558 23.3526C22.6171 23.156 23.0105 22.8282 23.2871 22.41C23.5638 21.9917 23.7115 21.5015 23.712 21C23.6952 20.3069 23.4047 19.6485 22.9041 19.1688C22.4034 18.6892 21.7332 18.4271 21.04 18.44V18.44Z" fill="black"/>
<path d="M19.112 26.608L17.864 26.768C17.703 26.8105 17.5337 26.8108 17.3725 26.7687C17.2113 26.7267 17.0637 26.6438 16.944 26.528C16.6888 26.3274 16.5108 26.0448 16.44 25.728L16.36 25.008L14.184 27.096C14.1286 27.1447 14.0908 27.2102 14.0763 27.2825C14.0619 27.3547 14.0716 27.4298 14.104 27.496C14.1265 27.567 14.1714 27.6287 14.232 27.672C14.2926 27.7153 14.3656 27.7377 14.44 27.736L15.776 27.976L16.024 29.256C16.024 29.416 16.192 29.496 16.272 29.576C16.3427 29.6056 16.4206 29.6138 16.496 29.5996C16.5714 29.5854 16.6409 29.5493 16.696 29.496L19.448 26.776L19.28 26.616L19.112 26.608Z" fill="black"/>
<path d="M12.344 24.8H6.496C6.28383 24.8 6.08034 24.7157 5.93031 24.5657C5.78029 24.4157 5.696 24.2122 5.696 24V4.8C5.696 4.58783 5.78029 4.38434 5.93031 4.23431C6.08034 4.08428 6.28383 4 6.496 4H22.4C22.6122 4 22.8157 4.08428 22.9657 4.23431C23.1157 4.38434 23.2 4.58783 23.2 4.8V13.6C23.2 13.8196 23.2872 14.0302 23.4425 14.1855C23.5978 14.3408 23.8084 14.428 24.028 14.428C24.2476 14.428 24.4582 14.3408 24.6135 14.1855C24.7688 14.0302 24.856 13.8196 24.856 13.6V4.8C24.8393 4.15904 24.5735 3.54982 24.1149 3.1017C23.6564 2.65358 23.0412 2.40186 22.4 2.4H6.496C5.84793 2.39136 5.22255 2.63842 4.75535 3.08765C4.28816 3.53687 4.01678 4.15209 4 4.8V24C4.01678 24.6479 4.28816 25.2631 4.75535 25.7123C5.22255 26.1616 5.84793 26.4086 6.496 26.4H12.344C12.5625 26.4 12.7721 26.3132 12.9267 26.1587C13.0812 26.0041 13.168 25.7945 13.168 25.576C13.168 25.3575 13.0812 25.1479 12.9267 24.9933C12.7721 24.8388 12.5625 24.752 12.344 24.752V24.8Z" fill="black"/>
<path d="M19.856 8.00001C19.856 7.78784 19.7717 7.58436 19.6217 7.43433C19.4717 7.2843 19.2682 7.20001 19.056 7.20001H9.84001C9.62147 7.20001 9.41188 7.28683 9.25735 7.44136C9.10282 7.59589 9.01601 7.80547 9.01601 8.02401C9.01601 8.24255 9.10282 8.45214 9.25735 8.60667C9.41188 8.7612 9.62147 8.84801 9.84001 8.84801H19.032C19.1432 8.85155 19.254 8.83185 19.3571 8.79017C19.4603 8.74849 19.5537 8.68573 19.6312 8.60593C19.7088 8.52612 19.7688 8.43101 19.8075 8.32668C19.8462 8.22235 19.8627 8.11109 19.856 8.00001Z" fill="black"/>
<path d="M9.84001 12C9.62147 12 9.41188 12.0868 9.25735 12.2413C9.10282 12.3959 9.01601 12.6055 9.01601 12.824C9.01601 13.0425 9.10282 13.2521 9.25735 13.4067C9.41188 13.5612 9.62147 13.648 9.84001 13.648H15.688C15.9065 13.648 16.1161 13.5612 16.2707 13.4067C16.4252 13.2521 16.512 13.0425 16.512 12.824C16.512 12.6055 16.4252 12.3959 16.2707 12.2413C16.1161 12.0868 15.9065 12 15.688 12H9.84001Z" fill="black"/>
<path d="M27.88 26.928L25.712 24.848L25.6 25.6C25.5365 25.9178 25.3604 26.2019 25.104 26.4C24.9834 26.5145 24.8358 26.5965 24.6749 26.6385C24.514 26.6805 24.3451 26.681 24.184 26.64L22.928 26.48H22.76L22.592 26.64L25.352 29.36C25.4053 29.4136 25.4734 29.4499 25.5477 29.4642C25.6219 29.4785 25.6986 29.47 25.768 29.44C25.856 29.36 26.016 29.28 26.016 29.12L26.272 27.84L27.608 27.6C27.776 27.6 27.856 27.52 27.944 27.36C27.985 27.2917 28.001 27.2113 27.9893 27.1326C27.9777 27.0538 27.939 26.9815 27.88 26.928V26.928Z" fill="black"/>
</svg>
