<svg width="32" height="32" viewBox="0 0 32 32" fill="none" xmlns="http://www.w3.org/2000/svg">
<path d="M26.616 22.7201C25.264 18.8801 22.72 16.3201 19.416 15.2481C20.1593 14.715 20.7648 14.0124 21.1822 13.1985C21.5996 12.3845 21.8169 11.4828 21.816 10.5681C21.816 9.02134 21.2015 7.53795 20.1078 6.44424C19.0141 5.35053 17.5307 4.73608 15.984 4.73608C14.4372 4.73608 12.9538 5.35053 11.8601 6.44424C10.7664 7.53795 10.152 9.02134 10.152 10.5681C10.1511 11.4828 10.3683 12.3845 10.7857 13.1985C11.2031 14.0124 11.8086 14.715 12.552 15.2481C9.23997 16.2801 6.69597 18.8801 5.35197 22.7201C5.17576 23.2209 5.12373 23.757 5.20037 24.2823C5.27701 24.8076 5.48002 25.3065 5.79197 25.7361C6.11491 26.194 6.54434 26.5665 7.04328 26.8216C7.54221 27.0766 8.09567 27.2065 8.65597 27.2001H23.344C23.8989 27.2013 24.4459 27.069 24.9389 26.8141C25.4318 26.5593 25.8561 26.1895 26.176 25.7361C26.4879 25.3065 26.6909 24.8076 26.7676 24.2823C26.8442 23.757 26.7922 23.2209 26.616 22.7201ZM11.768 10.5681C11.7569 9.72878 11.9956 8.90513 12.4538 8.20185C12.912 7.49857 13.569 6.94744 14.3413 6.61853C15.1135 6.28961 15.9661 6.19777 16.7907 6.35469C17.6153 6.5116 18.3746 6.91018 18.9721 7.49974C19.5695 8.08931 19.9782 8.84323 20.1461 9.66565C20.314 10.4881 20.2335 11.3418 19.9149 12.1184C19.5963 12.895 19.054 13.5592 18.3569 14.0268C17.6597 14.4943 16.8394 14.744 16 14.7441C14.8853 14.7505 13.8137 14.3143 13.0202 13.5314C12.2268 12.7485 11.7764 11.6827 11.768 10.5681ZM24.872 24.8001C24.7001 25.0462 24.4715 25.2473 24.2056 25.3865C23.9397 25.5258 23.6441 25.599 23.344 25.6001H8.65597C8.3558 25.599 8.06028 25.5258 7.79435 25.3865C7.52842 25.2473 7.29987 25.0462 7.12797 24.8001C6.95984 24.5735 6.85063 24.3086 6.81014 24.0293C6.76964 23.7501 6.79914 23.4651 6.89597 23.2001C7.79997 20.6241 10.184 16.2961 16 16.2961C21.816 16.2961 24.2 20.6241 25.104 23.2001C25.2008 23.4651 25.2303 23.7501 25.1898 24.0293C25.1493 24.3086 25.0401 24.5735 24.872 24.8001Z" fill="black"/>
</svg>
