<svg width="32" height="32" viewBox="0 0 32 32" fill="none" xmlns="http://www.w3.org/2000/svg">
<path d="M27.096 2.3999H8.32002C7.99119 2.3999 7.66558 2.46467 7.36179 2.59051C7.05799 2.71635 6.78195 2.90079 6.54943 3.13331C6.07984 3.6029 5.81602 4.2398 5.81602 4.9039V6.6639H4.80002C4.1635 6.6639 3.55306 6.91676 3.10297 7.36685C2.65288 7.81693 2.40002 8.42738 2.40002 9.0639V27.1999C2.40002 27.8364 2.65288 28.4469 3.10297 28.897C3.55306 29.347 4.1635 29.5999 4.80002 29.5999H22.936C23.5725 29.5999 24.183 29.347 24.6331 28.897C25.0832 28.4469 25.336 27.8364 25.336 27.1999V24.4799H27.096C27.7595 24.4778 28.3952 24.2133 28.8643 23.7442C29.3334 23.275 29.5979 22.6394 29.6 21.9759V4.9039C29.5979 4.24045 29.3334 3.60477 28.8643 3.13564C28.3952 2.6665 27.7595 2.40201 27.096 2.3999ZM23.736 27.1999C23.736 27.4121 23.6517 27.6156 23.5017 27.7656C23.3517 27.9156 23.1482 27.9999 22.936 27.9999H4.80002C4.58785 27.9999 4.38437 27.9156 4.23434 27.7656C4.08431 27.6156 4.00002 27.4121 4.00002 27.1999V9.0639C4.00002 8.85173 4.08431 8.64825 4.23434 8.49822C4.38437 8.34819 4.58785 8.2639 4.80002 8.2639H22.936C23.1482 8.2639 23.3517 8.34819 23.5017 8.49822C23.6517 8.64825 23.736 8.85173 23.736 9.0639V27.1999ZM28 21.9759C27.9979 22.215 27.902 22.4437 27.7329 22.6128C27.5639 22.7819 27.3351 22.8778 27.096 22.8799H25.336V9.0639C25.336 8.42738 25.0832 7.81693 24.6331 7.36685C24.183 6.91676 23.5725 6.6639 22.936 6.6639H7.41602V4.9039C7.41602 4.66415 7.51127 4.43421 7.6808 4.26468C7.85033 4.09514 8.08027 3.9999 8.32002 3.9999H27.096C27.3351 4.00199 27.5639 4.0979 27.7329 4.26699C27.902 4.43607 27.9979 4.66479 28 4.9039V21.9759Z" fill="black"/>
<path d="M19.4159 22.0239H8.3199C8.10772 22.0239 7.90424 22.1082 7.75421 22.2582C7.60418 22.4083 7.5199 22.6118 7.5199 22.8239C7.5199 23.0361 7.60418 23.2396 7.75421 23.3896C7.90424 23.5396 8.10772 23.6239 8.3199 23.6239H19.4159C19.6281 23.6239 19.8316 23.5396 19.9816 23.3896C20.1316 23.2396 20.2159 23.0361 20.2159 22.8239C20.2159 22.6118 20.1316 22.4083 19.9816 22.2582C19.8316 22.1082 19.6281 22.0239 19.4159 22.0239Z" fill="black"/>
<path d="M8.3199 17.6559H15.9999C16.2121 17.6559 16.4156 17.5716 16.5656 17.4216C16.7156 17.2716 16.7999 17.0681 16.7999 16.8559C16.7999 16.6437 16.7156 16.4403 16.5656 16.2902C16.4156 16.1402 16.2121 16.0559 15.9999 16.0559H8.3199C8.10772 16.0559 7.90424 16.1402 7.75421 16.2902C7.60418 16.4403 7.5199 16.6437 7.5199 16.8559C7.5199 17.0681 7.60418 17.2716 7.75421 17.4216C7.90424 17.5716 8.10772 17.6559 8.3199 17.6559Z" fill="black"/>
</svg>
