<svg width="32" height="32" viewBox="0 0 32 32" fill="none" xmlns="http://www.w3.org/2000/svg">
<path d="M11.688 6.79984C9.8719 6.81563 8.1011 7.36859 6.59873 8.38906C5.09636 9.40952 3.92963 10.8518 3.24556 12.5342C2.56148 14.2166 2.39067 16.0639 2.75463 17.8432C3.1186 19.6225 4.00107 21.2543 5.29084 22.533C6.58061 23.8116 8.21998 24.6799 10.0024 25.0285C11.7848 25.377 13.6305 25.1902 15.3069 24.4916C16.9833 23.793 18.4155 22.6138 19.4229 21.1027C20.4303 19.5915 20.9679 17.816 20.968 15.9998C20.9532 13.5505 19.9682 11.207 18.2288 9.48255C16.4893 7.75813 14.1373 6.79344 11.688 6.79984ZM11.688 23.5998C10.1884 23.5841 8.72693 23.1249 7.48768 22.2803C6.24844 21.4357 5.28679 20.2433 4.72381 18.8532C4.16083 17.4632 4.02169 15.9377 4.32391 14.4687C4.62613 12.9998 5.3562 11.6531 6.42219 10.5982C7.48819 9.54329 8.84246 8.82737 10.3145 8.54054C11.7865 8.25372 13.3105 8.40883 14.6946 8.98633C16.0786 9.56383 17.2609 10.5379 18.0925 11.7859C18.9241 13.034 19.3679 14.5001 19.368 15.9998C19.3553 18.0254 18.5395 19.9633 17.0997 21.3881C15.6599 22.8129 13.7136 23.6084 11.688 23.5998Z" fill="black"/>
<path d="M15.824 16.9358L12.488 15.4798V11.2878C12.488 11.0756 12.4037 10.8721 12.2537 10.7221C12.1037 10.5721 11.9002 10.4878 11.688 10.4878C11.4758 10.4878 11.2723 10.5721 11.1223 10.7221C10.9723 10.8721 10.888 11.0756 10.888 11.2878V15.9998C10.8875 16.1559 10.9326 16.3088 11.0179 16.4396C11.1032 16.5704 11.2249 16.6733 11.368 16.7358L15.2 18.3998C15.3 18.4473 15.4093 18.4719 15.52 18.4718C15.705 18.4733 15.8847 18.4107 16.0287 18.2946C16.1727 18.1785 16.272 18.0161 16.3097 17.835C16.3474 17.6539 16.3213 17.4654 16.2356 17.3014C16.15 17.1375 16.0102 17.0083 15.84 16.9358H15.824Z" fill="black"/>
<path d="M28.296 19.7038H23.856C23.6438 19.7038 23.4403 19.6195 23.2903 19.4695C23.1403 19.3195 23.056 19.116 23.056 18.9038C23.056 18.6916 23.1403 18.4881 23.2903 18.3381C23.4403 18.1881 23.6438 18.1038 23.856 18.1038H28.296C28.5082 18.1038 28.7116 18.1881 28.8617 18.3381C29.0117 18.4881 29.096 18.6916 29.096 18.9038C29.096 19.116 29.0117 19.3195 28.8617 19.4695C28.7116 19.6195 28.5082 19.7038 28.296 19.7038ZM29.6 7.5998C29.6 7.38763 29.5157 7.18415 29.3657 7.03412C29.2156 6.88409 29.0122 6.7998 28.8 6.7998H20.168C19.9558 6.7998 19.7523 6.88409 19.6023 7.03412C19.4523 7.18415 19.368 7.38763 19.368 7.5998C19.368 7.81198 19.4523 8.01546 19.6023 8.16549C19.7523 8.31552 19.9558 8.39981 20.168 8.39981H28.8C29.0122 8.39981 29.2156 8.31552 29.3657 8.16549C29.5157 8.01546 29.6 7.81198 29.6 7.5998ZM29.096 13.2478C29.096 13.0356 29.0117 12.8321 28.8617 12.6821C28.7116 12.5321 28.5082 12.4478 28.296 12.4478H23.536C23.3238 12.4478 23.1203 12.5321 22.9703 12.6821C22.8203 12.8321 22.736 13.0356 22.736 13.2478C22.736 13.46 22.8203 13.6635 22.9703 13.8135C23.1203 13.9635 23.3238 14.0478 23.536 14.0478H28.296C28.5082 14.0478 28.7116 13.9635 28.8617 13.8135C29.0117 13.6635 29.096 13.46 29.096 13.2478Z" fill="black"/>
</svg>
