<svg width="32" height="32" viewBox="0 0 32 32" fill="none" xmlns="http://www.w3.org/2000/svg">
<path d="M13.112 25.6002C13.1123 25.8043 13.0347 26.0008 12.8949 26.1496C12.7551 26.2983 12.5637 26.388 12.36 26.4002H10.856C10.4167 26.4015 9.9817 26.3143 9.57685 26.1439C9.17201 25.9735 8.80562 25.7233 8.49953 25.4083C8.19345 25.0932 7.95393 24.7198 7.79525 24.3102C7.63658 23.9006 7.562 23.4632 7.57597 23.0242V18.3282C7.57597 17.4402 7.15197 16.6722 6.28797 16.6722C6.10974 16.6722 5.93882 16.6014 5.81279 16.4754C5.68677 16.3494 5.61597 16.1784 5.61597 16.0002C5.61597 15.822 5.68677 15.651 5.81279 15.525C5.93882 15.399 6.10974 15.3282 6.28797 15.3282C7.15197 15.3282 7.57597 14.5282 7.57597 13.6722V9.0002C7.56207 8.56004 7.63652 8.12155 7.79492 7.71064C7.95332 7.29972 8.19246 6.92472 8.49822 6.60778C8.80397 6.29084 9.17014 6.03838 9.5751 5.86533C9.98006 5.69227 10.4156 5.60212 10.856 5.6002H12.36C12.3838 5.59681 12.4081 5.59681 12.432 5.6002C12.615 5.61925 12.7844 5.70543 12.9076 5.8421C13.0308 5.97876 13.0989 6.15622 13.0989 6.3402C13.0989 6.52418 13.0308 6.70164 12.9076 6.8383C12.7844 6.97497 12.615 7.06115 12.432 7.0802H12.336H10.856C10.6273 7.09424 10.4038 7.15402 10.1987 7.25601C9.99361 7.35799 9.81105 7.50009 9.66186 7.67391C9.51266 7.84772 9.39986 8.04971 9.33014 8.26791C9.26042 8.48611 9.2352 8.71608 9.25597 8.9442V13.8082C9.32554 14.247 9.25278 14.6965 9.04836 15.091C8.84394 15.4854 8.51859 15.8041 8.11997 16.0002C8.50693 16.1945 8.8236 16.5048 9.02581 16.8877C9.22801 17.2706 9.30568 17.707 9.24797 18.1362V23.0002C9.22942 23.2279 9.25619 23.457 9.32676 23.6743C9.39732 23.8916 9.51027 24.0927 9.65906 24.266C9.80785 24.4394 9.98954 24.5815 10.1936 24.6842C10.3977 24.7868 10.6201 24.848 10.848 24.8642H12.352C12.5465 24.8733 12.7311 24.9531 12.871 25.0886C13.0109 25.2241 13.0966 25.406 13.112 25.6002ZM19.64 7.1282H21.144C21.3718 7.14437 21.5942 7.20556 21.7983 7.30823C22.0024 7.41091 22.1841 7.55303 22.3329 7.72637C22.4817 7.89972 22.5946 8.10085 22.6652 8.31812C22.7357 8.5354 22.7625 8.76451 22.744 8.9922V13.8562C22.6852 14.2875 22.7632 14.7264 22.967 15.111C23.1708 15.4956 23.4901 15.8066 23.88 16.0002C23.493 16.1945 23.1763 16.5048 22.9741 16.8877C22.7719 17.2706 22.6943 17.707 22.752 18.1362V23.0002C22.7727 23.2283 22.7475 23.4583 22.6778 23.6765C22.6081 23.8947 22.4953 24.0967 22.3461 24.2705C22.1969 24.4443 22.0143 24.5864 21.8092 24.6884C21.6041 24.7904 21.3806 24.8502 21.152 24.8642H19.64H19.544C19.361 24.8833 19.1915 24.9694 19.0684 25.1061C18.9452 25.2428 18.877 25.4202 18.877 25.6042C18.877 25.7882 18.9452 25.9656 19.0684 26.1023C19.1915 26.239 19.361 26.3251 19.544 26.3442H19.616H21.12C21.5603 26.3423 21.9959 26.2521 22.4008 26.0791C22.8058 25.906 23.172 25.6536 23.4777 25.3366C23.7835 25.0197 24.0226 24.6447 24.181 24.2338C24.3394 23.8229 24.4139 23.3844 24.4 22.9442V18.3282C24.4 17.4402 24.824 16.6722 25.688 16.6722C25.8662 16.6722 26.0371 16.6014 26.1631 16.4754C26.2892 16.3494 26.36 16.1784 26.36 16.0002C26.36 15.822 26.2892 15.651 26.1631 15.525C26.0371 15.399 25.8662 15.3282 25.688 15.3282C24.824 15.3282 24.4 14.5282 24.4 13.6722V8.9762C24.4139 8.53919 24.34 8.10382 24.1828 7.69582C24.0257 7.28782 23.7883 6.91546 23.4848 6.60075C23.1812 6.28604 22.8177 6.03535 22.4157 5.8635C22.0136 5.69165 21.5812 5.60212 21.144 5.6002H19.64C19.4799 5.65281 19.3406 5.7546 19.2418 5.89107C19.143 6.02754 19.0898 6.19172 19.0898 6.3602C19.0898 6.52868 19.143 6.69286 19.2418 6.82933C19.3406 6.9658 19.4799 7.06759 19.64 7.1202V7.1282Z" fill="black"/>
</svg>
