<svg width="32" height="32" viewBox="0 0 32 32" fill="none" xmlns="http://www.w3.org/2000/svg">
<path d="M29.58 24.9L29.48 24.84C29.17 24.66 29 24.31 29.03 23.95C29.04 23.77 29.05 23.59 29.05 23.41C29.05 23.23 29.03 23.05 29.01 22.87C28.97 22.51 29.13 22.16 29.43 21.98L29.51 21.93C29.95 21.67 30.08 21.11 29.83 20.67L29.02 19.28C28.77 18.85 28.23 18.7 27.81 18.95L27.69 19.02C27.39 19.2 27.02 19.18 26.73 18.97C26.44 18.76 26.12 18.57 25.79 18.42C25.47 18.27 25.25 17.95 25.25 17.59V17.48C25.24 16.97 24.84 16.56 24.34 16.56H22.76C22.27 16.56 21.88 16.97 21.89 17.48V17.59C21.89 17.95 21.7 18.28 21.38 18.42C21.05 18.57 20.74 18.76 20.46 18.97C20.18 19.18 19.81 19.2 19.5 19.03L19.4 18.97C18.96 18.71 18.42 18.86 18.18 19.3L17.42 20.69C17.18 21.13 17.33 21.69 17.77 21.95L17.87 22.01C18.18 22.19 18.35 22.54 18.32 22.9C18.31 23.08 18.3 23.26 18.3 23.44C18.3 23.62 18.32 23.8 18.34 23.98C18.38 24.34 18.22 24.69 17.92 24.87L17.84 24.92C17.4 25.18 17.27 25.74 17.52 26.18L18.33 27.57C18.58 28 19.12 28.15 19.54 27.9L19.66 27.83C19.96 27.65 20.33 27.67 20.62 27.88C20.91 28.09 21.23 28.28 21.56 28.43C21.88 28.58 22.1 28.9 22.1 29.26V29.37C22.11 29.88 22.51 30.29 23.01 30.29H24.59C25.08 30.29 25.47 29.88 25.46 29.37V29.26C25.46 28.9 25.65 28.57 25.97 28.43C26.3 28.28 26.61 28.09 26.89 27.88C27.17 27.67 27.54 27.65 27.85 27.82L27.95 27.88C28.39 28.14 28.93 27.99 29.17 27.55L29.93 26.16C30.17 25.72 30.02 25.16 29.58 24.9ZM23.73 26.92C21.83 26.92 20.27 25.35 20.24 23.42C20.21 21.48 21.72 19.91 23.61 19.91C25.51 19.91 27.07 21.48 27.1 23.41C27.13 25.35 25.62 26.92 23.73 26.92Z" fill="black"/>
<path fill-rule="evenodd" clip-rule="evenodd" d="M15.0389 1.30466C15.2193 1.23175 15.4209 1.23178 15.6013 1.30474L27.9113 6.28474C28.1946 6.39935 28.38 6.67439 28.38 6.98V14.09C28.38 14.5042 28.0442 14.84 27.63 14.84C27.2158 14.84 26.88 14.5042 26.88 14.09V8.09246L16.07 12.4656V17.78C16.07 18.1942 15.7342 18.53 15.32 18.53C14.9058 18.53 14.57 18.1942 14.57 17.78V12.4658L3.75 8.09212V20.6944L14.1813 24.9147C14.5653 25.0701 14.7506 25.5073 14.5953 25.8913C14.4399 26.2753 14.0027 26.4606 13.6187 26.3053L2.71871 21.8953C2.43542 21.7806 2.25 21.5056 2.25 21.2V6.98C2.25 6.67431 2.43552 6.39922 2.71893 6.28466L15.0389 1.30466ZM5.00128 6.98L15.3199 11.151L25.6301 6.98L15.3199 2.809L5.00128 6.98Z" fill="black"/>
</svg>
