<svg width="32" height="32" viewBox="0 0 32 32" fill="none" xmlns="http://www.w3.org/2000/svg">
<path d="M13.6 14.4002H3.99995C3.78778 14.4002 3.5843 14.3159 3.43427 14.1659C3.28424 14.0159 3.19995 13.8124 3.19995 13.6002V4.0002C3.19995 3.78802 3.28424 3.58454 3.43427 3.43451C3.5843 3.28448 3.78778 3.2002 3.99995 3.2002H13.6C13.8121 3.2002 14.0156 3.28448 14.1656 3.43451C14.3157 3.58454 14.4 3.78802 14.4 4.0002V13.6002C14.4 13.8124 14.3157 14.0159 14.1656 14.1659C14.0156 14.3159 13.8121 14.4002 13.6 14.4002ZM4.79995 12.8002H12.8V4.8002H4.79995V12.8002Z" fill="black"/>
<path d="M28 14.4002H18.4C18.1878 14.4002 17.9843 14.3159 17.8343 14.1659C17.6843 14.0159 17.6 13.8124 17.6 13.6002V4.0002C17.6 3.78802 17.6843 3.58454 17.8343 3.43451C17.9843 3.28448 18.1878 3.2002 18.4 3.2002H28C28.2121 3.2002 28.4156 3.28448 28.5657 3.43451C28.7157 3.58454 28.8 3.78802 28.8 4.0002V13.6002C28.8 13.8124 28.7157 14.0159 28.5657 14.1659C28.4156 14.3159 28.2121 14.4002 28 14.4002ZM19.2 12.8002H27.2V4.8002H19.2V12.8002Z" fill="black"/>
<path d="M13.6 28.8001H3.99995C3.78778 28.8001 3.5843 28.7158 3.43427 28.5658C3.28424 28.4158 3.19995 28.2123 3.19995 28.0001V18.4001C3.19995 18.1879 3.28424 17.9844 3.43427 17.8344C3.5843 17.6844 3.78778 17.6001 3.99995 17.6001H13.6C13.8121 17.6001 14.0156 17.6844 14.1656 17.8344C14.3157 17.9844 14.4 18.1879 14.4 18.4001V28.0001C14.4 28.2123 14.3157 28.4158 14.1656 28.5658C14.0156 28.7158 13.8121 28.8001 13.6 28.8001ZM4.79995 27.2001H12.8V19.2001H4.79995V27.2001Z" fill="black"/>
<path d="M28 28.8001H18.4C18.1878 28.8001 17.9843 28.7158 17.8343 28.5658C17.6843 28.4158 17.6 28.2123 17.6 28.0001V18.4001C17.6 18.1879 17.6843 17.9844 17.8343 17.8344C17.9843 17.6844 18.1878 17.6001 18.4 17.6001H28C28.2121 17.6001 28.4156 17.6844 28.5657 17.8344C28.7157 17.9844 28.8 18.1879 28.8 18.4001V28.0001C28.8 28.2123 28.7157 28.4158 28.5657 28.5658C28.4156 28.7158 28.2121 28.8001 28 28.8001ZM19.2 27.2001H27.2V19.2001H19.2V27.2001Z" fill="black"/>
</svg>
