<svg width="32" height="32" viewBox="0 0 32 32" fill="none" xmlns="http://www.w3.org/2000/svg">
<path d="M27.9999 7.9999H22.4V5.5999C22.4 4.75121 22.0628 3.93728 21.4627 3.33716C20.8626 2.73704 20.0486 2.3999 19.2 2.3999H12.8C11.9513 2.3999 11.1373 2.73704 10.5372 3.33716C9.93709 3.93728 9.59995 4.75121 9.59995 5.5999V7.9999H3.99995C3.78778 7.9999 3.58429 8.08419 3.43427 8.23422C3.28424 8.38425 3.19995 8.58773 3.19995 8.7999C3.19995 9.01208 3.28424 9.21556 3.43427 9.36559C3.58429 9.51562 3.78778 9.5999 3.99995 9.5999H5.59995V26.3999C5.59995 27.2486 5.93709 28.0625 6.53721 28.6626C7.13733 29.2628 7.95126 29.5999 8.79995 29.5999H23.1999C24.0486 29.5999 24.8626 29.2628 25.4627 28.6626C26.0628 28.0625 26.3999 27.2486 26.3999 26.3999V9.5999H27.9999C28.2121 9.5999 28.4156 9.51562 28.5656 9.36559C28.7157 9.21556 28.7999 9.01208 28.7999 8.7999C28.7999 8.58773 28.7157 8.38425 28.5656 8.23422C28.4156 8.08419 28.2121 7.9999 27.9999 7.9999ZM11.2 5.5999C11.2 5.17556 11.3685 4.76859 11.6686 4.46853C11.9686 4.16847 12.3756 3.9999 12.8 3.9999H19.2C19.6243 3.9999 20.0313 4.16847 20.3313 4.46853C20.6314 4.76859 20.8 5.17556 20.8 5.5999V7.9999H11.2V5.5999ZM24.7999 26.3999C24.7999 26.8242 24.6314 27.2312 24.3313 27.5313C24.0313 27.8313 23.6243 27.9999 23.1999 27.9999H8.79995C8.3756 27.9999 7.96864 27.8313 7.66858 27.5313C7.36852 27.2312 7.19995 26.8242 7.19995 26.3999V9.5999H24.7999V26.3999Z" fill="black"/>
<path d="M12.8 13.6001C12.5878 13.6001 12.3843 13.6844 12.2343 13.8344C12.0843 13.9844 12 14.1879 12 14.4001V22.4001C12 22.6123 12.0843 22.8158 12.2343 22.9658C12.3843 23.1158 12.5878 23.2001 12.8 23.2001C13.0122 23.2001 13.2157 23.1158 13.3657 22.9658C13.5157 22.8158 13.6 22.6123 13.6 22.4001V14.4001C13.6 14.1879 13.5157 13.9844 13.3657 13.8344C13.2157 13.6844 13.0122 13.6001 12.8 13.6001Z" fill="black"/>
<path d="M19.2 13.6001C18.9879 13.6001 18.7844 13.6844 18.6343 13.8344C18.4843 13.9844 18.4 14.1879 18.4 14.4001V22.4001C18.4 22.6123 18.4843 22.8158 18.6343 22.9658C18.7844 23.1158 18.9879 23.2001 19.2 23.2001C19.4122 23.2001 19.6157 23.1158 19.7657 22.9658C19.9157 22.8158 20 22.6123 20 22.4001V14.4001C20 14.1879 19.9157 13.9844 19.7657 13.8344C19.6157 13.6844 19.4122 13.6001 19.2 13.6001Z" fill="black"/>
</svg>
