<svg width="32" height="32" viewBox="0 0 32 32" fill="none" xmlns="http://www.w3.org/2000/svg">
<path d="M30.296 4H1.72798C1.51581 4 1.31232 4.08429 1.16229 4.23431C1.01226 4.38434 0.927979 4.58783 0.927979 4.8C0.927979 5.01217 1.01226 5.21566 1.16229 5.36569C1.31232 5.51571 1.51581 5.6 1.72798 5.6H3.99998V20.432C3.99783 20.9661 4.20684 21.4793 4.58147 21.8599C4.95609 22.2405 5.46596 22.4577 5.99998 22.464H14.112L9.43998 27.264C9.31078 27.4189 9.24484 27.6168 9.25535 27.8182C9.26586 28.0196 9.35204 28.2096 9.49666 28.3502C9.64127 28.4907 9.83363 28.5715 10.0352 28.5763C10.2369 28.5811 10.4329 28.5095 10.584 28.376L15.2 23.632V28.8C15.2 29.0122 15.2843 29.2157 15.4343 29.3657C15.5843 29.5157 15.7878 29.6 16 29.6C16.2122 29.6 16.4156 29.5157 16.5657 29.3657C16.7157 29.2157 16.8 29.0122 16.8 28.8V23.632L21.432 28.376C21.5831 28.5095 21.7791 28.5811 21.9807 28.5763C22.1823 28.5715 22.3747 28.4907 22.5193 28.3502C22.6639 28.2096 22.7501 28.0196 22.7606 27.8182C22.7711 27.6168 22.7052 27.4189 22.576 27.264L17.904 22.464H26.008C26.5413 22.4577 27.0503 22.2403 27.4237 21.8594C27.797 21.4786 28.0042 20.9653 28 20.432V5.6H30.288C30.5002 5.6 30.7036 5.51571 30.8537 5.36569C31.0037 5.21566 31.088 5.01217 31.088 4.8C31.088 4.58783 31.0037 4.38434 30.8537 4.23431C30.7036 4.08429 30.5002 4 30.288 4H30.296ZM26.4 20.432C26.4021 20.4866 26.3935 20.5412 26.3745 20.5925C26.3556 20.6438 26.3267 20.6908 26.2895 20.7309C26.2524 20.7711 26.2077 20.8035 26.158 20.8263C26.1083 20.8491 26.0546 20.8619 26 20.864H5.99998C5.94534 20.8619 5.89164 20.8491 5.84195 20.8263C5.79226 20.8035 5.74757 20.7711 5.71041 20.7309C5.67326 20.6908 5.64439 20.6438 5.62544 20.5925C5.60649 20.5412 5.59784 20.4866 5.59998 20.432V5.6H26.4V20.432Z" fill="black"/>
</svg>
