<svg width="32" height="32" viewBox="0 0 32 32" fill="none" xmlns="http://www.w3.org/2000/svg">
<path d="M26.9279 19.008H24.7519V16.36C24.7519 16.1478 24.6676 15.9444 24.5176 15.7943C24.3676 15.6443 24.1641 15.56 23.9519 15.56H16.8559V12.96H19.2559C19.4681 12.96 19.6716 12.8757 19.8216 12.7257C19.9716 12.5757 20.0559 12.3722 20.0559 12.16V5.76001C20.0559 5.54783 19.9716 5.34435 19.8216 5.19432C19.6716 5.04429 19.4681 4.96001 19.2559 4.96001H12.8559C12.6437 4.96001 12.4402 5.04429 12.2902 5.19432C12.1402 5.34435 12.0559 5.54783 12.0559 5.76001V12.16C12.0559 12.3722 12.1402 12.5757 12.2902 12.7257C12.4402 12.8757 12.6437 12.96 12.8559 12.96H15.2559V15.56H8.16791C7.95573 15.56 7.75225 15.6443 7.60222 15.7943C7.45219 15.9444 7.36791 16.1478 7.36791 16.36V19.008H5.18391C4.97173 19.008 4.76825 19.0923 4.61822 19.2423C4.46819 19.3924 4.38391 19.5958 4.38391 19.808V26.248C4.38391 26.4602 4.46819 26.6637 4.61822 26.8137C4.76825 26.9637 4.97173 27.048 5.18391 27.048H11.5839C11.7961 27.048 11.9996 26.9637 12.1496 26.8137C12.2996 26.6637 12.3839 26.4602 12.3839 26.248V19.848C12.3839 19.6358 12.2996 19.4324 12.1496 19.2823C11.9996 19.1323 11.7961 19.048 11.5839 19.048H8.96791V17.16H23.1519V19.008H20.4959C20.2837 19.008 20.0802 19.0923 19.9302 19.2423C19.7802 19.3924 19.6959 19.5958 19.6959 19.808V26.248C19.6959 26.4602 19.7802 26.6637 19.9302 26.8137C20.0802 26.9637 20.2837 27.048 20.4959 27.048H26.8959C27.1081 27.048 27.3116 26.9637 27.4616 26.8137C27.6116 26.6637 27.6959 26.4602 27.6959 26.248V19.848C27.7013 19.7423 27.6856 19.6365 27.6498 19.5369C27.614 19.4373 27.5588 19.3457 27.4874 19.2676C27.4159 19.1895 27.3297 19.1263 27.2337 19.0817C27.1376 19.0372 27.0337 19.0121 26.9279 19.008ZM13.6399 6.52001H18.4399V11.32H13.6399V6.52001ZM10.8239 25.448H6.02391V20.648H10.8239V25.448ZM26.1279 25.448H21.3279V20.648H26.1279V25.448Z" fill="black"/>
</svg>
