<svg width="32" height="32" viewBox="0 0 32 32" fill="none" xmlns="http://www.w3.org/2000/svg">
<path d="M28.5679 13.952L22.6079 7.99997C22.458 7.85097 22.2553 7.76733 22.0439 7.76733C21.8326 7.76733 21.6298 7.85097 21.4799 7.99997L15.5359 13.976C15.4619 14.0506 15.4032 14.139 15.3633 14.2363C15.3234 14.3335 15.3031 14.4377 15.3035 14.5428C15.3038 14.6479 15.3249 14.7519 15.3655 14.8489C15.4061 14.9459 15.4653 15.0339 15.5399 15.108C15.6145 15.182 15.703 15.2407 15.8002 15.2806C15.8975 15.3204 16.0016 15.3408 16.1067 15.3404C16.2119 15.34 16.3159 15.319 16.4128 15.2784C16.5098 15.2378 16.5979 15.1786 16.6719 15.104L21.2479 10.504V27.2C21.2479 27.4121 21.3322 27.6156 21.4822 27.7657C21.6323 27.9157 21.8357 28 22.0479 28C22.2601 28 22.4636 27.9157 22.6136 27.7657C22.7636 27.6156 22.8479 27.4121 22.8479 27.2V10.472L27.4399 15.08C27.514 15.1556 27.6024 15.2157 27.6999 15.2569C27.7974 15.2981 27.9021 15.3195 28.0079 15.32C28.1132 15.3206 28.2176 15.3004 28.315 15.2606C28.4125 15.2208 28.5012 15.1621 28.5759 15.088C28.6504 15.0131 28.7093 14.9242 28.7492 14.8264C28.7891 14.7286 28.8093 14.6239 28.8086 14.5183C28.8078 14.4127 28.7862 14.3083 28.7449 14.2111C28.7036 14.1139 28.6434 14.0258 28.5679 13.952Z" fill="black"/>
<path d="M13.328 26.3999H3.99995C3.78778 26.3999 3.5843 26.4842 3.43427 26.6342C3.28424 26.7842 3.19995 26.9877 3.19995 27.1999C3.19995 27.4121 3.28424 27.6156 3.43427 27.7656C3.5843 27.9156 3.78778 27.9999 3.99995 27.9999H13.328C13.5401 27.9999 13.7436 27.9156 13.8936 27.7656C14.0437 27.6156 14.128 27.4121 14.128 27.1999C14.128 26.9877 14.0437 26.7842 13.8936 26.6342C13.7436 26.4842 13.5401 26.3999 13.328 26.3999Z" fill="black"/>
<path d="M13.328 18.936H3.99995C3.78778 18.936 3.5843 19.0203 3.43427 19.1703C3.28424 19.3204 3.19995 19.5239 3.19995 19.736C3.19995 19.9482 3.28424 20.1517 3.43427 20.3017C3.5843 20.4518 3.78778 20.536 3.99995 20.536H13.328C13.5401 20.536 13.7436 20.4518 13.8936 20.3017C14.0437 20.1517 14.128 19.9482 14.128 19.736C14.128 19.5239 14.0437 19.3204 13.8936 19.1703C13.7436 19.0203 13.5401 18.936 13.328 18.936Z" fill="black"/>
<path d="M13.328 11.4639H3.99995C3.78778 11.4639 3.5843 11.5482 3.43427 11.6982C3.28424 11.8482 3.19995 12.0517 3.19995 12.2639C3.19995 12.476 3.28424 12.6795 3.43427 12.8296C3.5843 12.9796 3.78778 13.0639 3.99995 13.0639H13.328C13.5401 13.0639 13.7436 12.9796 13.8936 12.8296C14.0437 12.6795 14.128 12.476 14.128 12.2639C14.128 12.0517 14.0437 11.8482 13.8936 11.6982C13.7436 11.5482 13.5401 11.4639 13.328 11.4639Z" fill="black"/>
<path d="M3.99995 5.6H27.448C27.6601 5.6 27.8636 5.51571 28.0136 5.36569C28.1637 5.21566 28.248 5.01217 28.248 4.8C28.248 4.58783 28.1637 4.38434 28.0136 4.23431C27.8636 4.08429 27.6601 4 27.448 4H3.99995C3.78778 4 3.58429 4.08429 3.43427 4.23431C3.28424 4.38434 3.19995 4.58783 3.19995 4.8C3.19995 5.01217 3.28424 5.21566 3.43427 5.36569C3.58429 5.51571 3.78778 5.6 3.99995 5.6Z" fill="black"/>
</svg>
