<svg width="32" height="32" viewBox="0 0 32 32" fill="none" xmlns="http://www.w3.org/2000/svg">
<path d="M6.31205 29.6001C6.16875 29.5957 6.03207 29.5387 5.92805 29.4401C5.80683 29.3492 5.7139 29.2258 5.66008 29.0841C5.60627 28.9425 5.59377 28.7885 5.62405 28.6401L7.85605 14.2881C7.95305 13.5592 8.31161 12.8904 8.86496 12.4063C9.41832 11.9221 10.1288 11.6555 10.8641 11.6561H19.8081L20.3441 8.54406H18.9601C18.8382 8.55012 18.717 8.52368 18.6087 8.46745C18.5005 8.41122 18.4091 8.32722 18.3441 8.22406C18.2618 8.14197 18.2034 8.03902 18.1752 7.92627C18.147 7.81352 18.1501 7.69522 18.1841 7.58406L18.8801 3.04006C18.9175 2.85664 19.018 2.69215 19.1642 2.57521C19.3103 2.45827 19.4929 2.39629 19.6801 2.40007H23.3761C23.8209 2.40048 24.2599 2.50143 24.6603 2.69538C25.0606 2.88932 25.412 3.17124 25.6881 3.52007C25.9713 3.86042 26.1808 4.25586 26.3034 4.68137C26.4259 5.10687 26.4589 5.55318 26.4001 5.99206L25.0481 14.6081C25.0481 14.8401 24.8961 15.0001 24.6641 15.1601L16.6641 20.4241C16.5369 20.5035 16.39 20.5457 16.2401 20.5457C16.0901 20.5457 15.9432 20.5035 15.8161 20.4241L12.0001 17.3921C11.9121 17.3339 11.8365 17.259 11.7776 17.1716C11.7187 17.0842 11.6777 16.986 11.6569 16.8826C11.6361 16.7793 11.6359 16.6729 11.6563 16.5695C11.6768 16.466 11.7175 16.3677 11.7761 16.2801C11.8265 16.1894 11.8956 16.1105 11.9787 16.0484C12.0618 15.9864 12.1571 15.9426 12.2583 15.9199C12.3595 15.8972 12.4644 15.8962 12.566 15.9169C12.6677 15.9377 12.7638 15.9796 12.8481 16.0401C12.8693 16.0401 12.8896 16.0485 12.9046 16.0635C12.9196 16.0785 12.9281 16.0988 12.9281 16.1201L16.3201 18.8321L23.6481 14.0321L24.8961 5.83206C24.9343 5.6159 24.9193 5.39368 24.8524 5.1846C24.7855 4.97552 24.6687 4.78588 24.5121 4.63206C24.1995 4.32004 23.7908 4.12271 23.3521 4.07206H20.2721L19.8081 7.02406H21.2721C21.3796 7.01423 21.4879 7.02816 21.5895 7.06489C21.691 7.10162 21.7832 7.16023 21.8595 7.23657C21.9359 7.31292 21.9945 7.40512 22.0312 7.50665C22.0679 7.60818 22.0819 7.71655 22.0721 7.82406V8.00006L21.2721 12.7041C21.2347 12.8875 21.1341 13.052 20.9879 13.1689C20.8418 13.2859 20.6592 13.3478 20.4721 13.3441H10.7841C10.4333 13.367 10.0999 13.5048 9.83528 13.7361C9.57067 13.9675 9.3896 14.2795 9.32005 14.6241L7.39205 27.2001L10.5521 25.0481C10.7121 24.9681 10.7841 24.8881 10.9441 24.8881H20.7281C21.0802 24.8668 21.4155 24.7298 21.6817 24.4983C21.9479 24.2668 22.1301 23.9539 22.2001 23.6081L22.6561 20.1761C22.6783 19.9709 22.7789 19.7823 22.937 19.6496C23.095 19.517 23.2982 19.4505 23.5041 19.4641C23.8961 19.4641 24.2001 19.9441 24.2001 20.3361L23.7361 23.7681C23.639 24.4969 23.2805 25.1657 22.7271 25.6499C22.1738 26.1341 21.4633 26.4007 20.7281 26.4001H11.2001L6.69605 29.4401C6.59382 29.5414 6.45602 29.5988 6.31205 29.6001Z" fill="black"/>
</svg>
