<svg width="32" height="32" viewBox="0 0 32 32" fill="none" xmlns="http://www.w3.org/2000/svg">
<path d="M27.2001 3.19988H24.8001C24.407 3.19621 24.0191 3.28912 23.6703 3.47046C23.3216 3.6518 23.0228 3.91601 22.8001 4.23988C22.0138 3.58199 21.0251 3.21475 20.0001 3.19988H19.6961H8.49605C7.38363 3.16392 6.2967 3.53749 5.44143 4.24973C4.58615 4.96196 4.02203 5.96333 3.85605 7.06388C3.62405 8.60788 3.05605 11.8639 2.74405 13.7039C2.40005 15.7359 2.40005 15.7359 2.40005 15.7919C2.31116 17.2268 2.73977 18.646 3.60805 19.7919C4.0307 20.2698 4.5563 20.6455 5.14525 20.8908C5.73419 21.1361 6.37112 21.2445 7.00805 21.2079H11.2001V23.9919C11.1756 24.7081 11.3058 25.4212 11.5819 26.0825C11.8581 26.7438 12.2735 27.3377 12.8001 27.8239C13.7203 28.5124 14.8522 28.8577 16.0001 28.7999C16.5365 28.7977 17.0718 28.7496 17.6001 28.6559C17.67 28.6468 17.7378 28.6251 17.8001 28.5919C17.8514 28.5718 17.8998 28.5449 17.9441 28.5119C18.2617 28.3652 18.5329 28.1337 18.7276 27.843C18.9224 27.5523 19.0332 27.2135 19.0481 26.8639V22.5519C19.0481 22.4479 19.1441 20.0639 22.5521 19.2079H22.6641L22.7921 19.1519C23.0644 19.0328 23.3054 18.852 23.4961 18.6239C23.8786 18.8677 24.3224 18.998 24.7761 18.9999H27.1761C27.8126 18.9999 28.423 18.747 28.8731 18.2969C29.3232 17.8469 29.5761 17.2364 29.5761 16.5999V5.59988C29.5761 4.9675 29.3265 4.36066 28.8816 3.91126C28.4367 3.46185 27.8324 3.20621 27.2001 3.19988ZM22.1761 17.6399H22.104C18.424 18.5839 17.4481 21.2399 17.4481 22.5119V26.7759C17.442 26.8339 17.4201 26.8892 17.3849 26.9358C17.3496 26.9823 17.3023 27.0183 17.2481 27.0399H17.1921C15.6881 27.2719 14.5841 27.0879 13.8721 26.5119C13.5275 26.1916 13.254 25.8024 13.0693 25.3697C12.8846 24.937 12.7929 24.4703 12.8001 23.9999V20.3679C12.8001 20.1557 12.7158 19.9522 12.5657 19.8022C12.4157 19.6522 12.2122 19.5679 12.0001 19.5679H6.96005C6.57191 19.5995 6.18161 19.5442 5.81761 19.4058C5.45361 19.2674 5.1251 19.0494 4.85605 18.7679C4.24027 17.9449 3.93689 16.9298 4.00005 15.9039C4.00005 15.8239 4.05605 15.5199 4.32005 13.9679C4.70405 11.7519 5.21605 8.79988 5.44005 7.29588C5.54995 6.57678 5.92221 5.92382 6.48503 5.46293C7.04785 5.00203 7.76139 4.76584 8.48805 4.79988H19.6881H20.0001C20.7058 4.80405 21.3857 5.06578 21.9121 5.53588C22.2329 5.94068 22.4052 6.44335 22.4001 6.95988V16.5599V17.3599C22.3985 17.4246 22.3757 17.4871 22.3353 17.5377C22.2948 17.5882 22.2389 17.6241 22.1761 17.6399ZM28.0001 16.5599C28.0001 16.7721 27.9158 16.9755 27.7657 17.1256C27.6157 17.2756 27.4122 17.3599 27.2001 17.3599H24.8001C24.5879 17.3599 24.3844 17.2756 24.2344 17.1256C24.0843 16.9755 24.0001 16.7721 24.0001 16.5599V5.59988C24.0001 5.38771 24.0843 5.18423 24.2344 5.0342C24.3844 4.88417 24.5879 4.79988 24.8001 4.79988H27.2001C27.4122 4.79988 27.6157 4.88417 27.7657 5.0342C27.9158 5.18423 28.0001 5.38771 28.0001 5.59988V16.5599Z" fill="black"/>
</svg>
