<svg width="32" height="32" viewBox="0 0 32 32" fill="none" xmlns="http://www.w3.org/2000/svg">
<path d="M27.9999 18.3521C27.7878 18.3521 27.5843 18.4363 27.4343 18.5864C27.2842 18.7364 27.1999 18.9399 27.1999 19.1521V25.848C27.1968 26.1338 27.1374 26.4162 27.0252 26.679C26.9129 26.9418 26.75 27.1799 26.5457 27.3797C26.3414 27.5796 26.0997 27.7372 25.8345 27.8436C25.5693 27.9501 25.2857 28.0032 24.9999 28H6.99995C6.71419 28.0032 6.4306 27.9501 6.16538 27.8436C5.90017 27.7372 5.65851 27.5796 5.45422 27.3797C5.24993 27.1799 5.087 26.9418 4.97474 26.679C4.86248 26.4162 4.80309 26.1338 4.79995 25.848V19.1521C4.79995 18.9399 4.71567 18.7364 4.56564 18.5864C4.41561 18.4363 4.21212 18.3521 3.99995 18.3521C3.78778 18.3521 3.58429 18.4363 3.43427 18.5864C3.28424 18.7364 3.19995 18.9399 3.19995 19.1521V25.848C3.20309 26.3439 3.30388 26.8343 3.49655 27.2912C3.68922 27.7482 3.97 28.1627 4.32286 28.5111C4.67573 28.8595 5.09376 29.135 5.5531 29.3218C6.01244 29.5087 6.50408 29.6032 6.99995 29.6H24.9999C25.4958 29.6032 25.9875 29.5087 26.4468 29.3218C26.9061 29.135 27.3242 28.8595 27.677 28.5111C28.0299 28.1627 28.3107 27.7482 28.5034 27.2912C28.696 26.8343 28.7968 26.3439 28.7999 25.848V19.1521C28.7999 18.9399 28.7157 18.7364 28.5656 18.5864C28.4156 18.4363 28.2121 18.3521 27.9999 18.3521Z" fill="black"/>
<path d="M15.432 22.9679L15.488 23.0079C15.5496 23.058 15.6167 23.1009 15.688 23.1359C15.7837 23.1782 15.8873 23.2001 15.992 23.2001C16.0966 23.2001 16.2002 23.1782 16.296 23.1359C16.3672 23.1009 16.4343 23.058 16.496 23.0079L16.552 22.9679L22.544 17.0639C22.6189 16.9895 22.6784 16.9011 22.7191 16.8036C22.7597 16.7061 22.7806 16.6015 22.7806 16.4959C22.7806 16.3903 22.7597 16.2857 22.7191 16.1882C22.6784 16.0908 22.6189 16.0023 22.544 15.9279C22.3941 15.7789 22.1913 15.6953 21.98 15.6953C21.7686 15.6953 21.5658 15.7789 21.416 15.9279L16.8 20.4879V3.1999C16.8 2.98773 16.7157 2.78425 16.5656 2.63422C16.4156 2.48419 16.2121 2.3999 16 2.3999C15.7878 2.3999 15.5843 2.48419 15.4343 2.63422C15.2842 2.78425 15.2 2.98773 15.2 3.1999V20.4879L10.56 15.9199C10.4101 15.7709 10.2073 15.6873 9.99595 15.6873C9.7846 15.6873 9.58184 15.7709 9.43195 15.9199C9.35697 15.9943 9.29745 16.0828 9.25684 16.1802C9.21622 16.2777 9.19531 16.3823 9.19531 16.4879C9.19531 16.5935 9.21622 16.6981 9.25684 16.7956C9.29745 16.8931 9.35697 16.9815 9.43195 17.0559L15.432 22.9679Z" fill="black"/>
</svg>
