<svg width="1em" height="1em" viewBox="0 0 32 32" fill="none" xmlns="http://www.w3.org/2000/svg">
<path d="M14 8.5C14 9.60457 13.1046 10.5 12 10.5C10.8954 10.5 10 9.60457 10 8.5C10 7.39543 10.8954 6.5 12 6.5C13.1046 6.5 14 7.39543 14 8.5Z" fill="currentColor"/>
<path d="M14 16C14 17.1046 13.1046 18 12 18C10.8954 18 10 17.1046 10 16C10 14.8954 10.8954 14 12 14C13.1046 14 14 14.8954 14 16Z" fill="currentColor"/>
<path d="M14 23.5C14 24.6046 13.1046 25.5 12 25.5C10.8954 25.5 10 24.6046 10 23.5C10 22.3954 10.8954 21.5 12 21.5C13.1046 21.5 14 22.3954 14 23.5Z" fill="currentColor"/>
<path d="M22 8.5C22 9.60457 21.1046 10.5 20 10.5C18.8954 10.5 18 9.60457 18 8.5C18 7.39543 18.8954 6.5 20 6.5C21.1046 6.5 22 7.39543 22 8.5Z" fill="currentColor"/>
<path d="M22 16C22 17.1046 21.1046 18 20 18C18.8954 18 18 17.1046 18 16C18 14.8954 18.8954 14 20 14C21.1046 14 22 14.8954 22 16Z" fill="currentColor"/>
<path d="M22 23.5C22 24.6046 21.1046 25.5 20 25.5C18.8954 25.5 18 24.6046 18 23.5C18 22.3954 18.8954 21.5 20 21.5C21.1046 21.5 22 22.3954 22 23.5Z" fill="currentColor"/>
</svg>
