<svg width="32" height="32" viewBox="0 0 32 32" fill="none" xmlns="http://www.w3.org/2000/svg">
<path d="M26.92 7.76778L23.384 4.19978C23.0705 3.88202 22.6967 3.62993 22.2847 3.45823C21.8726 3.28653 21.4304 3.19867 20.984 3.19978C20.5373 3.19687 20.0947 3.2839 19.6823 3.45571C19.27 3.62751 18.8965 3.88056 18.584 4.19978L2.63202 20.2638C2.4899 20.4068 2.40704 20.5983 2.40002 20.7998V27.9998C2.40002 28.212 2.48431 28.4154 2.63434 28.5655C2.78437 28.7155 2.98785 28.7998 3.20002 28.7998H10.312C10.4179 28.7993 10.5226 28.7779 10.6201 28.7367C10.7176 28.6955 10.8059 28.6354 10.88 28.5598L26.88 12.3918C27.4922 11.7805 27.8395 10.953 27.847 10.088C27.8545 9.22289 27.5215 8.38956 26.92 7.76778ZM9.97602 27.1998H4.00002V21.1598L16 9.07978L21.856 15.2398L9.97602 27.1998ZM25.784 11.2638L22.968 14.1038L17.112 7.93578L19.712 5.31978C19.8779 5.15392 20.075 5.02257 20.292 4.93331C20.5089 4.84406 20.7414 4.79868 20.976 4.79978C21.212 4.79761 21.446 4.84248 21.6644 4.93177C21.8828 5.02105 22.0812 5.15295 22.248 5.31978L25.784 8.89578C25.9417 9.05 26.0671 9.23418 26.1526 9.4375C26.2382 9.64082 26.2822 9.85919 26.2822 10.0798C26.2822 10.3004 26.2382 10.5187 26.1526 10.7221C26.0671 10.9254 25.9417 11.1096 25.784 11.2638ZM29.6 27.9998C29.6 28.212 29.5157 28.4154 29.3657 28.5655C29.2157 28.7155 29.0122 28.7998 28.8 28.7998H17.424C17.2119 28.7998 17.0084 28.7155 16.8583 28.5655C16.7083 28.4154 16.624 28.212 16.624 27.9998C16.624 27.7876 16.7083 27.5841 16.8583 27.4341C17.0084 27.2841 17.2119 27.1998 17.424 27.1998H28.8C29.0122 27.1998 29.2157 27.2841 29.3657 27.4341C29.5157 27.5841 29.6 27.7876 29.6 27.9998Z" fill="black"/>
</svg>
