<svg width="32" height="32" viewBox="0 0 32 32" fill="none" xmlns="http://www.w3.org/2000/svg">
<path d="M27.2 8.3999H4.80002C4.1635 8.3999 3.55306 8.65276 3.10297 9.10285C2.65288 9.55293 2.40002 10.1634 2.40002 10.7999V21.1999C2.40002 21.8364 2.65288 22.4469 3.10297 22.897C3.55306 23.347 4.1635 23.5999 4.80002 23.5999H27.2C27.8365 23.5999 28.447 23.347 28.897 22.897C29.3471 22.4469 29.6 21.8364 29.6 21.1999V10.7999C29.6 10.1634 29.3471 9.55293 28.897 9.10285C28.447 8.65276 27.8365 8.3999 27.2 8.3999ZM28 21.1999C28 21.4121 27.9157 21.6156 27.7657 21.7656C27.6157 21.9156 27.4122 21.9999 27.2 21.9999H4.80002C4.58785 21.9999 4.38437 21.9156 4.23434 21.7656C4.08431 21.6156 4.00002 21.4121 4.00002 21.1999V10.7999C4.00002 10.5877 4.08431 10.3842 4.23434 10.2342C4.38437 10.0842 4.58785 9.9999 4.80002 9.9999H27.2C27.4122 9.9999 27.6157 10.0842 27.7657 10.2342C27.9157 10.3842 28 10.5877 28 10.7999V21.1999Z" fill="black"/>
<path d="M16 17.7039C16.8837 17.7039 17.6 16.941 17.6 15.9999C17.6 15.0588 16.8837 14.2959 16 14.2959C15.1163 14.2959 14.4 15.0588 14.4 15.9999C14.4 16.941 15.1163 17.7039 16 17.7039Z" fill="black"/>
<path d="M22.4 17.7039C23.2836 17.7039 24 16.941 24 15.9999C24 15.0588 23.2836 14.2959 22.4 14.2959C21.5163 14.2959 20.8 15.0588 20.8 15.9999C20.8 16.941 21.5163 17.7039 22.4 17.7039Z" fill="black"/>
<path d="M9.6 17.7039C10.4837 17.7039 11.2 16.941 11.2 15.9999C11.2 15.0588 10.4837 14.2959 9.6 14.2959C8.71634 14.2959 8 15.0588 8 15.9999C8 16.941 8.71634 17.7039 9.6 17.7039Z" fill="black"/>
</svg>
