<svg width="32" height="32" viewBox="0 0 32 32" fill="none" xmlns="http://www.w3.org/2000/svg">
<path d="M25.64 4.6879H22.792V3.1999C22.792 2.98773 22.7077 2.78425 22.5577 2.63422C22.4077 2.48419 22.2042 2.3999 21.992 2.3999C21.7798 2.3999 21.5763 2.48419 21.4263 2.63422C21.2763 2.78425 21.192 2.98773 21.192 3.1999V4.6879H10.848V3.1999C10.848 2.98773 10.7637 2.78425 10.6137 2.63422C10.4637 2.48419 10.2602 2.3999 10.048 2.3999C9.83583 2.3999 9.63235 2.48419 9.48232 2.63422C9.33229 2.78425 9.248 2.98773 9.248 3.1999V4.6879H6.4C5.34608 4.69844 4.33891 5.12452 3.5974 5.87352C2.85588 6.62253 2.43995 7.63393 2.44 8.6879V25.6399C2.44 26.7008 2.86143 27.7182 3.61158 28.4683C3.98301 28.8398 4.42397 29.1344 4.90927 29.3354C5.39457 29.5364 5.91472 29.6399 6.44 29.6399H25.64C26.7009 29.6399 27.7183 29.2185 28.4684 28.4683C29.2186 27.7182 29.64 26.7008 29.64 25.6399V8.6479C29.6295 7.59398 29.2034 6.58681 28.4544 5.8453C27.7054 5.10378 26.694 4.68785 25.64 4.6879ZM6.4 6.2879H9.28V7.7759C9.28 7.98808 9.36429 8.19156 9.51432 8.34159C9.66435 8.49162 9.86783 8.5759 10.08 8.5759C10.2922 8.5759 10.4957 8.49162 10.6457 8.34159C10.7957 8.19156 10.88 7.98808 10.88 7.7759V6.2879H21.192V7.7759C21.192 7.98808 21.2763 8.19156 21.4263 8.34159C21.5763 8.49162 21.7798 8.5759 21.992 8.5759C22.2042 8.5759 22.4077 8.49162 22.5577 8.34159C22.7077 8.19156 22.792 7.98808 22.792 7.7759V6.2879H25.64C26.2765 6.2879 26.887 6.54076 27.3371 6.99085C27.7871 7.44093 28.04 8.05138 28.04 8.6879V11.3919H4V8.6479C4.0105 8.01834 4.26798 7.41812 4.71693 6.97665C5.16589 6.53517 5.77035 6.28782 6.4 6.2879ZM25.64 27.9999H6.4C5.77044 27.9894 5.17022 27.7319 4.72875 27.283C4.28727 26.834 4.03992 26.2296 4.04 25.5999V12.9519H28V25.6399C27.9897 26.2626 27.7378 26.8569 27.2974 27.2973C26.857 27.7377 26.2627 27.9896 25.64 27.9999Z" fill="black"/>
<path d="M9.616 19.016C10.3229 19.016 10.896 18.4573 10.896 17.768C10.896 17.0788 10.3229 16.52 9.616 16.52C8.90907 16.52 8.336 17.0788 8.336 17.768C8.336 18.4573 8.90907 19.016 9.616 19.016Z" fill="black"/>
<path d="M16 16.5201C15.7546 16.5264 15.5166 16.6049 15.3156 16.7458C15.1146 16.8867 14.9596 17.0838 14.8701 17.3123C14.7805 17.5408 14.7603 17.7907 14.812 18.0306C14.8637 18.2706 14.985 18.4899 15.1608 18.6613C15.3365 18.8326 15.5589 18.9483 15.8001 18.994C16.0412 19.0396 16.2905 19.0131 16.5167 18.9177C16.7429 18.8224 16.9359 18.6625 17.0717 18.458C17.2075 18.2535 17.2799 18.0136 17.28 17.7681C17.2779 17.6021 17.2431 17.4382 17.1777 17.2856C17.1122 17.1331 17.0174 16.9949 16.8985 16.879C16.7796 16.7631 16.6391 16.6718 16.4849 16.6102C16.3308 16.5486 16.166 16.518 16 16.5201Z" fill="black"/>
<path d="M22.416 19.016C23.1229 19.016 23.696 18.4573 23.696 17.768C23.696 17.0788 23.1229 16.52 22.416 16.52C21.7091 16.52 21.136 17.0788 21.136 17.768C21.136 18.4573 21.7091 19.016 22.416 19.016Z" fill="black"/>
<path d="M13.032 21.5121C12.7847 21.5168 12.5442 21.5945 12.3409 21.7353C12.1375 21.8762 11.9802 22.0739 11.8888 22.3038C11.7975 22.5337 11.776 22.7854 11.8271 23.0275C11.8783 23.2695 11.9997 23.4911 12.1763 23.6643C12.3529 23.8376 12.5767 23.9548 12.8196 24.0014C13.0626 24.0479 13.3139 24.0217 13.542 23.926C13.7701 23.8303 13.9649 23.6693 14.1019 23.4633C14.2388 23.2573 14.3119 23.0154 14.312 22.7681C14.3109 22.6014 14.277 22.4366 14.212 22.2831C14.147 22.1296 14.0523 21.9905 13.9333 21.8738C13.8143 21.757 13.6735 21.665 13.5188 21.6029C13.3641 21.5408 13.1986 21.51 13.032 21.5121Z" fill="black"/>
<path d="M19.432 24.016C20.1389 24.016 20.712 23.4573 20.712 22.768C20.712 22.0788 20.1389 21.52 19.432 21.52C18.7251 21.52 18.152 22.0788 18.152 22.768C18.152 23.4573 18.7251 24.016 19.432 24.016Z" fill="black"/>
</svg>
