<svg width="32" height="32" viewBox="0 0 32 32" fill="none" xmlns="http://www.w3.org/2000/svg">
<path d="M17.744 29.6H13.088C12.8758 29.6 12.6723 29.5157 12.5223 29.3657C12.3723 29.2157 12.288 29.0122 12.288 28.8V19.36H9.6C9.38783 19.36 9.18435 19.2757 9.03432 19.1257C8.88429 18.9757 8.8 18.7722 8.8 18.56V13.44C8.8 13.2279 8.88429 13.0244 9.03432 12.8743C9.18435 12.7243 9.38783 12.64 9.6 12.64H12.288V9.60002C12.288 5.60002 15.264 2.40002 18.912 2.40002H22.4C22.6122 2.40002 22.8157 2.48431 22.9657 2.63434C23.1157 2.78437 23.2 2.98785 23.2 3.20002V8.32002C23.2 8.5322 23.1157 8.73568 22.9657 8.88571C22.8157 9.03574 22.6122 9.12002 22.4 9.12002H18.912C18.8009 9.13783 18.7009 9.1975 18.6325 9.28677C18.564 9.37604 18.5324 9.48814 18.544 9.60002V12.64H22.4C22.52 12.6376 22.639 12.6622 22.7482 12.712C22.8574 12.7618 22.9539 12.8355 23.0308 12.9277C23.1076 13.0199 23.1627 13.1282 23.192 13.2446C23.2213 13.361 23.224 13.4824 23.2 13.6L22.032 18.72C21.9914 18.9005 21.8894 19.0613 21.7436 19.1751C21.5977 19.2888 21.4169 19.3485 21.232 19.344H18.544V28.8C18.544 29.0122 18.4597 29.2157 18.3097 29.3657C18.1597 29.5157 17.9562 29.6 17.744 29.6ZM13.888 28H16.944V18.56C16.944 18.3479 17.0283 18.1444 17.1783 17.9943C17.3283 17.8443 17.5318 17.76 17.744 17.76H20.6L21.4 14.24H17.744C17.5318 14.24 17.3283 14.1557 17.1783 14.0057C17.0283 13.8557 16.944 13.6522 16.944 13.44V9.60002C16.9311 9.06376 17.1307 8.54414 17.4994 8.15448C17.8681 7.76483 18.3758 7.53676 18.912 7.52002H21.6V4.00002H18.912C16.144 4.00002 13.888 6.51202 13.888 9.60002V13.44C13.888 13.6522 13.8037 13.8557 13.6537 14.0057C13.5037 14.1557 13.3002 14.24 13.088 14.24H10.4V17.76H13.088C13.3002 17.76 13.5037 17.8443 13.6537 17.9943C13.8037 18.1444 13.888 18.3479 13.888 18.56V28Z" fill="black"/>
</svg>
