<svg width="32" height="32" viewBox="0 0 32 32" fill="none" xmlns="http://www.w3.org/2000/svg">
<path d="M14.52 27.2H5.46399C5.26257 27.1918 5.06477 27.1438 4.88197 27.0588C4.69918 26.9738 4.53501 26.8535 4.39893 26.7048C4.26284 26.556 4.15754 26.3819 4.08907 26.1923C4.0206 26.0026 3.99033 25.8014 3.99999 25.6V6.40001C3.99033 6.19866 4.0206 5.99738 4.08907 5.80777C4.15754 5.61817 4.26284 5.44398 4.39893 5.29526C4.53501 5.14653 4.69918 5.02621 4.88197 4.94121C5.06477 4.85621 5.26257 4.80822 5.46399 4.80001H23.624C23.8247 4.80925 24.0217 4.85799 24.2035 4.94344C24.3854 5.02889 24.5486 5.14937 24.6839 5.29799C24.8191 5.44661 24.9237 5.62045 24.9917 5.80955C25.0597 5.99865 25.0897 6.1993 25.08 6.40001V9.53601C25.08 9.74819 25.1643 9.95167 25.3143 10.1017C25.4643 10.2517 25.6678 10.336 25.88 10.336C26.0922 10.336 26.2956 10.2517 26.4457 10.1017C26.5957 9.95167 26.68 9.74819 26.68 9.53601V6.40001C26.6896 5.98921 26.6181 5.58055 26.4697 5.19737C26.3212 4.8142 26.0988 4.46403 25.815 4.16686C25.5312 3.86969 25.1916 3.63135 24.8157 3.46545C24.4397 3.29956 24.0348 3.20936 23.624 3.20001H5.46399C4.63362 3.2189 3.84465 3.56644 3.27023 4.16637C2.6958 4.76629 2.38283 5.5696 2.39999 6.40001V25.6C2.38283 26.4304 2.6958 27.2337 3.27023 27.8337C3.84465 28.4336 4.63362 28.7811 5.46399 28.8H14.52C14.7322 28.8 14.9356 28.7157 15.0857 28.5657C15.2357 28.4157 15.32 28.2122 15.32 28C15.32 27.7878 15.2357 27.5844 15.0857 27.4343C14.9356 27.2843 14.7322 27.2 14.52 27.2Z" fill="black"/>
<path d="M9.25599 20.552H14.272C14.4842 20.552 14.6877 20.4677 14.8377 20.3177C14.9877 20.1677 15.072 19.9642 15.072 19.752C15.072 19.5399 14.9877 19.3364 14.8377 19.1863C14.6877 19.0363 14.4842 18.952 14.272 18.952H9.25599C9.04382 18.952 8.84034 19.0363 8.69031 19.1863C8.54028 19.3364 8.45599 19.5399 8.45599 19.752C8.45599 19.9642 8.54028 20.1677 8.69031 20.3177C8.84034 20.4677 9.04382 20.552 9.25599 20.552V20.552Z" fill="black"/>
<path d="M9.25599 13.432H12.584C12.7962 13.432 12.9997 13.3477 13.1497 13.1977C13.2997 13.0476 13.384 12.8441 13.384 12.632C13.384 12.4198 13.2997 12.2163 13.1497 12.0663C12.9997 11.9163 12.7962 11.832 12.584 11.832H9.25599C9.04382 11.832 8.84034 11.9163 8.69031 12.0663C8.54028 12.2163 8.45599 12.4198 8.45599 12.632C8.45599 12.8441 8.54028 13.0476 8.69031 13.1977C8.84034 13.3477 9.04382 13.432 9.25599 13.432V13.432Z" fill="black"/>
<path d="M22.992 14.944C19.352 14.944 16.384 17.656 16.384 20.984C16.384 24.312 19.352 27.024 22.992 27.024C23.367 27.0228 23.7414 26.9934 24.112 26.936L26.616 28.536C26.7456 28.6163 26.8955 28.658 27.048 28.656C27.182 28.6566 27.3141 28.6236 27.432 28.56C27.5583 28.4909 27.6635 28.389 27.7367 28.2651C27.81 28.1412 27.8484 27.9999 27.848 27.856V25.08C28.3992 24.5491 28.8382 23.9131 29.1392 23.2095C29.4401 22.506 29.5968 21.7492 29.6 20.984C29.6 17.656 26.64 14.944 22.992 14.944ZM26.52 24.136C26.4347 24.2109 26.3663 24.3032 26.3194 24.4067C26.2725 24.5101 26.2481 24.6224 26.248 24.736V26.4L24.712 25.416C24.5832 25.3328 24.4333 25.2884 24.28 25.288C24.227 25.2801 24.173 25.2801 24.12 25.288C23.7485 25.3616 23.3707 25.3991 22.992 25.4C20.232 25.4 17.984 23.408 17.984 20.96C17.984 18.512 20.232 16.52 22.992 16.52C25.752 16.52 28 18.536 28 20.984C27.9941 21.5848 27.8589 22.1773 27.6035 22.7212C27.3481 23.2652 26.9786 23.7477 26.52 24.136Z" fill="black"/>
</svg>
