<svg width="32" height="32" viewBox="0 0 32 32" fill="none" xmlns="http://www.w3.org/2000/svg">
<path d="M18.8961 29.6C18.7742 29.6005 18.6538 29.5731 18.5441 29.52L12.7521 26.672C12.6175 26.606 12.5041 26.5035 12.4249 26.3762C12.3457 26.2489 12.3038 26.1019 12.3041 25.952V16.952L2.93611 6.06397C2.65927 5.74447 2.48036 5.35196 2.42077 4.93343C2.36118 4.51489 2.42344 4.08805 2.60011 3.70398C2.77922 3.31215 3.06789 2.98054 3.4313 2.74915C3.7947 2.51777 4.21731 2.39649 4.64811 2.39998H27.3521C27.7829 2.39649 28.2055 2.51777 28.5689 2.74915C28.9323 2.98054 29.221 3.31215 29.4001 3.70398C29.5852 4.09297 29.6521 4.52777 29.5924 4.95441C29.5326 5.38105 29.3489 5.78077 29.0641 6.10398L19.6961 16.952V28.8C19.6964 28.9359 19.662 29.0697 19.5962 29.1887C19.5304 29.3077 19.4354 29.4079 19.3201 29.48C19.1928 29.5589 19.0459 29.6005 18.8961 29.6ZM13.9041 25.456L18.0961 27.512V16.656C18.0961 16.4653 18.1642 16.2809 18.2881 16.136L27.8881 5.01598C27.9671 4.92994 28.0184 4.82221 28.0355 4.7067C28.0526 4.59119 28.0347 4.47321 27.9841 4.36798C27.9281 4.25013 27.8378 4.15196 27.725 4.0863C27.6122 4.02064 27.4823 3.99055 27.3521 3.99998H4.64811C4.52462 3.99853 4.4033 4.0324 4.29841 4.09759C4.19353 4.16279 4.10946 4.2566 4.05611 4.36798C4.00549 4.47321 3.98759 4.59119 4.0047 4.7067C4.02181 4.82221 4.07316 4.92994 4.15211 5.01598L13.7521 16.136C13.876 16.2809 13.9441 16.4653 13.9441 16.656L13.9041 25.456Z" fill="black"/>
</svg>
