<svg width="32" height="32" viewBox="0 0 32 32" fill="none" xmlns="http://www.w3.org/2000/svg">
<path d="M26.7201 3.7519C26.5767 3.68759 26.4175 3.66694 26.2624 3.69255C26.1073 3.71816 25.9632 3.78889 25.8481 3.8959C25.8481 3.8959 24.6321 4.9599 21.2001 4.9599C19.5009 4.87771 17.8346 4.4618 16.2961 3.7359C14.5692 2.9352 12.7019 2.48129 10.8001 2.3999C6.68805 2.3999 5.20005 3.7519 5.04005 3.9119C4.96446 3.98599 4.90432 4.07435 4.86312 4.17185C4.82193 4.26935 4.80049 4.37406 4.80005 4.4799V28.7999C4.80005 29.0121 4.88433 29.2156 5.03436 29.3656C5.18439 29.5156 5.38787 29.5999 5.60005 29.5999C5.81222 29.5999 6.0157 29.5156 6.16573 29.3656C6.31576 29.2156 6.40005 29.0121 6.40005 28.7999V20.2479C7.76397 19.5727 9.28099 19.2665 10.8001 19.3599C12.4992 19.4421 14.1656 19.858 15.7041 20.5839C17.431 21.3846 19.2983 21.8385 21.2001 21.9199C25.3121 21.9199 26.8001 20.5679 26.9601 20.4079C27.0357 20.3338 27.0958 20.2455 27.137 20.148C27.1782 20.0505 27.1997 19.9457 27.2001 19.8399V4.4799C27.1991 4.32513 27.1532 4.17397 27.068 4.04475C26.9828 3.91554 26.8619 3.81381 26.7201 3.7519ZM25.6001 19.4319C24.2362 20.1071 22.7191 20.4133 21.2001 20.3199C19.5009 20.2377 17.8346 19.8218 16.2961 19.0959C14.5692 18.2952 12.7019 17.8413 10.8001 17.7599C9.3016 17.7175 7.80866 17.9591 6.40005 18.4719V4.8719C7.76546 4.20217 9.28241 3.90154 10.8001 3.9999C12.4992 4.0821 14.1656 4.498 15.7041 5.2239C17.431 6.0246 19.2983 6.47852 21.2001 6.5599C22.6985 6.6023 24.1915 6.36071 25.6001 5.8479V19.4319Z" fill="black"/>
</svg>
