<svg width="32" height="32" viewBox="0 0 32 32" fill="none" xmlns="http://www.w3.org/2000/svg">
<path d="M8.13601 28.8C8.02877 28.7998 7.92266 28.778 7.82401 28.736C7.67941 28.6748 7.55603 28.5723 7.46925 28.4414C7.38247 28.3106 7.33613 28.157 7.33601 28V22.696H5.36001C4.57138 22.6897 3.81733 22.3714 3.26267 21.8107C2.70802 21.2501 2.39787 20.4927 2.4 19.704V6.19201C2.39787 5.40336 2.70802 4.64594 3.26267 4.08528C3.81733 3.52463 4.57138 3.20635 5.36001 3.20001H26.64C27.4286 3.20635 28.1827 3.52463 28.7373 4.08528C29.292 4.64594 29.6021 5.40336 29.6 6.19201V19.704C29.6021 20.4927 29.292 21.2501 28.7373 21.8107C28.1827 22.3714 27.4286 22.6897 26.64 22.696H14.944L8.68801 28.584C8.53845 28.724 8.34088 28.8013 8.13601 28.8V28.8ZM5.36001 4.80001C5.1793 4.8021 5.00078 4.83976 4.83464 4.91085C4.66849 4.98194 4.51797 5.08506 4.39168 5.21432C4.26539 5.34358 4.1658 5.49645 4.0986 5.66421C4.03139 5.83196 3.99789 6.01131 4.00001 6.19201V19.704C3.99789 19.8847 4.03139 20.0641 4.0986 20.2318C4.1658 20.3996 4.26539 20.5524 4.39168 20.6817C4.51797 20.811 4.66849 20.9141 4.83464 20.9852C5.00078 21.0563 5.1793 21.0939 5.36001 21.096H8.13601C8.34818 21.096 8.55166 21.1803 8.70169 21.3303C8.85172 21.4804 8.93601 21.6838 8.93601 21.896V26.152L14.08 21.352C14.2275 21.2139 14.4219 21.1367 14.624 21.136H26.624C26.8095 21.1362 26.9931 21.0988 27.1638 21.0262C27.3345 20.9536 27.4888 20.8472 27.6173 20.7134C27.7459 20.5796 27.846 20.4213 27.9118 20.2478C27.9775 20.0743 28.0076 19.8894 28 19.704V6.19201C28.0021 6.01131 27.9686 5.83196 27.9014 5.66421C27.8342 5.49645 27.7346 5.34358 27.6083 5.21432C27.482 5.08506 27.3315 4.98194 27.1654 4.91085C26.9992 4.83976 26.8207 4.8021 26.64 4.80001H5.36001Z" fill="black"/>
</svg>
