<svg width="32" height="32" viewBox="0 0 32 32" fill="none" xmlns="http://www.w3.org/2000/svg">
<path d="M16 2.3999C13.3102 2.3999 10.6808 3.19753 8.44428 4.69192C6.20777 6.1863 4.46462 8.31033 3.43527 10.7954C2.40592 13.2805 2.13659 16.015 2.66135 18.6531C3.18611 21.2913 4.48138 23.7146 6.38338 25.6166C8.28537 27.5186 10.7087 28.8138 13.3468 29.3386C15.9849 29.8633 18.7195 29.594 21.2045 28.5647C23.6896 27.5353 25.8136 25.7922 27.308 23.5557C28.8024 21.3191 29.6 18.6897 29.6 15.9999C29.6 12.393 28.1672 8.93374 25.6167 6.38325C23.0662 3.83276 19.607 2.3999 16 2.3999ZM16 27.9999C13.6267 27.9999 11.3066 27.2961 9.33319 25.9775C7.3598 24.659 5.82173 22.7848 4.91348 20.5921C4.00522 18.3994 3.76758 15.9866 4.23061 13.6588C4.69363 11.331 5.83652 9.19285 7.51475 7.51462C9.19298 5.83639 11.3312 4.6935 13.6589 4.23048C15.9867 3.76746 18.3995 4.0051 20.5922 4.91335C22.7849 5.8216 24.6591 7.35967 25.9777 9.33306C27.2962 11.3064 28 13.6265 28 15.9999C28 17.5758 27.6896 19.1362 27.0866 20.5921C26.4835 22.048 25.5996 23.3709 24.4853 24.4852C23.371 25.5995 22.0481 26.4834 20.5922 27.0865C19.1363 27.6895 17.5759 27.9999 16 27.9999Z" fill="black"/>
<path d="M11.3521 13.328C11.7429 13.328 12.125 13.2121 12.4499 12.995C12.7749 12.7778 13.0281 12.4692 13.1777 12.1082C13.3272 11.7471 13.3664 11.3498 13.2901 10.9665C13.2139 10.5832 13.0257 10.2311 12.7493 9.95473C12.473 9.67839 12.1209 9.49019 11.7376 9.41395C11.3543 9.3377 10.957 9.37683 10.5959 9.52639C10.2348 9.67595 9.92624 9.92922 9.70911 10.2542C9.49199 10.5791 9.3761 10.9612 9.3761 11.352C9.3782 11.8754 9.58707 12.3768 9.95718 12.7469C10.3273 13.117 10.8287 13.3259 11.3521 13.328Z" fill="black"/>
<path d="M20.648 9.37598C20.2572 9.37598 19.8751 9.49187 19.5502 9.70899C19.2252 9.92612 18.972 10.2347 18.8224 10.5958C18.6729 10.9569 18.6337 11.3542 18.71 11.7375C18.7862 12.1208 18.9744 12.4729 19.2508 12.7492C19.5271 13.0256 19.8792 13.2138 20.2625 13.29C20.6458 13.3663 21.0431 13.3271 21.4042 13.1776C21.7652 13.028 22.0739 12.7747 22.291 12.4498C22.5081 12.1248 22.624 11.7428 22.624 11.352C22.624 10.8279 22.4158 10.3253 22.0452 9.95473C21.6747 9.58416 21.1721 9.37598 20.648 9.37598Z" fill="black"/>
<path d="M21.848 18.1919C21.6475 18.1231 21.4279 18.1367 21.2374 18.2297C21.0469 18.3227 20.9011 18.4875 20.832 18.6879C20.4887 19.6969 19.8381 20.5732 18.9715 21.1937C18.105 21.8142 17.0659 22.1479 16 22.1479C14.9342 22.1479 13.8951 21.8142 13.0285 21.1937C12.1619 20.5732 11.5113 19.6969 11.168 18.6879C11.1005 18.4879 10.9566 18.3227 10.7678 18.2283C10.579 18.1339 10.3605 18.1179 10.16 18.1839C10.0601 18.2173 9.96768 18.2701 9.8882 18.3393C9.80872 18.4085 9.74369 18.4927 9.69686 18.5871C9.65003 18.6815 9.62231 18.7843 9.6153 18.8894C9.60829 18.9946 9.62212 19.1001 9.65601 19.1999C10.1081 20.5233 10.9628 21.6722 12.1004 22.4857C13.238 23.2992 14.6015 23.7366 16 23.7366C17.3985 23.7366 18.762 23.2992 19.8996 22.4857C21.0372 21.6722 21.8919 20.5233 22.344 19.1999C22.4104 19.0004 22.3955 18.7828 22.3027 18.5942C22.2099 18.4055 22.0465 18.261 21.848 18.1919Z" fill="black"/>
</svg>
