<svg width="32" height="32" viewBox="0 0 32 32" fill="none" xmlns="http://www.w3.org/2000/svg">
<path d="M28.6 19.3838H20.6L22.112 12.3358H28.8C29.0122 12.3358 29.2157 12.2515 29.3657 12.1015C29.5157 11.9514 29.6 11.748 29.6 11.5358C29.6 11.3236 29.5157 11.1201 29.3657 10.9701C29.2157 10.8201 29.0122 10.7358 28.8 10.7358H22.4L24 3.36778C24.0446 3.1556 24.003 2.93442 23.8845 2.75289C23.766 2.57135 23.5802 2.44433 23.368 2.39978C23.1559 2.35522 22.9347 2.39677 22.7531 2.5153C22.5716 2.63382 22.4446 2.8196 22.4 3.03178L20.8 10.7358H13.4L15 3.36778C15.0221 3.26272 15.0232 3.15435 15.0034 3.04884C14.9836 2.94334 14.9432 2.84277 14.8845 2.75289C14.8258 2.663 14.75 2.58555 14.6614 2.52496C14.5728 2.46438 14.4731 2.42184 14.368 2.39978C14.263 2.37772 14.1546 2.37656 14.0491 2.39638C13.9436 2.4162 13.843 2.45661 13.7531 2.5153C13.6632 2.57398 13.5858 2.6498 13.5252 2.73842C13.4646 2.82704 13.4221 2.92672 13.4 3.03178L11.752 10.7358H3.40002C3.18785 10.7358 2.98437 10.8201 2.83434 10.9701C2.68431 11.1201 2.60002 11.3236 2.60002 11.5358C2.60002 11.748 2.68431 11.9514 2.83434 12.1015C2.98437 12.2515 3.18785 12.3358 3.40002 12.3358H11.4L9.88802 19.3838H3.20002C2.98785 19.3838 2.78437 19.4681 2.63434 19.6181C2.48431 19.7681 2.40002 19.9716 2.40002 20.1838C2.40002 20.396 2.48431 20.5994 2.63434 20.7495C2.78437 20.8995 2.98785 20.9838 3.20002 20.9838H9.60003L7.92802 28.6318C7.90333 28.7359 7.89977 28.8438 7.91754 28.9493C7.93531 29.0548 7.97407 29.1557 8.0315 29.2459C8.08894 29.3362 8.16388 29.414 8.25191 29.4748C8.33994 29.5356 8.43928 29.5781 8.54402 29.5998H8.71202C8.89806 29.6039 9.07973 29.5431 9.22575 29.4277C9.37177 29.3124 9.47299 29.1497 9.51202 28.9678L11.224 20.9678H18.6L17 28.6158C16.9727 28.7198 16.9667 28.8284 16.9823 28.9348C16.9979 29.0413 17.0348 29.1435 17.0908 29.2354C17.1468 29.3272 17.2208 29.4069 17.3083 29.4695C17.3958 29.5321 17.495 29.5764 17.6 29.5998H17.768C17.9541 29.6039 18.1357 29.5431 18.2817 29.4277C18.4278 29.3124 18.529 29.1497 18.568 28.9678L20.28 20.9678H28.6C28.8122 20.9678 29.0157 20.8835 29.1657 20.7335C29.3157 20.5834 29.4 20.3799 29.4 20.1678C29.4 19.9556 29.3157 19.7521 29.1657 19.6021C29.0157 19.4521 28.8122 19.3678 28.6 19.3678V19.3838ZM11.552 19.3838L13.056 12.3358H20.44L18.928 19.3838H11.552Z" fill="black"/>
</svg>
