<svg width="32" height="32" viewBox="0 0 32 32" fill="none" xmlns="http://www.w3.org/2000/svg">
<path d="M16.264 28.552C16.1266 28.5516 15.9916 28.5158 15.872 28.448L15.456 28.208C15.2 28.064 9.056 24.536 5.536 19.136C3.584 16.16 2.984 13 3.848 10.224C4.2038 9.08053 4.80574 8.02887 5.6115 7.14294C6.41727 6.25702 7.4073 5.55833 8.512 5.096C9.31339 4.7411 10.1796 4.55588 11.056 4.552C13.0211 4.63987 14.8808 5.46545 16.264 6.864C17.6472 5.46545 19.5069 4.63987 21.472 4.552C22.3431 4.55739 23.2038 4.74259 24 5.096C25.1056 5.55692 26.0964 6.25514 26.9023 7.14127C27.7083 8.02739 28.3097 9.07978 28.664 10.224C29.528 12.992 28.928 16.16 26.984 19.136C23.456 24.536 17.32 28.064 17.056 28.208L16.648 28.448C16.5308 28.5145 16.3987 28.5502 16.264 28.552ZM11.056 6.152C10.3999 6.15488 9.75163 6.29381 9.152 6.56C8.25931 6.93273 7.45885 7.496 6.80661 8.21043C6.15438 8.92485 5.66612 9.77316 5.376 10.696C4.664 13.008 5.192 15.696 6.872 18.264C10.184 23.336 16 26.68 16.248 26.824H16.288C16.528 26.68 22.344 23.336 25.656 18.264C27.336 15.696 27.872 13.008 27.152 10.696C26.8634 9.77241 26.3756 8.92338 25.7232 8.20875C25.0708 7.49413 24.2696 6.93132 23.376 6.56C22.7767 6.29292 22.1282 6.15395 21.472 6.152C19.36 6.152 17.672 7.648 16.856 8.552C16.7812 8.63488 16.6899 8.70118 16.5879 8.74665C16.486 8.79211 16.3756 8.81574 16.264 8.816C16.1524 8.81574 16.042 8.79211 15.9401 8.74665C15.8381 8.70118 15.7468 8.63488 15.672 8.552C14.856 7.648 13.176 6.152 11.056 6.152Z" fill="#010101"/>
</svg>
