<svg width="32" height="32" viewBox="0 0 32 32" fill="none" xmlns="http://www.w3.org/2000/svg">
<path d="M16 2.40002C13.3101 2.40002 10.6807 3.19765 8.44421 4.69204C6.20771 6.18642 4.46456 8.31045 3.43521 10.7955C2.40586 13.2806 2.13653 16.0151 2.66129 18.6533C3.18605 21.2914 4.48132 23.7147 6.38332 25.6167C8.28531 27.5187 10.7086 28.8139 13.3467 29.3387C15.9849 29.8635 18.7194 29.5941 21.2045 28.5648C23.6895 27.5354 25.8136 25.7923 27.308 23.5558C28.8023 21.3193 29.6 18.6899 29.6 16C29.6 12.3931 28.1671 8.93387 25.6166 6.38337C23.0661 3.83288 19.6069 2.40002 16 2.40002ZM16 28C13.6266 28 11.3065 27.2962 9.33313 25.9777C7.35974 24.6591 5.82167 22.7849 4.91342 20.5922C4.00516 18.3995 3.76752 15.9867 4.23055 13.6589C4.69357 11.3312 5.83646 9.19297 7.51469 7.51474C9.19292 5.83651 11.3311 4.69362 13.6589 4.2306C15.9867 3.76758 18.3995 4.00522 20.5922 4.91347C22.7849 5.82172 24.659 7.35979 25.9776 9.33318C27.2962 11.3066 28 13.6266 28 16C28 17.5759 27.6896 19.1363 27.0865 20.5922C26.4835 22.0481 25.5996 23.371 24.4853 24.4853C23.3709 25.5996 22.0481 26.4835 20.5922 27.0866C19.1363 27.6896 17.5758 28 16 28V28Z" fill="black"/>
<path d="M17.4401 9.05599C16.2783 8.64898 15.0026 8.71942 13.8928 9.25184C12.783 9.78426 11.9296 10.7352 11.5201 11.896C11.45 12.0965 11.4625 12.3166 11.5548 12.5079C11.6471 12.6992 11.8115 12.846 12.0121 12.916C12.2126 12.986 12.4327 12.9735 12.6239 12.8812C12.8152 12.789 12.962 12.6245 13.0321 12.424C13.3002 11.665 13.8585 11.0434 14.5843 10.6955C15.3102 10.3475 16.1444 10.3017 16.9041 10.568C17.498 10.778 18.0124 11.1669 18.3762 11.6812C18.7401 12.1955 18.9357 12.81 18.9361 13.44C18.9361 15.04 16.5361 16.216 15.6401 16.52C15.5833 16.546 15.5297 16.5782 15.4801 16.616L15.3761 16.68L15.2641 16.832C15.2409 16.8627 15.2195 16.8948 15.2001 16.928C15.1793 16.9825 15.1633 17.0387 15.1521 17.096C15.1489 17.1386 15.1489 17.1814 15.1521 17.224C15.1521 17.224 15.1521 17.224 15.1521 17.264V19.576C15.1521 19.7882 15.2363 19.9916 15.3864 20.1417C15.5364 20.2917 15.7399 20.376 15.9521 20.376C16.1642 20.376 16.3677 20.2917 16.5177 20.1417C16.6678 19.9916 16.7521 19.7882 16.7521 19.576V17.824C17.9281 17.32 20.5921 15.912 20.5921 13.44C20.5898 12.4717 20.2846 11.5284 19.7194 10.7423C19.1542 9.95613 18.3572 9.3665 17.4401 9.05599V9.05599Z" fill="black"/>
<path d="M15.432 21.832C15.3208 21.9441 15.2452 22.0867 15.2149 22.2417C15.1846 22.3967 15.2008 22.5572 15.2615 22.703C15.3223 22.8488 15.4248 22.9734 15.5562 23.061C15.6877 23.1486 15.8421 23.1954 16 23.1954C16.158 23.1954 16.3124 23.1486 16.4438 23.061C16.5752 22.9734 16.6777 22.8488 16.7385 22.703C16.7992 22.5572 16.8155 22.3967 16.7851 22.2417C16.7548 22.0867 16.6792 21.9441 16.568 21.832C16.413 21.6898 16.2104 21.6108 16 21.6108C15.7897 21.6108 15.587 21.6898 15.432 21.832V21.832Z" fill="black"/>
</svg>
