<svg width="32" height="32" viewBox="0 0 32 32" fill="none" xmlns="http://www.w3.org/2000/svg">
<path d="M21.392 9.8719C20.5747 9.13988 19.6168 8.582 18.5768 8.23228C17.5368 7.88256 16.4364 7.74833 15.3428 7.83776C14.2493 7.9272 13.1853 8.23843 12.216 8.75248C11.2466 9.26653 10.3921 9.97263 9.70454 10.8277C9.01698 11.6828 8.51078 12.669 8.21682 13.7261C7.92285 14.7832 7.84727 15.8892 7.99469 16.9764C8.1421 18.0637 8.50942 19.1096 9.07426 20.0503C9.63909 20.991 10.3896 21.8068 11.28 22.4479C11.5494 22.6449 11.7687 22.9025 11.9202 23.1999C12.0717 23.4973 12.1511 23.8261 12.152 24.1599C12.1541 24.7187 12.3776 25.2538 12.7734 25.6481C13.1693 26.0425 13.7053 26.2639 14.264 26.2639H17.768C18.3268 26.2639 18.8628 26.0425 19.2586 25.6481C19.6544 25.2538 19.8779 24.7187 19.88 24.1599C19.8784 23.8285 19.9551 23.5015 20.1039 23.2054C20.2526 22.9092 20.4692 22.6525 20.736 22.4559C21.7159 21.748 22.5247 20.8294 23.1028 19.7677C23.6809 18.706 24.0136 17.5282 24.0765 16.3209C24.1395 15.1137 23.931 13.9077 23.4664 12.7917C23.0018 11.6756 22.293 10.6779 21.392 9.8719ZM19.792 21.1599C19.3199 21.5046 18.9361 21.956 18.6719 22.4774C18.4077 22.9989 18.2707 23.5754 18.272 24.1599C18.2699 24.2943 18.215 24.4225 18.1193 24.5168C18.0235 24.6111 17.8944 24.6639 17.76 24.6639H14.264C14.1296 24.6639 14.0006 24.6111 13.9048 24.5168C13.809 24.4225 13.7541 24.2943 13.752 24.1599C13.7505 23.5739 13.6114 22.9965 13.346 22.474C13.0806 21.9516 12.6963 21.4987 12.224 21.1519C11.1659 20.3869 10.3635 19.3201 9.92205 18.0912C9.48063 16.8624 9.42073 15.5288 9.75022 14.2654C10.0797 13.0019 10.7832 11.8674 11.7685 11.0106C12.7539 10.1539 13.975 9.61473 15.272 9.4639C15.5214 9.43199 15.7726 9.41596 16.024 9.4159C17.6136 9.41169 19.1478 9.99915 20.328 11.0639C21.0509 11.7106 21.6196 12.5111 21.9923 13.4066C22.365 14.3021 22.5322 15.2697 22.4815 16.2383C22.4308 17.2069 22.1637 18.1519 21.6996 19.0036C21.2355 19.8553 20.5864 20.5922 19.8 21.1599H19.792ZM18.84 28.7999C18.84 29.0121 18.7557 29.2156 18.6057 29.3656C18.4557 29.5156 18.2522 29.5999 18.04 29.5999H13.6C13.3878 29.5999 13.1844 29.5156 13.0343 29.3656C12.8843 29.2156 12.8 29.0121 12.8 28.7999C12.8 28.5877 12.8843 28.3842 13.0343 28.2342C13.1844 28.0842 13.3878 27.9999 13.6 27.9999H18.072C18.2786 28.0082 18.4739 28.0961 18.6171 28.2452C18.7603 28.3944 18.8402 28.5932 18.84 28.7999ZM15.2 5.3839V3.1999C15.2 2.98773 15.2843 2.78425 15.4343 2.63422C15.5844 2.48419 15.7878 2.3999 16 2.3999C16.2122 2.3999 16.4157 2.48419 16.5657 2.63422C16.7157 2.78425 16.8 2.98773 16.8 3.1999V5.3839C16.8 5.59608 16.7157 5.79956 16.5657 5.94959C16.4157 6.09962 16.2122 6.1839 16 6.1839C15.7878 6.1839 15.5844 6.09962 15.4343 5.94959C15.2843 5.79956 15.2 5.59608 15.2 5.3839ZM28.8 15.1999C28.8 15.4121 28.7157 15.6156 28.5657 15.7656C28.4157 15.9156 28.2122 15.9999 28 15.9999H25.76C25.5478 15.9999 25.3444 15.9156 25.1943 15.7656C25.0443 15.6156 24.96 15.4121 24.96 15.1999C24.96 14.9877 25.0443 14.7842 25.1943 14.6342C25.3444 14.4842 25.5478 14.3999 25.76 14.3999H28C28.2122 14.3999 28.4157 14.4842 28.5657 14.6342C28.7157 14.7842 28.8 14.9877 28.8 15.1999ZM7.04001 15.1999C7.04001 15.4121 6.95573 15.6156 6.8057 15.7656C6.65567 15.9156 6.45219 15.9999 6.24001 15.9999H4.00001C3.78784 15.9999 3.58436 15.9156 3.43433 15.7656C3.2843 15.6156 3.20001 15.4121 3.20001 15.1999C3.20001 14.9877 3.2843 14.7842 3.43433 14.6342C3.58436 14.4842 3.78784 14.3999 4.00001 14.3999H6.24001C6.34507 14.3999 6.4491 14.4206 6.54616 14.4608C6.64322 14.501 6.73141 14.5599 6.8057 14.6342C6.87998 14.7085 6.93891 14.7967 6.97912 14.8938C7.01932 14.9908 7.04001 15.0948 7.04001 15.1999ZM22.4 8.7999C22.251 8.65001 22.1674 8.44725 22.1674 8.2359C22.1674 8.02455 22.251 7.82179 22.4 7.6719L24 6.0719C24.1499 5.9229 24.3527 5.83927 24.564 5.83927C24.7754 5.83927 24.9781 5.9229 25.128 6.0719C25.203 6.14627 25.2625 6.23475 25.3031 6.33224C25.3437 6.42973 25.3647 6.53429 25.3647 6.6399C25.3647 6.74551 25.3437 6.85008 25.3031 6.94756C25.2625 7.04505 25.203 7.13353 25.128 7.2079L23.528 8.8079C23.3771 8.95585 23.1737 9.03804 22.9624 9.03654C22.751 9.03505 22.5488 8.94997 22.4 8.7999ZM6.95201 7.1999C6.87795 7.12531 6.8193 7.03686 6.77941 6.93961C6.73953 6.84235 6.7192 6.73819 6.71957 6.63307C6.72032 6.42078 6.80537 6.21748 6.95601 6.0679C7.10665 5.91832 7.31055 5.83471 7.52284 5.83546C7.73513 5.83621 7.93843 5.92126 8.08801 6.0719L9.68801 7.6719C9.76299 7.74627 9.82251 7.83475 9.86313 7.93224C9.90374 8.02973 9.92465 8.13429 9.92465 8.2399C9.92465 8.34551 9.90374 8.45008 9.86313 8.54756C9.82251 8.64505 9.76299 8.73353 9.68801 8.8079C9.61326 8.88205 9.52461 8.94071 9.42714 8.98052C9.32967 9.02033 9.2253 9.04051 9.12001 9.0399C9.01417 9.03946 8.90946 9.01802 8.81196 8.97683C8.71446 8.93563 8.6261 8.87549 8.55201 8.7999L6.95201 7.1999ZM16.8 12.1039C16.8 12.209 16.7793 12.313 16.7391 12.41C16.6989 12.5071 16.64 12.5953 16.5657 12.6696C16.4914 12.7439 16.4032 12.8028 16.3062 12.843C16.2091 12.8832 16.1051 12.9039 16 12.9039C15.5966 12.907 15.1977 12.9896 14.8262 13.1469C14.4547 13.3042 14.1178 13.5331 13.8348 13.8206C13.5517 14.1081 13.3281 14.4485 13.1766 14.8225C13.0252 15.1964 12.9488 15.5965 12.952 15.9999C12.952 16.2121 12.8677 16.4156 12.7177 16.5656C12.5677 16.7156 12.3642 16.7999 12.152 16.7999C11.9398 16.7999 11.7364 16.7156 11.5863 16.5656C11.4363 16.4156 11.352 16.2121 11.352 15.9999C11.3489 15.3864 11.4666 14.7782 11.6984 14.2102C11.9303 13.6421 12.2718 13.1253 12.7034 12.6893C13.135 12.2532 13.6483 11.9064 14.2139 11.6687C14.7796 11.431 15.3865 11.307 16 11.3039C16.2122 11.3039 16.4157 11.3882 16.5657 11.5382C16.7157 11.6882 16.8 11.8917 16.8 12.1039Z" fill="black"/>
</svg>
