<svg width="32" height="32" viewBox="0 0 32 32" fill="none" xmlns="http://www.w3.org/2000/svg">
<path d="M16.0001 2.3999C13.3102 2.3999 10.6808 3.19753 8.44427 4.69192C6.20777 6.1863 4.46462 8.31033 3.43527 10.7954C2.40592 13.2805 2.13659 16.015 2.66135 18.6531C3.18611 21.2913 4.48138 23.7146 6.38338 25.6166C8.28537 27.5186 10.7087 28.8138 13.3468 29.3386C15.985 29.8633 18.7195 29.594 21.2046 28.5647C23.6896 27.5353 25.8137 25.7922 27.3081 23.5557C28.8024 21.3191 29.6001 18.6897 29.6001 15.9999C29.6001 12.393 28.1672 8.93374 25.6167 6.38325C23.0662 3.83276 19.607 2.3999 16.0001 2.3999ZM16.0001 27.9999C13.6267 27.9999 11.3066 27.2961 9.33319 25.9775C7.3598 24.659 5.82173 22.7848 4.91348 20.5921C4.00522 18.3994 3.76758 15.9866 4.23061 13.6588C4.69363 11.331 5.83652 9.19285 7.51475 7.51462C9.19298 5.83639 11.3312 4.6935 13.659 4.23048C15.9868 3.76746 18.3996 4.0051 20.5923 4.91335C22.785 5.8216 24.6591 7.35967 25.9777 9.33306C27.2963 11.3064 28.0001 13.6265 28.0001 15.9999C28.0001 17.5758 27.6897 19.1362 27.0866 20.5921C26.4836 22.048 25.5997 23.3709 24.4854 24.4852C23.371 25.5995 22.0482 26.4834 20.5923 27.0865C19.1364 27.6895 17.5759 27.9999 16.0001 27.9999Z" fill="black"/>
<path d="M16 15.2C15.7878 15.2 15.5844 15.2842 15.4343 15.4343C15.2843 15.5843 15.2 15.7878 15.2 16V21.12C15.2 21.3321 15.2843 21.5356 15.4343 21.6856C15.5844 21.8357 15.7878 21.92 16 21.92C16.2122 21.92 16.4157 21.8357 16.5657 21.6856C16.7157 21.5356 16.8 21.3321 16.8 21.12V16C16.8 15.7878 16.7157 15.5843 16.5657 15.4343C16.4157 15.2842 16.2122 15.2 16 15.2Z" fill="black"/>
<path d="M16.568 10.3121C16.4936 10.2371 16.4052 10.1776 16.3077 10.137C16.2102 10.0963 16.1056 10.0754 16 10.0754C15.8944 10.0754 15.7898 10.0963 15.6924 10.137C15.5949 10.1776 15.5064 10.2371 15.432 10.3121C15.3613 10.3898 15.3045 10.4791 15.264 10.5761C15.223 10.6723 15.2013 10.7755 15.2 10.8801C15.2 11.0923 15.2843 11.2957 15.4343 11.4458C15.5844 11.5958 15.7878 11.6801 16 11.6801C16.2122 11.6801 16.4157 11.5958 16.5657 11.4458C16.7157 11.2957 16.8 11.0923 16.8 10.8801C16.8027 10.7751 16.7808 10.671 16.736 10.5761C16.6955 10.4791 16.6387 10.3898 16.568 10.3121Z" fill="black"/>
</svg>
