<svg width="32" height="32" viewBox="0 0 32 32" fill="none" xmlns="http://www.w3.org/2000/svg">
<path d="M13.736 7.75194C14.4756 7.56378 15.237 7.475 16 7.48794C22.664 7.48794 26.944 14.3359 27.888 15.9999C27.2512 17.1337 26.5093 18.2051 25.672 19.1999C25.6042 19.2803 25.5529 19.3732 25.521 19.4734C25.4891 19.5736 25.4773 19.6791 25.4862 19.7838C25.4951 19.8886 25.5246 19.9906 25.5729 20.0839C25.6213 20.1773 25.6876 20.2602 25.768 20.3279C25.9157 20.4461 26.0989 20.5109 26.288 20.5119C26.4042 20.511 26.5187 20.4847 26.6237 20.435C26.7287 20.3852 26.8216 20.3132 26.896 20.2239C27.8988 19.037 28.773 17.7471 29.504 16.3759C29.5629 16.2622 29.5937 16.136 29.5937 16.0079C29.5937 15.8799 29.5629 15.7537 29.504 15.6399C29.32 15.2479 24.544 5.88794 16 5.88794C15.1166 5.88847 14.2361 5.99047 13.376 6.19194C13.1691 6.23968 12.9897 6.36764 12.8772 6.54767C12.7647 6.72771 12.7283 6.94507 12.776 7.15194C12.8237 7.35881 12.9517 7.53824 13.1317 7.65076C13.3118 7.76328 13.5291 7.79968 13.736 7.75194Z" fill="black"/>
<path d="M29.368 28.232L3.768 2.632C3.61736 2.48136 3.41304 2.39673 3.2 2.39673C2.98696 2.39673 2.78264 2.48136 2.632 2.632C2.48136 2.78264 2.39673 2.98696 2.39673 3.2C2.39673 3.41304 2.48136 3.61736 2.632 3.768L7.896 9.024C5.68467 10.8526 3.85054 13.0944 2.496 15.624C2.43709 15.7377 2.40634 15.8639 2.40634 15.992C2.40634 16.1201 2.43709 16.2463 2.496 16.36C2.688 16.752 7.464 26.112 16.024 26.112C18.4557 26.073 20.8226 25.322 22.832 23.952L28.24 29.368C28.3144 29.443 28.4029 29.5025 28.5003 29.5431C28.5978 29.5837 28.7024 29.6046 28.808 29.6046C28.9136 29.6046 29.0182 29.5837 29.1157 29.5431C29.2132 29.5025 29.3016 29.443 29.376 29.368C29.4505 29.2931 29.5094 29.2042 29.5493 29.1064C29.5892 29.0087 29.6094 28.9039 29.6086 28.7983C29.6079 28.6927 29.5863 28.5883 29.545 28.4911C29.5037 28.3939 29.4435 28.3058 29.368 28.232ZM13.6 14.728L17.264 18.4C16.884 18.6299 16.4518 18.7593 16.008 18.776C15.5277 18.7907 15.0523 18.6764 14.6312 18.4449C14.2101 18.2135 13.8587 17.8734 13.6137 17.4601C13.3686 17.0468 13.2388 16.5753 13.2378 16.0948C13.2368 15.6143 13.3647 15.1423 13.608 14.728H13.6ZM16 24.512C9.336 24.512 5.056 17.664 4.112 16C5.37617 13.7677 7.04772 11.7922 9.04 10.176L12.448 13.6C11.982 14.2379 11.702 14.9926 11.6391 15.7801C11.5762 16.5676 11.733 17.3572 12.0919 18.0609C12.4509 18.7647 12.9979 19.3552 13.6723 19.7667C14.3467 20.1782 15.122 20.3947 15.912 20.392H16.064C16.926 20.3713 17.762 20.0926 18.464 19.592L21.704 22.832C19.9971 23.9143 18.021 24.4963 16 24.512Z" fill="black"/>
</svg>
