<svg width="32" height="32" viewBox="0 0 32 32" fill="none" xmlns="http://www.w3.org/2000/svg">
<path d="M26.9601 10.312L19.2001 2.632C19.051 2.48421 18.8499 2.40088 18.64 2.4H8.24005C7.79298 2.39259 7.34887 2.47385 6.93339 2.63909C6.51791 2.80433 6.1393 3.05027 5.81943 3.3627C5.49956 3.67513 5.24479 4.04785 5.06982 4.45933C4.89485 4.87081 4.80316 5.31288 4.80005 5.76V26.24C4.80639 27.1361 5.16792 27.9931 5.80532 28.623C6.44271 29.2529 7.30393 29.6043 8.20005 29.6H23.8001C24.6962 29.6043 25.5574 29.2529 26.1948 28.623C26.8322 27.9931 27.1937 27.1361 27.2001 26.24V10.88C27.1996 10.7742 27.1782 10.6694 27.137 10.5719C27.0958 10.4744 27.0356 10.3861 26.9601 10.312V10.312ZM19.2001 4.912L24.8001 10.4H19.7601C19.6179 10.4 19.4816 10.3435 19.381 10.243C19.2805 10.1425 19.2241 10.0062 19.2241 9.864L19.2001 4.912ZM23.8001 28H8.20005C7.72827 28.0043 7.274 27.8215 6.93666 27.4916C6.59932 27.1618 6.40638 26.7118 6.40005 26.24V5.76C6.40638 5.28824 6.59932 4.8382 6.93666 4.50836C7.274 4.17851 7.72827 3.99573 8.20005 4H17.6V9.864C17.6022 10.4299 17.8279 10.9719 18.228 11.3721C18.6281 11.7722 19.1702 11.9979 19.7361 12H25.6001V26.24C25.5937 26.7118 25.4008 27.1618 25.0634 27.4916C24.7261 27.8215 24.2718 28.0043 23.8001 28Z" fill="black"/>
<path d="M22.4 17.6H9.60005C9.38788 17.6 9.18439 17.6843 9.03436 17.8343C8.88433 17.9843 8.80005 18.1878 8.80005 18.4V23.2C8.80005 23.4121 8.88433 23.6156 9.03436 23.7657C9.18439 23.9157 9.38788 24 9.60005 24H22.4C22.6122 24 22.8157 23.9157 22.9657 23.7657C23.1158 23.6156 23.2 23.4121 23.2 23.2V18.4C23.2 18.1878 23.1158 17.9843 22.9657 17.8343C22.8157 17.6843 22.6122 17.6 22.4 17.6ZM10.4 19.2H17.6V22.4H10.4V19.2ZM21.6 22.4H19.2V19.2H21.6V22.4Z" fill="black"/>
<path d="M9.60005 8.80001H12.8C13.0122 8.80001 13.2157 8.71573 13.3657 8.5657C13.5158 8.41567 13.6 8.21219 13.6 8.00001C13.6 7.78784 13.5158 7.58436 13.3657 7.43433C13.2157 7.2843 13.0122 7.20001 12.8 7.20001H9.60005C9.38788 7.20001 9.18439 7.2843 9.03436 7.43433C8.88433 7.58436 8.80005 7.78784 8.80005 8.00001C8.80005 8.21219 8.88433 8.41567 9.03436 8.5657C9.18439 8.71573 9.38788 8.80001 9.60005 8.80001V8.80001Z" fill="black"/>
</svg>
