<svg width="32" height="32" viewBox="0 0 32 32" fill="none" xmlns="http://www.w3.org/2000/svg">
<path d="M28.568 23.152L19.104 13.6C19.5013 12.2034 19.5196 10.7261 19.1568 9.3201C18.7941 7.91409 18.0634 6.63005 17.04 5.59999C16.2911 4.84484 15.4 4.24546 14.4183 3.83642C13.4365 3.42739 12.3835 3.2168 11.32 3.2168C10.2564 3.2168 9.20341 3.42739 8.22167 3.83642C7.23993 4.24546 6.34889 4.84484 5.59998 5.59999C4.08437 7.1437 3.23523 9.22063 3.23523 11.384C3.23523 13.5473 4.08437 15.6243 5.59998 17.168C6.68833 18.2633 8.06719 19.0244 9.57394 19.3618C11.0807 19.6992 12.6525 19.5986 14.104 19.072L16.968 21.968C17.1258 22.1121 17.3303 22.1945 17.544 22.2H19.328L19.376 24.112C19.3757 24.3174 19.4545 24.5151 19.596 24.664C19.7375 24.8129 19.9308 24.9017 20.136 24.912L21.96 25.008L21.912 26.936C21.9082 27.1231 21.9702 27.3057 22.0871 27.4519C22.2041 27.5981 22.3686 27.6986 22.552 27.736L27.84 28.8H28C28.2122 28.8 28.4156 28.7157 28.5657 28.5657C28.7157 28.4157 28.8 28.2122 28.8 28V23.72C28.8006 23.6147 28.7804 23.5103 28.7406 23.4129C28.7008 23.3154 28.6421 23.2267 28.568 23.152ZM27.2 27.024L23.504 26.224L23.552 24.192C23.552 23.9798 23.4677 23.7763 23.3177 23.6263C23.1676 23.4763 22.9641 23.392 22.752 23.392L20.888 23.296L20.832 21.336C20.832 21.1238 20.7477 20.9203 20.5977 20.7703C20.4476 20.6203 20.2442 20.536 20.032 20.536H17.8L14.832 17.6C14.7175 17.4841 14.5704 17.4059 14.4102 17.3759C14.2501 17.3459 14.0847 17.3654 13.936 17.432C12.7417 17.9707 11.411 18.1298 10.1234 17.8881C8.83581 17.6463 7.65345 17.0152 6.73598 16.08C5.51594 14.8357 4.83253 13.1626 4.83253 11.42C4.83253 9.67738 5.51594 8.00426 6.73598 6.75999C7.33546 6.14923 8.05067 5.66408 8.8398 5.33289C9.62893 5.00171 10.4762 4.83113 11.332 4.83113C12.1878 4.83113 13.035 5.00171 13.8241 5.33289C14.6133 5.66408 15.3285 6.14923 15.928 6.75999C16.7983 7.63719 17.4046 8.74137 17.6776 9.94654C17.9506 11.1517 17.8793 12.4094 17.472 13.576C17.4155 13.7118 17.3975 13.8606 17.4201 14.006C17.4427 14.1514 17.5049 14.2877 17.6 14.4L27.2 24.08V27.024Z" fill="black"/>
<path d="M8.552 8.33612C8.15189 8.73922 7.92737 9.28415 7.92737 9.85212C7.92737 10.4201 8.15189 10.965 8.552 11.3681C8.74781 11.5672 8.98128 11.7253 9.23881 11.8332C9.49634 11.9411 9.77277 11.9967 10.052 11.9967C10.3312 11.9967 10.6077 11.9411 10.8652 11.8332C11.1227 11.7253 11.3562 11.5672 11.552 11.3681C11.9483 10.963 12.1702 10.4188 12.1702 9.85212C12.1702 9.28541 11.9483 8.74123 11.552 8.33612C11.3562 8.13705 11.1227 7.97894 10.8652 7.87102C10.6077 7.7631 10.3312 7.70752 10.052 7.70752C9.77277 7.70752 9.49634 7.7631 9.23881 7.87102C8.98128 7.97894 8.74781 8.13705 8.552 8.33612Z" fill="black"/>
</svg>
