<svg width="32" height="32" viewBox="0 0 32 32" fill="none" xmlns="http://www.w3.org/2000/svg">
<path d="M28.8 17.328C28.5277 17.3201 28.258 17.2716 28 17.184C27.934 18.0465 27.7757 18.8993 27.528 19.728H23.792C23.924 18.7307 23.9934 17.7261 24 16.72C23.6771 16.7708 23.3509 16.7976 23.024 16.8H22.4C22.3801 17.7803 22.2972 18.7583 22.152 19.728H16.8V14.552C16.2635 13.8533 15.9727 12.997 15.9727 12.116C15.9727 11.2351 16.2635 10.3788 16.8 9.68004V4.31204C18.16 4.51204 19.408 5.64804 20.384 7.39204C20.3333 7.18512 20.3065 6.97307 20.304 6.76004C20.3044 6.18583 20.4876 5.62666 20.8271 5.16352C21.1665 4.70038 21.6446 4.35732 22.192 4.18404C20.5386 3.3321 18.7279 2.82838 16.872 2.70404C16.704 2.70404 16.536 2.70404 16.36 2.70404H16C12.3931 2.70404 8.93387 4.13689 6.38337 6.68739C3.83288 9.23788 2.40002 12.6971 2.40002 16.304C2.40002 19.911 3.83288 23.3702 6.38337 25.9207C8.93387 28.4712 12.3931 29.904 16 29.904H16.36C16.5316 29.9003 16.7027 29.8843 16.872 29.856C20.1673 29.652 23.2759 28.2562 25.6179 25.929C27.9598 23.6017 29.3752 20.502 29.6 17.208C29.3403 17.2853 29.071 17.3257 28.8 17.328V17.328ZM12.096 4.93604C10.6677 6.76935 9.69688 8.91667 9.26402 11.2H5.16002C5.84103 9.74684 6.80532 8.44423 7.99635 7.3686C9.18738 6.29296 10.5812 5.46594 12.096 4.93604V4.93604ZM4.00002 16.264C4.00898 15.0894 4.18956 13.9224 4.53602 12.8H8.98402C8.64275 15.0968 8.64275 17.4313 8.98402 19.728H4.53602C4.18956 18.6056 4.00898 17.4387 4.00002 16.264V16.264ZM5.13602 21.328H9.24002C9.67435 23.6109 10.645 25.7579 12.072 27.592C10.5616 27.0594 9.17242 26.2311 7.98565 25.1556C6.79888 24.0801 5.83831 22.7789 5.16002 21.328H5.13602ZM15.2 28C13.32 27.2 11.72 24.68 10.904 21.304H15.2V28ZM15.2 19.704H10.6C10.2373 17.4089 10.2373 15.0711 10.6 12.776H15.2V19.704ZM15.2 11.2H10.928C11.728 7.82404 13.328 5.26404 15.224 4.50404L15.2 11.2ZM16.8 28.216V21.328H21.824C20.92 25.128 19.016 27.888 16.8 28.216V28.216ZM21 27.2C22.243 25.455 23.0969 23.4635 23.504 21.36H26.888C25.6783 23.9421 23.5919 26.0115 21 27.2V27.2Z" fill="black"/>
<path d="M23.0481 7.496C23.7472 7.49948 24.4214 7.75571 24.9463 8.21741C25.4712 8.6791 25.8114 9.31509 25.9041 10.008H20.0961C19.6828 10.0095 19.2788 10.1313 18.9336 10.3587C18.5884 10.586 18.3168 10.9089 18.1521 11.288C17.9871 11.6588 17.9355 12.0701 18.0038 12.4701C18.0722 12.8702 18.2574 13.241 18.5361 13.536C18.9181 13.9395 19.3783 14.2611 19.8885 14.4811C20.3987 14.7012 20.9484 14.8151 21.5041 14.816H23.0481C24.0239 14.8129 24.9705 14.4824 25.7363 13.8776C26.5021 13.2728 27.0429 12.4285 27.2721 11.48H28.0721V14.608C28.0721 14.8032 28.1496 14.9904 28.2877 15.1284C28.4257 15.2665 28.6129 15.344 28.8081 15.344C29.0033 15.344 29.1905 15.2665 29.3285 15.1284C29.4666 14.9904 29.5441 14.8032 29.5441 14.608V7.848C29.5441 7.6528 29.4666 7.46559 29.3285 7.32756C29.1905 7.18954 29.0033 7.112 28.8081 7.112C28.6129 7.112 28.4257 7.18954 28.2877 7.32756C28.1496 7.46559 28.0721 7.6528 28.0721 7.848V10.008H27.3681C27.276 8.91858 26.7787 7.90332 25.9744 7.16274C25.1702 6.42216 24.1174 6.01012 23.0241 6.008C22.8289 6.008 22.6417 6.08554 22.5037 6.22356C22.3656 6.36159 22.2881 6.5488 22.2881 6.744C22.2881 6.93919 22.3656 7.1264 22.5037 7.26443C22.6417 7.40245 22.8289 7.48 23.0241 7.48L23.0481 7.496ZM22.9521 13.344H21.5041C21.1503 13.3467 20.7996 13.2771 20.4736 13.1396C20.1476 13.002 19.8531 12.7993 19.6081 12.544C19.5272 12.4576 19.474 12.3489 19.4554 12.232C19.4369 12.115 19.4538 11.9952 19.5041 11.888C19.5531 11.7715 19.6354 11.6721 19.7408 11.6024C19.8461 11.5326 19.9697 11.4956 20.0961 11.496H25.7441C25.5215 12.0512 25.1352 12.5254 24.6364 12.8555C24.1376 13.1857 23.5501 13.3561 22.9521 13.344V13.344Z" fill="black"/>
</svg>
