<svg width="32" height="32" viewBox="0 0 32 32" fill="none" xmlns="http://www.w3.org/2000/svg">
<path d="M28.384 12.248C27.9614 11.7701 27.4358 11.3944 26.8468 11.1491C26.2579 10.9038 25.621 10.7954 24.984 10.832H20.8V8.04801C20.8245 7.3318 20.6942 6.61873 20.4181 5.95744C20.142 5.29614 19.7265 4.70216 19.2 4.21601C18.032 3.28001 16.48 2.99201 14.4 3.34401C14.33 3.35308 14.2623 3.37477 14.2 3.40801C14.1487 3.42811 14.1002 3.45502 14.056 3.48801C13.7383 3.63473 13.4672 3.86616 13.2725 4.15688C13.0777 4.44761 12.9668 4.78639 12.952 5.13601V9.44801C12.952 9.55201 12.856 11.936 9.44802 12.792H9.33603L9.20802 12.848C8.93565 12.9671 8.69465 13.1479 8.50402 13.376C8.11117 13.1391 7.65864 13.0197 7.20002 13.032H4.80002C4.1635 13.032 3.55306 13.2849 3.10297 13.735C2.65288 14.185 2.40002 14.7955 2.40002 15.432V26.4C2.40002 27.0365 2.65288 27.647 3.10297 28.0971C3.55306 28.5472 4.1635 28.8 4.80002 28.8H7.20002C7.58901 28.7998 7.97213 28.705 8.31635 28.5238C8.66058 28.3426 8.9556 28.0805 9.17602 27.76C9.96861 28.4231 10.9667 28.7907 12 28.8H12.304H23.632C24.7231 28.8063 25.7798 28.4191 26.6085 27.7094C27.4373 26.9997 27.9824 26.015 28.144 24.936C28.376 23.392 28.944 20.136 29.256 18.296C29.592 16.264 29.592 16.264 29.592 16.208C29.6713 14.7866 29.2431 13.3832 28.384 12.248ZM8.00002 26.4C8.00002 26.6122 7.91574 26.8157 7.76571 26.9657C7.61568 27.1157 7.4122 27.2 7.20002 27.2H4.80002C4.58785 27.2 4.38437 27.1157 4.23434 26.9657C4.08431 26.8157 4.00002 26.6122 4.00002 26.4V15.44C4.00002 15.2278 4.08431 15.0244 4.23434 14.8743C4.38437 14.7243 4.58785 14.64 4.80002 14.64H7.20002C7.4122 14.64 7.61568 14.7243 7.76571 14.8743C7.91574 15.0244 8.00002 15.2278 8.00002 15.44V26.4ZM27.672 18.032C27.296 20.248 26.784 23.208 26.56 24.704C26.4484 25.4223 26.0757 26.0743 25.5133 26.5348C24.9509 26.9954 24.2383 27.2323 23.512 27.2H12.312H12.024C11.3183 27.1958 10.6384 26.9341 10.112 26.464C9.78252 26.0624 9.60167 25.5595 9.60003 25.04V15.44V14.64C9.60414 14.5834 9.62441 14.5292 9.65845 14.4838C9.69249 14.4384 9.73885 14.4038 9.79202 14.384H9.86403C13.544 13.44 14.52 10.784 14.52 9.51201V5.19201C14.5261 5.13395 14.548 5.07866 14.5832 5.03212C14.6185 4.98559 14.6658 4.94958 14.72 4.92801H14.776C16.28 4.69601 17.384 4.88001 18.096 5.45601C18.4505 5.77706 18.7323 6.17008 18.9227 6.6088C19.1131 7.04751 19.2077 7.52182 19.2 8.00001V11.616C19.2 11.8282 19.2843 12.0317 19.4343 12.1817C19.5844 12.3317 19.7879 12.416 20 12.416H25.04C25.4283 12.3832 25.8189 12.438 26.1831 12.5765C26.5473 12.715 26.8757 12.9335 27.144 13.216C27.7635 14.0433 28.067 15.0647 28 16.096C28 16.176 27.936 16.48 27.672 18.032Z" fill="black"/>
</svg>
