<svg width="32" height="32" viewBox="0 0 32 32" fill="none" xmlns="http://www.w3.org/2000/svg">
<path d="M17.24 22.928L14.648 25.512C13.5659 26.5941 12.0983 27.202 10.568 27.202C9.03768 27.202 7.57006 26.5941 6.48798 25.512C5.40589 24.4299 4.79799 22.9623 4.79799 21.432C4.79799 19.9017 5.40589 18.4341 6.48798 17.352L9.07998 14.768C9.61564 14.232 10.2517 13.8067 10.9517 13.5166C11.6518 13.2265 12.4022 13.0772 13.16 13.0772C13.9178 13.0772 14.6681 13.2265 15.3682 13.5166C16.0683 13.8067 16.7043 14.232 17.24 14.768C17.3899 14.917 17.5926 15.0006 17.804 15.0006C18.0153 15.0006 18.2181 14.917 18.368 14.768C18.45 14.6954 18.5162 14.6067 18.5626 14.5074C18.6089 14.4082 18.6344 14.3004 18.6374 14.1909C18.6404 14.0814 18.6208 13.9725 18.58 13.8708C18.5392 13.7692 18.4779 13.677 18.4 13.6C17.019 12.2243 15.1492 11.4519 13.2 11.4519C11.2507 11.4519 9.38093 12.2243 7.99998 13.6L5.35998 16.216C4.60606 16.882 3.99651 17.6953 3.56887 18.6058C3.14123 19.5163 2.90456 20.5048 2.87346 21.5102C2.84235 22.5157 3.01747 23.5169 3.38801 24.4521C3.75855 25.3873 4.31666 26.2367 5.02797 26.948C5.73928 27.6593 6.58871 28.2174 7.52391 28.588C8.45912 28.9585 9.4603 29.1336 10.4658 29.1025C11.4712 29.0714 12.4597 28.8347 13.3702 28.4071C14.2807 27.9795 15.094 27.3699 15.76 26.616L18.4 24.056C18.549 23.9061 18.6326 23.7033 18.6326 23.492C18.6326 23.2806 18.549 23.0779 18.4 22.928C18.3252 22.8493 18.2353 22.7867 18.1356 22.7439C18.0359 22.7011 17.9285 22.679 17.82 22.679C17.7115 22.679 17.6041 22.7011 17.5044 22.7439C17.4047 22.7867 17.3147 22.8493 17.24 22.928Z" fill="black"/>
<path d="M26.64 5.3599C25.258 3.98616 23.3886 3.21509 21.44 3.21509C19.4914 3.21509 17.622 3.98616 16.24 5.3599L13.6 7.9439C13.4504 8.09454 13.3668 8.29843 13.3676 8.51072C13.3683 8.72301 13.4534 8.92631 13.604 9.07589C13.7546 9.22548 13.9585 9.30909 14.1708 9.30834C14.3831 9.30759 14.5864 9.22254 14.736 9.07189L17.32 6.48789C18.4021 5.40581 19.8697 4.7979 21.4 4.7979C22.9303 4.7979 24.3979 5.40581 25.48 6.48789C26.5621 7.56998 27.17 9.0376 27.17 10.5679C27.17 12.0982 26.5621 13.5658 25.48 14.6479L22.896 17.2319C22.3603 17.7679 21.7243 18.1931 21.0242 18.4833C20.3242 18.7734 19.5738 18.9227 18.816 18.9227C18.0582 18.9227 17.3078 18.7734 16.6078 18.4833C15.9077 18.1931 15.2717 17.7679 14.736 17.2319C14.5811 17.0813 14.3727 16.9983 14.1567 17.0013C13.9406 17.0043 13.7346 17.093 13.584 17.2479C13.4334 17.4028 13.3504 17.6112 13.3534 17.8272C13.3564 18.0432 13.4451 18.2493 13.6 18.3999C14.9809 19.7756 16.8508 20.548 18.8 20.548C20.7492 20.548 22.619 19.7756 24 18.3999L26.584 15.8159C27.2773 15.1348 27.829 14.3232 28.2072 13.4279C28.5855 12.5327 28.783 11.5714 28.7882 10.5995C28.7934 9.62767 28.6063 8.66436 28.2376 7.7651C27.8689 6.86585 27.3259 6.04842 26.64 5.3599Z" fill="black"/>
</svg>
