<svg width="32" height="32" viewBox="0 0 32 32" fill="none" xmlns="http://www.w3.org/2000/svg">
<path d="M27.1999 15.2002H11.4639C11.2518 15.2002 11.0483 15.2845 10.8983 15.4345C10.7482 15.5845 10.6639 15.788 10.6639 16.0002C10.6639 16.2124 10.7482 16.4159 10.8983 16.5659C11.0483 16.7159 11.2518 16.8002 11.4639 16.8002H27.1999C27.4121 16.8002 27.6156 16.7159 27.7656 16.5659C27.9157 16.4159 27.9999 16.2124 27.9999 16.0002C27.9999 15.788 27.9157 15.5845 27.7656 15.4345C27.6156 15.2845 27.4121 15.2002 27.1999 15.2002Z" fill="black"/>
<path d="M11.4639 5.704H27.1999C27.4121 5.704 27.6156 5.61972 27.7656 5.46969C27.9157 5.31966 27.9999 5.11618 27.9999 4.904C27.9999 4.69183 27.9157 4.48835 27.7656 4.33832C27.6156 4.18829 27.4121 4.104 27.1999 4.104H11.4639C11.2518 4.104 11.0483 4.18829 10.8983 4.33832C10.7482 4.48835 10.6639 4.69183 10.6639 4.904C10.6639 5.11618 10.7482 5.31966 10.8983 5.46969C11.0483 5.61972 11.2518 5.704 11.4639 5.704Z" fill="black"/>
<path d="M27.1999 26.2959H11.4639C11.2518 26.2959 11.0483 26.3802 10.8983 26.5302C10.7482 26.6802 10.6639 26.8837 10.6639 27.0959C10.6639 27.3081 10.7482 27.5116 10.8983 27.6616C11.0483 27.8116 11.2518 27.8959 11.4639 27.8959H27.1999C27.4121 27.8959 27.6156 27.8116 27.7656 27.6616C27.9157 27.5116 27.9999 27.3081 27.9999 27.0959C27.9999 26.8837 27.9157 26.6802 27.7656 26.5302C27.6156 26.3802 27.4121 26.2959 27.1999 26.2959Z" fill="black"/>
<path d="M5.656 25.384C5.31551 25.3744 4.97992 25.4667 4.69214 25.6489C4.40436 25.8311 4.17748 26.095 4.04051 26.4069C3.90354 26.7187 3.86272 27.0644 3.92325 27.3996C3.98379 27.7348 4.14294 28.0443 4.38034 28.2885C4.61775 28.5328 4.92261 28.7007 5.25595 28.7707C5.58929 28.8408 5.93595 28.8098 6.25158 28.6817C6.56721 28.5537 6.83748 28.3344 7.0278 28.0519C7.21813 27.7694 7.31986 27.4366 7.32 27.096C7.32317 26.8743 7.28265 26.6542 7.20074 26.4482C7.11883 26.2421 6.99714 26.0543 6.84261 25.8953C6.68809 25.7363 6.50377 25.6093 6.30017 25.5216C6.09656 25.4339 5.87767 25.3871 5.656 25.384Z" fill="black"/>
<path d="M5.65599 14.2959C5.31738 14.2879 4.98408 14.3811 4.69865 14.5634C4.41321 14.7457 4.1886 15.009 4.05347 15.3196C3.91834 15.6302 3.87884 15.974 3.94 16.3071C4.00116 16.6402 4.16022 16.9476 4.39685 17.1899C4.63349 17.4323 4.93698 17.5986 5.26857 17.6676C5.60016 17.7367 5.9448 17.7053 6.2585 17.5776C6.57221 17.4499 6.84073 17.2316 7.0298 16.9506C7.21887 16.6696 7.31989 16.3386 7.31999 15.9999C7.32316 15.7786 7.28258 15.5589 7.20057 15.3533C7.11856 15.1477 6.99675 14.9604 6.84212 14.8021C6.6875 14.6437 6.50311 14.5175 6.29956 14.4306C6.09601 14.3438 5.87729 14.298 5.65599 14.2959Z" fill="black"/>
<path d="M5.65598 3.19989C5.31516 3.19034 4.97924 3.28276 4.69128 3.46533C4.40333 3.6479 4.17644 3.9123 4.0397 4.22464C3.90296 4.53697 3.8626 4.88303 3.92379 5.21845C3.98498 5.55387 4.14493 5.86338 4.38314 6.10732C4.62135 6.35126 4.92698 6.51852 5.26085 6.58765C5.59473 6.65679 5.94164 6.62466 6.25714 6.49538C6.57264 6.3661 6.84234 6.14555 7.0317 5.86201C7.22106 5.57847 7.32144 5.24485 7.31998 4.90389C7.32426 4.45757 7.15159 4.02772 6.83975 3.70838C6.5279 3.38905 6.10228 3.20622 5.65598 3.19989Z" fill="black"/>
</svg>
