<svg width="32" height="32" viewBox="0 0 32 32" fill="none" xmlns="http://www.w3.org/2000/svg">
<path d="M16 2.3999C9.82405 2.3999 4.80005 7.1999 4.80005 13.0479C4.80005 23.1999 15.2 29.2399 15.6 29.4959C15.7217 29.5661 15.8596 29.6031 16 29.6031C16.1405 29.6031 16.2784 29.5661 16.4 29.4959C16.84 29.2399 27.2001 23.1999 27.2001 13.0479C27.2001 7.1999 22.1761 2.3999 16 2.3999ZM16 27.8559C14.136 26.6559 6.40005 21.1759 6.40005 13.0479C6.40005 8.0559 10.704 3.9999 16 3.9999C21.2961 3.9999 25.6001 8.0559 25.6001 13.0479C25.6001 21.1759 17.864 26.6559 16 27.8559Z" fill="black"/>
<path d="M16 8.39206C14.7405 8.3747 13.5246 8.85313 12.6147 9.72416C11.7047 10.5952 11.1737 11.789 11.136 13.0481C11.1757 14.3057 11.7077 15.4975 12.6174 16.3668C13.5271 17.2361 14.7418 17.7135 16 17.6961C17.2582 17.7135 18.4728 17.2361 19.3826 16.3668C20.2923 15.4975 20.8243 14.3057 20.864 13.0481C20.8263 11.789 20.2952 10.5952 19.3853 9.72416C18.4754 8.85313 17.2595 8.3747 16 8.39206ZM16 16.0961C15.166 16.1137 14.3581 15.8049 13.7484 15.2356C13.1387 14.6662 12.7754 13.8813 12.736 13.0481C12.7734 12.2134 13.1358 11.4264 13.7457 10.8554C14.3556 10.2844 15.1647 9.97451 16 9.99206C16.8353 9.97451 17.6444 10.2844 18.2543 10.8554C18.8642 11.4264 19.2266 12.2134 19.264 13.0481C19.2245 13.8813 18.8613 14.6662 18.2516 15.2356C17.6419 15.8049 16.834 16.1137 16 16.0961Z" fill="black"/>
</svg>
