<svg width="32" height="32" viewBox="0 0 32 32" fill="none" xmlns="http://www.w3.org/2000/svg">
<path d="M25.6 12.8001H24V9.6001C24 7.47837 23.1571 5.44353 21.6569 3.94324C20.1566 2.44295 18.1217 1.6001 16 1.6001C13.8783 1.6001 11.8434 2.44295 10.3431 3.94324C8.84285 5.44353 8 7.47837 8 9.6001V12.8001H6.4C5.76348 12.8001 5.15303 13.053 4.70294 13.503C4.25286 13.9531 4 14.5636 4 15.2001V28.0001C4 28.6366 4.25286 29.2471 4.70294 29.6972C5.15303 30.1472 5.76348 30.4001 6.4 30.4001H25.6C26.2365 30.4001 26.847 30.1472 27.2971 29.6972C27.7471 29.2471 28 28.6366 28 28.0001V15.2001C28 14.5636 27.7471 13.9531 27.2971 13.503C26.847 13.053 26.2365 12.8001 25.6 12.8001ZM9.6 9.6001C9.6 7.90271 10.2743 6.27485 11.4745 5.07461C12.6747 3.87438 14.3026 3.2001 16 3.2001C17.6974 3.2001 19.3253 3.87438 20.5255 5.07461C21.7257 6.27485 22.4 7.90271 22.4 9.6001V12.8001H9.6V9.6001ZM26.4 28.0001C26.4 28.2123 26.3157 28.4158 26.1657 28.5658C26.0157 28.7158 25.8122 28.8001 25.6 28.8001H6.4C6.18783 28.8001 5.98434 28.7158 5.83431 28.5658C5.68429 28.4158 5.6 28.2123 5.6 28.0001V15.2001C5.6 14.9879 5.68429 14.7844 5.83431 14.6344C5.98434 14.4844 6.18783 14.4001 6.4 14.4001H25.6C25.8122 14.4001 26.0157 14.4844 26.1657 14.6344C26.3157 14.7844 26.4 14.9879 26.4 15.2001V28.0001Z" fill="black"/>
<path d="M16 20C15.5757 20 15.1687 20.1686 14.8687 20.4686C14.5686 20.7687 14.4 21.1757 14.4 21.6C14.4017 21.8792 14.4764 22.1531 14.6168 22.3945C14.7571 22.6359 14.9582 22.8364 15.2 22.976V24C15.2 24.2122 15.2843 24.4157 15.4343 24.5657C15.5844 24.7157 15.7879 24.8 16 24.8C16.2122 24.8 16.4157 24.7157 16.5657 24.5657C16.7157 24.4157 16.8 24.2122 16.8 24V22.976C17.0418 22.8364 17.2429 22.6359 17.3833 22.3945C17.5236 22.1531 17.5983 21.8792 17.6 21.6C17.6 21.1757 17.4315 20.7687 17.1314 20.4686C16.8313 20.1686 16.4244 20 16 20Z" fill="black"/>
</svg>
