<svg width="32" height="32" viewBox="0 0 32 32" fill="none" xmlns="http://www.w3.org/2000/svg">
<path d="M29.36 22.4C29.211 22.2522 29.0099 22.1689 28.8 22.168L22.112 22.272C22.7007 20.8243 23.5282 19.4857 24.56 18.312C28.952 13.56 29.592 10.016 29.36 7.91197C29.3107 7.20167 29.1112 6.50993 28.7747 5.88246C28.4382 5.25498 27.9724 4.70606 27.408 4.27197C26.3046 3.48971 24.9656 3.11117 23.616 3.19997H8.048C7.16497 3.1811 6.28931 3.36444 5.488 3.73597C1.984 5.41597 2.168 9.67997 2.76 11.736C2.80989 11.9075 2.91576 12.0574 3.06074 12.1618C3.20573 12.2662 3.38149 12.3191 3.56 12.312H9.96C9.00922 14.0862 7.81051 15.7159 6.4 17.152C6.176 17.36 0.928008 22.4 2.808 26.312C3.14831 27.0334 3.68068 27.6472 4.34674 28.086C5.01281 28.5249 5.78685 28.7719 6.584 28.8L24.224 28.712C24.392 28.712 24.568 28.712 24.744 28.712C24.92 28.712 25.08 28.712 25.248 28.712C26.1991 28.6457 27.1059 28.2851 27.8427 27.6802C28.5796 27.0752 29.1099 26.2559 29.36 25.336C29.5332 24.5481 29.6138 23.7426 29.6 22.936C29.5908 22.7333 29.5051 22.5417 29.36 22.4ZM6.184 5.17597C6.76953 4.91323 7.40641 4.78476 8.048 4.79997H20.848C20.4576 5.16476 20.1233 5.58531 19.856 6.04797C19.1097 7.4697 18.8298 9.09027 19.056 10.68H4.16C3.928 9.39997 3.664 6.39997 6.184 5.17597ZM4.256 25.6C3.112 23.2 6.208 19.496 7.536 18.24C9.26013 16.5028 10.6631 14.4742 11.68 12.248H19.952C20.0762 12.2519 20.1997 12.2269 20.3125 12.1748C20.4254 12.1228 20.5246 12.0452 20.6022 11.9481C20.6798 11.8511 20.7338 11.7373 20.7598 11.6157C20.7858 11.4942 20.7831 11.3683 20.752 11.248C20.696 11.032 19.472 6.02397 24.176 4.77597C25.0068 4.75953 25.8215 5.00592 26.504 5.47997C26.8809 5.78563 27.1875 6.16896 27.4029 6.60384C27.6182 7.03871 27.7373 7.51491 27.752 7.99997C27.912 9.47197 27.56 12.632 23.368 17.176C23.176 17.384 18.736 22.28 20.592 26.2C20.7504 26.5275 20.9493 26.8339 21.184 27.112L6.632 27.2C6.1261 27.1816 5.63543 27.022 5.21553 26.7393C4.79562 26.4565 4.46324 26.0618 4.256 25.6ZM27.808 24.92C27.6411 25.5212 27.2895 26.0548 26.8028 26.4452C26.3162 26.8357 25.7191 27.0633 25.096 27.096H24.928C24.8855 27.0915 24.8426 27.0915 24.8 27.096H24.272C23.7939 27.0435 23.3373 26.8686 22.9464 26.5884C22.5554 26.3082 22.2433 25.9319 22.04 25.496C21.7946 24.9691 21.6925 24.3869 21.744 23.808L28 23.744C27.9704 24.1514 27.9062 24.5555 27.808 24.952V24.92Z" fill="black"/>
<path d="M13.144 17.6H20.256C20.4682 17.6 20.6717 17.5157 20.8217 17.3657C20.9717 17.2157 21.056 17.0122 21.056 16.8C21.056 16.5878 20.9717 16.3843 20.8217 16.2343C20.6717 16.0843 20.4682 16 20.256 16H13.144C12.9318 16 12.7283 16.0843 12.5783 16.2343C12.4283 16.3843 12.344 16.5878 12.344 16.8C12.344 17.0122 12.4283 17.2157 12.5783 17.3657C12.7283 17.5157 12.9318 17.6 13.144 17.6Z" fill="black"/>
<path d="M16.8 20.136H9.67201C9.45984 20.136 9.25635 20.2203 9.10632 20.3703C8.95629 20.5203 8.87201 20.7238 8.87201 20.936C8.87201 21.1482 8.95629 21.3516 9.10632 21.5017C9.25635 21.6517 9.45984 21.736 9.67201 21.736H16.8C17.0122 21.736 17.2157 21.6517 17.3657 21.5017C17.5157 21.3516 17.6 21.1482 17.6 20.936C17.6 20.7238 17.5157 20.5203 17.3657 20.3703C17.2157 20.2203 17.0122 20.136 16.8 20.136Z" fill="black"/>
</svg>
