<svg width="32" height="32" viewBox="0 0 32 32" fill="none" xmlns="http://www.w3.org/2000/svg">
<path d="M26.56 5.59998H5.43999C4.63439 5.60209 3.86238 5.92305 3.29272 6.4927C2.72307 7.06236 2.40211 7.83437 2.39999 8.63998V23.36C2.40211 24.1656 2.72307 24.9376 3.29272 25.5072C3.86238 26.0769 4.63439 26.3979 5.43999 26.4H26.56C27.3656 26.3979 28.1376 26.0769 28.7073 25.5072C29.2769 24.9376 29.5979 24.1656 29.6 23.36V8.63998C29.5979 7.83437 29.2769 7.06236 28.7073 6.4927C28.1376 5.92305 27.3656 5.60209 26.56 5.59998V5.59998ZM20 15.592L27.952 8.23998C27.9939 8.36919 28.0155 8.50413 28.016 8.63998V23.36C28.0199 23.4052 28.0199 23.4507 28.016 23.496L20 15.592ZM26.56 7.19998H26.688L16 17.112L4.71199 7.39998C4.93371 7.2725 5.18427 7.20366 5.43999 7.19998H26.56ZM3.99999 23.456C3.99999 23.456 3.99999 23.392 3.99999 23.36V8.89598L11.616 15.464L3.99999 23.456ZM5.43999 24.8C5.29328 24.7968 5.14779 24.7726 5.00799 24.728L12.8 16.504L15.448 18.784C15.5918 18.9108 15.7763 18.9818 15.968 18.984C16.1701 18.9833 16.3645 18.9061 16.512 18.768L18.776 16.672L26.936 24.736C26.8039 24.7774 26.6664 24.7989 26.528 24.8H5.43999Z" fill="black"/>
</svg>
