<svg width="32" height="32" viewBox="0 0 32 32" fill="none" xmlns="http://www.w3.org/2000/svg">
<path d="M28.0001 20.4159L20.3921 12.7999C20.6308 11.2409 20.4575 9.64663 19.8894 8.17534C19.3213 6.70404 18.3781 5.40698 17.1536 4.41298C15.9291 3.41898 14.4659 2.76264 12.9092 2.50914C11.3526 2.25564 9.75667 2.41381 8.28006 2.96794C8.15363 3.01491 8.04113 3.09308 7.95302 3.19518C7.8649 3.29728 7.80403 3.42 7.77606 3.55194C7.74753 3.68289 7.75235 3.81891 7.7901 3.94751C7.82784 4.07612 7.89728 4.19317 7.99206 4.28794L12.5841 8.87994C12.6699 8.96542 12.7381 9.06703 12.7846 9.17892C12.831 9.29081 12.855 9.41078 12.855 9.53194C12.855 9.6531 12.831 9.77308 12.7846 9.88496C12.7381 9.99685 12.6699 10.0985 12.5841 10.1839L10.1841 12.5839C10.0094 12.7535 9.77551 12.8484 9.53206 12.8484C9.2886 12.8484 9.05473 12.7535 8.88006 12.5839L4.28806 7.99994C4.19329 7.90517 4.07623 7.83572 3.94763 7.79798C3.81903 7.76024 3.68301 7.75541 3.55206 7.78394C3.42012 7.81191 3.2974 7.87278 3.1953 7.9609C3.09319 8.04902 3.01502 8.16151 2.96806 8.28794C2.41577 9.76413 2.25904 11.3591 2.5134 12.9145C2.76776 14.47 3.42438 15.9319 4.41812 17.1553C5.41186 18.3787 6.70818 19.321 8.17849 19.8887C9.64881 20.4565 11.242 20.63 12.8001 20.3919L20.4161 27.9999C21.4432 28.8919 22.7704 29.3612 24.1299 29.3134C25.4894 29.2655 26.7803 28.704 27.7422 27.7421C28.7041 26.7802 29.2656 25.4893 29.3135 24.1298C29.3613 22.7702 28.892 21.4431 28.0001 20.4159ZM26.8721 26.8959C26.1614 27.6038 25.1991 28.0013 24.1961 28.0013C23.193 28.0013 22.2308 27.6038 21.5201 26.8959L13.6001 18.9679C13.5253 18.8938 13.4367 18.8351 13.3392 18.7953C13.2417 18.7555 13.1373 18.7353 13.0321 18.7359H12.8801C11.6855 18.9795 10.4493 18.9258 9.28036 18.5795C8.1114 18.2332 7.04545 17.605 6.17628 16.75C5.30711 15.8951 4.66136 14.8397 4.29584 13.6766C3.93031 12.5135 3.85621 11.2784 4.08006 10.0799L7.69606 13.7039C8.17806 14.1632 8.81829 14.4194 9.48406 14.4194C10.1498 14.4194 10.7901 14.1632 11.2721 13.7039L13.6721 11.3039C14.1445 10.8288 14.4096 10.186 14.4096 9.51594C14.4096 8.84591 14.1445 8.2031 13.6721 7.72794L10.0961 4.12794C11.2945 3.9041 12.5296 3.9782 13.6927 4.34372C14.8558 4.70925 15.9112 5.355 16.7662 6.22416C17.6211 7.09333 18.2494 8.15928 18.5956 9.32824C18.9419 10.4972 18.9956 11.7333 18.7521 12.9279C18.7263 13.0565 18.7326 13.1893 18.7702 13.3149C18.8079 13.4404 18.8758 13.5548 18.9681 13.6479L26.8961 21.5679C27.5966 22.2776 27.9895 23.2347 27.9895 24.2319C27.9895 25.2292 27.5966 26.1863 26.8961 26.8959H26.8721Z" fill="black"/>
<path d="M22.992 22.992C22.8912 23.0904 22.811 23.208 22.7563 23.3378C22.7015 23.4677 22.6733 23.6071 22.6733 23.748C22.6733 23.8889 22.7015 24.0284 22.7563 24.1583C22.811 24.2881 22.8912 24.4057 22.992 24.504C23.197 24.681 23.4613 24.7739 23.7319 24.7641C24.0025 24.7542 24.2593 24.6423 24.4508 24.4508C24.6423 24.2593 24.7542 24.0025 24.7641 23.7319C24.7739 23.4613 24.681 23.197 24.504 22.992C24.4057 22.8912 24.2881 22.811 24.1583 22.7563C24.0284 22.7015 23.8889 22.6733 23.748 22.6733C23.6071 22.6733 23.4677 22.7015 23.3378 22.7563C23.208 22.811 23.0904 22.8912 22.992 22.992Z" fill="black"/>
</svg>
