<svg width="32" height="32" viewBox="0 0 32 32" fill="none" xmlns="http://www.w3.org/2000/svg">
<path d="M29.5359 2.8959C29.4547 2.70042 29.2994 2.54508 29.1039 2.4639C29.0077 2.42291 28.9044 2.40117 28.7999 2.3999H20.2639C20.0517 2.3999 19.8482 2.48419 19.6982 2.63422C19.5482 2.78425 19.4639 2.98773 19.4639 3.1999C19.4639 3.41208 19.5482 3.61556 19.6982 3.76559C19.8482 3.91562 20.0517 3.9999 20.2639 3.9999H26.8719L18.2799 12.5919C18.1309 12.7418 18.0472 12.9446 18.0472 13.1559C18.0472 13.3673 18.1309 13.57 18.2799 13.7199C18.4298 13.8689 18.6325 13.9525 18.8439 13.9525C19.0552 13.9525 19.258 13.8689 19.4079 13.7199L27.9999 5.1279V11.7359C27.9999 11.9481 28.0842 12.1516 28.2342 12.3016C28.3842 12.4516 28.5877 12.5359 28.7999 12.5359C29.012 12.5359 29.2155 12.4516 29.3656 12.3016C29.5156 12.1516 29.5999 11.9481 29.5999 11.7359V3.1999C29.5986 3.09536 29.5769 2.99208 29.5359 2.8959Z" fill="black"/>
<path d="M12.592 18.2799L4.00002 26.8719V20.2639C4.00002 20.0517 3.91574 19.8482 3.76571 19.6982C3.61568 19.5482 3.4122 19.4639 3.20002 19.4639C2.98785 19.4639 2.78437 19.5482 2.63434 19.6982C2.48431 19.8482 2.40002 20.0517 2.40002 20.2639V28.7999C2.40129 28.9044 2.42303 29.0077 2.46402 29.1039C2.5452 29.2994 2.70054 29.4547 2.89602 29.5359C2.9922 29.5769 3.09548 29.5986 3.20002 29.5999H11.736C11.9482 29.5999 12.1517 29.5156 12.3017 29.3656C12.4517 29.2155 12.536 29.0121 12.536 28.7999C12.536 28.5877 12.4517 28.3842 12.3017 28.2342C12.1517 28.0842 11.9482 27.9999 11.736 27.9999H5.12802L13.72 19.4079C13.8038 19.3362 13.8718 19.2479 13.9198 19.1487C13.9678 19.0494 13.9948 18.9413 13.9991 18.8311C14.0033 18.7209 13.9848 18.6111 13.9445 18.5084C13.9043 18.4058 13.8433 18.3125 13.7653 18.2346C13.6874 18.1566 13.5941 18.0956 13.4915 18.0554C13.3888 18.0151 13.279 17.9966 13.1688 18.0008C13.0586 18.0051 12.9505 18.0321 12.8512 18.0801C12.752 18.1281 12.6637 18.1961 12.592 18.2799Z" fill="black"/>
</svg>
