<svg width="32" height="32" viewBox="0 0 32 32" fill="none" xmlns="http://www.w3.org/2000/svg">
<path d="M28.8 15.2002H3.20002C2.98785 15.2002 2.78437 15.2845 2.63434 15.4345C2.48431 15.5845 2.40002 15.788 2.40002 16.0002C2.40002 16.2124 2.48431 16.4159 2.63434 16.5659C2.78437 16.7159 2.98785 16.8002 3.20002 16.8002H28.8C29.0122 16.8002 29.2157 16.7159 29.3657 16.5659C29.5157 16.4159 29.6 16.2124 29.6 16.0002C29.6 15.788 29.5157 15.5845 29.3657 15.4345C29.2157 15.2845 29.0122 15.2002 28.8 15.2002Z" fill="black"/>
<path d="M3.20002 4.8002H28.8C29.0122 4.8002 29.2157 4.71591 29.3657 4.56588C29.5157 4.41585 29.6 4.21237 29.6 4.0002C29.6 3.78802 29.5157 3.58454 29.3657 3.43451C29.2157 3.28448 29.0122 3.2002 28.8 3.2002H3.20002C2.98785 3.2002 2.78437 3.28448 2.63434 3.43451C2.48431 3.58454 2.40002 3.78802 2.40002 4.0002C2.40002 4.21237 2.48431 4.41585 2.63434 4.56588C2.78437 4.71591 2.98785 4.8002 3.20002 4.8002Z" fill="black"/>
<path d="M28.8 27.2002H3.20002C2.98785 27.2002 2.78437 27.2845 2.63434 27.4345C2.48431 27.5845 2.40002 27.788 2.40002 28.0002C2.40002 28.2124 2.48431 28.4159 2.63434 28.5659C2.78437 28.7159 2.98785 28.8002 3.20002 28.8002H28.8C29.0122 28.8002 29.2157 28.7159 29.3657 28.5659C29.5157 28.4159 29.6 28.2124 29.6 28.0002C29.6 27.788 29.5157 27.5845 29.3657 27.4345C29.2157 27.2845 29.0122 27.2002 28.8 27.2002Z" fill="black"/>
</svg>
