<svg width="32" height="32" viewBox="0 0 32 32" fill="none" xmlns="http://www.w3.org/2000/svg">
<path d="M16.72 20.1519H3.50398C3.29181 20.1519 3.08832 20.2361 2.93829 20.3862C2.78826 20.5362 2.70398 20.7397 2.70398 20.9519C2.70398 21.164 2.78826 21.3675 2.93829 21.5175C3.08832 21.6676 3.29181 21.7519 3.50398 21.7519H16.72C16.9322 21.7519 17.1356 21.6676 17.2857 21.5175C17.4357 21.3675 17.52 21.164 17.52 20.9519C17.52 20.7397 17.4357 20.5362 17.2857 20.3862C17.1356 20.2361 16.9322 20.1519 16.72 20.1519Z" fill="black"/>
<path d="M29.104 8.15186H3.50398C3.29181 8.15186 3.08832 8.23614 2.93829 8.38617C2.78826 8.5362 2.70398 8.73968 2.70398 8.95186C2.70398 9.16403 2.78826 9.36751 2.93829 9.51754C3.08832 9.66757 3.29181 9.75185 3.50398 9.75185H29.104C29.3162 9.75185 29.5196 9.66757 29.6697 9.51754C29.8197 9.36751 29.904 9.16403 29.904 8.95186C29.904 8.73968 29.8197 8.5362 29.6697 8.38617C29.5196 8.23614 29.3162 8.15186 29.104 8.15186Z" fill="black"/>
</svg>
