<svg width="32" height="32" viewBox="0 0 32 32" fill="none" xmlns="http://www.w3.org/2000/svg">
<path d="M24.8 12.3521C24.5879 12.3521 24.3844 12.4363 24.2343 12.5864C24.0843 12.7364 24 12.9399 24 13.1521V15.5521C23.9518 17.6266 23.0822 19.5972 21.5823 21.0311C20.0823 22.465 18.0746 23.2451 16 23.2001C13.9295 23.2452 11.9253 22.4684 10.4261 21.0396C8.92684 19.6108 8.05453 17.6464 8.00002 15.5761V13.1761C8.00002 12.9639 7.91574 12.7604 7.76571 12.6104C7.61568 12.4603 7.4122 12.3761 7.20002 12.3761C6.98785 12.3761 6.78437 12.4603 6.63434 12.6104C6.48431 12.7604 6.40002 12.9639 6.40002 13.1761V15.5761C6.45151 17.9288 7.38439 20.1766 9.01403 21.8744C10.6437 23.5721 12.8513 24.5963 15.2 24.7441V28.0001H10.968C10.7559 28.0001 10.5524 28.0843 10.4023 28.2344C10.2523 28.3844 10.168 28.5879 10.168 28.8001C10.168 29.0122 10.2523 29.2157 10.4023 29.3657C10.5524 29.5158 10.7559 29.6001 10.968 29.6001H21.032C21.2442 29.6001 21.4477 29.5158 21.5977 29.3657C21.7477 29.2157 21.832 29.0122 21.832 28.8001C21.832 28.5879 21.7477 28.3844 21.5977 28.2344C21.4477 28.0843 21.2442 28.0001 21.032 28.0001H16.8V24.7441C19.1514 24.596 21.3613 23.5696 22.9913 21.8685C24.6214 20.1673 25.5525 17.9156 25.6 15.5601V13.1601C25.6011 13.0543 25.5812 12.9494 25.5414 12.8514C25.5017 12.7535 25.443 12.6643 25.3686 12.5892C25.2942 12.5141 25.2056 12.4544 25.108 12.4137C25.0104 12.373 24.9058 12.352 24.8 12.3521Z" fill="black"/>
<path d="M15.6 19.8879H16.4C17.673 19.8879 18.8939 19.3822 19.7941 18.482C20.6943 17.5818 21.2 16.3609 21.2 15.0879V7.1999C21.2 5.92686 20.6943 4.70596 19.7941 3.80579C18.8939 2.90562 17.673 2.3999 16.4 2.3999H15.6C14.3269 2.3999 13.1061 2.90562 12.2059 3.80579C11.3057 4.70596 10.8 5.92686 10.8 7.1999V15.0879C10.8 16.3609 11.3057 17.5818 12.2059 18.482C13.1061 19.3822 14.3269 19.8879 15.6 19.8879ZM12.4 7.1999C12.4 6.35121 12.7371 5.53728 13.3372 4.93716C13.9374 4.33704 14.7513 3.9999 15.6 3.9999H16.4C17.2487 3.9999 18.0626 4.33704 18.6627 4.93716C19.2628 5.53728 19.6 6.35121 19.6 7.1999V15.0879C19.6 15.9366 19.2628 16.7505 18.6627 17.3506C18.0626 17.9508 17.2487 18.2879 16.4 18.2879H15.6C14.7513 18.2879 13.9374 17.9508 13.3372 17.3506C12.7371 16.7505 12.4 15.9366 12.4 15.0879V7.1999Z" fill="black"/>
</svg>
