<svg width="32" height="32" viewBox="0 0 32 32" fill="none" xmlns="http://www.w3.org/2000/svg">
<path d="M13.44 17.76H4.90402C4.69185 17.76 4.48837 17.8443 4.33834 17.9943C4.18831 18.1444 4.10402 18.3478 4.10402 18.56C4.10402 18.7722 4.18831 18.9757 4.33834 19.1257C4.48837 19.2757 4.69185 19.36 4.90402 19.36H11.512L2.63202 28.232C2.55704 28.3064 2.49753 28.3949 2.45691 28.4924C2.4163 28.5898 2.39539 28.6944 2.39539 28.8C2.39539 28.9056 2.4163 29.0102 2.45691 29.1077C2.49753 29.2052 2.55704 29.2936 2.63202 29.368C2.70639 29.443 2.79488 29.5025 2.89236 29.5431C2.98985 29.5837 3.09441 29.6046 3.20002 29.6046C3.30563 29.6046 3.4102 29.5837 3.50769 29.5431C3.60517 29.5025 3.69365 29.443 3.76802 29.368L12.64 20.488V27.096C12.64 27.3082 12.7243 27.5117 12.8743 27.6617C13.0244 27.8117 13.2279 27.896 13.44 27.896C13.6522 27.896 13.8557 27.8117 14.0057 27.6617C14.1557 27.5117 14.24 27.3082 14.24 27.096V18.56C14.24 18.3478 14.1557 18.1444 14.0057 17.9943C13.8557 17.8443 13.6522 17.76 13.44 17.76Z" fill="black"/>
<path d="M29.368 2.6319C29.2936 2.55692 29.2052 2.4974 29.1077 2.45679C29.0102 2.41617 28.9056 2.39526 28.8 2.39526C28.6944 2.39526 28.5898 2.41617 28.4923 2.45679C28.3949 2.4974 28.3064 2.55692 28.232 2.6319L19.36 11.5119V4.9039C19.36 4.69173 19.2757 4.48825 19.1257 4.33822C18.9757 4.18819 18.7722 4.1039 18.56 4.1039C18.3478 4.1039 18.1444 4.18819 17.9943 4.33822C17.8443 4.48825 17.76 4.69173 17.76 4.9039V13.4399C17.76 13.6521 17.8443 13.8556 17.9943 14.0056C18.1444 14.1556 18.3478 14.2399 18.56 14.2399H27.096C27.3082 14.2399 27.5117 14.1556 27.6617 14.0056C27.8117 13.8556 27.896 13.6521 27.896 13.4399C27.896 13.2277 27.8117 13.0242 27.6617 12.8742C27.5117 12.7242 27.3082 12.6399 27.096 12.6399H20.488L29.368 3.7679C29.443 3.69353 29.5025 3.60505 29.5431 3.50756C29.5837 3.41008 29.6046 3.30551 29.6046 3.1999C29.6046 3.09429 29.5837 2.98973 29.5431 2.89224C29.5025 2.79475 29.443 2.70627 29.368 2.6319Z" fill="black"/>
</svg>
