<svg width="32" height="32" viewBox="0 0 32 32" fill="none" xmlns="http://www.w3.org/2000/svg">
<path d="M21.552 3.61597H9.93596C9.08727 3.61597 8.27334 3.95311 7.67322 4.55322C7.0731 5.15334 6.73596 5.96727 6.73596 6.81597V25.6C6.73596 26.4487 7.0731 27.2626 7.67322 27.8627C8.27334 28.4628 9.08727 28.8 9.93596 28.8H21.552C22.4007 28.8 23.2146 28.4628 23.8147 27.8627C24.4148 27.2626 24.752 26.4487 24.752 25.6V6.81597C24.752 5.96727 24.4148 5.15334 23.8147 4.55322C23.2146 3.95311 22.4007 3.61597 21.552 3.61597ZM23.152 25.616C23.152 26.0403 22.9834 26.4473 22.6833 26.7473C22.3833 27.0474 21.9763 27.216 21.552 27.216H9.93596C9.51162 27.216 9.10465 27.0474 8.80459 26.7473C8.50453 26.4473 8.33596 26.0403 8.33596 25.616V6.81597C8.33596 6.39162 8.50453 5.98465 8.80459 5.6846C9.10465 5.38454 9.51162 5.21597 9.93596 5.21597H21.552C21.9763 5.21597 22.3833 5.38454 22.6833 5.6846C22.9834 5.98465 23.152 6.39162 23.152 6.81597V25.616ZM16.888 24.16C16.8864 24.3859 16.8179 24.6063 16.6913 24.7933C16.5646 24.9804 16.3854 25.1258 16.1762 25.2112C15.9671 25.2965 15.7373 25.318 15.5159 25.273C15.2945 25.228 15.0914 25.1184 14.9322 24.9581C14.7731 24.7978 14.6649 24.5939 14.6214 24.3722C14.5779 24.1505 14.601 23.9209 14.6878 23.7123C14.7746 23.5038 14.9213 23.3256 15.1092 23.2002C15.2972 23.0749 15.518 23.008 15.744 23.008C15.8949 23.008 16.0443 23.0378 16.1836 23.0958C16.3229 23.1538 16.4494 23.2388 16.5557 23.3459C16.6621 23.4529 16.7462 23.58 16.8032 23.7197C16.8602 23.8594 16.889 24.0091 16.888 24.16ZM18.296 8.42397C18.296 8.63614 18.2117 8.83962 18.0616 8.98965C17.9116 9.13968 17.7081 9.22397 17.496 9.22397H13.992C13.7798 9.22397 13.5763 9.13968 13.4263 8.98965C13.2762 8.83962 13.192 8.63614 13.192 8.42397C13.192 8.21179 13.2762 8.00831 13.4263 7.85828C13.5763 7.70825 13.7798 7.62397 13.992 7.62397H17.496C17.601 7.62397 17.705 7.64466 17.8021 7.68486C17.8992 7.72507 17.9874 7.78399 18.0616 7.85828C18.1359 7.93257 18.1949 8.02076 18.2351 8.11782C18.2753 8.21488 18.296 8.31891 18.296 8.42397Z" fill="black"/>
</svg>
