<svg width="32" height="32" viewBox="0 0 32 32" fill="none" xmlns="http://www.w3.org/2000/svg">
<path d="M15.8 18.8C15.2067 18.8 14.6266 18.6241 14.1333 18.2945C13.64 17.9648 13.2554 17.4963 13.0284 16.9481C12.8013 16.3999 12.7419 15.7967 12.8577 15.2148C12.9734 14.6328 13.2591 14.0983 13.6787 13.6787C14.0983 13.2592 14.6328 12.9735 15.2147 12.8577C15.7967 12.7419 16.3999 12.8013 16.9481 13.0284C17.4962 13.2555 17.9648 13.64 18.2944 14.1333C18.6241 14.6267 18.8 15.2067 18.8 15.8C18.8 16.5957 18.4839 17.3588 17.9213 17.9214C17.3587 18.484 16.5957 18.8 15.8 18.8ZM15.8 14C15.444 14 15.096 14.1056 14.8 14.3034C14.504 14.5012 14.2733 14.7823 14.137 15.1112C14.0008 15.4401 13.9651 15.802 14.0346 16.1512C14.1041 16.5004 14.2755 16.8211 14.5272 17.0728C14.779 17.3246 15.0997 17.496 15.4489 17.5655C15.798 17.6349 16.1599 17.5993 16.4888 17.463C16.8178 17.3268 17.0989 17.0961 17.2967 16.8001C17.4944 16.5041 17.6 16.1561 17.6 15.8C17.6 15.3227 17.4104 14.8648 17.0728 14.5273C16.7352 14.1897 16.2774 14 15.8 14ZM25.4 18.8C24.8067 18.8 24.2267 18.6241 23.7333 18.2945C23.24 17.9648 22.8554 17.4963 22.6284 16.9481C22.4013 16.3999 22.3419 15.7967 22.4577 15.2148C22.5734 14.6328 22.8591 14.0983 23.2787 13.6787C23.6983 13.2592 24.2328 12.9735 24.8147 12.8577C25.3967 12.7419 25.9999 12.8013 26.5481 13.0284C27.0962 13.2555 27.5648 13.64 27.8944 14.1333C28.2241 14.6267 28.4 15.2067 28.4 15.8C28.4 16.5957 28.0839 17.3588 27.5213 17.9214C26.9587 18.484 26.1957 18.8 25.4 18.8ZM25.4 14C25.044 14 24.696 14.1056 24.4 14.3034C24.104 14.5012 23.8733 14.7823 23.737 15.1112C23.6008 15.4401 23.5651 15.802 23.6346 16.1512C23.7041 16.5004 23.8755 16.8211 24.1272 17.0728C24.379 17.3246 24.6997 17.496 25.0489 17.5655C25.398 17.6349 25.7599 17.5993 26.0888 17.463C26.4178 17.3268 26.6989 17.0961 26.8967 16.8001C27.0944 16.5041 27.2 16.1561 27.2 15.8C27.2 15.3227 27.0104 14.8648 26.6728 14.5273C26.3352 14.1897 25.8774 14 25.4 14ZM6.20001 18.8C5.60667 18.8 5.02665 18.6241 4.5333 18.2945C4.03996 17.9648 3.65544 17.4963 3.42837 16.9481C3.20131 16.3999 3.1419 15.7967 3.25766 15.2148C3.37341 14.6328 3.65914 14.0983 4.07869 13.6787C4.49825 13.2592 5.0328 12.9735 5.61474 12.8577C6.19669 12.7419 6.79988 12.8013 7.34806 13.0284C7.89624 13.2555 8.36478 13.64 8.69442 14.1333C9.02407 14.6267 9.20001 15.2067 9.20001 15.8C9.20001 16.5957 8.88394 17.3588 8.32133 17.9214C7.75872 18.484 6.99566 18.8 6.20001 18.8ZM6.20001 14C5.84401 14 5.496 14.1056 5.19999 14.3034C4.90398 14.5012 4.67327 14.7823 4.53703 15.1112C4.40079 15.4401 4.36515 15.802 4.4346 16.1512C4.50405 16.5004 4.67549 16.8211 4.92722 17.0728C5.17896 17.3246 5.49968 17.496 5.84885 17.5655C6.19802 17.6349 6.55994 17.5993 6.88884 17.463C7.21775 17.3268 7.49887 17.0961 7.69666 16.8001C7.89445 16.5041 8.00001 16.1561 8.00001 15.8C8.00001 15.3227 7.81037 14.8648 7.47281 14.5273C7.13524 14.1897 6.6774 14 6.20001 14Z" fill="black"/>
</svg>
