<svg width="32" height="32" viewBox="0 0 32 32" fill="none" xmlns="http://www.w3.org/2000/svg">
<path d="M29.536 16.304C29.616 16.1092 29.616 15.8908 29.536 15.696C29.4979 15.5978 29.4408 15.5081 29.368 15.432L25.096 11.2C25.0339 11.0951 24.9485 11.0057 24.8466 10.9388C24.7446 10.8719 24.6287 10.8292 24.5077 10.8139C24.3867 10.7987 24.2638 10.8113 24.1484 10.8508C24.033 10.8904 23.9282 10.9557 23.842 11.042C23.7557 11.1282 23.6904 11.233 23.6508 11.3484C23.6113 11.4638 23.5987 11.5867 23.6139 11.7077C23.6292 11.8287 23.6719 11.9446 23.7388 12.0466C23.8057 12.1485 23.8951 12.2339 24 12.296L26.872 15.2H16.8V5.128L19.704 8C19.8524 8.1395 20.0484 8.21717 20.252 8.21717C20.4557 8.21717 20.6516 8.1395 20.8 8C20.949 7.85011 21.0326 7.64735 21.0326 7.436C21.0326 7.22465 20.949 7.02189 20.8 6.872L16.568 2.632C16.4919 2.55917 16.4022 2.50208 16.304 2.464C16.1092 2.38399 15.8908 2.38399 15.696 2.464C15.5978 2.50208 15.5081 2.55917 15.432 2.632L11.2 6.904C11.0951 6.96615 11.0057 7.05147 10.9388 7.15344C10.8719 7.2554 10.8292 7.37132 10.8139 7.49232C10.7987 7.61333 10.8113 7.73622 10.8508 7.8516C10.8904 7.96697 10.9557 8.07179 11.042 8.15803C11.1282 8.24427 11.233 8.30965 11.3484 8.34917C11.4638 8.3887 11.5867 8.40132 11.7077 8.38607C11.8287 8.37082 11.9446 8.32811 12.0466 8.26119C12.1485 8.19428 12.2339 8.10494 12.296 8L15.2 5.128V15.2H5.128L8 12.296C8.10494 12.2339 8.19428 12.1485 8.26119 12.0466C8.32811 11.9446 8.37082 11.8287 8.38607 11.7077C8.40132 11.5867 8.3887 11.4638 8.34917 11.3484C8.30965 11.233 8.24427 11.1282 8.15803 11.042C8.07179 10.9557 7.96697 10.8904 7.8516 10.8508C7.73622 10.8113 7.61333 10.7987 7.49232 10.8139C7.37132 10.8292 7.2554 10.8719 7.15344 10.9388C7.05147 11.0057 6.96615 11.0951 6.904 11.2L2.632 15.432C2.55917 15.5081 2.50208 15.5978 2.464 15.696C2.38399 15.8908 2.38399 16.1092 2.464 16.304C2.50208 16.4022 2.55917 16.4919 2.632 16.568L6.904 20.8C7.05237 20.9395 7.24835 21.0172 7.452 21.0172C7.65565 21.0172 7.85164 20.9395 8 20.8C8.149 20.6501 8.23264 20.4474 8.23264 20.236C8.23264 20.0247 8.149 19.8219 8 19.672L5.128 16.8H15.2V26.872L12.296 24C12.2339 23.8951 12.1485 23.8057 12.0466 23.7388C11.9446 23.6719 11.8287 23.6292 11.7077 23.6139C11.5867 23.5987 11.4638 23.6113 11.3484 23.6508C11.233 23.6904 11.1282 23.7557 11.042 23.842C10.9557 23.9282 10.8904 24.033 10.8508 24.1484C10.8113 24.2638 10.7987 24.3867 10.8139 24.5077C10.8292 24.6287 10.8719 24.7446 10.9388 24.8466C11.0057 24.9485 11.0951 25.0339 11.2 25.096L15.464 29.368C15.5401 29.4408 15.6298 29.4979 15.728 29.536C15.8238 29.5783 15.9273 29.6002 16.032 29.6002C16.1367 29.6002 16.2402 29.5783 16.336 29.536C16.4342 29.4979 16.5239 29.4408 16.6 29.368L20.8 25.096C20.9049 25.0339 20.9943 24.9485 21.0612 24.8466C21.1281 24.7446 21.1708 24.6287 21.1861 24.5077C21.2013 24.3867 21.1887 24.2638 21.1492 24.1484C21.1097 24.033 21.0443 23.9282 20.958 23.842C20.8718 23.7557 20.767 23.6904 20.6516 23.6508C20.5362 23.6113 20.4133 23.5987 20.2923 23.6139C20.1713 23.6292 20.0554 23.6719 19.9534 23.7388C19.8515 23.8057 19.7661 23.8951 19.704 24L16.8 26.872V16.8H26.872L24 19.704C23.8605 19.8524 23.7828 20.0484 23.7828 20.252C23.7828 20.4557 23.8605 20.6516 24 20.8C24.1499 20.949 24.3527 21.0326 24.564 21.0326C24.7754 21.0326 24.9781 20.949 25.128 20.8L29.4 16.536C29.4581 16.4669 29.5041 16.3885 29.536 16.304Z" fill="black"/>
</svg>
