<svg width="32" height="32" viewBox="0 0 32 32" fill="none" xmlns="http://www.w3.org/2000/svg">
<path d="M28.568 2.6319C28.4936 2.55692 28.4052 2.4974 28.3077 2.45679C28.2102 2.41617 28.1056 2.39526 28 2.39526C27.8944 2.39526 27.7898 2.41617 27.6924 2.45679C27.5949 2.4974 27.5064 2.55692 27.432 2.6319L21.088 8.9839V8.3199C21.088 6.97048 20.552 5.67633 19.5978 4.72214C18.6436 3.76796 17.3494 3.2319 16 3.2319C14.6506 3.2319 13.3564 3.76796 12.4023 4.72214C11.4481 5.67633 10.912 6.97048 10.912 8.3199V15.1439C10.9085 16.2288 11.2597 17.2851 11.912 18.1519L9.73601 20.3359C8.76496 19.0988 8.23555 17.5726 8.23201 15.9999V13.6719C8.23201 13.4597 8.14773 13.2562 7.9977 13.1062C7.84767 12.9562 7.64419 12.8719 7.43201 12.8719C7.21984 12.8719 7.01636 12.9562 6.86633 13.1062C6.7163 13.2562 6.63201 13.4597 6.63201 13.6719V15.9999C6.63327 17.998 7.32576 19.9342 8.59201 21.4799L3.43201 26.6319C3.35703 26.7063 3.29751 26.7948 3.2569 26.8922C3.21628 26.9897 3.19537 27.0943 3.19537 27.1999C3.19537 27.3055 3.21628 27.4101 3.2569 27.5076C3.29751 27.6051 3.35703 27.6935 3.43201 27.7679C3.50638 27.8429 3.59486 27.9024 3.69235 27.943C3.78984 27.9836 3.8944 28.0045 4.00001 28.0045C4.10562 28.0045 4.21019 27.9836 4.30767 27.943C4.40516 27.9024 4.49364 27.8429 4.56801 27.7679L13.6 18.7599L20.872 11.4879L28.584 3.7759C28.6592 3.70034 28.7185 3.61051 28.7585 3.51171C28.7984 3.4129 28.8182 3.30711 28.8167 3.20054C28.8153 3.09396 28.7925 2.98876 28.7498 2.89111C28.7071 2.79347 28.6453 2.70534 28.568 2.6319ZM12.512 15.1439V8.3199C12.512 7.39483 12.8795 6.50764 13.5336 5.85351C14.1878 5.19939 15.0749 4.8319 16 4.8319C16.9251 4.8319 17.8123 5.19939 18.4664 5.85351C19.1205 6.50764 19.488 7.39483 19.488 8.3199V10.5839L13.088 16.9839C12.7233 16.4386 12.5234 15.7998 12.512 15.1439Z" fill="black"/>
<path d="M24.568 12.8721C24.3558 12.8721 24.1524 12.9564 24.0023 13.1064C23.8523 13.2564 23.768 13.4599 23.768 13.6721V16.0001C23.7094 18.0032 22.8587 19.9014 21.4024 21.2782C19.9462 22.6549 18.0033 23.3979 16 23.3441C14.7949 23.3403 13.6058 23.0669 12.52 22.5441C12.3269 22.4528 12.1055 22.442 11.9045 22.5141C11.7034 22.5861 11.5393 22.735 11.448 22.9281C11.3568 23.1211 11.346 23.3426 11.418 23.5436C11.49 23.7446 11.6389 23.9088 11.832 24.0001C12.8901 24.5045 14.0316 24.8109 15.2 24.9041V28.0001H11.104C10.8918 28.0001 10.6884 28.0844 10.5383 28.2344C10.3883 28.3844 10.304 28.5879 10.304 28.8001C10.304 29.0122 10.3883 29.2157 10.5383 29.3658C10.6884 29.5158 10.8918 29.6001 11.104 29.6001H20.896C21.1082 29.6001 21.3117 29.5158 21.4617 29.3658C21.6117 29.2157 21.696 29.0122 21.696 28.8001C21.696 28.5879 21.6117 28.3844 21.4617 28.2344C21.3117 28.0844 21.1082 28.0001 20.896 28.0001H16.8V24.9041C19.0844 24.7643 21.2329 23.7714 22.8197 22.1223C24.4066 20.4732 25.3161 18.2881 25.368 16.0001V13.6721C25.368 13.4599 25.2837 13.2564 25.1337 13.1064C24.9837 12.9564 24.7802 12.8721 24.568 12.8721Z" fill="black"/>
<path d="M21.088 15.144C21.088 14.9318 21.0037 14.7283 20.8537 14.5783C20.7037 14.4283 20.5002 14.344 20.288 14.344C20.0758 14.344 19.8724 14.4283 19.7223 14.5783C19.5723 14.7283 19.488 14.9318 19.488 15.144C19.4838 16.0663 19.1144 16.9494 18.4608 17.6C17.8071 18.2507 16.9223 18.616 16 18.616C15.7878 18.616 15.5844 18.7003 15.4343 18.8503C15.2843 19.0003 15.2 19.2038 15.2 19.416C15.2 19.6282 15.2843 19.8317 15.4343 19.9817C15.5844 20.1317 15.7878 20.216 16 20.216C16.6671 20.217 17.3279 20.0867 17.9447 19.8324C18.5614 19.578 19.122 19.2047 19.5945 18.7338C20.0669 18.2628 20.442 17.7034 20.6983 17.0874C20.9545 16.4715 21.087 15.8111 21.088 15.144Z" fill="black"/>
</svg>
