<svg width="32" height="32" viewBox="0 0 32 32" fill="none" xmlns="http://www.w3.org/2000/svg">
<path d="M16 29.5999C13.3102 29.5999 10.6808 28.8023 8.44428 27.3079C6.20777 25.8135 4.46462 23.6895 3.43527 21.2044C2.40592 18.7193 2.13659 15.9848 2.66135 13.3467C3.18611 10.7085 4.48138 8.28525 6.38338 6.38326C8.28537 4.48126 10.7087 3.18599 13.3468 2.66123C15.9849 2.13647 18.7195 2.4058 21.2045 3.43515C23.6896 4.4645 25.8136 6.20765 27.308 8.44415C28.8024 10.6807 29.6 13.3101 29.6 15.9999C29.6 19.6069 28.1672 23.0661 25.6167 25.6166C23.0662 28.1671 19.607 29.5999 16 29.5999ZM16 3.99991C13.6267 3.99991 11.3066 4.7037 9.33319 6.02227C7.3598 7.34085 5.82173 9.21499 4.91348 11.4077C4.00522 13.6004 3.76758 16.0132 4.23061 18.341C4.69363 20.6688 5.83652 22.807 7.51475 24.4852C9.19298 26.1634 11.3312 27.3063 13.6589 27.7693C15.9867 28.2324 18.3995 27.9947 20.5922 27.0865C22.7849 26.1782 24.6591 24.6401 25.9777 22.6668C27.2962 20.6934 28 18.3733 28 15.9999C28 14.424 27.6896 12.8636 27.0866 11.4077C26.4835 9.9518 25.5996 8.62893 24.4853 7.51463C23.371 6.40032 22.0481 5.51641 20.5922 4.91335C19.1363 4.3103 17.5759 3.99991 16 3.99991Z" fill="black"/>
<path d="M19.304 20.7999H12.408C12.1959 20.7999 11.9924 20.7157 11.8423 20.5656C11.6923 20.4156 11.608 20.2121 11.608 20C11.608 19.7878 11.6923 19.5843 11.8423 19.4343C11.9924 19.2842 12.1959 19.2 12.408 19.2H19.304C19.5162 19.2 19.7197 19.2842 19.8697 19.4343C20.0197 19.5843 20.104 19.7878 20.104 20C20.104 20.2121 20.0197 20.4156 19.8697 20.5656C19.7197 20.7157 19.5162 20.7999 19.304 20.7999Z" fill="black"/>
<path d="M12.696 15.4959C13.7873 15.4959 14.672 14.6113 14.672 13.5199C14.672 12.4286 13.7873 11.5439 12.696 11.5439C11.6047 11.5439 10.72 12.4286 10.72 13.5199C10.72 14.6113 11.6047 15.4959 12.696 15.4959Z" fill="black"/>
<path d="M19.0959 15.4959C20.1872 15.4959 21.0719 14.6113 21.0719 13.5199C21.0719 12.4286 20.1872 11.5439 19.0959 11.5439C18.0046 11.5439 17.1199 12.4286 17.1199 13.5199C17.1199 14.6113 18.0046 15.4959 19.0959 15.4959Z" fill="black"/>
</svg>
