<svg width="32" height="32" viewBox="0 0 32 32" fill="none" xmlns="http://www.w3.org/2000/svg">
<path d="M8.94396 29.496C8.15829 29.4967 7.39604 29.2285 6.78396 28.736C6.30675 28.365 5.93932 27.8713 5.72091 27.3077C5.50251 26.744 5.44134 26.1317 5.54396 25.536L6.28796 21.736C6.38716 21.1969 6.32596 20.6406 6.11196 20.136L4.67996 16.8C4.23939 15.7781 4.00749 14.6784 3.99787 13.5656C3.98825 12.4528 4.20112 11.3494 4.62396 10.32C5.05864 9.25712 5.70158 8.29196 6.51494 7.48135C7.3283 6.67074 8.29562 6.03107 9.35996 5.59999C11.4853 4.71301 13.8737 4.69455 16.0125 5.54858C18.1513 6.40261 19.8701 8.06105 20.8 10.168L22.224 13.512C22.4473 14.0263 22.8174 14.4632 23.288 14.768L26.576 16.92C27.0748 17.2631 27.4709 17.7355 27.7218 18.2865C27.9726 18.8375 28.0688 19.4465 28 20.048C27.9337 20.66 27.7021 21.2424 27.33 21.7329C26.958 22.2233 26.4595 22.6033 25.888 22.832L10.304 29.232C9.8729 29.4102 9.4104 29.5 8.94396 29.496ZM12.728 6.54399C11.7813 6.54333 10.8436 6.72814 9.96796 7.08799C9.10095 7.43742 8.31292 7.95735 7.65056 8.61697C6.9882 9.27658 6.465 10.0624 6.11196 10.928C5.76777 11.7597 5.59397 12.652 5.60084 13.552C5.60771 14.4521 5.79512 15.3416 6.15196 16.168L7.58396 19.504C7.92812 20.3082 8.02288 21.1973 7.85596 22.056L7.11996 25.84C7.07167 26.1471 7.10713 26.4615 7.22258 26.7501C7.33803 27.0388 7.52921 27.2909 7.77596 27.48C8.0394 27.6928 8.35585 27.8298 8.6913 27.8763C9.02676 27.9229 9.36855 27.8771 9.67996 27.744L25.264 21.344C25.5678 21.2252 25.8338 21.0263 26.0338 20.7686C26.2338 20.5108 26.3603 20.2038 26.4 19.88C26.4292 19.5596 26.3701 19.2374 26.2291 18.9482C26.0881 18.6591 25.8705 18.4141 25.6 18.24L22.4 16.112C21.6681 15.6312 21.0925 14.9473 20.744 14.144L19.288 10.8C18.7291 9.52786 17.8102 8.44707 16.6445 7.69082C15.4789 6.93457 14.1174 6.53591 12.728 6.54399Z" fill="black"/>
<path d="M6.88803 8.25585C6.59634 7.94865 6.36318 7.59079 6.20004 7.19985C6.02576 6.78159 5.93604 6.33296 5.93604 5.87985C5.93604 5.42673 6.02576 4.9781 6.20004 4.55985C6.37634 4.12918 6.63704 3.73815 6.96678 3.40978C7.29652 3.08142 7.68864 2.82235 8.12003 2.64785C8.97845 2.29271 9.94168 2.28719 10.8041 2.63246C11.6665 2.97773 12.3599 3.64644 12.736 4.49585C12.9004 4.87866 12.9953 5.28774 13.016 5.70385L11.416 5.76785C11.4085 5.54652 11.3568 5.32894 11.264 5.12785C11.0569 4.66187 10.6751 4.29591 10.2007 4.10885C9.72631 3.9218 9.19742 3.92862 8.72803 4.12785C8.48744 4.22261 8.26847 4.36499 8.08426 4.54645C7.90005 4.72791 7.7544 4.94471 7.65603 5.18385C7.52487 5.51421 7.49133 5.87529 7.55941 6.22416C7.62748 6.57304 7.7943 6.89502 8.04004 7.15185L6.88803 8.25585Z" fill="black"/>
<path d="M17.6001 29.6C16.6488 29.6036 15.7172 29.3292 14.9198 28.8104C14.1225 28.2917 13.4941 27.5511 13.1121 26.68L14.5761 26.048C14.9271 26.8352 15.5726 27.4536 16.3741 27.7707C17.1756 28.0877 18.0695 28.0781 18.8641 27.744C19.2623 27.5857 19.6247 27.3491 19.9298 27.0482C20.2349 26.7472 20.4764 26.388 20.6401 25.992C20.8002 25.6122 20.8828 25.2041 20.8828 24.792C20.8828 24.3798 20.8002 23.9718 20.6401 23.592L22.1041 22.96C22.3474 23.5345 22.4728 24.152 22.4728 24.776C22.4728 25.3999 22.3474 26.0175 22.1041 26.592C21.8618 27.1868 21.5025 27.7269 21.0477 28.1804C20.5928 28.6339 20.0516 28.9915 19.4561 29.232C18.8667 29.4724 18.2366 29.5973 17.6001 29.6Z" fill="black"/>
</svg>
