<svg width="32" height="32" viewBox="0 0 32 32" fill="none" xmlns="http://www.w3.org/2000/svg">
<path d="M24 2.08008C19.6 2.08008 16.08 5.68008 16.08 10.0801C16.08 14.4801 19.68 18.0001 24.08 18.0001C28.48 18.0001 32 14.4001 32 10.0001C32 5.60008 28.4 2.08008 24 2.08008ZM24.08 16.1601C20.64 16.1601 17.92 13.4401 17.84 10.0001C17.84 6.56008 20.56 3.84008 24 3.76008C27.44 3.76008 30.16 6.48008 30.24 9.92008C30.24 13.3601 27.44 16.1601 24.08 16.1601ZM12.4 18.0001L15.6 20.4001C16 20.7201 16.08 21.2801 15.76 21.6001C15.6 21.8401 15.36 21.9201 15.04 21.9201C14.88 21.9201 14.64 21.8401 14.48 21.7601L10.96 19.1201C10.72 18.9601 10.64 18.7201 10.64 18.4001V12.2401C10.64 11.7601 11.04 11.3601 11.52 11.3601C12 11.3601 12.4 11.7601 12.4 12.2401V18.0001ZM22.8 8.24008V11.7601C22.8 12.2401 22.4 12.6401 21.92 12.6401C21.44 12.6401 21.04 12.2401 21.04 11.7601V8.24008C21.04 7.76008 21.44 7.36008 21.92 7.36008C22.4 7.36008 22.8 7.76008 22.8 8.24008ZM27.04 8.24008V11.7601C27.04 12.2401 26.64 12.6401 26.16 12.6401C25.68 12.6401 25.28 12.2401 25.28 11.7601V8.24008C25.28 7.76008 25.68 7.36008 26.16 7.36008C26.64 7.36008 27.04 7.76008 27.04 8.24008ZM21.04 19.9201C21.6 20.0801 22.16 20.2401 22.8 20.2401C21.92 25.6801 17.2 29.8401 11.52 29.8401C5.2 29.9201 0 24.8001 0 18.4801C0 12.1601 5.12 6.96008 11.44 6.96008C12.32 6.96008 13.2 7.04008 14 7.28008C13.84 7.84008 13.76 8.40008 13.68 9.04008C12.96 8.88008 12.16 8.80008 11.44 8.80008C6.08 8.80008 1.76 13.2001 1.76 18.5601C1.76 23.9201 6.16 28.2401 11.52 28.2401C16.32 28.1601 20.32 24.5601 21.04 19.9201Z" fill="black"/>
</svg>
