<svg width="32" height="32" viewBox="0 0 32 32" fill="none" xmlns="http://www.w3.org/2000/svg">
<path d="M26.4719 17.36C26.2598 17.36 26.0563 17.4443 25.9062 17.5943C25.7562 17.7444 25.6719 17.9479 25.6719 18.16V27.472C25.6698 27.8766 25.5082 28.2641 25.2221 28.5502C24.936 28.8363 24.5485 28.9979 24.1439 29H5.5279C5.1233 28.9979 4.73587 28.8363 4.44977 28.5502C4.16367 28.2641 4.00201 27.8766 3.9999 27.472V8.85603C4.00201 8.45142 4.16367 8.06399 4.44977 7.77789C4.73587 7.49179 5.1233 7.33013 5.5279 7.32803H14.8399C15.0521 7.32803 15.2556 7.24374 15.4056 7.09371C15.5556 6.94368 15.6399 6.7402 15.6399 6.52803C15.6399 6.31585 15.5556 6.11237 15.4056 5.96234C15.2556 5.81231 15.0521 5.72803 14.8399 5.72803H5.5279C4.69831 5.72803 3.90269 6.05758 3.31607 6.6442C2.72946 7.23081 2.3999 8.02643 2.3999 8.85603V27.472C2.3999 28.3016 2.72946 29.0972 3.31607 29.6839C3.90269 30.2705 4.69831 30.6 5.5279 30.6H24.1439C24.5547 30.6 24.9615 30.5191 25.341 30.3619C25.7205 30.2047 26.0653 29.9743 26.3558 29.6839C26.6462 29.3934 26.8766 29.0486 27.0338 28.6691C27.191 28.2896 27.2719 27.8828 27.2719 27.472V18.16C27.2719 17.9479 27.1876 17.7444 27.0376 17.5943C26.8876 17.4443 26.6841 17.36 26.4719 17.36Z" fill="black"/>
<path d="M28.4961 3.3999H19.4881C19.2759 3.3999 19.0724 3.48419 18.9224 3.63422C18.7724 3.78425 18.6881 3.98773 18.6881 4.1999C18.6881 4.41208 18.7724 4.61556 18.9224 4.76559C19.0724 4.91562 19.2759 4.9999 19.4881 4.9999H26.8721L16.6001 15.2719C16.4511 15.4218 16.3674 15.6246 16.3674 15.8359C16.3674 16.0473 16.4511 16.25 16.6001 16.3999C16.75 16.5489 16.9527 16.6325 17.1641 16.6325C17.3754 16.6325 17.5782 16.5489 17.7281 16.3999L28.0001 6.1279V13.5119C28.0001 13.7241 28.0844 13.9276 28.2344 14.0776C28.3844 14.2276 28.5879 14.3119 28.8001 14.3119C29.0122 14.3119 29.2157 14.2276 29.3658 14.0776C29.5158 13.9276 29.6001 13.7241 29.6001 13.5119V4.5039C29.6001 4.2111 29.4838 3.9303 29.2767 3.72326C29.0697 3.51622 28.7889 3.3999 28.4961 3.3999Z" fill="black"/>
</svg>
