<svg width="32" height="32" viewBox="0 0 32 32" fill="none" xmlns="http://www.w3.org/2000/svg">
<path d="M24.752 27.88H24.4V23.576C24.3997 22.0113 23.9688 20.4768 23.1547 19.1405C22.3405 17.8043 21.1744 16.7178 19.784 16C21.1744 15.2822 22.3405 14.1957 23.1547 12.8595C23.9688 11.5232 24.3997 9.98874 24.4 8.42399V4.11999H24.752C24.9658 4.09935 25.1642 3.99983 25.3086 3.84083C25.453 3.68184 25.533 3.47476 25.533 3.25999C25.533 3.04522 25.453 2.83815 25.3086 2.67915C25.1642 2.52016 24.9658 2.42064 24.752 2.39999H7.248C7.03422 2.42064 6.8358 2.52016 6.69141 2.67915C6.54703 2.83815 6.46704 3.04522 6.46704 3.25999C6.46704 3.47476 6.54703 3.68184 6.69141 3.84083C6.8358 3.99983 7.03422 4.09935 7.248 4.11999H7.6V8.42399C7.60033 9.98874 8.03116 11.5232 8.84532 12.8595C9.65949 14.1957 10.8256 15.2822 12.216 16C10.8256 16.7178 9.65949 17.8043 8.84532 19.1405C8.03116 20.4768 7.60033 22.0113 7.6 23.576V27.88H7.248C7.03422 27.9006 6.8358 28.0002 6.69141 28.1592C6.54703 28.3182 6.46704 28.5252 6.46704 28.74C6.46704 28.9548 6.54703 29.1618 6.69141 29.3208C6.8358 29.4798 7.03422 29.5794 7.248 29.6H24.752C24.9658 29.5794 25.1642 29.4798 25.3086 29.3208C25.453 29.1618 25.533 28.9548 25.533 28.74C25.533 28.5252 25.453 28.3182 25.3086 28.1592C25.1642 28.0002 24.9658 27.9006 24.752 27.88V27.88ZM9.304 27.88V23.576C9.30212 22.1075 9.77683 20.678 10.6568 19.5023C11.5368 18.3266 12.7745 17.4682 14.184 17.056C14.4103 16.987 14.6084 16.8471 14.7492 16.657C14.89 16.4669 14.966 16.2366 14.966 16C14.966 15.7634 14.89 15.5331 14.7492 15.343C14.6084 15.1529 14.4103 15.013 14.184 14.944C12.7745 14.5318 11.5368 13.6734 10.6568 12.4977C9.77683 11.322 9.30212 9.89253 9.304 8.42399V4.11999H22.696V8.42399C22.6979 9.89253 22.2232 11.322 21.3432 12.4977C20.4632 13.6734 19.2255 14.5318 17.816 14.944C17.5852 15.0081 17.3818 15.1461 17.2368 15.3368C17.0919 15.5275 17.0134 15.7605 17.0134 16C17.0134 16.2395 17.0919 16.4725 17.2368 16.6632C17.3818 16.8539 17.5852 16.9919 17.816 17.056C19.2255 17.4682 20.4632 18.3266 21.3432 19.5023C22.2232 20.678 22.6979 22.1075 22.696 23.576V27.88H9.304Z" fill="black"/>
<path d="M10.776 26.816H21.08V23.376C21.0842 22.6956 20.9542 22.0211 20.6975 21.3909C20.4408 20.7608 20.0623 20.1875 19.5838 19.7038C19.1053 19.2201 18.5361 18.8355 17.9088 18.5719C17.2815 18.3084 16.6084 18.1711 15.928 18.168V18.168C15.2476 18.1711 14.5745 18.3084 13.9472 18.5719C13.3199 18.8355 12.7507 19.2201 12.2722 19.7038C11.7937 20.1875 11.4152 20.7608 11.1585 21.3909C10.9018 22.0211 10.7718 22.6956 10.776 23.376V26.816Z" fill="black"/>
</svg>
