<svg width="32" height="32" viewBox="0 0 32 32" fill="none" xmlns="http://www.w3.org/2000/svg">
<path d="M9.06399 24.8H23.288V24.752C23.3072 24.7335 23.3222 24.711 23.3318 24.6862C23.3415 24.6613 23.3457 24.6346 23.344 24.608L23.672 23.688L24.232 22.16H8.12799L9.06399 24.8Z" fill="black"/>
<path d="M27.008 11.096C26.7712 11.0905 26.5357 11.1331 26.3158 11.2213C26.0959 11.3094 25.8962 11.4412 25.7287 11.6087C25.5612 11.7762 25.4294 11.9759 25.3413 12.1958C25.2531 12.4157 25.2105 12.6512 25.216 12.888C25.2137 13.1663 25.2796 13.441 25.408 13.688L20.544 16.504L17.024 10.488C17.3176 10.3134 17.5531 10.056 17.7012 9.74811C17.8492 9.44024 17.903 9.09554 17.856 8.75718C17.8091 8.41882 17.6633 8.10185 17.437 7.84595C17.2107 7.59006 16.9139 7.40661 16.5838 7.3186C16.2538 7.23058 15.9051 7.2419 15.5814 7.35113C15.2577 7.46037 14.9735 7.66267 14.7643 7.93271C14.555 8.20274 14.4301 8.5285 14.4052 8.86919C14.3802 9.20988 14.4564 9.55036 14.624 9.84799C14.7686 10.1205 14.9915 10.3434 15.264 10.488L11.68 16.504L6.56001 13.56C6.63326 13.3539 6.67637 13.1384 6.68801 12.92C6.68162 12.572 6.57219 12.2337 6.37355 11.9479C6.17491 11.662 5.89598 11.4415 5.57202 11.3142C5.24807 11.1869 4.89364 11.1585 4.55355 11.2326C4.21346 11.3068 3.90299 11.48 3.66138 11.7306C3.41977 11.9812 3.25788 12.2977 3.19618 12.6403C3.13448 12.9828 3.17573 13.336 3.31473 13.6551C3.45373 13.9742 3.68423 14.245 3.97708 14.4331C4.26994 14.6212 4.612 14.7183 4.96001 14.712C5.09133 14.7226 5.22323 14.7006 5.34401 14.648L7.49601 20.4H24.888L24.944 20.248L27.008 14.648C27.2421 14.6533 27.4749 14.6117 27.6926 14.5256C27.9104 14.4394 28.1086 14.3105 28.2757 14.1464C28.4427 13.9823 28.5752 13.7864 28.6653 13.5703C28.7553 13.3542 28.8011 13.1221 28.8 12.888C28.8 12.4127 28.6112 11.9569 28.2751 11.6209C27.9391 11.2848 27.4833 11.096 27.008 11.096Z" fill="black"/>
</svg>
