<svg width="32" height="32" viewBox="0 0 32 32" fill="none" xmlns="http://www.w3.org/2000/svg">
<path d="M21.6 5.6001C21.3879 5.6001 21.1844 5.68438 21.0344 5.83441C20.8843 5.98444 20.8 6.18792 20.8 6.4001V25.6001C20.8 25.8123 20.8843 26.0158 21.0344 26.1658C21.1844 26.3158 21.3879 26.4001 21.6 26.4001C21.8122 26.4001 22.0157 26.3158 22.1657 26.1658C22.3158 26.0158 22.4 25.8123 22.4 25.6001V6.4001C22.4 6.18792 22.3158 5.98444 22.1657 5.83441C22.0157 5.68438 21.8122 5.6001 21.6 5.6001Z" fill="black"/>
<path d="M10.4001 5.6001C10.1879 5.6001 9.98444 5.68438 9.83441 5.83441C9.68438 5.98444 9.6001 6.18792 9.6001 6.4001V25.6001C9.6001 25.8123 9.68438 26.0158 9.83441 26.1658C9.98444 26.3158 10.1879 26.4001 10.4001 26.4001C10.6123 26.4001 10.8158 26.3158 10.9658 26.1658C11.1158 26.0158 11.2001 25.8123 11.2001 25.6001V6.4001C11.2001 6.18792 11.1158 5.98444 10.9658 5.83441C10.8158 5.68438 10.6123 5.6001 10.4001 5.6001Z" fill="black"/>
</svg>
