<svg width="32" height="32" viewBox="0 0 32 32" fill="none" xmlns="http://www.w3.org/2000/svg">
<path d="M26.144 3.2H21.72V28.8H26.144C26.8238 28.8238 27.4854 28.5768 27.9833 28.1134C28.4813 27.6499 28.775 27.0078 28.8 26.328V5.672C28.775 4.99219 28.4813 4.35009 27.9833 3.88663C27.4854 3.42317 26.8238 3.17622 26.144 3.2V3.2Z" fill="black"/>
<path d="M4.00001 11.68C4.21219 11.68 4.41567 11.5957 4.5657 11.4457C4.71573 11.2957 4.80001 11.0922 4.80001 10.88V6.52C4.81112 6.28624 4.86895 6.05708 4.97008 5.84604C5.07122 5.635 5.21361 5.44636 5.38885 5.29125C5.56409 5.13615 5.76862 5.01772 5.99038 4.94296C6.21214 4.86821 6.44664 4.83864 6.68001 4.856H16.416C16.6282 4.856 16.8317 4.77172 16.9817 4.62169C17.1317 4.47166 17.216 4.26817 17.216 4.056C17.216 3.84383 17.1317 3.64034 16.9817 3.49032C16.8317 3.34029 16.6282 3.256 16.416 3.256H6.68001C5.78645 3.23009 4.91893 3.5588 4.26691 4.17036C3.61489 4.78191 3.23134 5.62661 3.20001 6.52V10.88C3.20001 11.0922 3.2843 11.2957 3.43433 11.4457C3.58436 11.5957 3.78784 11.68 4.00001 11.68Z" fill="black"/>
<path d="M16.416 27.152H6.68001C6.21578 27.1716 5.76264 27.0068 5.41944 26.6935C5.07624 26.3803 4.87083 25.9441 4.84801 25.48V21.12C4.84801 20.9015 4.7612 20.6919 4.60667 20.5373C4.45214 20.3828 4.24255 20.296 4.02401 20.296C3.80547 20.296 3.59589 20.3828 3.44136 20.5373C3.28683 20.6919 3.20001 20.9015 3.20001 21.12V25.48C3.22927 26.3748 3.61192 27.2215 4.26417 27.8348C4.91642 28.4481 5.78511 28.7779 6.68001 28.752H16.416C16.6282 28.752 16.8317 28.6677 16.9817 28.5177C17.1317 28.3676 17.216 28.1642 17.216 27.952C17.216 27.7398 17.1317 27.5363 16.9817 27.3863C16.8317 27.2363 16.6282 27.152 16.416 27.152Z" fill="black"/>
<path d="M18.272 15.352L12.8 11.512C12.7136 11.4451 12.6143 11.3966 12.5084 11.3695C12.4025 11.3425 12.2921 11.3374 12.1842 11.3547C12.0762 11.3719 11.973 11.4111 11.8807 11.4698C11.7885 11.5285 11.7093 11.6055 11.648 11.696C11.5248 11.8637 11.4718 12.0727 11.5002 12.2788C11.5285 12.4849 11.6361 12.6719 11.8 12.8L15.2 15.2H4.00001C3.78784 15.2 3.58436 15.2843 3.43433 15.4343C3.2843 15.5843 3.20001 15.7878 3.20001 16C3.20001 16.2122 3.2843 16.4157 3.43433 16.5657C3.58436 16.7157 3.78784 16.8 4.00001 16.8H15.2L11.768 19.2C11.5968 19.3236 11.4814 19.5098 11.4469 19.7181C11.4125 19.9264 11.4617 20.1399 11.584 20.312C11.66 20.4187 11.7609 20.5052 11.8781 20.5638C11.9953 20.6224 12.1251 20.6513 12.256 20.648C12.4282 20.6503 12.5965 20.597 12.736 20.496L18.24 16.656C18.3425 16.5818 18.4259 16.4844 18.4834 16.3718C18.5409 16.2591 18.5709 16.1345 18.5709 16.008C18.5709 15.8815 18.5409 15.7569 18.4834 15.6442C18.4259 15.5316 18.3425 15.4342 18.24 15.36L18.272 15.352Z" fill="black"/>
</svg>
