<svg width="32" height="32" viewBox="0 0 32 32" fill="none" xmlns="http://www.w3.org/2000/svg">
<path d="M27.2 22.1842L22.4 18.9842C22.0423 18.7471 21.6137 18.6407 21.1867 18.683C20.7597 18.7253 20.3603 18.9136 20.056 19.2162L19.32 19.9602C19.035 20.2491 18.6508 20.4189 18.2454 20.4352C17.8399 20.4516 17.4433 20.3132 17.136 20.0482C16.192 19.2482 15.304 18.4482 14.496 17.6482L14.4 17.6002C13.6 16.8002 12.8 15.8882 12 14.9442C11.7341 14.6249 11.5959 14.2184 11.6121 13.8033C11.6284 13.3881 11.7979 12.9937 12.088 12.6962L12.832 11.9522C13.1387 11.6474 13.3271 11.2437 13.3637 10.8129C13.4004 10.3821 13.2828 9.95231 13.032 9.60017L9.83198 4.80017C9.55373 4.40009 9.12929 4.12551 8.65032 4.0357C8.17135 3.9459 7.67627 4.04807 7.27198 4.32017L5.95198 5.21617C5.27031 5.66751 4.72703 6.29893 4.38246 7.04032C4.03789 7.78171 3.9055 8.60409 3.99998 9.41617C4.40798 12.7442 6.99198 17.0642 10.912 20.9922L10.952 21.0322C14.904 24.9682 19.2 27.5602 22.56 28.0002C22.7438 28.0121 22.9282 28.0121 23.112 28.0002C23.8391 28.0004 24.5551 27.8217 25.1969 27.4799C25.8386 27.1381 26.3864 26.6437 26.792 26.0402L27.688 24.7122C27.8225 24.5143 27.9166 24.2919 27.9649 24.0575C28.0132 23.8232 28.0148 23.5817 27.9694 23.3467C27.9241 23.1118 27.8327 22.8882 27.7007 22.6887C27.5687 22.4892 27.3985 22.3177 27.2 22.1842ZM26.288 23.7842L25.392 25.1122C25.1111 25.5322 24.7197 25.8665 24.2609 26.0782C23.8022 26.29 23.2938 26.3709 22.792 26.3122C19.832 25.9442 15.88 23.5362 12.216 19.8642L12.176 19.8242C8.50398 16.1522 6.09598 12.1762 5.77598 9.20817C5.71352 8.69915 5.79246 8.18276 6.00414 7.71566C6.21582 7.24855 6.55206 6.84877 6.97598 6.56017L8.23998 5.68017H8.31198C8.34821 5.68991 8.37955 5.7127 8.39998 5.74417L11.6 10.5442C11.6246 10.5763 11.638 10.6157 11.638 10.6562C11.638 10.6967 11.6246 10.736 11.6 10.7682L10.856 11.5122C10.2596 12.0953 9.90712 12.8834 9.86999 13.7167C9.83285 14.55 10.1138 15.3663 10.656 16.0002C11.456 16.9682 12.32 17.8882 13.144 18.7442L13.28 18.8802C14.08 19.6802 15.04 20.5282 16.016 21.3602C16.6542 21.9007 17.4722 22.1817 18.3078 22.1476C19.1435 22.1136 19.9359 21.7668 20.528 21.1762L21.272 20.4322C21.2944 20.4102 21.3246 20.3979 21.356 20.3979C21.3874 20.3979 21.4175 20.4102 21.44 20.4322L26.24 23.6322C26.2585 23.6555 26.2711 23.683 26.2767 23.7122C26.2823 23.7415 26.2806 23.7717 26.272 23.8002L26.288 23.7842Z" fill="black"/>
</svg>
