<svg width="32" height="32" viewBox="0 0 32 32" fill="none" xmlns="http://www.w3.org/2000/svg">
<path d="M29.36 12.872L19.128 2.63996C19.0196 2.51266 18.874 2.42252 18.7118 2.38223C18.5495 2.34193 18.3787 2.35349 18.2233 2.41528C18.0679 2.47707 17.9358 2.586 17.8456 2.72674C17.7553 2.86748 17.7114 3.03297 17.72 3.19996L17.656 7.99995L12.856 12.8L6.40002 12.104C6.22508 12.0677 6.04304 12.091 5.88291 12.1703C5.72277 12.2495 5.59377 12.3801 5.51646 12.5411C5.43915 12.7022 5.41798 12.8845 5.45632 13.059C5.49466 13.2335 5.59031 13.3901 5.72802 13.504L10.92 18.696L2.40002 29.6L13.304 21.12L18.496 26.312C18.572 26.3895 18.6629 26.4507 18.7633 26.492C18.8637 26.5333 18.9715 26.5537 19.08 26.552C19.2019 26.5525 19.3223 26.5251 19.432 26.472C19.5827 26.4031 19.7082 26.2891 19.7913 26.1458C19.8745 26.0025 19.911 25.8369 19.896 25.672L19.24 19.104L24.04 14.304H28.8C28.9706 14.3153 29.1403 14.2717 29.2842 14.1795C29.4282 14.0874 29.5389 13.9516 29.6 13.792C29.6637 13.6331 29.6747 13.458 29.6315 13.2924C29.5883 13.1268 29.4932 12.9795 29.36 12.872ZM23.696 12.632C23.5869 12.6313 23.4788 12.6529 23.3784 12.6956C23.278 12.7382 23.1873 12.801 23.112 12.88L17.8 18.192C17.7119 18.2769 17.6444 18.3809 17.6028 18.496C17.5612 18.6112 17.5466 18.7343 17.56 18.856L18.032 23.52L8.51202 14L13.072 14.504C13.196 14.5164 13.3213 14.5013 13.4388 14.4598C13.5563 14.4184 13.6633 14.3515 13.752 14.264L19.056 8.95195C19.1316 8.87786 19.1918 8.78951 19.2329 8.69201C19.2741 8.59451 19.2956 8.4898 19.296 8.38395L19.344 5.18396L26.784 12.624L23.696 12.632Z" fill="black"/>
</svg>
