<svg width="32" height="32" viewBox="0 0 32 32" fill="none" xmlns="http://www.w3.org/2000/svg">
<path d="M29.368 28.2319L26.28 25.1439C28.0997 23.2521 29.1054 20.7225 29.0815 18.0977C29.0576 15.473 28.0059 12.9621 26.152 11.1039L20 4.97586C19.5074 4.50588 18.8528 4.24367 18.172 4.24367C17.4912 4.24367 16.8365 4.50588 16.344 4.97586L14.832 6.51986L10.952 2.63186C10.8013 2.48228 10.5974 2.39867 10.3852 2.39942C10.1729 2.40017 9.96957 2.48522 9.81999 2.63586C9.6704 2.78651 9.58679 2.9904 9.58754 3.20269C9.58829 3.41498 9.67334 3.61828 9.82399 3.76786L13.704 7.64786L7.64799 13.7039L3.76799 9.82386C3.6184 9.67322 3.41511 9.58817 3.20281 9.58742C2.99052 9.58667 2.78663 9.67028 2.63599 9.81986C2.48534 9.96945 2.40029 10.1727 2.39954 10.385C2.39879 10.5973 2.4824 10.8012 2.63199 10.9519L6.51999 14.8319L4.97599 16.3679C4.49477 16.8546 4.22488 17.5114 4.22488 18.1959C4.22488 18.8803 4.49477 19.5371 4.97599 20.0239L11.104 26.1519C12.9602 28.0095 15.4718 29.0639 18.0978 29.0878C20.7238 29.1118 23.2542 28.1034 25.144 26.2799L28.232 29.3679C28.3064 29.4428 28.3948 29.5024 28.4923 29.543C28.5898 29.5836 28.6944 29.6045 28.8 29.6045C28.9056 29.6045 29.0102 29.5836 29.1076 29.543C29.2051 29.5024 29.2936 29.4428 29.368 29.3679C29.443 29.2935 29.5025 29.205 29.5431 29.1075C29.5837 29.01 29.6046 28.9055 29.6046 28.7999C29.6046 28.6943 29.5837 28.5897 29.5431 28.4922C29.5025 28.3947 29.443 28.3062 29.368 28.2319ZM18.168 27.4879C17.061 27.4914 15.9643 27.2754 14.9413 26.8525C13.9183 26.4296 12.9893 25.808 12.208 25.0239L6.11199 18.8959C6.02055 18.8045 5.94802 18.696 5.89853 18.5766C5.84904 18.4571 5.82357 18.3291 5.82357 18.1999C5.82357 18.0706 5.84904 17.9426 5.89853 17.8232C5.94802 17.7037 6.02055 17.5952 6.11199 17.5039L17.504 6.11186C17.5951 6.02015 17.7036 5.94746 17.8231 5.89802C17.9426 5.84858 18.0707 5.82337 18.2 5.82386C18.4608 5.82462 18.7109 5.92809 18.896 6.11186L25.024 12.2319C26.6 13.815 27.4847 15.958 27.4847 18.1919C27.4847 20.4257 26.6 22.5687 25.024 24.1519L24.152 25.0239C23.3707 25.808 22.4416 26.4296 21.4186 26.8525C20.3956 27.2754 19.299 27.4914 18.192 27.4879H18.168Z" fill="black"/>
<path d="M17.6 10.5921L10.4 17.7921C10.251 17.942 10.1674 18.1448 10.1674 18.3561C10.1674 18.5675 10.251 18.7702 10.4 18.9201C10.5499 19.0691 10.7526 19.1528 10.964 19.1528C11.1753 19.1528 11.3781 19.0691 11.528 18.9201L18.728 11.7201C18.803 11.6458 18.8625 11.5573 18.9031 11.4598C18.9437 11.3623 18.9646 11.2577 18.9646 11.1521C18.9646 11.0465 18.9437 10.942 18.9031 10.8445C18.8625 10.747 18.803 10.6585 18.728 10.5841C18.577 10.4362 18.3737 10.354 18.1623 10.3555C17.951 10.357 17.7488 10.4421 17.6 10.5921Z" fill="black"/>
</svg>
