<svg width="32" height="32" viewBox="0 0 32 32" fill="none" xmlns="http://www.w3.org/2000/svg">
<path d="M28.7999 15.1999H16.7999V3.1999C16.7999 2.98773 16.7156 2.78425 16.5656 2.63422C16.4156 2.48419 16.2121 2.3999 15.9999 2.3999C15.7877 2.3999 15.5842 2.48419 15.4342 2.63422C15.2842 2.78425 15.1999 2.98773 15.1999 3.1999V15.1999H3.1999C2.98773 15.1999 2.78425 15.2842 2.63422 15.4342C2.48419 15.5842 2.3999 15.7877 2.3999 15.9999C2.3999 16.2121 2.48419 16.4156 2.63422 16.5656C2.78425 16.7156 2.98773 16.7999 3.1999 16.7999H15.1999V28.7999C15.1999 29.0121 15.2842 29.2156 15.4342 29.3656C15.5842 29.5156 15.7877 29.5999 15.9999 29.5999C16.2121 29.5999 16.4156 29.5156 16.5656 29.3656C16.7156 29.2156 16.7999 29.0121 16.7999 28.7999V16.7999H28.7999C29.0121 16.7999 29.2156 16.7156 29.3656 16.5656C29.5156 16.4156 29.5999 16.2121 29.5999 15.9999C29.5999 15.7877 29.5156 15.5842 29.3656 15.4342C29.2156 15.2842 29.0121 15.1999 28.7999 15.1999Z" fill="black"/>
</svg>
