<svg width="32" height="32" viewBox="0 0 32 32" fill="none" xmlns="http://www.w3.org/2000/svg">
<path d="M25.0398 8.55988C24.8841 8.43138 24.6855 8.36651 24.484 8.37829C24.2824 8.39007 24.0928 8.47763 23.9531 8.6234C23.8134 8.76918 23.7339 8.96238 23.7307 9.16426C23.7275 9.36613 23.8008 9.56176 23.9358 9.71188C24.9686 10.6842 25.7915 11.8576 26.354 13.1598C26.9165 14.4619 27.2067 15.8654 27.2067 17.2839C27.2067 18.7023 26.9165 20.1058 26.354 21.408C25.7915 22.7102 24.9686 23.8835 23.9358 24.8559C21.7896 26.8776 18.9523 28.0035 16.0038 28.0035C13.0553 28.0035 10.218 26.8776 8.07181 24.8559C7.04032 23.8836 6.21846 22.7108 5.65672 21.4093C5.09498 20.1079 4.80521 18.7054 4.80521 17.2879C4.80521 15.8704 5.09498 14.4679 5.65672 13.1664C6.21846 11.865 7.04032 10.6921 8.07181 9.71988C8.22564 9.57242 8.31459 9.36989 8.31909 9.15685C8.32359 8.94381 8.24327 8.7377 8.09581 8.58388C7.94835 8.43005 7.74582 8.34111 7.53278 8.33661C7.31974 8.3321 7.11364 8.41242 6.95981 8.55988C5.77224 9.68152 4.82617 11.0338 4.17958 12.5339C3.53298 14.034 3.19946 15.6504 3.19946 17.2839C3.19946 18.9174 3.53298 20.5337 4.17958 22.0338C4.82617 23.5339 5.77224 24.8862 6.95981 26.0079C9.40676 28.3102 12.64 29.5922 15.9998 29.5922C19.3596 29.5922 22.5929 28.3102 25.0398 26.0079C26.2274 24.8862 27.1735 23.5339 27.82 22.0338C28.4666 20.5337 28.8002 18.9174 28.8002 17.2839C28.8002 15.6504 28.4666 14.034 27.82 12.5339C27.1735 11.0338 26.2274 9.68152 25.0398 8.55988Z" fill="black"/>
<path d="M16 16.7999C16.2121 16.7999 16.4156 16.7156 16.5656 16.5656C16.7157 16.4156 16.8 16.2121 16.8 15.9999V3.1999C16.8 2.98773 16.7157 2.78425 16.5656 2.63422C16.4156 2.48419 16.2121 2.3999 16 2.3999C15.7878 2.3999 15.5843 2.48419 15.4343 2.63422C15.2842 2.78425 15.2 2.98773 15.2 3.1999V15.9999C15.2 16.2121 15.2842 16.4156 15.4343 16.5656C15.5843 16.7156 15.7878 16.7999 16 16.7999Z" fill="black"/>
</svg>
