<svg width="32" height="32" viewBox="0 0 32 32" fill="none" xmlns="http://www.w3.org/2000/svg">
<path d="M26.2399 11.1999H24.4799V3.1999C24.4799 2.98773 24.3956 2.78425 24.2456 2.63422C24.0956 2.48419 23.8921 2.3999 23.6799 2.3999H8.31993C8.10776 2.3999 7.90428 2.48419 7.75425 2.63422C7.60422 2.78425 7.51993 2.98773 7.51993 3.1999V11.1999H5.75993C5.31599 11.1999 4.87644 11.2878 4.46668 11.4587C4.05693 11.6295 3.68509 11.8799 3.37267 12.1953C3.06024 12.5107 2.81342 12.8849 2.64645 13.2963C2.47949 13.7076 2.3957 14.148 2.39993 14.5919V20.9919C2.39993 21.8838 2.75367 22.7392 3.38357 23.3706C4.01346 24.002 4.86807 24.3578 5.75993 24.3599H7.35993V28.7999C7.35993 29.0121 7.44422 29.2156 7.59425 29.3656C7.74428 29.5156 7.94776 29.5999 8.15993 29.5999H23.8719C24.0841 29.5999 24.2876 29.5156 24.4376 29.3656C24.5876 29.2156 24.6719 29.0121 24.6719 28.7999V24.3759H26.2719C27.1582 24.3654 28.0047 24.0059 28.6277 23.3754C29.2506 22.7449 29.6 21.8943 29.5999 21.0079V14.6079C29.6063 14.1626 29.5241 13.7206 29.3581 13.3073C29.1921 12.8941 28.9456 12.518 28.6329 12.2009C28.3203 11.8838 27.9477 11.632 27.5369 11.4602C27.1261 11.2883 26.6852 11.1999 26.2399 11.1999ZM9.11993 3.9999H22.8799V11.1999H9.11993V3.9999ZM23.0719 27.9999H8.92793V18.7439H23.0719V27.9999ZM27.9999 21.0079C27.9999 21.4754 27.8148 21.9239 27.4849 22.2552C27.1551 22.5866 26.7074 22.7738 26.2399 22.7759H24.6399V17.9759C24.6399 17.7637 24.5556 17.5602 24.4056 17.4102C24.2556 17.2602 24.0521 17.1759 23.8399 17.1759H8.12793C7.91576 17.1759 7.71228 17.2602 7.56225 17.4102C7.41222 17.5602 7.32793 17.7637 7.32793 17.9759V22.7759H5.72793C5.266 22.7654 4.82651 22.5746 4.50355 22.2441C4.18058 21.9137 3.99981 21.47 3.99993 21.0079V14.6079C3.99462 14.3731 4.03615 14.1395 4.12212 13.9209C4.20808 13.7023 4.33675 13.503 4.50061 13.3347C4.66447 13.1663 4.86023 13.0323 5.07645 12.9405C5.29267 12.8487 5.52502 12.8009 5.75993 12.7999H26.2399C26.7061 12.802 27.1525 12.9881 27.4821 13.3177C27.8117 13.6473 27.9978 14.0938 27.9999 14.5599V21.0079Z" fill="black"/>
</svg>
