<svg width="32" height="32" viewBox="0 0 32 32" fill="none" xmlns="http://www.w3.org/2000/svg">
<path d="M7.59998 24C7.49469 24.0006 7.39032 23.9804 7.29285 23.9406C7.19538 23.9008 7.10673 23.8421 7.03198 23.768L2.23198 18.968C2.08133 18.8173 1.9967 18.613 1.9967 18.4C1.9967 18.1869 2.08133 17.9826 2.23198 17.832C2.38262 17.6813 2.58694 17.5967 2.79998 17.5967C3.01302 17.5967 3.21733 17.6813 3.36798 17.832L7.59998 22.072L21.432 8.23198C21.5826 8.08133 21.7869 7.9967 22 7.9967C22.213 7.9967 22.4173 8.08133 22.568 8.23198C22.7186 8.38262 22.8033 8.58694 22.8033 8.79998C22.8033 9.01302 22.7186 9.21733 22.568 9.36798L8.16798 23.768C8.09323 23.8421 8.00457 23.9008 7.9071 23.9406C7.80963 23.9804 7.70526 24.0006 7.59998 24ZM15.368 23.768L29.768 9.36798C29.9186 9.21733 30.0033 9.01302 30.0033 8.79998C30.0033 8.58694 29.9186 8.38262 29.768 8.23198C29.6173 8.08133 29.413 7.9967 29.2 7.9967C28.9869 7.9967 28.7826 8.08133 28.632 8.23198L14.8 22.072L13.888 21.16C13.7324 21.0614 13.5475 21.0196 13.3646 21.0416C13.1817 21.0635 13.012 21.1479 12.8842 21.2805C12.7563 21.413 12.6781 21.5857 12.6627 21.7692C12.6474 21.9528 12.6959 22.136 12.8 22.288L14.272 23.768C14.3463 23.843 14.4348 23.9025 14.5323 23.9431C14.6298 23.9837 14.7344 24.0046 14.84 24.0046C14.9456 24.0046 15.0502 23.9837 15.1476 23.9431C15.2451 23.9025 15.3336 23.843 15.408 23.768H15.368Z" fill="black"/>
</svg>
