<svg width="32" height="32" viewBox="0 0 32 32" fill="none" xmlns="http://www.w3.org/2000/svg">
<path d="M4.85591 18.0879C4.86021 20.6107 5.86481 23.0289 7.64941 24.812C9.43411 26.5952 11.8531 27.5978 14.3759 27.5999H25.432C25.6441 27.5999 25.8476 27.5156 25.9976 27.3656C26.1477 27.2155 26.232 27.012 26.232 26.7999C26.232 26.5877 26.1477 26.3842 25.9976 26.2342C25.8476 26.0842 25.6441 25.9999 25.432 25.9999H14.3759C12.2775 25.9999 10.2651 25.1663 8.78131 23.6825C7.29751 22.1987 6.46391 20.1863 6.46391 18.0879C6.46391 15.9895 7.29751 13.977 8.78131 12.4932C10.2651 11.0095 12.2775 10.1759 14.3759 10.1759H23.496L20.2319 13.1279C20.1542 13.1988 20.0912 13.2843 20.0465 13.3796C20.0018 13.4749 19.9763 13.578 19.9715 13.6831C19.9667 13.7882 19.9826 13.8933 20.0184 13.9922C20.0541 14.0912 20.109 14.1821 20.1799 14.2599C20.2509 14.3376 20.3364 14.4006 20.4317 14.4453C20.5269 14.49 20.6301 14.5155 20.7352 14.5203C20.8403 14.5252 20.9453 14.5092 21.0443 14.4735C21.1433 14.4377 21.2342 14.3828 21.3119 14.3119L26.752 9.38388L21.2959 4.58388C21.2181 4.50907 21.1258 4.4508 21.0248 4.41259C20.9238 4.37438 20.8161 4.35702 20.7082 4.36154C20.6003 4.36607 20.4945 4.3924 20.397 4.43894C20.2996 4.48548 20.2125 4.55127 20.1412 4.63234C20.0699 4.71341 20.0157 4.80809 19.9819 4.91066C19.9481 5.01324 19.9355 5.12159 19.9447 5.22919C19.9539 5.33679 19.9848 5.44141 20.0356 5.53674C20.0863 5.63207 20.1558 5.71614 20.2399 5.78388L23.44 8.55988H14.3759C11.8503 8.562 9.42891 9.56677 7.64381 11.3534C5.85871 13.14 4.85591 15.5623 4.85591 18.0879Z" fill="black"/>
</svg>
