<svg width="32" height="32" viewBox="0 0 32 32" fill="none" xmlns="http://www.w3.org/2000/svg">
<path d="M3.1999 14.48H10.1599C10.6399 14.48 10.9599 14.16 10.9599 13.68C10.9599 13.2 10.6399 12.88 10.1599 12.88H5.1999L9.1199 9.20001C10.1599 8.16001 11.3599 7.44001 12.7999 6.96001C17.8399 5.20001 23.2799 7.84001 25.1199 12.8C25.2799 13.2 25.6799 13.44 26.0799 13.36C26.4799 13.2 26.7199 12.8 26.6399 12.4V12.32C24.4799 6.40001 17.9999 3.36001 12.1599 5.52001C10.6399 6.08001 9.1999 6.96001 8.0799 8.08001L3.9999 11.84V6.72001C3.9999 6.24001 3.6799 5.92001 3.1999 5.92001C2.7199 5.92001 2.3999 6.24001 2.3999 6.72001V13.68V13.76C2.3999 13.84 2.3999 13.84 2.3999 13.92C2.3999 14 2.4799 14 2.4799 14.08C2.4799 14.08 2.4799 14.16 2.5599 14.16C2.6399 14.24 2.7199 14.32 2.7999 14.32C2.9599 14.48 3.0399 14.48 3.1999 14.48Z" fill="black"/>
<path d="M29.5999 18.16C29.5999 18.08 29.5999 18.08 29.5999 18C29.5999 17.92 29.5199 17.92 29.5199 17.84C29.5199 17.84 29.5199 17.76 29.4399 17.76C29.3599 17.68 29.3599 17.68 29.2799 17.68C29.1999 17.68 29.1999 17.6 29.1199 17.6H29.0399L28.7999 17.52H21.8399C21.3599 17.52 21.0399 17.84 21.0399 18.32C21.0399 18.8 21.3599 19.12 21.8399 19.12H26.7999L22.8799 22.8C19.1199 26.56 12.9599 26.56 9.19989 22.8C8.15989 21.76 7.43989 20.56 6.95989 19.2C6.79989 18.8 6.39989 18.56 5.99989 18.64C5.59989 18.8 5.35989 19.2 5.43989 19.6V19.68C7.59989 25.52 14.0799 28.56 19.9199 26.48C21.4399 25.92 22.8799 25.04 23.9999 23.92L28.0799 20.16V25.28C28.0799 25.76 28.3999 26.08 28.8799 26.08C29.3599 26.08 29.6799 25.76 29.6799 25.28V18.32C29.5999 18.24 29.5999 18.24 29.5999 18.16Z" fill="black"/>
</svg>
