<svg width="32" height="32" viewBox="0 0 32 32" fill="none" xmlns="http://www.w3.org/2000/svg">
<path d="M29.6001 13.424C29.6001 13.424 29.6001 13.36 29.6001 13.328V5.32801C29.6001 5.11583 29.5158 4.91235 29.3658 4.76232C29.2158 4.61229 29.0123 4.52801 28.8001 4.52801C28.5879 4.52801 28.3844 4.61229 28.2344 4.76232C28.0844 4.91235 28.0001 5.11583 28.0001 5.32801V11.416L23.4481 6.96801C22.1605 5.6227 20.5851 4.58615 18.8401 3.93601C17.3492 3.38546 15.7628 3.14069 14.1754 3.21628C12.5879 3.29188 11.0319 3.68629 9.6001 4.37601C8.07995 5.10384 6.72286 6.13185 5.61058 7.39812C4.4983 8.66439 3.65385 10.1427 3.1281 11.744C0.848105 18.4 4.2161 25.712 10.6081 28.064C12.1027 28.6165 13.6932 28.8623 15.2849 28.7868C16.8765 28.7112 18.4366 28.3157 19.8721 27.624C21.3915 26.895 22.7479 25.8666 23.8601 24.6005C24.9722 23.3344 25.8171 21.8567 26.3441 20.256C26.4131 20.0513 26.3979 19.8275 26.3018 19.634C26.2543 19.5381 26.1883 19.4526 26.1077 19.3823C26.0271 19.3119 25.9335 19.2582 25.8321 19.224C25.6274 19.1551 25.4036 19.1703 25.2101 19.2663C25.0165 19.3623 24.8691 19.5313 24.8001 19.736C24.3461 21.1311 23.6165 22.4207 22.6545 23.5284C21.6925 24.636 20.5178 25.5391 19.2001 26.184C17.9595 26.7783 16.6123 27.1178 15.2382 27.1824C13.8641 27.247 12.491 27.0354 11.2001 26.56C8.46645 25.4917 6.25326 23.4054 5.0255 20.7396C3.79775 18.0737 3.65101 15.0358 4.6161 12.264C5.07435 10.864 5.81091 9.57119 6.7815 8.46312C7.75209 7.35504 8.93669 6.45464 10.2641 5.81601C11.5043 5.22036 12.8516 4.88012 14.2259 4.81553C15.6002 4.75094 16.9735 4.9633 18.2641 5.44001C19.7787 6.01239 21.1456 6.91727 22.2641 8.08801L26.7921 12.528H21.1201C20.9079 12.528 20.7044 12.6123 20.5544 12.7623C20.4044 12.9124 20.3201 13.1158 20.3201 13.328C20.3201 13.5402 20.4044 13.7437 20.5544 13.8937C20.7044 14.0437 20.9079 14.128 21.1201 14.128H28.8001C28.9067 14.1289 29.0125 14.1099 29.1121 14.072C29.2081 14.0306 29.2951 13.9708 29.3681 13.896C29.3681 13.896 29.3681 13.848 29.4161 13.832C29.4663 13.775 29.5069 13.7101 29.5361 13.64C29.5666 13.571 29.5881 13.4985 29.6001 13.424Z" fill="black"/>
</svg>
