<svg width="32" height="32" viewBox="0 0 32 32" fill="none" xmlns="http://www.w3.org/2000/svg">
<path d="M25.36 12.528C24.8057 12.5343 24.258 12.6498 23.7484 12.868C23.2387 13.0862 22.7771 13.4027 22.39 13.7995C22.0028 14.1963 21.6977 14.6656 21.4922 15.1805C21.2866 15.6953 21.1846 16.2457 21.192 16.8C21.2022 17.5638 21.3913 18.3145 21.744 18.992L20.08 20.376C19.5281 19.9652 18.8796 19.7038 18.1971 19.6169C17.5146 19.53 16.8212 19.6206 16.184 19.88L14.936 17.76C16.5141 16.4386 17.5099 14.5503 17.7089 12.5017C17.9079 10.4531 17.2942 8.40838 16 6.80799C15.3674 6.01744 14.5817 5.36264 13.6901 4.88278C12.7985 4.40291 11.8193 4.10784 10.811 4.01523C9.80268 3.92262 8.78607 4.03436 7.82197 4.34378C6.85787 4.65319 5.9661 5.15392 5.20001 5.81599C3.61619 7.14164 2.61878 9.0382 2.4241 11.0944C2.22941 13.1506 2.85313 15.2006 4.16001 16.8C4.48732 17.1404 4.8346 17.4609 5.20001 17.76C5.33062 17.9164 5.49843 18.0374 5.68801 18.112C6.86092 18.9549 8.25135 19.443 9.69378 19.5182C11.1362 19.5934 12.5698 19.2524 13.824 18.536L15.072 20.52C14.2136 21.2352 13.6736 22.2615 13.5701 23.374C13.4667 24.4865 13.8082 25.5947 14.52 26.456C14.8598 26.886 15.2831 27.2428 15.7644 27.505C16.2457 27.7671 16.775 27.9293 17.3206 27.9816C17.8661 28.0339 18.4166 27.9753 18.939 27.8094C19.4613 27.6434 19.9447 27.3736 20.36 27.016C20.8415 26.6234 21.2287 26.1278 21.4931 25.5656C21.7576 25.0035 21.8925 24.3892 21.888 23.768C21.8709 22.8831 21.5926 22.0231 21.088 21.296L22.688 19.952C23.5392 20.6669 24.6386 21.016 25.7463 20.9231C26.854 20.8302 27.8799 20.3028 28.6 19.456C29.3023 18.5821 29.6431 17.4723 29.5524 16.3548C29.4616 15.2373 28.9462 14.1971 28.112 13.448C27.3056 12.8765 26.348 12.5564 25.36 12.528V12.528ZM14.24 16.528C14.1433 15.7973 13.7788 15.1285 13.2172 14.6511C12.6555 14.1737 11.9368 13.9218 11.2 13.944H8.25601C7.62604 13.9463 7.0126 14.1459 6.50182 14.5146C5.99103 14.8833 5.60853 15.4028 5.40801 16C4.29085 14.7396 3.71557 13.0896 3.80692 11.4078C3.89827 9.72598 4.64889 8.148 5.89601 7.01599C6.50901 6.47107 7.22403 6.05318 7.99966 5.78654C8.77529 5.51991 9.59612 5.40981 10.4146 5.46264C11.2331 5.51547 12.033 5.73017 12.7679 6.09431C13.5028 6.45845 14.1582 6.96479 14.696 7.58399C15.805 8.84441 16.3779 10.488 16.2927 12.1647C16.2075 13.8413 15.471 15.4184 14.24 16.56V16.528ZM17.712 26.632C17.1496 26.6415 16.5971 26.4834 16.1249 26.1777C15.6528 25.872 15.2823 25.4326 15.0608 24.9156C14.8393 24.3985 14.7768 23.8273 14.8813 23.2746C14.9857 22.7219 15.2524 22.2128 15.6473 21.8122C16.0422 21.4116 16.5474 21.1377 17.0985 21.0254C17.6497 20.9131 18.2218 20.9675 18.742 21.1816C19.2621 21.3957 19.7067 21.7598 20.0191 22.2276C20.3315 22.6953 20.4975 23.2455 20.496 23.808C20.5024 24.1788 20.4352 24.5471 20.2985 24.8918C20.1617 25.2364 19.958 25.5506 19.6992 25.8161C19.4403 26.0817 19.1315 26.2933 18.7904 26.4388C18.4493 26.5844 18.0828 26.6609 17.712 26.664V26.632ZM25.36 19.6C24.7966 19.6095 24.2431 19.4507 23.7705 19.144C23.2978 18.8372 22.9274 18.3964 22.7066 17.8779C22.4858 17.3595 22.4247 16.787 22.5311 16.2336C22.6376 15.6802 22.9066 15.1712 23.3039 14.7716C23.7012 14.372 24.2087 14.1 24.7615 13.9905C25.3142 13.8809 25.8871 13.9387 26.4068 14.1565C26.9265 14.3743 27.3694 14.7422 27.6789 15.2131C27.9883 15.684 28.1503 16.2365 28.144 16.8C28.1419 17.5392 27.8485 18.2478 27.3273 18.772C26.8061 19.2961 26.0992 19.5937 25.36 19.6V19.6ZM12.504 10.4C12.4898 10.8696 12.3381 11.3248 12.0677 11.709C11.7973 12.0932 11.42 12.3896 10.9827 12.5614C10.5454 12.7332 10.0673 12.7729 9.60768 12.6755C9.14804 12.5781 8.72709 12.348 8.39703 12.0136C8.06697 11.6792 7.84232 11.2553 7.75094 10.7944C7.65955 10.3336 7.70546 9.856 7.88295 9.42097C8.06045 8.98595 8.36173 8.61259 8.74944 8.34719C9.13715 8.0818 9.59424 7.93604 10.064 7.92799C10.7128 7.9405 11.3309 8.20595 11.7868 8.66775C12.2426 9.12954 12.5 9.75114 12.504 10.4V10.4Z" fill="black"/>
</svg>
