<svg width="32" height="32" viewBox="0 0 32 32" fill="none" xmlns="http://www.w3.org/2000/svg">
<path d="M25.4 12.5119C24.8439 12.5182 24.2945 12.6342 23.7834 12.8533C23.2723 13.0724 22.8094 13.3902 22.4214 13.7886C22.0334 14.187 21.7279 14.6581 21.5224 15.1749C21.317 15.6916 21.2155 16.2439 21.224 16.7999C21.2381 17.5641 21.4299 18.3146 21.784 18.9919L20.112 20.4079C19.5601 19.9972 18.9115 19.7357 18.2291 19.6488C17.5466 19.562 16.8532 19.6526 16.216 19.9119L14.968 17.7599C16.5374 16.4203 17.5188 14.5186 17.7013 12.4633C17.8838 10.408 17.2528 8.36308 15.944 6.76792C15.3056 5.98589 14.5166 5.34011 13.6238 4.86889C12.731 4.39768 11.7526 4.11065 10.7468 4.02483C9.74091 3.93902 8.72806 4.05618 7.76835 4.36936C6.80864 4.68253 5.92164 5.18533 5.15999 5.84792C3.58405 7.17459 2.59691 9.07082 2.41405 11.1227C2.23119 13.1746 2.86747 15.2155 4.18399 16.7999C5.3093 18.1926 6.89592 19.1364 8.65677 19.4607C10.4176 19.785 12.2364 19.4683 13.784 18.5679L15.04 20.5519C14.1812 21.2701 13.6406 22.2982 13.5358 23.4127C13.4309 24.5273 13.7702 25.6382 14.48 26.5039C14.8239 26.928 15.2486 27.2794 15.7295 27.5379C16.2103 27.7964 16.7378 27.9567 17.2812 28.0095C17.8246 28.0624 18.373 28.0067 18.8947 27.8457C19.4164 27.6848 19.9009 27.4217 20.32 27.0719C21.139 26.3822 21.6739 25.4139 21.8216 24.3534C21.9693 23.2928 21.7194 22.2152 21.12 21.3279L22.72 19.9839C23.5703 20.7009 24.6702 21.0513 25.7785 20.9583C26.8869 20.8653 27.9131 20.3365 28.632 19.4879C29.3525 18.6186 29.7048 17.5021 29.6136 16.3766C29.5224 15.2512 28.9951 14.206 28.144 13.4639C27.3496 12.8708 26.391 12.5383 25.4 12.5119ZM3.83999 11.7999C3.80993 10.959 3.94959 10.1207 4.25065 9.33493C4.5517 8.54919 5.00798 7.83216 5.59224 7.22664C6.1765 6.62111 6.87677 6.13951 7.65125 5.81057C8.42574 5.48163 9.25855 5.3121 10.1 5.3121C10.9414 5.3121 11.7743 5.48163 12.5487 5.81057C13.3232 6.13951 14.0235 6.62111 14.6077 7.22664C15.192 7.83216 15.6483 8.54919 15.9493 9.33493C16.2504 10.1207 16.3901 10.959 16.36 11.7999C16.3901 12.6408 16.2504 13.4792 15.9493 14.2649C15.6483 15.0506 15.192 15.7677 14.6077 16.3732C14.0235 16.9787 13.3232 17.4603 12.5487 17.7893C11.7743 18.1182 10.9414 18.2877 10.1 18.2877C9.25855 18.2877 8.42574 18.1182 7.65125 17.7893C6.87677 17.4603 6.1765 16.9787 5.59224 16.3732C5.00798 15.7677 4.5517 15.0506 4.25065 14.2649C3.94959 13.4792 3.80993 12.6408 3.83999 11.7999ZM17.752 26.6879C17.188 26.699 16.6336 26.542 16.1592 26.2368C15.6849 25.9315 15.3122 25.492 15.0886 24.9741C14.865 24.4562 14.8007 23.8835 14.9039 23.329C15.0071 22.7744 15.2731 22.2632 15.6679 21.8604C16.0628 21.4576 16.5686 21.1815 17.121 21.0673C17.6734 20.9531 18.2473 21.006 18.7695 21.2192C19.2917 21.4324 19.7386 21.7963 20.0532 22.2644C20.3678 22.7326 20.5359 23.2839 20.536 23.8479C20.5424 24.5934 20.2529 25.311 19.731 25.8434C19.2092 26.3758 18.4975 26.6795 17.752 26.6879ZM25.4 19.5999C24.8344 19.611 24.2783 19.4529 23.8031 19.1459C23.3279 18.8389 22.9552 18.3969 22.7328 17.8767C22.5105 17.3565 22.4485 16.7817 22.555 16.2261C22.6615 15.6704 22.9314 15.1592 23.3303 14.758C23.7292 14.3569 24.2389 14.0839 24.7939 13.9743C25.3489 13.8647 25.9241 13.9233 26.4455 14.1427C26.967 14.3621 27.4111 14.7322 27.7208 15.2056C28.0306 15.6791 28.1919 16.2342 28.184 16.7999C28.1778 17.5378 27.883 18.244 27.3627 18.7673C26.8424 19.2906 26.1379 19.5895 25.4 19.5999Z" fill="black"/>
</svg>
