<svg width="32" height="32" viewBox="0 0 32 32" fill="none" xmlns="http://www.w3.org/2000/svg">
<path d="M16 2.3999C13.3102 2.3999 10.6808 3.19753 8.44428 4.69192C6.20777 6.1863 4.46462 8.31033 3.43527 10.7954C2.40592 13.2805 2.13659 16.015 2.66135 18.6531C3.18611 21.2913 4.48138 23.7146 6.38338 25.6166C8.28537 27.5186 10.7087 28.8138 13.3468 29.3386C15.9849 29.8633 18.7195 29.594 21.2045 28.5647C23.6896 27.5353 25.8136 25.7922 27.308 23.5557C28.8024 21.3191 29.6 18.6897 29.6 15.9999C29.6 12.393 28.1672 8.93374 25.6167 6.38325C23.0662 3.83276 19.607 2.3999 16 2.3999ZM16 27.9999C13.6267 27.9999 11.3066 27.2961 9.33319 25.9775C7.3598 24.659 5.82173 22.7848 4.91348 20.5921C4.00522 18.3994 3.76758 15.9866 4.23061 13.6588C4.69363 11.331 5.83652 9.19285 7.51475 7.51462C9.19298 5.83639 11.3312 4.6935 13.6589 4.23048C15.9867 3.76746 18.3995 4.0051 20.5922 4.91335C22.7849 5.8216 24.6591 7.35967 25.9777 9.33306C27.2962 11.3064 28 13.6265 28 15.9999C28 17.5758 27.6896 19.1362 27.0866 20.5921C26.4835 22.048 25.5996 23.3709 24.4853 24.4852C23.371 25.5995 22.0481 26.4834 20.5922 27.0865C19.1363 27.6895 17.5759 27.9999 16 27.9999Z" fill="black"/>
<path d="M12.152 13.328C12.5428 13.328 12.9249 13.2121 13.2498 12.995C13.5748 12.7778 13.8281 12.4692 13.9776 12.1082C14.1272 11.7471 14.1663 11.3498 14.0901 10.9665C14.0138 10.5832 13.8256 10.2311 13.5493 9.95473C13.2729 9.67839 12.9208 9.49019 12.5375 9.41395C12.1542 9.3377 11.7569 9.37683 11.3958 9.52639C11.0348 9.67595 10.7262 9.92922 10.509 10.2542C10.2919 10.5791 10.176 10.9612 10.176 11.352C10.1781 11.8754 10.387 12.3768 10.7571 12.7469C11.1272 13.117 11.6286 13.3259 12.152 13.328Z" fill="black"/>
<path d="M19.8481 13.328C20.2389 13.328 20.6209 13.2121 20.9459 12.995C21.2708 12.7778 21.5241 12.4692 21.6737 12.1082C21.8232 11.7471 21.8623 11.3498 21.7861 10.9665C21.7099 10.5832 21.5217 10.2311 21.2453 9.95473C20.969 9.67839 20.6169 9.49019 20.2336 9.41395C19.8503 9.3377 19.453 9.37683 19.0919 9.52639C18.7308 9.67595 18.4222 9.92922 18.2051 10.2542C17.988 10.5791 17.8721 10.9612 17.8721 11.352C17.8721 11.876 18.0803 12.3786 18.4508 12.7492C18.8214 13.1198 19.324 13.328 19.8481 13.328Z" fill="black"/>
<path d="M16 18.1521C14.6 18.1502 13.2347 18.5877 12.0966 19.403C10.9584 20.2182 10.1048 21.37 9.65601 22.6961C9.62212 22.7959 9.60829 22.9014 9.6153 23.0066C9.62231 23.1117 9.65003 23.2144 9.69686 23.3088C9.74369 23.4033 9.80872 23.4875 9.8882 23.5567C9.96768 23.6259 10.0601 23.6787 10.16 23.7121C10.242 23.7415 10.3289 23.7551 10.416 23.7521C10.5888 23.7571 10.7585 23.7061 10.8999 23.6066C11.0412 23.5071 11.1465 23.3645 11.2 23.2001C11.5567 22.2133 12.209 21.3604 13.0679 20.7575C13.9268 20.1547 14.9507 19.8313 16 19.8313C17.0494 19.8313 18.0732 20.1547 18.9321 20.7575C19.791 21.3604 20.4433 22.2133 20.8 23.2001C20.8281 23.3061 20.8776 23.4051 20.9455 23.4912C21.0135 23.5772 21.0984 23.6483 21.1949 23.7002C21.2915 23.752 21.3977 23.7835 21.5069 23.7926C21.6162 23.8017 21.7261 23.7883 21.83 23.7531C21.9338 23.7179 22.0293 23.6618 22.1105 23.5882C22.1917 23.5146 22.257 23.4251 22.3022 23.3252C22.3474 23.2254 22.3716 23.1173 22.3733 23.0077C22.375 22.8981 22.3541 22.7893 22.312 22.6881C21.8646 21.368 21.0156 20.2209 19.8837 19.4075C18.7518 18.5941 17.3938 18.1551 16 18.1521Z" fill="black"/>
</svg>
