<svg width="32" height="32" viewBox="0 0 32 32" fill="none" xmlns="http://www.w3.org/2000/svg">
<path fill-rule="evenodd" clip-rule="evenodd" d="M3.32228 14.4588C3.5041 14.3425 3.73266 14.3269 3.9286 14.4174L16.7806 20.3535C17.0046 20.457 17.148 20.6812 17.148 20.928V26.8641C17.148 27.0799 17.038 27.2808 16.8562 27.3971C16.6744 27.5134 16.4458 27.529 16.2499 27.4385L3.39791 21.5025C3.1739 21.399 3.03046 21.1747 3.03046 20.928V14.9919C3.03046 14.7761 3.14046 14.5751 3.32228 14.4588ZM4.29606 15.9812V20.5232L15.8824 25.8747V21.3327L4.29606 15.9812Z" fill="#010101"/>
<path fill-rule="evenodd" clip-rule="evenodd" d="M29.7082 14.4588C29.89 14.5751 30 14.7761 30 14.9919V20.928C30 21.1747 29.8565 21.399 29.6325 21.5025L16.7806 27.4385C16.5846 27.529 16.3561 27.5134 16.1742 27.3971C15.9924 27.2808 15.8824 27.0799 15.8824 26.8641V20.928C15.8824 20.6812 16.0259 20.457 16.2499 20.3535L29.1018 14.4174C29.2978 14.3269 29.5263 14.3425 29.7082 14.4588ZM17.148 21.3327V25.8747L28.7344 20.5232V15.9812L17.148 21.3327Z" fill="#010101"/>
<path fill-rule="evenodd" clip-rule="evenodd" d="M16.2756 9.14786C16.4125 9.09185 16.5647 9.08557 16.7058 9.13011L18.7225 9.76699C19.0558 9.87224 19.2407 10.2277 19.1354 10.561C19.0302 10.8942 18.6747 11.0791 18.3414 10.9738L16.5429 10.4059L3.90285 15.5776C3.57939 15.7099 3.20989 15.555 3.07755 15.2315C2.94521 14.9081 3.10014 14.5386 3.4236 14.4062L16.2756 9.14786Z" fill="#010101"/>
<path fill-rule="evenodd" clip-rule="evenodd" d="M21.9435 16.0304C19.8148 13.6107 17.5965 13.1872 16.1475 13.2239C15.7982 13.2328 15.5077 12.9568 15.4989 12.6074C15.49 12.258 15.766 11.9676 16.1154 11.9587C17.8835 11.9139 20.4827 12.4538 22.8938 15.1945C23.1246 15.4569 23.099 15.8567 22.8366 16.0876C22.5742 16.3184 22.1744 16.2928 21.9435 16.0304Z" fill="#010101"/>
<path fill-rule="evenodd" clip-rule="evenodd" d="M24.0581 8.08251C24.3296 8.30257 24.3713 8.70106 24.1513 8.97256L20.379 13.6267C20.1589 13.8982 19.7604 13.9399 19.4889 13.7198C19.2174 13.4998 19.1757 13.1013 19.3958 12.8298L23.1681 8.17565C23.3881 7.90415 23.7866 7.86245 24.0581 8.08251Z" fill="#010101"/>
<path fill-rule="evenodd" clip-rule="evenodd" d="M27.0935 6.84321C27.3739 7.05173 27.4323 7.44813 27.2237 7.72859L26.6099 8.55422C25.9142 9.48994 24.581 9.68609 23.6453 8.9904L23.488 8.87348C22.5523 8.17779 22.3562 6.8446 23.0519 5.90888L23.6657 5.08325C23.8742 4.80279 24.2706 4.74447 24.5511 4.95299L27.0935 6.84321ZM25.8305 7.4813L24.3038 6.34619L24.0675 6.66399C23.7889 7.03879 23.8684 7.57918 24.2432 7.85783L24.4004 7.97475C24.7752 8.2534 25.3156 8.1739 25.5943 7.7991L25.8305 7.4813Z" fill="#010101"/>
<path fill-rule="evenodd" clip-rule="evenodd" d="M24.3786 12.9929C24.5086 12.6684 24.877 12.5109 25.2014 12.6409L29.6024 14.4045C29.9268 14.5345 30.0844 14.9029 29.9544 15.2273C29.8244 15.5517 29.456 15.7093 29.1316 15.5793L24.7306 13.8156C24.4062 13.6856 24.2486 13.3173 24.3786 12.9929Z" fill="#010101"/>
</svg>
