<svg width="32" height="32" viewBox="0 0 32 32" fill="none" xmlns="http://www.w3.org/2000/svg">
<path d="M29.368 28.2319L22.512 21.3759C24.4694 19.1241 25.4761 16.2004 25.3199 13.2209C25.1637 10.2414 23.8568 7.43888 21.6747 5.4041C19.4926 3.36932 16.6058 2.26119 13.6227 2.31328C10.6395 2.36537 7.79315 3.5736 5.68343 5.68331C3.57372 7.79303 2.36549 10.6394 2.3134 13.6226C2.26132 16.6057 3.36944 19.4925 5.40422 21.6746C7.439 23.8567 10.2415 25.1635 13.221 25.3197C16.2005 25.4759 19.1242 24.4693 21.376 22.5119L28.232 29.3679C28.3064 29.4429 28.3949 29.5024 28.4924 29.543C28.5898 29.5836 28.6944 29.6045 28.8 29.6045C28.9056 29.6045 29.0102 29.5836 29.1077 29.543C29.2052 29.5024 29.2937 29.4429 29.368 29.3679C29.443 29.2935 29.5025 29.205 29.5431 29.1076C29.5837 29.0101 29.6047 28.9055 29.6047 28.7999C29.6047 28.6943 29.5837 28.5897 29.5431 28.4922C29.5025 28.3948 29.443 28.3063 29.368 28.2319ZM13.864 23.7359C11.9115 23.7359 10.0029 23.1569 8.37943 22.0722C6.75599 20.9874 5.49067 19.4456 4.74348 17.6417C3.99629 15.8379 3.80079 13.8529 4.18171 11.938C4.56262 10.023 5.50284 8.26396 6.88346 6.88334C8.26409 5.50272 10.0231 4.5625 11.9381 4.18159C13.8531 3.80067 15.838 3.99617 17.6419 4.74336C19.4457 5.49055 20.9875 6.75587 22.0723 8.37931C23.157 10.0028 23.736 11.9114 23.736 13.8639C23.7339 16.4815 22.6931 18.9912 20.8422 20.8421C18.9913 22.693 16.4816 23.7338 13.864 23.7359Z" fill="black"/>
<path d="M13.864 7.19995C12.0985 7.20628 10.4072 7.9104 9.15878 9.15878C7.9104 10.4072 7.20628 12.0985 7.19995 13.864C7.19995 14.0761 7.28424 14.2796 7.43427 14.4296C7.58429 14.5797 7.78778 14.664 7.99995 14.664C8.21212 14.664 8.41561 14.5797 8.56564 14.4296C8.71567 14.2796 8.79995 14.0761 8.79995 13.864C8.80626 12.5228 9.34182 11.2385 10.2901 10.2901C11.2385 9.34182 12.5228 8.80626 13.864 8.79995C14.0761 8.79995 14.2796 8.71567 14.4296 8.56564C14.5797 8.41561 14.664 8.21212 14.664 7.99995C14.664 7.78778 14.5797 7.58429 14.4296 7.43427C14.2796 7.28424 14.0761 7.19995 13.864 7.19995Z" fill="black"/>
</svg>
