<svg width="32" height="32" viewBox="0 0 32 32" fill="none" xmlns="http://www.w3.org/2000/svg">
<path d="M25.6 25.6001C28.1403 23.0509 29.5667 19.5989 29.5667 16.0001C29.5667 12.4013 28.1403 8.9492 25.6 6.40007C23.0508 3.85975 19.5987 2.43335 16 2.43335C12.4012 2.43335 8.94908 3.85975 6.39995 6.40007C3.85963 8.9492 2.43323 12.4013 2.43323 16.0001C2.43323 19.5989 3.85963 23.0509 6.39995 25.6001C8.94908 28.1404 12.4012 29.5668 16 29.5668C19.5987 29.5668 23.0508 28.1404 25.6 25.6001ZM24.984 23.8961L20.672 19.5841C21.4608 18.5589 21.8885 17.3016 21.8885 16.0081C21.8885 14.7145 21.4608 13.4573 20.672 12.4321L24.672 8.43207L24.984 8.12007C26.9063 10.298 27.9672 13.1031 27.9672 16.0081C27.9672 18.9131 26.9063 21.7181 24.984 23.8961ZM11.68 16.0001C11.68 15.1457 11.9333 14.3104 12.408 13.6C12.8827 12.8896 13.5574 12.3359 14.3468 12.0089C15.1361 11.6819 16.0047 11.5964 16.8427 11.7631C17.6807 11.9298 18.4505 12.3412 19.0547 12.9454C19.6588 13.5495 20.0703 14.3193 20.2369 15.1573C20.4036 15.9953 20.3181 16.8639 19.9911 17.6533C19.6641 18.4426 19.1104 19.1173 18.4 19.592C17.6896 20.0667 16.8544 20.3201 16 20.3201C14.8542 20.3201 13.7554 19.8649 12.9453 19.0548C12.1351 18.2446 11.68 17.1458 11.68 16.0001ZM23.888 6.97607L19.576 11.2961C18.5508 10.5072 17.2935 10.0795 16 10.0795C14.7064 10.0795 13.4491 10.5072 12.424 11.2961L8.11195 6.98407C10.2907 5.06331 13.0954 4.00351 16 4.00351C18.9045 4.00351 21.7092 5.06331 23.888 6.98407V6.97607ZM6.98395 8.11207L11.296 12.4241C10.5071 13.4493 10.0794 14.7065 10.0794 16.0001C10.0794 17.2936 10.5071 18.5509 11.296 19.5761L6.98395 23.8881C5.06158 21.7101 4.00072 18.9051 4.00072 16.0001C4.00072 13.0951 5.06158 10.29 6.98395 8.11207ZM8.11195 25.0161L12.424 20.7041C13.4491 21.4929 14.7064 21.9206 16 21.9206C17.2935 21.9206 18.5508 21.4929 19.576 20.7041L23.888 25.0241C21.7092 26.9448 18.9045 28.0046 16 28.0046C13.0954 28.0046 10.2907 26.9448 8.11195 25.0241V25.0161Z" fill="black"/>
</svg>
