<svg width="32" height="32" viewBox="0 0 32 32" fill="none" xmlns="http://www.w3.org/2000/svg">
<path d="M26.96 5.17499C26.48 4.77499 25.84 4.69499 25.36 4.93499L4.96 13.655C4.4 13.895 4 14.455 4 15.175C4 15.815 4.4 16.375 5.04 16.615L10.64 18.695L11.52 25.015C11.6 25.335 11.76 25.575 12.08 25.655C12.4 25.735 12.64 25.655 12.88 25.495L16 22.455L21.52 26.455C21.76 26.615 22.16 26.775 22.48 26.775C22.72 26.775 22.88 26.775 23.04 26.695C23.52 26.455 23.92 26.055 24 25.495L27.44 6.77499C27.68 6.13499 27.44 5.57499 26.96 5.17499ZM22.48 25.175L16.4 20.775C16.24 20.695 16.08 20.615 15.92 20.615C15.76 20.615 15.52 20.695 15.36 20.855L12.88 23.255L13.6 19.175C13.68 18.855 13.84 18.535 14.08 18.215L21.84 10.695L11.92 16.695C11.44 16.935 10.96 17.015 10.4 16.855L5.6 15.095L25.92 6.45499L22.48 25.175Z" fill="black"/>
</svg>
