<svg width="32" height="32" viewBox="0 0 32 32" fill="none" xmlns="http://www.w3.org/2000/svg">
<path d="M26.232 2.39999H5.76799C4.87539 2.40211 4.01996 2.75763 3.38879 3.38879C2.75763 4.01996 2.40211 4.87539 2.39999 5.76799V26.232C2.40211 27.1246 2.75763 27.98 3.38879 28.6112C4.01996 29.2424 4.87539 29.5979 5.76799 29.6H26.232C27.1246 29.5979 27.98 29.2424 28.6112 28.6112C29.2424 27.98 29.5979 27.1246 29.6 26.232V5.76799C29.5979 4.87539 29.2424 4.01996 28.6112 3.38879C27.98 2.75763 27.1246 2.40211 26.232 2.39999ZM28 26.232C28 26.4642 27.9543 26.6941 27.8654 26.9086C27.7766 27.1231 27.6463 27.318 27.4822 27.4822C27.318 27.6463 27.1231 27.7766 26.9086 27.8654C26.6941 27.9543 26.4642 28 26.232 28H5.76799C5.53582 28 5.30591 27.9543 5.09141 27.8654C4.87691 27.7766 4.682 27.6463 4.51783 27.4822C4.35366 27.318 4.22343 27.1231 4.13457 26.9086C4.04572 26.6941 3.99999 26.4642 3.99999 26.232V5.76799C3.99999 5.29909 4.18626 4.84939 4.51783 4.51783C4.84939 4.18626 5.29909 3.99999 5.76799 3.99999H26.232C26.4642 3.99999 26.6941 4.04572 26.9086 4.13457C27.1231 4.22343 27.318 4.35366 27.4822 4.51783C27.6463 4.682 27.7766 4.87691 27.8654 5.09141C27.9543 5.30591 28 5.53582 28 5.76799V26.232Z" fill="black"/>
<path d="M12.04 9.60001H9.616C9.1079 9.60001 8.696 10.0119 8.696 10.52V12.944C8.696 13.4521 9.1079 13.864 9.616 13.864H12.04C12.5481 13.864 12.96 13.4521 12.96 12.944V10.52C12.96 10.0119 12.5481 9.60001 12.04 9.60001Z" fill="black"/>
<path d="M22.28 9.60001H19.856C19.3479 9.60001 18.936 10.0119 18.936 10.52V12.944C18.936 13.4521 19.3479 13.864 19.856 13.864H22.28C22.7881 13.864 23.2 13.4521 23.2 12.944V10.52C23.2 10.0119 22.7881 9.60001 22.28 9.60001Z" fill="black"/>
<path d="M18.488 19.488H13.512C13.2998 19.488 13.0963 19.5723 12.9463 19.7223C12.7963 19.8723 12.712 20.0758 12.712 20.288C12.712 20.5002 12.7963 20.7037 12.9463 20.8537C13.0963 21.0037 13.2998 21.088 13.512 21.088H18.488C18.7002 21.088 18.9037 21.0037 19.0537 20.8537C19.2037 20.7037 19.288 20.5002 19.288 20.288C19.288 20.0758 19.2037 19.8723 19.0537 19.7223C18.9037 19.5723 18.7002 19.488 18.488 19.488Z" fill="black"/>
</svg>
