<svg width="32" height="32" viewBox="0 0 32 32" fill="none" xmlns="http://www.w3.org/2000/svg">
<path d="M26.232 2.39999H5.768C4.8754 2.40211 4.01996 2.75763 3.3888 3.38879C2.75763 4.01996 2.40211 4.87539 2.4 5.76799V26.232C2.40211 27.1246 2.75763 27.98 3.3888 28.6112C4.01996 29.2424 4.8754 29.5979 5.768 29.6H26.232C27.1246 29.5979 27.98 29.2424 28.6112 28.6112C29.2424 27.98 29.5979 27.1246 29.6 26.232V5.76799C29.5979 4.87539 29.2424 4.01996 28.6112 3.38879C27.98 2.75763 27.1246 2.40211 26.232 2.39999ZM28 26.232C28 26.4642 27.9543 26.6941 27.8654 26.9086C27.7766 27.1231 27.6463 27.318 27.4822 27.4822C27.318 27.6463 27.1231 27.7766 26.9086 27.8654C26.6941 27.9543 26.4642 28 26.232 28H5.768C5.53582 28 5.30592 27.9543 5.09142 27.8654C4.87691 27.7766 4.68201 27.6463 4.51784 27.4822C4.35366 27.318 4.22343 27.1231 4.13458 26.9086C4.04573 26.6941 4 26.4642 4 26.232V5.76799C4 5.29909 4.18627 4.84939 4.51784 4.51783C4.8494 4.18626 5.2991 3.99999 5.768 3.99999H26.232C26.4642 3.99999 26.6941 4.04572 26.9086 4.13457C27.1231 4.22343 27.318 4.35366 27.4822 4.51783C27.6463 4.682 27.7766 4.87691 27.8654 5.09141C27.9543 5.30591 28 5.53582 28 5.76799V26.232Z" fill="black"/>
<path d="M12.04 9.60001H9.616C9.1079 9.60001 8.696 10.0119 8.696 10.52V12.944C8.696 13.4521 9.1079 13.864 9.616 13.864H12.04C12.5481 13.864 12.96 13.4521 12.96 12.944V10.52C12.96 10.0119 12.5481 9.60001 12.04 9.60001Z" fill="black"/>
<path d="M22.28 9.60001H19.856C19.3479 9.60001 18.936 10.0119 18.936 10.52V12.944C18.936 13.4521 19.3479 13.864 19.856 13.864H22.28C22.7881 13.864 23.2 13.4521 23.2 12.944V10.52C23.2 10.0119 22.7881 9.60001 22.28 9.60001Z" fill="black"/>
<path d="M20.528 18.4C19.9336 18.995 19.2278 19.4671 18.4508 19.7892C17.6739 20.1112 16.8411 20.277 16 20.277C15.1589 20.277 14.3261 20.1112 13.5492 19.7892C12.7722 19.4671 12.0664 18.995 11.472 18.4C11.3221 18.251 11.1193 18.1674 10.908 18.1674C10.6967 18.1674 10.4939 18.251 10.344 18.4C10.195 18.5499 10.1114 18.7526 10.1114 18.964C10.1114 19.1753 10.195 19.3781 10.344 19.528C11.8442 21.0278 13.8787 21.8703 16 21.8703C18.1213 21.8703 20.1558 21.0278 21.656 19.528C21.805 19.3781 21.8886 19.1753 21.8886 18.964C21.8886 18.7526 21.805 18.5499 21.656 18.4C21.5061 18.251 21.3033 18.1674 21.092 18.1674C20.8807 18.1674 20.6779 18.251 20.528 18.4Z" fill="black"/>
</svg>
