<svg width="32" height="32" viewBox="0 0 32 32" fill="none" xmlns="http://www.w3.org/2000/svg">
<path d="M16 10.9681C15.0037 10.9633 14.0285 11.2544 13.1978 11.8044C12.3672 12.3545 11.7185 13.1387 11.3339 14.0577C10.9494 14.9768 10.8463 15.9893 11.0378 16.967C11.2292 17.9447 11.7065 18.8435 12.4093 19.5497C13.1121 20.2558 14.0087 20.7374 14.9854 20.9336C15.9622 21.1297 16.9752 21.0314 17.8961 20.6513C18.8169 20.2711 19.6042 19.6262 20.1582 18.7982C20.7122 17.9702 21.008 16.9963 21.008 16.0001C21.0101 14.669 20.4839 13.3915 19.545 12.448C18.606 11.5046 17.331 10.9723 16 10.9681ZM16 19.4321C15.3202 19.4368 14.6543 19.2396 14.0868 18.8654C13.5192 18.4912 13.0756 17.9568 12.8122 17.3302C12.5487 16.7035 12.4773 16.0127 12.607 15.3454C12.7367 14.678 13.0617 14.0643 13.5407 13.5819C14.0197 13.0995 14.6312 12.7703 15.2975 12.6359C15.9639 12.5015 16.6552 12.568 17.2837 12.8271C17.9123 13.0861 18.4497 13.526 18.8279 14.0909C19.2061 14.6558 19.408 15.3203 19.408 16.0001C19.4101 16.9068 19.0525 17.7773 18.4136 18.4207C17.7747 19.0641 16.9067 19.4278 16 19.4321Z" fill="black"/>
<path d="M27.552 18.0799L27.376 17.9759C27.2255 17.8853 27.1042 17.7536 27.0262 17.5962C26.9482 17.4389 26.9169 17.2625 26.936 17.0879C27.0106 16.3645 27.0106 15.6353 26.936 14.9119C26.9169 14.7373 26.9482 14.5609 27.0262 14.4036C27.1042 14.2462 27.2255 14.1145 27.376 14.0239L27.528 13.9359C28.1074 13.601 28.5309 13.0506 28.7063 12.4047C28.8816 11.7588 28.7945 11.0698 28.464 10.4879L26.976 7.8959C26.8149 7.61254 26.5995 7.36383 26.3419 7.16408C26.0844 6.96432 25.7899 6.81746 25.4754 6.73196C25.1609 6.64645 24.8325 6.62399 24.5093 6.66585C24.1861 6.70772 23.8743 6.81309 23.592 6.9759L23.368 7.1039C23.2196 7.19247 23.048 7.23448 22.8754 7.22449C22.7028 7.21451 22.5372 7.153 22.4 7.0479C21.8084 6.61448 21.1729 6.24445 20.504 5.9439C20.3489 5.87384 20.2165 5.76179 20.1218 5.62041C20.0271 5.47904 19.9738 5.31398 19.968 5.1439V4.9039C19.9702 4.24605 19.7125 3.61393 19.2511 3.14503C18.7897 2.67612 18.1618 2.40833 17.504 2.3999H14.496C14.1675 2.3999 13.8423 2.46473 13.539 2.59066C13.2356 2.7166 12.9601 2.90117 12.7282 3.13379C12.4963 3.36641 12.3126 3.64252 12.1877 3.94627C12.0627 4.25002 11.9989 4.57545 12 4.9039V5.1119C11.9942 5.28198 11.9409 5.44704 11.8462 5.58841C11.7515 5.72979 11.6191 5.84184 11.464 5.9119C10.8048 6.22455 10.18 6.60529 9.59999 7.0479C9.46426 7.14898 9.30227 7.20878 9.13342 7.22013C8.96457 7.23148 8.79603 7.1939 8.64799 7.1119L8.45599 6.9999C8.17311 6.8285 7.85871 6.71562 7.53141 6.66793C7.20411 6.62024 6.87057 6.63871 6.55055 6.72226C6.23052 6.80582 5.93051 6.95274 5.6683 7.15434C5.40608 7.35593 5.18699 7.6081 5.02399 7.8959L3.53599 10.4879C3.20636 11.065 3.11724 11.7487 3.28792 12.391C3.45861 13.0333 3.87536 13.5826 4.44799 13.9199L4.62399 14.0239C4.77443 14.1145 4.89581 14.2462 4.97378 14.4036C5.05175 14.5609 5.08305 14.7373 5.06399 14.9119C4.98934 15.6353 4.98934 16.3645 5.06399 17.0879C5.08305 17.2625 5.05175 17.4389 4.97378 17.5962C4.89581 17.7536 4.77443 17.8853 4.62399 17.9759L4.47199 18.0639C3.89258 18.3988 3.46905 18.9492 3.29372 19.5951C3.11839 20.241 3.20548 20.93 3.53599 21.5119L5.02399 24.1039C5.18504 24.3873 5.40053 24.636 5.65807 24.8357C5.9156 25.0355 6.2101 25.1823 6.52461 25.2678C6.83912 25.3534 7.16744 25.3758 7.49066 25.334C7.81389 25.2921 8.12564 25.1867 8.40799 25.0239L8.63199 24.8959C8.77866 24.8108 8.94713 24.7707 9.11642 24.7807C9.2857 24.7906 9.44831 24.8502 9.58399 24.9519C10.1756 25.3853 10.8111 25.7554 11.48 26.0559C11.6351 26.126 11.7675 26.238 11.8622 26.3794C11.9569 26.5208 12.0102 26.6858 12.016 26.8559V27.0639C12.0107 27.3937 12.0708 27.7213 12.1929 28.0277C12.3149 28.3341 12.4965 28.6133 12.7271 28.8491C12.9577 29.0849 13.2328 29.2727 13.5364 29.4015C13.84 29.5304 14.1662 29.5978 14.496 29.5999H17.504C17.8324 29.5999 18.1577 29.5351 18.461 29.4091C18.7644 29.2832 19.0399 29.0986 19.2718 28.866C19.5036 28.6334 19.6873 28.3573 19.8123 28.0535C19.9373 27.7498 20.001 27.4244 20 27.0959V26.8879C20.0058 26.7178 20.0591 26.5528 20.1538 26.4114C20.2485 26.27 20.3809 26.158 20.536 26.0879C21.1952 25.7753 21.82 25.3945 22.4 24.9519C22.5357 24.8508 22.6977 24.791 22.8666 24.7797C23.0354 24.7683 23.204 24.8059 23.352 24.8879L23.544 24.9999C23.8262 25.1687 24.1393 25.2796 24.4649 25.3259C24.7905 25.3722 25.1221 25.3531 25.4403 25.2696C25.7584 25.1862 26.0567 25.0401 26.3176 24.8399C26.5786 24.6398 26.797 24.3895 26.96 24.1039L28.448 21.5119C28.779 20.9367 28.8706 20.2545 28.7029 19.6124C28.5353 18.9703 28.1219 18.4199 27.552 18.0799ZM27.08 20.7199L25.6 23.3119C25.5441 23.4121 25.4686 23.4999 25.3778 23.57C25.2871 23.6401 25.183 23.6911 25.072 23.7199C24.955 23.7504 24.833 23.757 24.7134 23.7391C24.5937 23.7212 24.479 23.6793 24.376 23.6159L24.184 23.5039C23.7689 23.2677 23.2944 23.1564 22.8176 23.1834C22.3407 23.2104 21.8818 23.3744 21.496 23.6559C20.995 24.0225 20.4591 24.3387 19.896 24.5999C19.4529 24.7969 19.0761 25.1176 18.8108 25.5234C18.5454 25.9293 18.4028 26.403 18.4 26.8879V27.0959C18.401 27.2142 18.3787 27.3316 18.3341 27.4412C18.2895 27.5509 18.2237 27.6506 18.1404 27.7346C18.0571 27.8187 17.958 27.8854 17.8487 27.9309C17.7395 27.9765 17.6223 27.9999 17.504 27.9999H14.496C14.3777 27.9999 14.2605 27.9765 14.1512 27.9309C14.042 27.8854 13.9429 27.8187 13.8596 27.7346C13.7763 27.6506 13.7104 27.5509 13.6659 27.4412C13.6213 27.3316 13.5989 27.2142 13.6 27.0959V26.8879C13.5993 26.4057 13.4602 25.9338 13.1993 25.5282C12.9384 25.1226 12.5666 24.8005 12.128 24.5999C11.5649 24.3387 11.029 24.0225 10.528 23.6559C10.1044 23.3425 9.59093 23.1742 9.06399 23.1759C8.63323 23.176 8.21044 23.2921 7.83999 23.5119L7.61599 23.6399C7.41657 23.7519 7.18187 23.7834 6.95999 23.7279C6.84304 23.7008 6.73294 23.6499 6.63658 23.5783C6.54022 23.5068 6.45967 23.4161 6.39999 23.3119L4.91999 20.7199C4.80124 20.5051 4.7716 20.2523 4.83743 20.0159C4.90327 19.7795 5.05933 19.5784 5.27199 19.4559L5.43199 19.3599C5.8422 19.1167 6.17497 18.762 6.39163 18.3372C6.6083 17.9124 6.69997 17.4348 6.65599 16.9599C6.592 16.3375 6.592 15.7103 6.65599 15.0879C6.70017 14.6121 6.60772 14.1336 6.38951 13.7085C6.17129 13.2834 5.83635 12.9293 5.42399 12.6879L5.24799 12.5839C5.03997 12.459 4.88914 12.2576 4.82783 12.0228C4.76652 11.788 4.79961 11.5386 4.91999 11.3279L6.39999 8.6879C6.45583 8.58772 6.53142 8.49991 6.62217 8.42979C6.71293 8.35966 6.81696 8.30867 6.92799 8.2799C7.04502 8.24937 7.16701 8.24284 7.28663 8.26071C7.40624 8.27859 7.521 8.32049 7.62399 8.3839L7.81599 8.4959C8.2308 8.73306 8.70544 8.84492 9.1825 8.81794C9.65955 8.79097 10.1186 8.62631 10.504 8.3439C11.005 7.97735 11.5409 7.66115 12.104 7.3999C12.547 7.20288 12.9238 6.88222 13.1892 6.47638C13.4545 6.07055 13.5972 5.59678 13.6 5.1119V4.9039C13.5989 4.78557 13.6213 4.66819 13.6659 4.55856C13.7104 4.44893 13.7763 4.34921 13.8596 4.26516C13.9429 4.18111 14.042 4.11439 14.1512 4.06886C14.2605 4.02334 14.3777 3.9999 14.496 3.9999H17.504C17.6223 3.9999 17.7395 4.02334 17.8487 4.06886C17.958 4.11439 18.0571 4.18111 18.1404 4.26516C18.2237 4.34921 18.2895 4.44893 18.3341 4.55856C18.3787 4.66819 18.401 4.78557 18.4 4.9039V5.1119C18.4007 5.59414 18.5398 6.06605 18.8007 6.47161C19.0616 6.87717 19.4334 7.19935 19.872 7.3999C20.4351 7.66115 20.971 7.97735 21.472 8.3439C21.8578 8.62602 22.3173 8.78984 22.7946 8.81541C23.2719 8.84097 23.7463 8.72719 24.16 8.4879L24.384 8.3599C24.5834 8.24792 24.8181 8.21644 25.04 8.2719C25.1526 8.30191 25.258 8.35418 25.3501 8.42563C25.4422 8.49708 25.519 8.58626 25.576 8.6879L27.072 11.2799C27.1891 11.4963 27.2178 11.7497 27.1522 11.9868C27.0866 12.2239 26.9317 12.4265 26.72 12.5519L26.56 12.6399C26.1498 12.8831 25.817 13.2378 25.6003 13.6626C25.3837 14.0874 25.292 14.565 25.336 15.0399C25.4 15.6623 25.4 16.2895 25.336 16.9119C25.2918 17.3877 25.3843 17.8662 25.6025 18.2913C25.8207 18.7164 26.1556 19.0705 26.568 19.3119L26.744 19.4159C26.8541 19.4771 26.9507 19.56 27.0278 19.6597C27.1048 19.7594 27.1608 19.8737 27.1922 19.9957C27.2236 20.1177 27.2299 20.2448 27.2106 20.3693C27.1913 20.4939 27.1469 20.6131 27.08 20.7199Z" fill="black"/>
</svg>
