<svg width="32" height="32" viewBox="0 0 32 32" fill="none" xmlns="http://www.w3.org/2000/svg">
<path d="M23.5681 20.504C22.9276 20.5097 22.2961 20.656 21.7183 20.9324C21.1405 21.2089 20.6304 21.6088 20.2241 22.104L12.7041 17.224C12.9507 16.3197 12.9116 15.3612 12.5921 14.48L20.2001 9.92802C20.6087 10.4267 21.1225 10.8288 21.7048 11.1055C22.2871 11.3821 22.9235 11.5264 23.5681 11.528C24.1599 11.5197 24.7443 11.3946 25.2876 11.1599C25.831 10.9252 26.3226 10.5855 26.7344 10.1604C27.1462 9.73525 27.47 9.23298 27.6872 8.68241C27.9044 8.13183 28.0107 7.54379 28.0001 6.95202C28.0001 6.37 27.8855 5.79368 27.6628 5.25597C27.44 4.71825 27.1136 4.22967 26.702 3.81812C26.2905 3.40657 25.8019 3.08011 25.2642 2.85739C24.7265 2.63466 24.1501 2.52002 23.5681 2.52002C22.9861 2.52002 22.4098 2.63466 21.8721 2.85739C21.3344 3.08011 20.8458 3.40657 20.4342 3.81812C20.0227 4.22967 19.6962 4.71825 19.4735 5.25597C19.2508 5.79368 19.1361 6.37 19.1361 6.95202C19.1359 7.48123 19.2279 8.00643 19.4081 8.50402L11.8001 13.056C11.392 12.5569 10.8782 12.1545 10.2958 11.8778C9.7134 11.6011 9.0769 11.4571 8.43213 11.456C7.22486 11.456 6.06704 11.9356 5.21338 12.7893C4.35971 13.6429 3.88013 14.8008 3.88013 16.008C3.88013 17.2153 4.35971 18.3731 5.21338 19.2268C6.06704 20.0804 7.22486 20.56 8.43213 20.56C9.13577 20.5511 9.82701 20.3735 10.4478 20.0422C11.0687 19.7109 11.601 19.2356 12.0001 18.656L19.4001 23.456C19.0928 24.3397 19.0746 25.2982 19.3482 26.1929C19.6217 27.0876 20.1729 27.872 20.9218 28.4327C21.6708 28.9934 22.5787 29.3012 23.5142 29.3117C24.4497 29.3222 25.3643 29.0347 26.1256 28.4909C26.8869 27.9471 27.4555 27.1752 27.749 26.2869C28.0425 25.3985 28.0457 24.4398 27.7583 23.5495C27.4708 22.6592 26.9075 21.8835 26.1499 21.3345C25.3923 20.7856 24.4797 20.4919 23.5441 20.496L23.5681 20.504ZM23.5681 4.00002C24.3348 4.01682 25.0636 4.33705 25.5945 4.89046C26.1254 5.44387 26.4151 6.18527 26.4001 6.95202C26.4001 7.32392 26.3269 7.69219 26.1846 8.03578C26.0422 8.37937 25.8336 8.69157 25.5707 8.95455C25.3077 9.21752 24.9955 9.42613 24.6519 9.56845C24.3083 9.71077 23.94 9.78402 23.5681 9.78402C23.1962 9.78402 22.828 9.71077 22.4844 9.56845C22.1408 9.42613 21.8286 9.21752 21.5656 8.95455C21.3026 8.69157 21.094 8.37937 20.9517 8.03578C20.8094 7.69219 20.7361 7.32392 20.7361 6.95202C20.7211 6.18527 21.0108 5.44387 21.5418 4.89046C22.0727 4.33705 22.8014 4.01682 23.5681 4.00002ZM8.43213 18.952C7.64921 18.952 6.89836 18.641 6.34475 18.0874C5.79114 17.5338 5.48013 16.7829 5.48013 16C5.48013 15.2171 5.79114 14.4662 6.34475 13.9126C6.89836 13.359 7.64921 13.048 8.43213 13.048C9.21505 13.048 9.9659 13.359 10.5195 13.9126C11.0731 14.4662 11.3841 15.2171 11.3841 16C11.3841 16.7829 11.0731 17.5338 10.5195 18.0874C9.9659 18.641 9.21505 18.952 8.43213 18.952ZM23.5681 28C22.9798 28.024 22.3977 27.8714 21.8967 27.5619C21.3957 27.2524 20.9987 26.8002 20.7568 26.2633C20.5149 25.7265 20.439 25.1295 20.539 24.5492C20.639 23.9689 20.9102 23.4318 21.3179 23.0068C21.7256 22.5819 22.251 22.2886 22.8267 22.1646C23.4023 22.0406 24.0019 22.0917 24.5483 22.3111C25.0948 22.5306 25.5631 22.9085 25.8931 23.3962C26.2231 23.8839 26.3996 24.4592 26.4001 25.048C26.4151 25.8148 26.1254 26.5562 25.5945 27.1096C25.0636 27.663 24.3348 27.9832 23.5681 28Z" fill="black"/>
</svg>
