<svg width="32" height="32" viewBox="0 0 32 32" fill="none" xmlns="http://www.w3.org/2000/svg">
<path d="M20 17.152L19.392 16.84C19.3559 16.8234 19.3184 16.81 19.28 16.8C19.3464 16.5384 19.3813 16.2699 19.384 16C19.3825 15.7301 19.3475 15.4614 19.28 15.2L19.416 15.152L20.024 14.84C20.2139 14.7445 20.3581 14.5775 20.4248 14.3757C20.4916 14.1739 20.4755 13.9539 20.38 13.764C20.2845 13.5741 20.1175 13.4299 19.9157 13.3632C19.7139 13.2964 19.4939 13.3125 19.304 13.408L18.688 13.72C18.6544 13.7447 18.6223 13.7714 18.592 13.8C18.1375 13.2263 17.5084 12.8163 16.8 12.632C16.8039 12.5868 16.8039 12.5413 16.8 12.496V11.872C16.8 11.6598 16.7157 11.4563 16.5657 11.3063C16.4157 11.1563 16.2122 11.072 16 11.072C15.7878 11.072 15.5843 11.1563 15.4343 11.3063C15.2843 11.4563 15.2 11.6598 15.2 11.872V12.496C15.1961 12.5413 15.1961 12.5868 15.2 12.632C14.484 12.8094 13.846 13.2169 13.384 13.792C13.3537 13.7634 13.3216 13.7367 13.288 13.712L12.672 13.4C12.4821 13.3045 12.2621 13.2884 12.0603 13.3552C11.8585 13.4219 11.6915 13.5661 11.596 13.756C11.5005 13.9459 11.4844 14.1659 11.5512 14.3677C11.6179 14.5695 11.7621 14.7365 11.952 14.832L12.56 15.144L12.696 15.192C12.6285 15.4534 12.5935 15.7221 12.592 15.992C12.5947 16.2619 12.6296 16.5304 12.696 16.792C12.6494 16.8005 12.6038 16.8139 12.56 16.832L11.952 17.144C11.7636 17.2399 11.6208 17.4065 11.5548 17.6074C11.4889 17.8083 11.5051 18.0271 11.6 18.216C11.6665 18.3479 11.7682 18.4589 11.8939 18.5365C12.0195 18.6142 12.1643 18.6556 12.312 18.656C12.4372 18.6553 12.5605 18.6251 12.672 18.568L13.288 18.256C13.3216 18.2313 13.3537 18.2046 13.384 18.176C13.8451 18.7553 14.4828 19.1682 15.2 19.352C15.1955 19.4026 15.1955 19.4534 15.2 19.504V20.128C15.2 20.3402 15.2843 20.5437 15.4343 20.6937C15.5843 20.8437 15.7878 20.928 16 20.928C16.2122 20.928 16.4157 20.8437 16.5657 20.6937C16.7157 20.5437 16.8 20.3402 16.8 20.128V19.504C16.8046 19.4534 16.8046 19.4026 16.8 19.352C17.5191 19.1719 18.1596 18.7618 18.624 18.184C18.6543 18.2126 18.6864 18.2393 18.72 18.264L19.336 18.576C19.4475 18.6331 19.5708 18.6633 19.696 18.664C19.8437 18.6636 19.9885 18.6222 20.1141 18.5445C20.2398 18.4669 20.3415 18.3559 20.408 18.224C20.4531 18.1271 20.4784 18.022 20.4822 17.9152C20.4861 17.8083 20.4684 17.7018 20.4304 17.6018C20.3924 17.5019 20.3347 17.4106 20.2608 17.3333C20.1868 17.2561 20.0982 17.1944 20 17.152ZM16 17.688C15.6607 17.696 15.3268 17.6024 15.041 17.4194C14.7552 17.2363 14.5306 16.9721 14.3959 16.6606C14.2613 16.349 14.2227 16.0044 14.2852 15.6708C14.3477 15.3372 14.5083 15.0299 14.7466 14.7882C14.9848 14.5465 15.2898 14.3815 15.6225 14.3142C15.9551 14.247 16.3003 14.2806 16.6137 14.4108C16.9271 14.541 17.1945 14.7618 17.3817 15.0449C17.5688 15.3281 17.6671 15.6606 17.664 16C17.6661 16.4442 17.4923 16.8711 17.1804 17.1875C16.8686 17.5038 16.4442 17.6838 16 17.688V17.688ZM6.296 13.256C4.136 9.6 3.2 6.216 4.704 4.704C4.99219 4.45314 5.32718 4.26178 5.68965 4.14095C6.05213 4.02013 6.43493 3.97222 6.816 4C8.856 4 11.712 5.256 14.592 7.2C13.1831 8.27306 11.8468 9.43827 10.592 10.688C9.696 11.584 8.856 12.504 8.104 13.416C8.62206 13.6118 9.07223 13.9536 9.4 14.4C10.1371 13.4769 10.9249 12.5955 11.76 11.76C13.0786 10.4405 14.496 9.22358 16 8.12C17.504 9.22358 18.9214 10.4405 20.24 11.76C21.0673 12.5837 21.8523 13.4488 22.592 14.352C22.9103 13.9007 23.3519 13.5507 23.864 13.344C23.104 12.432 22.264 11.52 21.376 10.624C20.1212 9.37427 18.7849 8.20906 17.376 7.136C21.52 4.4 25.6 3.016 27.296 4.704C28.8 6.216 27.864 9.624 25.696 13.256C26.2309 13.4126 26.7089 13.7211 27.072 14.144C29.736 9.6 30.4 5.6 28.424 3.576C26.176 1.328 21.224 2.488 16 6.112C10.752 2.488 5.824 1.312 3.576 3.576C1.6 5.552 2.256 9.6 4.92 14.128C5.28489 13.7106 5.76279 13.4078 6.296 13.256V13.256ZM25.664 18.68C27.856 22.336 28.808 25.776 27.264 27.296C25.568 28.984 21.488 27.592 17.376 24.896C18.7849 23.8229 20.1212 22.6577 21.376 21.408C22.288 20.496 23.136 19.56 23.912 18.632C23.388 18.4228 22.9373 18.0638 22.616 17.6C21.8629 18.5164 21.0618 19.3923 20.216 20.224C18.9057 21.5481 17.4963 22.7703 16 23.88C14.496 22.7764 13.0786 21.5595 11.76 20.24C10.96 19.44 10.16 18.52 9.36 17.6C9.03928 18.0518 8.59071 18.3973 8.072 18.592C8.85067 19.5307 9.69867 20.4587 10.616 21.376C11.8708 22.6257 13.2071 23.7909 14.616 24.864C10.48 27.6 6.4 28.984 4.704 27.296C3.192 25.776 4.144 22.336 6.304 18.68C5.76404 18.5422 5.27863 18.2437 4.912 17.824C2.264 22.4 1.6 26.44 3.576 28.424C4.00474 28.821 4.50903 29.1276 5.05881 29.3255C5.60859 29.5235 6.19259 29.6086 6.776 29.576C9.272 29.576 12.56 28.256 15.992 25.888C19.424 28.288 22.712 29.576 25.208 29.576C25.7914 29.6086 26.3754 29.5235 26.9252 29.3255C27.475 29.1276 27.9793 28.821 28.408 28.424C30.392 26.44 29.72 22.352 27.024 17.808C26.6678 18.2278 26.1942 18.5315 25.664 18.68V18.68ZM8.656 16C8.656 16.3165 8.56216 16.6258 8.38635 16.8889C8.21054 17.152 7.96066 17.3571 7.6683 17.4782C7.37593 17.5993 7.05423 17.631 6.74386 17.5693C6.43349 17.5075 6.1484 17.3551 5.92463 17.1314C5.70087 16.9076 5.54848 16.6225 5.48675 16.3121C5.42501 16.0018 5.4567 15.6801 5.5778 15.3877C5.6989 15.0953 5.90397 14.8455 6.16709 14.6697C6.43021 14.4938 6.73955 14.4 7.056 14.4C7.48035 14.4 7.88732 14.5686 8.18737 14.8686C8.48743 15.1687 8.656 15.5757 8.656 16ZM26.496 16C26.496 16.3165 26.4022 16.6258 26.2264 16.8889C26.0505 17.152 25.8007 17.3571 25.5083 17.4782C25.2159 17.5993 24.8942 17.631 24.5839 17.5693C24.2735 17.5075 23.9884 17.3551 23.7646 17.1314C23.5409 16.9076 23.3885 16.6225 23.3267 16.3121C23.265 16.0018 23.2967 15.6801 23.4178 15.3877C23.5389 15.0953 23.744 14.8455 24.0071 14.6697C24.2702 14.4938 24.5796 14.4 24.896 14.4C25.3203 14.4 25.7273 14.5686 26.0274 14.8686C26.3274 15.1687 26.496 15.5757 26.496 16Z" fill="black"/>
</svg>
