<svg width="32" height="32" viewBox="0 0 32 32" fill="none" xmlns="http://www.w3.org/2000/svg">
<path d="M27.2 5.72002C27.1948 5.27877 27.1027 4.84287 26.929 4.43721C26.7553 4.03155 26.5034 3.66408 26.1877 3.35579C25.8719 3.04749 25.4986 2.80441 25.0889 2.64041C24.6792 2.47642 24.2413 2.39474 23.8 2.40002H8.184C7.29761 2.39569 6.44523 2.74097 5.81175 3.36098C5.17826 3.98099 4.81473 4.82574 4.8 5.71202V21.768C4.80087 22.1774 4.90645 22.5797 5.10668 22.9368C5.30692 23.2939 5.59516 23.5938 5.944 23.808L14.688 29.224C15.0816 29.4694 15.5362 29.5995 16 29.5995C16.4638 29.5995 16.9184 29.4694 17.312 29.224L26.056 23.808C26.4048 23.5938 26.6931 23.2939 26.8933 22.9368C27.0936 22.5797 27.1991 22.1774 27.2 21.768V5.72002ZM25.216 22.448L16.464 27.864C16.3261 27.9542 16.1648 28.0022 16 28.0022C15.8352 28.0022 15.674 27.9542 15.536 27.864L6.792 22.448C6.67374 22.3779 6.57554 22.2785 6.50688 22.1594C6.43821 22.0403 6.40141 21.9055 6.4 21.768V5.72002C6.41051 5.25602 6.60386 4.81496 6.93798 4.49282C7.2721 4.17069 7.71993 3.99357 8.184 4.00002H23.8C24.2676 3.99144 24.7195 4.16845 25.0568 4.49231C25.3942 4.81617 25.5895 5.26049 25.6 5.72802V21.768C25.5994 21.9047 25.5638 22.039 25.4966 22.1581C25.4294 22.2771 25.3328 22.3769 25.216 22.448Z" fill="black"/>
<path d="M21.192 12L15.296 15.648L13.32 13.72C13.2764 13.6706 13.2229 13.6311 13.1629 13.604C13.1029 13.5769 13.0378 13.5629 12.972 13.5629C12.9062 13.5629 12.8411 13.5769 12.7811 13.604C12.7211 13.6311 12.6675 13.6706 12.624 13.72L11.2 15.104C11.1477 15.1478 11.106 15.2031 11.0783 15.2655C11.0506 15.3279 11.0375 15.3958 11.04 15.464C11.0368 15.5335 11.0496 15.6028 11.0773 15.6665C11.1051 15.7303 11.147 15.7869 11.2 15.832L14.896 19.432C14.9426 19.4826 14.9996 19.5224 15.0632 19.5487C15.1267 19.575 15.1953 19.587 15.264 19.584C15.334 19.5876 15.4039 19.5759 15.4688 19.5497C15.5338 19.5234 15.5922 19.4832 15.64 19.432L21.888 12.8C21.9652 12.7035 22.0073 12.5836 22.0073 12.46C22.0073 12.3364 21.9652 12.2165 21.888 12.12C21.8073 12.0176 21.6915 11.9487 21.563 11.9265C21.4345 11.9043 21.3023 11.9305 21.192 12Z" fill="black"/>
</svg>
