<svg width="32" height="32" viewBox="0 0 32 32" fill="none" xmlns="http://www.w3.org/2000/svg">
<path d="M19.136 5.424L14.752 2.576C14.5197 2.42481 14.2381 2.36873 13.9656 2.41936C13.6931 2.46999 13.4505 2.62346 13.288 2.848L11.6 5.248L10.632 4.616C10.5434 4.55816 10.4442 4.51847 10.3402 4.49923C10.2361 4.47999 10.1293 4.48157 10.0259 4.50389C9.92248 4.52621 9.82452 4.56883 9.73768 4.62926C9.65084 4.6897 9.57685 4.76677 9.52 4.856C9.40572 5.03431 9.36682 5.25065 9.41181 5.4576C9.45679 5.66455 9.58201 5.84522 9.76 5.96L10.56 6.472C8.432 8.072 5.24 6.52 5.088 6.472C4.97326 6.41173 4.8456 6.38024 4.716 6.38024C4.5864 6.38024 4.45874 6.41173 4.344 6.472C4.22895 6.5341 4.13087 6.62345 4.05835 6.73223C3.98583 6.84101 3.94107 6.96591 3.928 7.096L2.4 23.376C2.39584 23.4453 2.39584 23.5147 2.4 23.584C2.41931 23.6723 2.45456 23.7563 2.504 23.832V23.896C2.55693 23.9676 2.61876 24.0321 2.688 24.088V24.088L2.864 24.168H2.904C2.96241 24.1758 3.02159 24.1758 3.08 24.168H3.2C3.32189 24.1685 3.44229 24.1411 3.552 24.088L18.496 16.8C18.617 16.7419 18.7215 16.6543 18.7998 16.5453C18.8781 16.4362 18.9277 16.3092 18.944 16.176C18.9586 16.042 18.9392 15.9065 18.8874 15.782C18.8357 15.6575 18.7533 15.5481 18.648 15.464C16.248 13.528 16.432 11.6 16.776 10.56L17.656 11.136C17.7442 11.1938 17.843 11.2336 17.9467 11.2532C18.0503 11.2728 18.1568 11.2718 18.26 11.2503C18.3633 11.2288 18.4613 11.1871 18.5485 11.1277C18.6356 11.0682 18.7102 10.9922 18.768 10.904C18.8258 10.8157 18.8656 10.717 18.8852 10.6133C18.9048 10.5097 18.9038 10.4032 18.8823 10.2999C18.8608 10.1967 18.8191 10.0987 18.7597 10.0115C18.7002 9.92437 18.6242 9.84978 18.536 9.792L17.736 9.272L19.424 6.872C19.5075 6.76053 19.5666 6.63274 19.5974 6.49693C19.6283 6.36112 19.6302 6.22034 19.603 6.08375C19.5758 5.94716 19.5202 5.81783 19.4397 5.70415C19.3593 5.59048 19.2558 5.49503 19.136 5.424V5.424ZM16.736 15.872L5.664 21.344L9.096 16.464C9.34065 16.5342 9.5935 16.5719 9.848 16.576C10.3795 16.5618 10.895 16.3913 11.3301 16.0857C11.7652 15.7801 12.1006 15.353 12.2942 14.8579C12.4879 14.3627 12.5313 13.8214 12.419 13.3017C12.3066 12.782 12.0436 12.307 11.6627 11.936C11.2819 11.565 10.8001 11.3145 10.2776 11.2159C9.75514 11.1173 9.21519 11.1748 8.72528 11.3814C8.23537 11.5881 7.81724 11.9345 7.52318 12.3775C7.22912 12.8205 7.07219 13.3403 7.072 13.872C7.07631 14.5119 7.31218 15.1286 7.736 15.608L4.272 20.536L5.4 8.32C7.256 8.952 10.024 9.224 11.944 7.392L15.416 9.656C14.9901 10.7067 14.8897 11.8611 15.1279 12.9695C15.3661 14.0779 15.932 15.0891 16.752 15.872H16.736ZM8.656 13.872C8.64158 13.6369 8.6981 13.4028 8.81824 13.2002C8.93839 12.9976 9.11661 12.8357 9.32983 12.7356C9.54305 12.6354 9.78143 12.6016 10.0141 12.6385C10.2467 12.6754 10.4629 12.7814 10.6347 12.9426C10.8064 13.1038 10.9258 13.3129 10.9773 13.5428C11.0288 13.7727 11.0101 14.0127 10.9236 14.2318C10.8372 14.4509 10.6868 14.639 10.4922 14.7717C10.2976 14.9044 10.0676 14.9756 9.832 14.976C9.53264 14.9804 9.2435 14.8672 9.02662 14.6608C8.80975 14.4544 8.68244 14.1712 8.672 13.872H8.656Z" fill="black"/>
<path d="M28.8 13.776C27.7269 13.7905 26.6993 14.2113 25.9243 14.9537C25.1493 15.696 24.6846 16.7046 24.624 17.776V17.776C24.5653 16.7053 24.1023 15.6967 23.3286 14.9542C22.555 14.2117 21.5282 13.7906 20.456 13.776V13.776C21.5294 13.7652 22.5583 13.3453 23.3328 12.602C24.1073 11.8588 24.5691 10.8481 24.624 9.776V9.776C24.6828 10.8481 25.1469 11.8578 25.9223 12.6005C26.6977 13.3432 27.7264 13.7634 28.8 13.776ZM28.8 25.6C27.7264 25.5874 26.6977 25.1672 25.9223 24.4245C25.1469 23.6818 24.6828 22.6721 24.624 21.6V21.6C24.5691 22.6721 24.1073 23.6828 23.3328 24.426C22.5583 25.1693 21.5294 25.5892 20.456 25.6V25.6C21.5282 25.6146 22.555 26.0357 23.3286 26.7782C24.1023 27.5207 24.5653 28.5293 24.624 29.6V29.6C24.6846 28.5286 25.1493 27.52 25.9243 26.7777C26.6993 26.0353 27.7269 25.6145 28.8 25.6V25.6ZM16.552 25.6C15.4792 25.5873 14.4514 25.1668 13.6773 24.4239C12.9032 23.681 12.4408 22.6714 12.384 21.6V21.6C12.3252 22.6721 11.8611 23.6818 11.0857 24.4245C10.3103 25.1672 9.28163 25.5874 8.208 25.6V25.6C9.28106 25.6145 10.3087 26.0353 11.0837 26.7777C11.8587 27.52 12.3234 28.5286 12.384 29.6V29.6C12.4445 28.5299 12.9081 27.5225 13.6814 26.7803C14.4547 26.0382 15.4803 25.6165 16.552 25.6V25.6Z" fill="black"/>
</svg>
