<svg width="32" height="32" viewBox="0 0 32 32" fill="none" xmlns="http://www.w3.org/2000/svg">
<path d="M28.656 23.4159C28.5953 23.3294 28.5182 23.2557 28.4289 23.1992C28.3397 23.1426 28.2401 23.1043 28.136 23.0865C28.0318 23.0686 27.9252 23.0716 27.8222 23.0952C27.7192 23.1188 27.6219 23.1625 27.536 23.2239L21.8 27.2239V3.1999C21.8 2.98773 21.7157 2.78425 21.5656 2.63422C21.4156 2.48419 21.2121 2.3999 21 2.3999C20.7878 2.3999 20.5843 2.48419 20.4343 2.63422C20.2842 2.78425 20.2 2.98773 20.2 3.1999V28.7999C20.1996 28.9468 20.2398 29.091 20.316 29.2166C20.3922 29.3421 20.5015 29.4443 20.632 29.5119C20.7584 29.5738 20.899 29.6012 21.0395 29.5914C21.1799 29.5816 21.3153 29.5348 21.432 29.4559L28.432 24.5279C28.5199 24.4698 28.5955 24.3949 28.6544 24.3074C28.7133 24.22 28.7543 24.1218 28.7751 24.0185C28.7959 23.9151 28.7961 23.8087 28.7757 23.7053C28.7552 23.6019 28.7145 23.5035 28.656 23.4159Z" fill="black"/>
<path d="M11.3679 2.48793C11.2414 2.42603 11.1008 2.39861 10.9603 2.40845C10.8199 2.41828 10.6845 2.46502 10.5679 2.54393L3.53586 7.47193C3.36339 7.59428 3.24638 7.77993 3.2104 7.98831C3.17442 8.19669 3.2224 8.41083 3.34386 8.58393C3.40449 8.67045 3.48166 8.74411 3.57091 8.80065C3.66016 8.85718 3.75972 8.89548 3.86385 8.91333C3.96798 8.93118 4.07462 8.92823 4.1776 8.90465C4.28059 8.88107 4.37788 8.83732 4.46386 8.77593L10.1999 4.77593V28.7999C10.1999 29.0121 10.2841 29.2156 10.4342 29.3656C10.5842 29.5156 10.7877 29.5999 10.9999 29.5999C11.212 29.5999 11.4155 29.5156 11.5655 29.3656C11.7156 29.2156 11.7999 29.0121 11.7999 28.7999V3.19993C11.8002 3.05303 11.76 2.90888 11.6838 2.78328C11.6076 2.65769 11.4983 2.5555 11.3679 2.48793Z" fill="black"/>
</svg>
