<svg width="32" height="32" viewBox="0 0 32 32" fill="none" xmlns="http://www.w3.org/2000/svg">
<path d="M8.64806 6.14384C8.50085 6.08457 8.33934 6.07041 8.18406 6.10317C8.02879 6.13594 7.88677 6.21414 7.77606 6.32784L4.63206 9.52784C4.55586 9.60235 4.49532 9.69133 4.45398 9.78955C4.41265 9.88778 4.39136 9.99327 4.39136 10.0998C4.39136 10.2064 4.41265 10.3119 4.45398 10.4101C4.49532 10.5084 4.55586 10.5973 4.63206 10.6718C4.78195 10.8208 4.98471 10.9045 5.19606 10.9045C5.40741 10.9045 5.61017 10.8208 5.76006 10.6718L7.53606 8.87184V25.5998C7.53606 25.812 7.62034 26.0155 7.77037 26.1655C7.9204 26.3156 8.12389 26.3998 8.33606 26.3998C8.54823 26.3998 8.75171 26.3156 8.90174 26.1655C9.05177 26.0155 9.13606 25.812 9.13606 25.5998V6.89584C9.13911 6.7361 9.09426 6.5791 9.00729 6.44507C8.92031 6.31104 8.79519 6.20613 8.64806 6.14384Z" fill="black"/>
<path d="M20.856 11.2001H23.952L24.392 12.3761H25.9921L23.328 5.6001H21.48L18.8 12.4001H20.4L20.856 11.2001ZM22.4 6.8561L23.536 9.9761H21.248L22.4 6.8561Z" fill="black"/>
<path d="M25.3599 20.3602V19.2002H20.1519V20.4722H23.4239L20.1519 24.8242V26.0002H25.4319V24.7202H22.0879L25.3599 20.3602Z" fill="black"/>
<path d="M16.7442 22.3122L14.2082 24.0642V6.89619C14.2082 6.68402 14.1239 6.48054 13.9738 6.33051C13.8238 6.18048 13.6203 6.09619 13.4082 6.09619C13.196 6.09619 12.9925 6.18048 12.8425 6.33051C12.6924 6.48054 12.6082 6.68402 12.6082 6.89619V25.6002C12.6079 25.7455 12.6473 25.8882 12.7221 26.0128C12.7968 26.1375 12.9041 26.2394 13.0324 26.3077C13.1607 26.3759 13.3052 26.4079 13.4503 26.4003C13.5954 26.3926 13.7357 26.3456 13.8562 26.2642L17.6482 23.6562C17.7371 23.5968 17.8132 23.5201 17.8719 23.4308C17.9307 23.3415 17.971 23.2413 17.9904 23.1361C18.0098 23.031 18.0079 22.923 17.9848 22.8186C17.9618 22.7141 17.918 22.6154 17.8562 22.5282C17.7974 22.4409 17.722 22.366 17.6343 22.3079C17.5466 22.2498 17.4483 22.2095 17.345 22.1895C17.2417 22.1694 17.1354 22.1699 17.0323 22.191C16.9292 22.212 16.8313 22.2532 16.7442 22.3122Z" fill="black"/>
</svg>
