<svg width="32" height="32" viewBox="0 0 32 32" fill="none" xmlns="http://www.w3.org/2000/svg">
<path d="M25.6001 6.39991C23.7 4.49321 21.2768 3.19326 18.6374 2.66468C15.9979 2.13611 13.261 2.40268 10.7732 3.43065C8.28538 4.45862 6.15857 6.20174 4.6621 8.43926C3.16564 10.6768 2.36682 13.3081 2.36682 15.9999C2.36682 18.6917 3.16564 21.323 4.6621 23.5606C6.15857 25.7981 8.28538 27.5412 10.7732 28.5692C13.261 29.5971 15.9979 29.8637 18.6374 29.3351C21.2768 28.8066 23.7 27.5066 25.6001 25.5999C28.1404 23.0508 29.5668 19.5987 29.5668 15.9999C29.5668 12.4011 28.1404 8.94904 25.6001 6.39991ZM7.5121 7.51191C9.66552 5.36377 12.5543 4.11354 15.5944 4.01404C18.6344 3.91453 21.5988 4.97319 23.8881 6.97591L6.9761 23.8879C4.97337 21.5986 3.91472 18.6342 4.01423 15.5942C4.11373 12.5542 5.36396 9.66533 7.5121 7.51191ZM8.1121 25.0239L25.0241 8.11191C26.9686 10.4098 27.9785 13.3545 27.8534 16.362C27.7284 19.3696 26.4776 22.2204 24.3491 24.3489C22.2205 26.4774 19.3698 27.7282 16.3622 27.8532C13.3547 27.9783 10.4099 26.9684 8.1121 25.0239Z" fill="black"/>
</svg>
