<svg width="32" height="32" viewBox="0 0 32 32" fill="none" xmlns="http://www.w3.org/2000/svg">
<path d="M20.912 14.3119C20.6999 14.3119 20.4964 14.3962 20.3463 14.5462C20.1963 14.6963 20.112 14.8998 20.112 15.1119V25.7519C20.1146 25.8994 20.0763 26.0446 20.0015 26.1717C19.9267 26.2987 19.8182 26.4026 19.688 26.4719C19.5622 26.535 19.422 26.5638 19.2816 26.5553C19.1411 26.5469 19.0054 26.5016 18.888 26.4239L13.2 22.5919C13.1138 22.5233 13.0144 22.4732 12.9079 22.4448C12.8015 22.4164 12.6903 22.4103 12.5814 22.4269C12.4725 22.4435 12.3681 22.4824 12.2749 22.5411C12.1817 22.5999 12.1017 22.6773 12.0398 22.7685C11.9779 22.8597 11.9356 22.9626 11.9153 23.0709C11.8951 23.1792 11.8975 23.2905 11.9223 23.3979C11.9471 23.5052 11.9938 23.6063 12.0595 23.6948C12.1252 23.7832 12.2084 23.8572 12.304 23.9119L17.992 27.7519C18.3862 28.0202 18.8513 28.165 19.328 28.1679C19.9646 28.1679 20.575 27.9151 21.0251 27.465C21.4752 27.0149 21.728 26.4044 21.728 25.7679V15.1279C21.7302 15.0202 21.7106 14.9131 21.6704 14.8131C21.6301 14.7131 21.5701 14.6223 21.4939 14.5461C21.4177 14.4699 21.3268 14.4098 21.2269 14.3696C21.1269 14.3294 21.0198 14.3098 20.912 14.3119Z" fill="black"/>
<path d="M29.368 2.6319C29.2936 2.55692 29.2051 2.4974 29.1077 2.45679C29.0102 2.41617 28.9056 2.39526 28.8 2.39526C28.6944 2.39526 28.5898 2.41617 28.4923 2.45679C28.3949 2.4974 28.3064 2.55692 28.232 2.6319L21.696 9.1759V6.3999C21.6955 5.96055 21.5743 5.52978 21.3458 5.15455C21.1173 4.77931 20.7901 4.474 20.4 4.2719C20.0148 4.0705 19.582 3.97752 19.1481 4.00288C18.7141 4.02824 18.2952 4.171 17.936 4.4159L9.136 10.4479H4C3.57566 10.4479 3.16869 10.6165 2.86863 10.9165C2.56857 11.2166 2.4 11.6236 2.4 12.0479V20.0959C2.4 20.5202 2.56857 20.9272 2.86863 21.2273C3.16869 21.5273 3.57566 21.6959 4 21.6959H9.04L9.12 21.7519L2.632 28.2319C2.48136 28.3825 2.39673 28.5869 2.39673 28.7999C2.39673 29.0129 2.48136 29.2173 2.632 29.3679C2.78264 29.5185 2.98696 29.6032 3.2 29.6032C3.41304 29.6032 3.61736 29.5185 3.768 29.3679L29.368 3.7679C29.443 3.69353 29.5025 3.60505 29.5431 3.50756C29.5837 3.41008 29.6046 3.30551 29.6046 3.1999C29.6046 3.09429 29.5837 2.98973 29.5431 2.89224C29.5025 2.79475 29.443 2.70627 29.368 2.6319ZM9.736 20.2319C9.60448 20.1401 9.44839 20.0899 9.288 20.0879H4V12.0479H9.384C9.54489 12.0491 9.70192 11.9986 9.832 11.9039L18.84 5.7359C18.9553 5.65329 19.0915 5.60494 19.2331 5.59645C19.3746 5.58796 19.5157 5.61966 19.64 5.6879C19.7704 5.75548 19.8798 5.85766 19.956 5.98326C20.0322 6.10885 20.0723 6.253 20.072 6.3999V10.7679L10.272 20.5999L9.736 20.2319Z" fill="black"/>
</svg>
