<svg width="32" height="32" viewBox="0 0 32 32" fill="none" xmlns="http://www.w3.org/2000/svg">
<path d="M20.36 4.28002C19.9755 4.07745 19.5432 3.98311 19.1092 4.00707C18.6752 4.03102 18.2559 4.17236 17.896 4.41602L9.12002 10.4H4.00002C3.57568 10.4 3.16871 10.5686 2.86865 10.8686C2.5686 11.1687 2.40002 11.5757 2.40002 12V20C2.40002 20.4244 2.5686 20.8313 2.86865 21.1314C3.16871 21.4314 3.57568 21.6 4.00002 21.6H9.02402L17.968 27.608C18.3294 27.8492 18.7495 27.9877 19.1834 28.0088C19.6174 28.03 20.0489 27.9329 20.432 27.728C20.8162 27.5216 21.1368 27.2144 21.3595 26.8395C21.5822 26.4646 21.6985 26.0361 21.696 25.6L21.6 6.40002C21.6034 5.96773 21.49 5.54254 21.2717 5.16938C21.0535 4.79623 20.7385 4.48895 20.36 4.28002ZM19.68 26.304C19.5549 26.3682 19.4151 26.3984 19.2747 26.3913C19.1342 26.3843 18.9981 26.3404 18.88 26.264L9.71202 20.12C9.58186 20.0325 9.42886 19.9852 9.27203 19.984H4.00002V12H9.36802C9.52758 12.0004 9.68359 11.953 9.81602 11.864L18.792 5.74402C18.9073 5.6614 19.0435 5.61306 19.1851 5.60456C19.3266 5.59607 19.4677 5.62777 19.592 5.69602C19.7168 5.76614 19.8205 5.86844 19.8922 5.99227C19.964 6.11609 20.0012 6.2569 20 6.40002L20.064 25.6C20.0676 25.7408 20.034 25.88 19.9666 26.0036C19.8992 26.1272 19.8003 26.2308 19.68 26.304Z" fill="black"/>
<path d="M27.0401 9.81613C26.8902 9.66713 26.6874 9.5835 26.4761 9.5835C26.2647 9.5835 26.0619 9.66713 25.9121 9.81613C25.8371 9.8905 25.7776 9.97898 25.7369 10.0765C25.6963 10.174 25.6754 10.2785 25.6754 10.3841C25.6754 10.4897 25.6963 10.5943 25.7369 10.6918C25.7776 10.7893 25.8371 10.8778 25.9121 10.9521C27.2496 12.2916 28.0009 14.1072 28.0009 16.0001C28.0009 17.8931 27.2496 19.7087 25.9121 21.0481C25.7614 21.1977 25.6764 21.401 25.6756 21.6133C25.6749 21.8256 25.7585 22.0295 25.9081 22.1801C26.0576 22.3308 26.2609 22.4158 26.4732 22.4166C26.6855 22.4173 26.8894 22.3337 27.0401 22.1841C28.6669 20.537 29.5792 18.3152 29.5792 16.0001C29.5792 13.685 28.6669 11.4632 27.0401 9.81613Z" fill="black"/>
<path d="M24.648 12.1599C24.4981 12.0109 24.2953 11.9272 24.084 11.9272C23.8726 11.9272 23.6699 12.0109 23.52 12.1599C23.445 12.2343 23.3855 12.3227 23.3449 12.4202C23.3042 12.5177 23.2833 12.6223 23.2833 12.7279C23.2833 12.8335 23.3042 12.9381 23.3449 13.0355C23.3855 13.133 23.445 13.2215 23.52 13.2959C24.2352 14.0141 24.6367 14.9863 24.6367 15.9999C24.6367 17.0134 24.2352 17.9857 23.52 18.7039C23.3693 18.8535 23.2843 19.0568 23.2835 19.2691C23.2828 19.4813 23.3664 19.6852 23.516 19.8359C23.6655 19.9865 23.8688 20.0716 24.0811 20.0723C24.2934 20.0731 24.4973 19.9895 24.648 19.8399C25.6621 18.8192 26.2314 17.4388 26.2314 15.9999C26.2314 14.561 25.6621 13.1806 24.648 12.1599Z" fill="black"/>
</svg>
