<svg width="32" height="32" viewBox="0 0 32 32" fill="none" xmlns="http://www.w3.org/2000/svg">
<path d="M26.232 2.3999H5.76802C4.87542 2.40202 4.01999 2.75754 3.38882 3.3887C2.75766 4.01987 2.40214 4.8753 2.40002 5.7679V26.2319C2.40214 27.1245 2.75766 27.9799 3.38882 28.6111C4.01999 29.2423 4.87542 29.5978 5.76802 29.5999H26.232C27.1246 29.5978 27.9801 29.2423 28.6112 28.6111C29.2424 27.9799 29.5979 27.1245 29.6 26.2319V5.7679C29.5979 4.8753 29.2424 4.01987 28.6112 3.3887C27.9801 2.75754 27.1246 2.40202 26.232 2.3999ZM28 5.7679V10.9359H12.536V3.9999H26.232C26.4642 3.9999 26.6941 4.04563 26.9086 4.13448C27.1231 4.22333 27.318 4.35356 27.4822 4.51774C27.6464 4.68191 27.7766 4.87681 27.8654 5.09132C27.9543 5.30582 28 5.53573 28 5.7679ZM5.76802 3.9999H10.936V10.9359H4.00002V5.7679C4.00002 5.299 4.1863 4.8493 4.51786 4.51774C4.84942 4.18617 5.29912 3.9999 5.76802 3.9999ZM4.00002 26.2319V12.5359H10.936V27.9999H5.76802C5.53585 27.9999 5.30594 27.9542 5.09144 27.8653C4.87694 27.7765 4.68203 27.6462 4.51786 27.4821C4.35369 27.3179 4.22346 27.123 4.13461 26.9085C4.04576 26.694 4.00002 26.4641 4.00002 26.2319ZM26.232 27.9999H12.536V12.5359H28V26.2319C28 26.4641 27.9543 26.694 27.8654 26.9085C27.7766 27.123 27.6464 27.3179 27.4822 27.4821C27.318 27.6462 27.1231 27.7765 26.9086 27.8653C26.6941 27.9542 26.4642 27.9999 26.232 27.9999Z" fill="black"/>
</svg>
