<svg width="32" height="32" viewBox="0 0 32 32" fill="none" xmlns="http://www.w3.org/2000/svg">
<path d="M28.5919 14.104L17.8719 3.38399C17.557 3.06912 17.1827 2.81998 16.7707 2.65106C16.3587 2.48213 15.9172 2.39679 15.4719 2.39999H5.75992C4.86879 2.39999 4.01417 2.75399 3.38404 3.38411C2.75392 4.01423 2.39992 4.86886 2.39992 5.75999V15.496C2.39583 15.9414 2.48076 16.3831 2.64974 16.7953C2.81872 17.2074 3.06833 17.5816 3.38392 17.896L14.0959 28.568C14.7481 29.2177 15.6312 29.5825 16.5519 29.5825C17.4725 29.5825 18.3556 29.2177 19.0079 28.568L28.6079 18.968C29.2391 18.3148 29.5906 17.4411 29.5876 16.5327C29.5846 15.6244 29.2274 14.753 28.5919 14.104ZM27.4559 17.872L17.8559 27.472C17.5065 27.8203 17.0332 28.0159 16.5399 28.0159C16.0465 28.0159 15.5733 27.8203 15.2239 27.472L4.51992 16.744C4.18957 16.4123 4.00281 15.9641 3.99992 15.496V5.75999C4.00203 5.29386 4.18813 4.84742 4.51774 4.51781C4.84735 4.1882 5.29379 4.00209 5.75992 3.99999H15.4959C15.9606 4.00025 16.4064 4.18431 16.7359 4.51199L27.4559 15.24C27.8023 15.5904 27.9965 16.0633 27.9965 16.556C27.9965 17.0487 27.8023 17.5216 27.4559 17.872Z" fill="black"/>
<path d="M10.7279 7.56006C10.095 7.56006 9.47637 7.74774 8.95013 8.09936C8.42389 8.45098 8.01374 8.95075 7.77154 9.53547C7.52934 10.1202 7.46597 10.7636 7.58944 11.3843C7.71292 12.0051 8.01769 12.5753 8.46521 13.0228C8.91274 13.4703 9.48293 13.7751 10.1036 13.8986C10.7244 14.022 11.3678 13.9587 11.9525 13.7165C12.5372 13.4743 13.037 13.0641 13.3886 12.5379C13.7402 12.0116 13.9279 11.393 13.9279 10.7601C13.9279 9.91137 13.5908 9.09743 12.9907 8.49732C12.3905 7.8972 11.5766 7.56006 10.7279 7.56006ZM10.7279 12.3041C10.4115 12.3041 10.1021 12.2102 9.83904 12.0344C9.57593 11.8586 9.37085 11.6087 9.24975 11.3164C9.12865 11.024 9.09696 10.7023 9.1587 10.3919C9.22044 10.0815 9.37282 9.79645 9.59659 9.57269C9.82035 9.34892 10.1054 9.19654 10.4158 9.1348C10.7261 9.07307 11.0478 9.10475 11.3402 9.22585C11.6326 9.34695 11.8825 9.55203 12.0583 9.81515C12.2341 10.0783 12.3279 10.3876 12.3279 10.7041C12.3279 11.1284 12.1593 11.5354 11.8593 11.8354C11.5592 12.1355 11.1523 12.3041 10.7279 12.3041Z" fill="black"/>
</svg>
