<svg width="32" height="32" viewBox="0 0 32 32" fill="none" xmlns="http://www.w3.org/2000/svg">
<path d="M26.232 2.84802H24.184C23.9718 2.84802 23.7684 2.93231 23.6183 3.08234C23.4683 3.23237 23.384 3.43585 23.384 3.64802C23.384 3.8602 23.4683 4.06368 23.6183 4.21371C23.7684 4.36374 23.9718 4.44802 24.184 4.44802H26.232C26.4826 4.4458 26.724 4.54161 26.9049 4.715C27.0858 4.88839 27.1917 5.12561 27.2 5.37602V27.08C27.1896 27.329 27.0828 27.5642 26.9022 27.7359C26.7215 27.9076 26.4812 28.0023 26.232 28H5.76801C5.51881 28.0023 5.27847 27.9076 5.09783 27.7359C4.91718 27.5642 4.81039 27.329 4.80001 27.08V5.37602C4.80106 5.24995 4.82693 5.12533 4.87614 5.00925C4.92535 4.89318 4.99695 4.78794 5.08684 4.69954C5.17672 4.61113 5.28315 4.5413 5.40002 4.49403C5.5169 4.44676 5.64194 4.42297 5.76801 4.42402H7.89601C8.10819 4.42402 8.31167 4.33974 8.4617 4.18971C8.61173 4.03968 8.69601 3.8362 8.69601 3.62402C8.69601 3.41185 8.61173 3.20837 8.4617 3.05834C8.31167 2.90831 8.10819 2.82402 7.89601 2.82402H5.76801C5.43153 2.82192 5.09796 2.88637 4.78649 3.01367C4.47502 3.14098 4.1918 3.32862 3.95312 3.56581C3.71445 3.80299 3.52504 4.08504 3.39579 4.39571C3.26654 4.70638 3.20001 5.03954 3.20001 5.37602V27.08C3.20845 27.7541 3.48324 28.3974 3.96438 28.8696C4.44552 29.3417 5.09392 29.6043 5.76801 29.6H26.232C26.9061 29.6043 27.5545 29.3417 28.0356 28.8696C28.5168 28.3974 28.7916 27.7541 28.8 27.08V5.37602C28.7937 4.70058 28.5198 4.0552 28.0384 3.58133C27.5571 3.10746 26.9075 2.84376 26.232 2.84802Z" fill="black"/>
<path d="M13.936 19.5921C14.0107 19.6662 14.0994 19.7249 14.1968 19.7647C14.2943 19.8045 14.3987 19.8247 14.504 19.8241C14.6844 19.823 14.8592 19.761 15 19.6481L22.496 13.7521C22.6585 13.6203 22.7629 13.43 22.7868 13.2222C22.8108 13.0143 22.7523 12.8053 22.624 12.6401C22.4908 12.4764 22.2984 12.372 22.0887 12.3495C21.8789 12.3271 21.6688 12.3883 21.504 12.5201L14.56 17.9761L12.064 15.5281C11.9141 15.3791 11.7113 15.2954 11.5 15.2954C11.2886 15.2954 11.0859 15.3791 10.936 15.5281C10.7918 15.6772 10.7112 15.8766 10.7112 16.0841C10.7112 16.2915 10.7918 16.4909 10.936 16.6401L13.936 19.5921Z" fill="black"/>
<path d="M13.016 4.7999H19.016C19.3342 4.7999 19.6395 4.67347 19.8645 4.44843C20.0895 4.22339 20.216 3.91816 20.216 3.5999C20.216 3.28164 20.0895 2.97642 19.8645 2.75137C19.6395 2.52633 19.3342 2.3999 19.016 2.3999H13.016C12.6977 2.3999 12.3925 2.52633 12.1675 2.75137C11.9424 2.97642 11.816 3.28164 11.816 3.5999C11.816 3.91816 11.9424 4.22339 12.1675 4.44843C12.3925 4.67347 12.6977 4.7999 13.016 4.7999Z" fill="black"/>
</svg>
