<svg width="32" height="32" viewBox="0 0 32 32" fill="none" xmlns="http://www.w3.org/2000/svg">
<path d="M19.36 26.56C17.8978 27.1394 16.3102 27.3298 14.7524 27.1124C13.1947 26.8951 11.7199 26.2775 10.472 25.32C11.0195 24.5487 11.3131 23.6259 11.312 22.68C11.3205 21.4882 10.8564 20.3417 10.0211 19.4914C9.18593 18.6412 8.04777 18.1567 6.85601 18.144C5.70165 18.2127 4.61709 18.7196 3.82403 19.5613C3.03097 20.4029 2.58929 21.5156 2.58929 22.672C2.58929 23.8284 3.03097 24.9412 3.82403 25.7828C4.61709 26.6244 5.70165 27.1314 6.85601 27.2C7.7425 27.1928 8.60539 26.9136 9.32801 26.4C11.2135 27.9371 13.5675 28.7838 16 28.8C17.3565 28.7897 18.6983 28.5181 19.952 28C20.0581 27.9679 20.1564 27.9141 20.2407 27.8419C20.3249 27.7698 20.3932 27.6809 20.4412 27.581C20.4893 27.4811 20.516 27.3722 20.5198 27.2614C20.5235 27.1506 20.5042 27.0402 20.463 26.9372C20.4218 26.8343 20.3597 26.741 20.2805 26.6633C20.2014 26.5857 20.107 26.5253 20.0033 26.4861C19.8995 26.4469 19.7888 26.4296 19.6781 26.4355C19.5673 26.4413 19.459 26.4701 19.36 26.52V26.56ZM4.00001 22.68C3.99145 21.9126 4.28706 21.1729 4.82223 20.6228C5.3574 20.0726 6.0886 19.7567 6.85601 19.744C7.63469 19.744 8.38148 20.0534 8.93209 20.604C9.4827 21.1546 9.79202 21.9014 9.79202 22.68C9.79202 23.4587 9.4827 24.2055 8.93209 24.7561C8.38148 25.3067 7.63469 25.616 6.85601 25.616C6.0886 25.6034 5.3574 25.2875 4.82223 24.7373C4.28706 24.1872 3.99145 23.4475 4.00001 22.68Z" fill="black"/>
<path d="M5.952 16.8481H6.072C6.26493 16.8503 6.45215 16.7826 6.59916 16.6577C6.74617 16.5327 6.84307 16.3588 6.872 16.1681C7.104 14.7126 7.67245 13.3314 8.53212 12.1342C9.3918 10.937 10.519 9.95703 11.824 9.27209C12.1672 10.2765 12.8588 11.1248 13.7736 11.6631C14.6884 12.2015 15.7658 12.3943 16.8105 12.2066C17.8552 12.0189 18.7982 11.4632 19.4684 10.6402C20.1386 9.8171 20.4918 8.78116 20.464 7.72008C20.4958 7.12058 20.4062 6.52083 20.2005 5.95683C19.9947 5.39284 19.6772 4.87623 19.2668 4.43802C18.8564 3.99982 18.3618 3.64905 17.8125 3.40678C17.2632 3.16451 16.6706 3.03574 16.0703 3.02818C15.47 3.02063 14.8744 3.13446 14.3192 3.36284C13.764 3.59122 13.2606 3.92943 12.8394 4.35718C12.4181 4.78492 12.0877 5.29338 11.8678 5.85202C11.648 6.41066 11.5433 7.00797 11.56 7.60808C9.9111 8.37449 8.47633 9.53521 7.38244 10.9877C6.28856 12.4401 5.56923 14.1397 5.288 15.9361C5.25574 16.145 5.30747 16.3582 5.43189 16.529C5.5563 16.6999 5.74329 16.8146 5.952 16.8481ZM16 4.80008C16.5838 4.78417 17.1591 4.94274 17.6524 5.25553C18.1456 5.56831 18.5343 6.0211 18.7689 6.55598C19.0034 7.09087 19.0731 7.68356 18.969 8.25826C18.8649 8.83296 18.5918 9.36355 18.1845 9.7822C17.7773 10.2008 17.2545 10.4885 16.6828 10.6084C16.1112 10.7284 15.5169 10.6751 14.9757 10.4554C14.4345 10.2357 13.9712 9.85965 13.6449 9.37525C13.3186 8.89084 13.1442 8.32013 13.144 7.73608C13.1354 6.96862 13.431 6.22897 13.9662 5.67881C14.5014 5.12865 15.2326 4.81272 16 4.80008Z" fill="black"/>
<path d="M26.816 18.48C26.816 18.224 26.816 17.976 26.816 17.728C26.8274 16.0816 26.473 14.4532 25.7785 12.9605C25.084 11.4677 24.0667 10.1478 22.8 9.09599C22.6362 8.96336 22.4267 8.90073 22.217 8.9217C22.0073 8.94267 21.8143 9.04555 21.68 9.20799C21.6131 9.28932 21.5629 9.38307 21.5323 9.48384C21.5017 9.58462 21.4914 9.69044 21.5018 9.79524C21.5122 9.90005 21.5432 10.0018 21.593 10.0946C21.6428 10.1873 21.7104 10.2694 21.792 10.336C22.881 11.2345 23.7567 12.3638 24.3558 13.6422C24.9548 14.9206 25.2623 16.3162 25.256 17.728C25.256 17.864 25.256 18.008 25.256 18.152H25.168C24.0519 18.144 22.9729 18.5522 22.1415 19.2969C21.3101 20.0416 20.786 21.0694 20.6716 22.1796C20.5571 23.2899 20.8604 24.4029 21.5224 25.3016C22.1844 26.2003 23.1574 26.82 24.2517 27.0399C25.3459 27.2598 26.4829 27.0641 27.4406 26.4909C28.3983 25.9177 29.1081 25.0083 29.4315 23.94C29.7548 22.8717 29.6685 21.7213 29.1893 20.7132C28.7101 19.7051 27.8726 18.9118 26.84 18.488L26.816 18.48ZM25.144 25.6C24.5595 25.6159 23.9835 25.4569 23.49 25.1435C22.9964 24.83 22.6076 24.3762 22.3736 23.8404C22.1395 23.3046 22.0707 22.711 22.1761 22.1359C22.2815 21.5607 22.5562 21.0302 22.9651 20.6121C23.374 20.1941 23.8983 19.9077 24.471 19.7896C25.0437 19.6715 25.6386 19.7271 26.1795 19.9492C26.7203 20.1714 27.1826 20.5499 27.5069 21.0365C27.8313 21.523 28.003 22.0953 28 22.68C28.0043 23.4447 27.7068 24.1802 27.1721 24.7269C26.6374 25.2736 25.9086 25.5874 25.144 25.6Z" fill="black"/>
</svg>
