<svg width="32" height="32" viewBox="0 0 32 32" fill="none" xmlns="http://www.w3.org/2000/svg">
<path d="M4.89597 11.1999C4.89597 11.1999 4.89597 11.2559 4.89597 11.2879C4.89267 11.3172 4.89267 11.3467 4.89597 11.3759C4.93149 11.4598 4.98314 11.5359 5.04797 11.5999L7.50397 14.0559C7.57873 14.1301 7.66738 14.1887 7.76485 14.2285C7.86232 14.2683 7.96669 14.2885 8.07197 14.2879C8.17726 14.2885 8.28163 14.2683 8.3791 14.2285C8.47657 14.1887 8.56522 14.1301 8.63997 14.0559C8.71496 13.9815 8.77447 13.8931 8.81509 13.7956C8.8557 13.6981 8.87661 13.5935 8.87661 13.4879C8.87661 13.3823 8.8557 13.2777 8.81509 13.1803C8.77447 13.0828 8.71496 12.9943 8.63997 12.9199L6.81597 11.0479L11.016 6.85591L12.952 8.79991C13.0276 8.87398 13.1171 8.93242 13.2153 8.9719C13.3136 9.01138 13.4186 9.03113 13.5245 9.03002C13.6303 9.0289 13.7349 9.00695 13.8323 8.96541C13.9297 8.92387 14.0179 8.86355 14.092 8.78791C14.166 8.71227 14.2245 8.62278 14.264 8.52456C14.3034 8.42633 14.3232 8.32129 14.3221 8.21543C14.321 8.10957 14.299 8.00497 14.2575 7.90759C14.2159 7.81022 14.1556 7.72198 14.08 7.64791L11.584 5.15191C11.5137 5.09127 11.4357 5.04016 11.352 4.99991H11.264H11.176L4.51197 3.61591C4.38345 3.59018 4.25057 3.59642 4.12502 3.63408C3.99948 3.67175 3.88511 3.73968 3.79197 3.83191C3.69833 3.92426 3.6289 4.03828 3.58983 4.16387C3.55075 4.28945 3.54325 4.42273 3.56797 4.55191L4.89597 11.1999ZM9.39197 6.20791L6.19197 9.40791L5.39197 5.40791L9.39197 6.20791Z" fill="#010101"/>
<path d="M28.192 21.7281L21.448 15.0001L27.72 8.7441C27.7941 8.66935 27.8528 8.58069 27.8926 8.48322C27.9324 8.38575 27.9526 8.28138 27.952 8.1761C27.9511 7.96623 27.8678 7.76511 27.72 7.6161L23.528 3.4321C23.3781 3.2831 23.1753 3.19946 22.964 3.19946C22.7526 3.19946 22.5499 3.2831 22.4 3.4321L3.43196 22.4001C3.28578 22.5534 3.20291 22.7563 3.19996 22.9681C3.19936 23.0734 3.21954 23.1778 3.25935 23.2752C3.29916 23.3727 3.35782 23.4613 3.43196 23.5361L7.62396 27.7121C7.77385 27.8611 7.97662 27.9447 8.18796 27.9447C8.39931 27.9447 8.60207 27.8611 8.75196 27.7121L14.976 21.5041L21.72 28.2321C22.1098 28.6205 22.6377 28.8385 23.188 28.8385C23.7383 28.8385 24.2661 28.6205 24.656 28.2321L28.192 24.7041C28.5803 24.3143 28.7984 23.7864 28.7984 23.2361C28.7984 22.6858 28.5803 22.1579 28.192 21.7681V21.7281ZM8.19196 25.9761L5.13596 22.9281L7.67996 20.3841L9.27996 21.9841C9.43167 22.1326 9.63616 22.2148 9.84845 22.2125C10.0607 22.2103 10.2634 22.1238 10.412 21.9721C10.5605 21.8204 10.6427 21.6159 10.6404 21.4036C10.6382 21.1913 10.5517 20.9886 10.4 20.8401L8.79996 19.2401L10.776 17.2641L12.376 18.8641C12.4506 18.9382 12.539 18.9968 12.6363 19.0367C12.7335 19.0766 12.8377 19.0969 12.9428 19.0965C13.0479 19.0962 13.1519 19.0751 13.2489 19.0345C13.3459 18.994 13.4339 18.9347 13.508 18.8601C13.582 18.7855 13.6407 18.6971 13.6806 18.5998C13.7204 18.5025 13.7408 18.3984 13.7404 18.2933C13.74 18.1882 13.719 18.0841 13.6784 17.9872C13.6378 17.8902 13.5786 17.8022 13.504 17.7281L11.904 16.1281L13.432 14.6001L15.032 16.2001C15.181 16.3479 15.3821 16.4312 15.592 16.4321C15.6978 16.4317 15.8025 16.4102 15.9 16.369C15.9975 16.3278 16.0859 16.2677 16.16 16.1921C16.309 16.0422 16.3926 15.8394 16.3926 15.6281C16.3926 15.4167 16.309 15.214 16.16 15.0641L14.56 13.4641L16.12 12.0001L17.72 13.6001C17.8699 13.7491 18.0726 13.8327 18.284 13.8327C18.4953 13.8327 18.6981 13.7491 18.848 13.6001C18.997 13.4502 19.0806 13.2474 19.0806 13.0361C19.0806 12.8247 18.997 12.622 18.848 12.4721L17.248 10.8721L19.2 8.8641L20.8 10.4641C20.8747 10.5382 20.9634 10.5969 21.0608 10.6367C21.1583 10.6765 21.2627 10.6967 21.368 10.6961C21.4738 10.6957 21.5785 10.6742 21.676 10.633C21.7735 10.5918 21.8619 10.5317 21.936 10.4561C22.085 10.3062 22.1686 10.1034 22.1686 9.8921C22.1686 9.68075 22.085 9.47799 21.936 9.3281L20.336 7.7281L22.944 5.1201L25.992 8.1681L8.19196 25.9761ZM20.32 16.1361L24.736 20.5361L20.528 24.7361L16.112 20.3281L20.32 16.1361ZM27.064 23.5361L23.528 27.0561C23.4834 27.1008 23.4304 27.1364 23.372 27.1606C23.3137 27.1848 23.2511 27.1973 23.188 27.1973C23.1248 27.1973 23.0622 27.1848 23.0039 27.1606C22.9455 27.1364 22.8926 27.1008 22.848 27.0561L21.656 25.8641L25.864 21.6641L27.064 22.8561C27.1519 22.9458 27.2012 23.0665 27.2012 23.1921C27.2012 23.3177 27.1519 23.4384 27.064 23.5281V23.5361Z" fill="#010101"/>
</svg>
