<svg width="32" height="32" viewBox="0 0 32 32" fill="none" xmlns="http://www.w3.org/2000/svg">
<path d="M3.2 16.8H15.584C15.7962 16.8 15.9997 16.7157 16.1497 16.5657C16.2997 16.4157 16.384 16.2122 16.384 16C16.384 15.7878 16.2997 15.5844 16.1497 15.4343C15.9997 15.2843 15.7962 15.2 15.584 15.2H3.2C2.98783 15.2 2.78435 15.2843 2.63432 15.4343C2.48429 15.5844 2.4 15.7878 2.4 16C2.4 16.2122 2.48429 16.4157 2.63432 16.5657C2.78435 16.7157 2.98783 16.8 3.2 16.8V16.8Z" fill="black"/>
<path d="M3.2 4.80001H15.584C15.7962 4.80001 15.9997 4.71573 16.1497 4.5657C16.2997 4.41567 16.384 4.21219 16.384 4.00001C16.384 3.78784 16.2997 3.58436 16.1497 3.43433C15.9997 3.2843 15.7962 3.20001 15.584 3.20001H3.2C2.98783 3.20001 2.78435 3.2843 2.63432 3.43433C2.48429 3.58436 2.4 3.78784 2.4 4.00001C2.4 4.21219 2.48429 4.41567 2.63432 4.5657C2.78435 4.71573 2.98783 4.80001 3.2 4.80001V4.80001Z" fill="black"/>
<path d="M28.8 27.2H3.2C2.98783 27.2 2.78435 27.2843 2.63432 27.4343C2.48429 27.5844 2.4 27.7878 2.4 28C2.4 28.2122 2.48429 28.4157 2.63432 28.5657C2.78435 28.7157 2.98783 28.8 3.2 28.8H28.8C29.0122 28.8 29.2157 28.7157 29.3657 28.5657C29.5157 28.4157 29.6 28.2122 29.6 28C29.6 27.7878 29.5157 27.5844 29.3657 27.4343C29.2157 27.2843 29.0122 27.2 28.8 27.2Z" fill="black"/>
</svg>
