<svg width="32" height="32" viewBox="0 0 32 32" fill="none" xmlns="http://www.w3.org/2000/svg">
<path d="M28.92 11.6639L26.664 9.39995C26.5897 9.32496 26.5012 9.26545 26.4037 9.22483C26.3062 9.18422 26.2016 9.16331 26.096 9.16331C25.9904 9.16331 25.8859 9.18422 25.7884 9.22483C25.6909 9.26545 25.6024 9.32496 25.528 9.39995C25.138 9.77258 24.6194 9.98052 24.08 9.98052C23.5406 9.98052 23.022 9.77258 22.632 9.39995C22.2476 9.01452 22.0316 8.49235 22.0316 7.94795C22.0316 7.40355 22.2476 6.88137 22.632 6.49595C22.781 6.34606 22.8647 6.1433 22.8647 5.93195C22.8647 5.7206 22.781 5.51784 22.632 5.36795L20.328 3.05595C19.8834 2.63976 19.2971 2.4082 18.688 2.4082C18.079 2.4082 17.4927 2.63976 17.048 3.05595L3.08003 17.0399C2.64524 17.475 2.401 18.0649 2.401 18.6799C2.401 19.295 2.64524 19.8849 3.08003 20.3199L5.38403 22.6239C5.4584 22.6989 5.54688 22.7584 5.64436 22.7991C5.74185 22.8397 5.84642 22.8606 5.95203 22.8606C6.05763 22.8606 6.1622 22.8397 6.25969 22.7991C6.35717 22.7584 6.44566 22.6989 6.52003 22.6239C6.91185 22.2549 7.42978 22.0494 7.96803 22.0494C8.50627 22.0494 9.0242 22.2549 9.41603 22.6239C9.80049 23.0094 10.0164 23.5315 10.0164 24.0759C10.0164 24.6203 9.80049 25.1425 9.41603 25.5279C9.26703 25.6778 9.18339 25.8806 9.18339 26.0919C9.18339 26.3033 9.26703 26.5061 9.41603 26.6559L11.672 28.9199C12.1071 29.3547 12.697 29.599 13.312 29.599C13.9271 29.599 14.517 29.3547 14.952 28.9199L28.92 14.9439C29.1362 14.7291 29.3076 14.4736 29.4243 14.1921C29.5411 13.9106 29.6008 13.6087 29.6 13.3039C29.6021 12.999 29.543 12.6967 29.4262 12.415C29.3094 12.1333 29.1373 11.8779 28.92 11.6639ZM27.792 13.8079L13.824 27.7919C13.6891 27.9263 13.5064 28.0017 13.316 28.0017C13.1256 28.0017 12.943 27.9263 12.808 27.7919L11.048 26.0319C11.494 25.3321 11.688 24.501 11.5981 23.676C11.5081 22.851 11.1395 22.0813 10.5531 21.494C9.96677 20.9068 9.19768 20.5369 8.37282 20.4457C7.54795 20.3544 6.71661 20.5471 6.01603 20.9919L4.20803 19.1999C4.07368 19.065 3.99826 18.8824 3.99826 18.6919C3.99826 18.5015 4.07368 18.3189 4.20803 18.1839L18.176 4.19195C18.3129 4.06137 18.4948 3.98852 18.684 3.98852C18.8732 3.98852 19.0551 4.06137 19.192 4.19195L21 5.99195C20.554 6.69183 20.36 7.52286 20.45 8.34787C20.54 9.17288 20.9086 9.94255 21.4949 10.5298C22.0813 11.1171 22.8504 11.487 23.6752 11.5782C24.5001 11.6695 25.3314 11.4768 26.032 11.0319L27.792 12.7919C27.8587 12.8594 27.9114 12.9393 27.9471 13.0272C27.9828 13.1151 28.0008 13.2091 28 13.3039C28.0006 13.3976 27.9825 13.4904 27.9468 13.5769C27.9111 13.6634 27.8585 13.742 27.792 13.8079Z" fill="black"/>
<path d="M17.24 10.72C17.1656 10.6451 17.0771 10.5855 16.9797 10.5449C16.8822 10.5043 16.7776 10.4834 16.672 10.4834C16.5664 10.4834 16.4618 10.5043 16.3643 10.5449C16.2668 10.5855 16.1784 10.6451 16.104 10.72L10.736 16.096C10.587 16.2459 10.5034 16.4487 10.5034 16.66C10.5034 16.8714 10.587 17.0741 10.736 17.224C10.8859 17.373 11.0886 17.4567 11.3 17.4567C11.5113 17.4567 11.7141 17.373 11.864 17.224L17.24 11.848C17.389 11.6981 17.4726 11.4954 17.4726 11.284C17.4726 11.0727 17.389 10.8699 17.24 10.72Z" fill="black"/>
<path d="M18.456 16.424L14.696 20.192C14.547 20.3419 14.4634 20.5446 14.4634 20.756C14.4634 20.9673 14.547 21.1701 14.696 21.32C14.7701 21.3956 14.8585 21.4557 14.956 21.4969C15.0535 21.5381 15.1582 21.5596 15.264 21.56C15.3699 21.5596 15.4746 21.5381 15.5721 21.4969C15.6696 21.4557 15.7579 21.3956 15.832 21.32L19.592 17.56C19.7427 17.4094 19.8273 17.205 19.8273 16.992C19.8273 16.779 19.7427 16.5746 19.592 16.424C19.4414 16.2734 19.2371 16.1887 19.024 16.1887C18.811 16.1887 18.6067 16.2734 18.456 16.424Z" fill="black"/>
</svg>
