<svg width="32" height="32" viewBox="0 0 32 32" fill="none" xmlns="http://www.w3.org/2000/svg">
<path d="M15.392 6.4C12.212 6.34865 9.14169 7.56177 6.85562 9.77284C4.56954 11.9839 3.25471 15.0121 3.2 18.192C3.22501 19.7679 3.56023 21.3235 4.18651 22.7698C4.81279 24.2162 5.71786 25.525 6.85004 26.6215C7.98221 27.718 9.3193 28.5808 10.7849 29.1604C12.2506 29.7401 13.8161 30.0254 15.392 30C18.5733 30.0492 21.644 28.8329 23.9288 26.6186C26.2136 24.4044 27.5255 21.3733 27.576 18.192C27.5213 15.0135 26.2075 11.9865 23.9232 9.77571C21.6389 7.56486 18.5706 6.35079 15.392 6.4V6.4ZM15.392 28.416C14.0249 28.4414 12.6661 28.197 11.3936 27.6968C10.121 27.1965 8.95958 26.4502 7.97576 25.5006C6.99195 24.5509 6.20506 23.4166 5.66012 22.1625C5.11518 20.9084 4.8229 19.5592 4.8 18.192C4.85464 15.4364 6.00088 12.8152 7.98691 10.9041C9.97294 8.99311 12.6363 7.94858 15.392 8C18.1463 7.95072 20.8076 8.99621 22.7919 10.907C24.7762 12.8178 25.9213 15.4378 25.976 18.192C25.9255 20.949 24.7822 23.5731 22.7975 25.4873C20.8127 27.4016 18.149 28.4493 15.392 28.4V28.416Z" fill="black"/>
<path d="M12.36 5.2H18.4C18.8243 5.2 19.2313 5.03143 19.5314 4.73137C19.8314 4.43131 20 4.02435 20 3.6C20 3.17565 19.8314 2.76869 19.5314 2.46863C19.2313 2.16857 18.8243 2 18.4 2H12.36C11.9356 2 11.5287 2.16857 11.2286 2.46863C10.9286 2.76869 10.76 3.17565 10.76 3.6C10.76 4.02435 10.9286 4.43131 11.2286 4.73137C11.5287 5.03143 11.9356 5.2 12.36 5.2Z" fill="black"/>
<path d="M28.632 11L26.904 8.79999C26.8394 8.71699 26.7591 8.64754 26.6676 8.59558C26.5762 8.54363 26.4754 8.5102 26.371 8.4972C26.2666 8.4842 26.1607 8.49188 26.0593 8.51982C25.9579 8.54775 25.863 8.59538 25.78 8.65999C25.697 8.7246 25.6275 8.80492 25.5756 8.89638C25.5236 8.98783 25.4902 9.08862 25.4772 9.19299C25.4642 9.29737 25.4719 9.40328 25.4998 9.50468C25.5278 9.60608 25.5754 9.70099 25.64 9.78399L27.368 12C27.4433 12.0953 27.5394 12.1723 27.6489 12.2249C27.7584 12.2776 27.8785 12.3046 28 12.304C28.1795 12.3052 28.3542 12.246 28.496 12.136C28.5805 12.0711 28.6512 11.9899 28.704 11.8973C28.7567 11.8047 28.7904 11.7024 28.8031 11.5966C28.8157 11.4908 28.8071 11.3835 28.7777 11.281C28.7484 11.1786 28.6988 11.083 28.632 11V11Z" fill="black"/>
<path d="M19.336 20.168L16.192 18.264V11.632C16.192 11.4198 16.1077 11.2163 15.9577 11.0663C15.8077 10.9163 15.6042 10.832 15.392 10.832C15.1798 10.832 14.9764 10.9163 14.8263 11.0663C14.6763 11.2163 14.592 11.4198 14.592 11.632V18.72C14.5926 18.8567 14.6282 18.991 14.6954 19.11C14.7626 19.2291 14.8592 19.3289 14.976 19.4L18.512 21.536C18.6355 21.6093 18.7764 21.648 18.92 21.648C19.0935 21.6468 19.2619 21.5893 19.3999 21.484C19.5378 21.3788 19.6378 21.2315 19.6848 21.0645C19.7317 20.8975 19.7231 20.7197 19.6602 20.558C19.5973 20.3963 19.4835 20.2594 19.336 20.168V20.168Z" fill="black"/>
</svg>
