<svg width="32" height="32" viewBox="0 0 32 32" fill="none" xmlns="http://www.w3.org/2000/svg">
<path d="M11.536 26.8C8.69189 26.8003 5.91025 25.9658 3.53599 24.4C3.38195 24.3017 3.2662 24.1537 3.20798 23.9805C3.14977 23.8073 3.15259 23.6194 3.21599 23.448C3.27646 23.2768 3.39335 23.1313 3.54745 23.0354C3.70155 22.9394 3.88371 22.8988 4.06399 22.92C5.82596 23.132 7.61114 22.8145 9.19199 22.008C8.41794 21.6807 7.72476 21.1882 7.16096 20.565C6.59716 19.9418 6.17635 19.2029 5.92799 18.4C5.88148 18.2639 5.87253 18.1177 5.9021 17.9769C5.93166 17.8361 5.99865 17.7059 6.09599 17.6C6.11259 17.5794 6.13136 17.5606 6.15199 17.544C5.52491 16.9886 5.02303 16.3062 4.67961 15.5421C4.3362 14.778 4.15907 13.9497 4.15999 13.112C4.15938 12.9665 4.19487 12.8231 4.26328 12.6946C4.33169 12.5662 4.43089 12.4567 4.55199 12.376C4.65421 12.3126 4.76875 12.2717 4.88799 12.256C4.42269 11.3703 4.18627 10.3823 4.20024 9.38185C4.21422 8.38144 4.47814 7.4004 4.96799 6.52801C5.03277 6.41489 5.12422 6.31932 5.23437 6.24961C5.34451 6.17989 5.47003 6.13815 5.59999 6.12801C5.7281 6.11462 5.85754 6.13235 5.97732 6.17971C6.0971 6.22706 6.20368 6.30264 6.28799 6.40001C8.41126 9.08819 11.4996 10.8419 14.896 11.288C14.896 11.2 14.896 11.112 14.896 11.032C14.8874 9.50198 15.4837 8.03054 16.5551 6.9382C17.6265 5.84585 19.0861 5.22109 20.616 5.20001C22.042 5.20376 23.4138 5.74676 24.456 6.72001C25.3269 6.50148 26.1602 6.15362 26.928 5.68801C27.0675 5.60601 27.2285 5.56823 27.3899 5.57966C27.5513 5.59109 27.7055 5.65118 27.832 5.75201C27.9611 5.8538 28.0557 5.99288 28.1029 6.15034C28.1501 6.30779 28.1477 6.47598 28.096 6.63201C27.9879 6.98104 27.8459 7.31865 27.672 7.64001C27.8286 7.57327 28.0024 7.55823 28.1682 7.59708C28.3339 7.63593 28.483 7.72665 28.5936 7.85603C28.7043 7.98542 28.7707 8.14672 28.7834 8.3165C28.7961 8.48627 28.7542 8.65565 28.664 8.80001C28.0343 9.77313 27.2539 10.6399 26.352 11.368V11.616C26.3241 15.3609 24.9756 18.9758 22.544 21.824C21.1933 23.4183 19.5048 24.6919 17.6008 25.5526C15.6968 26.4132 13.6251 26.8394 11.536 26.8ZM7.19999 24.424C8.59655 24.9242 10.0685 25.1813 11.552 25.184C13.3129 25.1781 15.0549 24.8211 16.6763 24.1341C18.2976 23.447 19.7657 22.4436 20.9948 21.1826C22.2238 19.9215 23.1891 18.4281 23.8342 16.7896C24.4793 15.1511 24.7913 13.4005 24.752 11.64C24.752 11.44 24.752 11.232 24.752 11.032C24.7451 10.8991 24.7715 10.7666 24.8288 10.6464C24.8861 10.5263 24.9724 10.4224 25.08 10.344C25.248 10.216 25.424 10.08 25.584 9.93601L25.272 9.97601C25.0894 9.99871 24.9046 9.9578 24.7487 9.86017C24.5928 9.76254 24.4753 9.61415 24.416 9.44001C24.3527 9.26497 24.3524 9.07333 24.4152 8.8981C24.478 8.72287 24.5999 8.57502 24.76 8.48001C24.8994 8.39865 25.0331 8.30776 25.16 8.20801C24.904 8.27735 24.6373 8.34135 24.36 8.40001C24.2263 8.42458 24.0886 8.41471 23.9599 8.37132C23.8311 8.32793 23.7155 8.25245 23.624 8.15201C23.2429 7.73264 22.7786 7.39726 22.2607 7.16724C21.7428 6.93722 21.1827 6.8176 20.616 6.81601C19.507 6.83287 18.4498 7.28856 17.6761 8.08327C16.9024 8.87798 16.4752 9.94694 16.488 11.056C16.4879 11.3872 16.5255 11.7173 16.6 12.04C16.6268 12.1587 16.6262 12.282 16.5982 12.4004C16.5702 12.5188 16.5155 12.6293 16.4384 12.7234C16.3612 12.8175 16.2636 12.8928 16.153 12.9435C16.0424 12.9942 15.9216 13.019 15.8 13.016C12.043 12.8157 8.50627 11.1805 5.91999 8.44801C5.84022 8.7835 5.79994 9.12717 5.79999 9.47201C5.79743 10.1652 5.9636 10.8487 6.28416 11.4633C6.60473 12.078 7.07006 12.6054 7.63999 13C7.78932 13.0925 7.90409 13.2315 7.96658 13.3956C8.02906 13.5597 8.0358 13.7399 7.98576 13.9082C7.93571 14.0766 7.83165 14.2238 7.68964 14.3271C7.54764 14.4304 7.37557 14.4842 7.19999 14.48C6.78654 14.4631 6.37615 14.4014 5.97599 14.296C6.17723 15.0289 6.57503 15.6928 7.12635 16.2159C7.67768 16.7391 8.36155 17.1015 9.10399 17.264C9.28741 17.3014 9.45191 17.402 9.56885 17.5481C9.68579 17.6943 9.74777 17.8769 9.74399 18.064C9.7511 18.2425 9.69824 18.4183 9.59385 18.5633C9.48946 18.7083 9.33954 18.8141 9.16799 18.864C8.79674 18.9675 8.41627 19.0345 8.03199 19.064C8.40312 19.5896 8.89263 20.0206 9.461 20.3221C10.0294 20.6237 10.6607 20.7874 11.304 20.8C11.4699 20.8035 11.6307 20.8585 11.764 20.9574C11.8973 21.0563 11.9966 21.1942 12.048 21.352C12.1034 21.5102 12.1077 21.6818 12.0603 21.8425C12.013 22.0033 11.9163 22.1451 11.784 22.248C10.4573 23.3379 8.88317 24.0851 7.19999 24.424V24.424Z" fill="black"/>
</svg>
