<svg width="32" height="32" viewBox="0 0 32 32" fill="none" xmlns="http://www.w3.org/2000/svg">
<path d="M26.752 18.0879C26.7477 20.6107 25.7431 23.0289 23.9585 24.812C22.1738 26.5952 19.7548 27.5978 17.232 27.5999H6.17596C5.96378 27.5999 5.7603 27.5156 5.61027 27.3656C5.46024 27.2155 5.37596 27.012 5.37596 26.7999C5.37596 26.5877 5.46024 26.3842 5.61027 26.2342C5.7603 26.0842 5.96378 25.9999 6.17596 25.9999H17.232C19.3304 25.9999 21.3428 25.1663 22.8266 23.6825C24.3104 22.1987 25.144 20.1863 25.144 18.0879C25.144 15.9895 24.3104 13.977 22.8266 12.4932C21.3428 11.0095 19.3304 10.1759 17.232 10.1759H8.11196L11.376 13.1279C11.4537 13.1988 11.5167 13.2843 11.5614 13.3796C11.6061 13.4749 11.6316 13.578 11.6364 13.6831C11.6412 13.7882 11.6253 13.8933 11.5895 13.9922C11.5538 14.0912 11.4989 14.1821 11.428 14.2599C11.357 14.3376 11.2715 14.4006 11.1762 14.4453C11.081 14.49 10.9778 14.5155 10.8727 14.5203C10.7676 14.5252 10.6626 14.5092 10.5636 14.4735C10.4646 14.4377 10.3737 14.3828 10.296 14.3119L4.85596 9.38388L10.312 4.58388C10.3898 4.50907 10.4821 4.4508 10.5831 4.41259C10.6841 4.37438 10.7918 4.35702 10.8997 4.36154C11.0076 4.36607 11.1134 4.3924 11.2109 4.43894C11.3083 4.48548 11.3954 4.55127 11.4667 4.63234C11.538 4.71341 11.5922 4.80809 11.626 4.91066C11.6598 5.01324 11.6724 5.12159 11.6632 5.22919C11.654 5.33679 11.6231 5.44141 11.5723 5.53674C11.5216 5.63207 11.4521 5.71614 11.368 5.78388L8.16796 8.55988H17.232C19.7576 8.562 22.179 9.56677 23.9641 11.3534C25.7492 13.14 26.752 15.5623 26.752 18.0879Z" fill="black"/>
</svg>
