<svg width="32" height="32" viewBox="0 0 32 32" fill="none" xmlns="http://www.w3.org/2000/svg">
<path d="M7.35201 4.52006C7.25235 4.346 7.22172 4.14086 7.26617 3.94528C7.31062 3.7497 7.42691 3.57795 7.59201 3.46406C7.6758 3.41172 7.76919 3.37659 7.86671 3.36073C7.96423 3.34486 8.06394 3.34858 8.16001 3.37167C8.25608 3.39476 8.34659 3.43675 8.42625 3.49519C8.50592 3.55363 8.57314 3.62736 8.62401 3.71206L10.856 7.40006C10.9557 7.57412 10.9863 7.77927 10.9418 7.97485C10.8974 8.17043 10.7811 8.34217 10.616 8.45606C10.5252 8.50993 10.4246 8.54527 10.32 8.56006C10.1756 8.57868 10.0288 8.5545 9.89799 8.4905C9.76715 8.42651 9.65798 8.32552 9.58401 8.20006L7.35201 4.52006ZM4.40801 9.86406L8.21601 11.2001C8.32947 11.2236 8.44654 11.2236 8.56001 11.2001C8.69807 11.1744 8.82695 11.1128 8.93368 11.0215C9.0404 10.9302 9.12122 10.8125 9.16801 10.6801C9.22347 10.4879 9.20496 10.282 9.11611 10.1028C9.02727 9.92361 8.87453 9.78422 8.68801 9.71206L4.88801 8.40806C4.79405 8.37569 4.69455 8.36248 4.5954 8.36919C4.49625 8.3759 4.39945 8.40241 4.31071 8.44716C4.22197 8.4919 4.14309 8.55396 4.07874 8.62969C4.01438 8.70542 3.96585 8.79327 3.93601 8.88806C3.8778 9.0803 3.89403 9.28739 3.98147 9.46821C4.06892 9.64903 4.22118 9.79033 4.40801 9.86406ZM27.648 22.4721L24 20.8001C23.9097 20.7605 23.8125 20.7393 23.714 20.7376C23.6155 20.7359 23.5176 20.7539 23.4261 20.7903C23.3345 20.8268 23.2511 20.8811 23.1807 20.9501C23.1103 21.019 23.0543 21.1013 23.016 21.1921C22.941 21.3796 22.9397 21.5886 23.0124 21.7771C23.0852 21.9655 23.2265 22.1195 23.408 22.2081L27.096 23.8481C27.2224 23.9006 27.3601 23.9199 27.496 23.9041C27.625 23.8865 27.747 23.835 27.8496 23.7549C27.9522 23.6748 28.0317 23.5689 28.08 23.4481C28.1408 23.2607 28.1303 23.0576 28.0506 22.8775C27.9709 22.6974 27.8275 22.5531 27.648 22.4721ZM22.4 23.6801C22.3574 23.5904 22.2972 23.5103 22.2231 23.4442C22.149 23.3782 22.0624 23.3277 21.9685 23.2956C21.8746 23.2636 21.7752 23.2507 21.6762 23.2576C21.5772 23.2645 21.4805 23.2912 21.392 23.3361C21.2179 23.4357 21.0876 23.597 21.0269 23.7881C20.9661 23.9793 20.9794 24.1862 21.064 24.3681L22.984 28.2321C23.0547 28.3779 23.1711 28.4967 23.3155 28.5704C23.4599 28.644 23.6244 28.6685 23.784 28.6401C23.8677 28.631 23.9491 28.6066 24.024 28.5681C24.1981 28.4685 24.3284 28.3071 24.3892 28.116C24.4499 27.9249 24.4366 27.7179 24.352 27.5361L22.4 23.6801Z" fill="black"/>
<path d="M10.568 28.8C9.10968 28.8008 7.68391 28.3688 6.47125 27.5588C5.2586 26.7487 4.3136 25.597 3.75593 24.2495C3.19826 22.9021 3.053 21.4194 3.33855 19.9893C3.6241 18.5592 4.32762 17.246 5.36001 16.216L7.94401 13.6C9.32496 12.2243 11.1948 11.4519 13.144 11.4519C15.0932 11.4519 16.9631 12.2243 18.344 13.6C18.419 13.6744 18.4785 13.7628 18.5191 13.8603C18.5597 13.9578 18.5806 14.0624 18.5806 14.168C18.5806 14.2736 18.5597 14.3782 18.5191 14.4757C18.4785 14.5731 18.419 14.6616 18.344 14.736C18.1941 14.885 17.9914 14.9686 17.78 14.9686C17.5687 14.9686 17.3659 14.885 17.216 14.736C16.6803 14.2 16.0443 13.7747 15.3442 13.4846C14.6442 13.1945 13.8938 13.0452 13.136 13.0452C12.3782 13.0452 11.6278 13.1945 10.9278 13.4846C10.2277 13.7747 9.59167 14.2 9.05601 14.736L6.48801 17.352C5.40593 18.4341 4.79802 19.9017 4.79802 21.432C4.79802 22.9623 5.40593 24.4299 6.48801 25.512C7.57009 26.5941 9.03771 27.202 10.568 27.202C12.0983 27.202 13.5659 26.5941 14.648 25.512L17.24 22.928C17.3899 22.779 17.5927 22.6954 17.804 22.6954C18.0154 22.6954 18.2181 22.779 18.368 22.928C18.517 23.0779 18.6006 23.2806 18.6006 23.492C18.6006 23.7033 18.517 23.9061 18.368 24.056L15.784 26.64C15.0998 27.326 14.2867 27.8699 13.3916 28.2406C12.4965 28.6113 11.5369 28.8014 10.568 28.8Z" fill="black"/>
<path d="M18.848 20.5281C17.8759 20.5388 16.9113 20.3562 16.0104 19.9909C15.1095 19.6256 14.2901 19.0849 13.6 18.4001C13.4494 18.2495 13.3647 18.0452 13.3647 17.8321C13.3647 17.6191 13.4494 17.4148 13.6 17.2641C13.7506 17.1135 13.955 17.0288 14.168 17.0288C14.381 17.0288 14.5854 17.1135 14.736 17.2641C15.2717 17.8001 15.9077 18.2254 16.6078 18.5155C17.3078 18.8056 18.0582 18.9549 18.816 18.9549C19.5738 18.9549 20.3242 18.8056 21.0242 18.5155C21.7243 18.2254 22.3603 17.8001 22.896 17.2641L25.48 14.6801C26.5621 13.598 27.17 12.1304 27.17 10.6001C27.17 9.06982 26.5621 7.6022 25.48 6.52012C24.3979 5.43804 22.9303 4.83013 21.4 4.83013C19.8697 4.83013 18.4021 5.43804 17.32 6.52012L14.736 9.10412C14.5822 9.25476 14.3748 9.33813 14.1595 9.33588C13.9442 9.33363 13.7386 9.24595 13.588 9.09212C13.4374 8.93829 13.354 8.73093 13.3562 8.51563C13.3585 8.30034 13.4462 8.09476 13.6 7.94412L16.224 5.36012C17.6295 4.1186 19.4554 3.4597 21.3298 3.51769C23.2042 3.57567 24.9859 4.34618 26.3119 5.6722C27.6379 6.99822 28.4085 8.77996 28.4664 10.6543C28.5244 12.5287 27.8655 14.3547 26.624 15.7601L24.056 18.4001C23.3712 19.0808 22.5584 19.6192 21.6646 19.9844C20.7708 20.3497 19.8135 20.5344 18.848 20.5281Z" fill="black"/>
</svg>
