<svg width="32" height="32" viewBox="0 0 32 32" fill="none" xmlns="http://www.w3.org/2000/svg">
<path d="M6.72803 17.3841L9.34403 14.6561C9.41704 14.5799 9.47434 14.4901 9.51265 14.3918C9.55096 14.2935 9.56953 14.1886 9.5673 14.0831C9.56507 13.9776 9.54209 13.8736 9.49966 13.777C9.45724 13.6804 9.3962 13.5931 9.32003 13.5201C9.24386 13.4471 9.15406 13.3898 9.05575 13.3515C8.95744 13.3131 8.85255 13.2946 8.74706 13.2968C8.64157 13.299 8.53756 13.322 8.44095 13.3644C8.34435 13.4069 8.25704 13.4679 8.18403 13.5441L6.86403 14.9281C7.10997 12.9025 8.01495 11.014 9.43963 9.55327C10.8643 8.09256 12.7296 7.14069 14.7484 6.84424C16.7672 6.54778 18.8275 6.92319 20.6119 7.91265C22.3964 8.90211 23.8061 10.4507 24.624 12.3201C24.7084 12.5137 24.8659 12.6662 25.0623 12.7441C25.2586 12.822 25.4778 12.8191 25.672 12.7361C25.7689 12.6943 25.8566 12.6338 25.93 12.5581C26.0034 12.4823 26.0611 12.3928 26.0997 12.2946C26.1384 12.1965 26.1573 12.0917 26.1553 11.9862C26.1532 11.8807 26.1304 11.7767 26.088 11.6801C25.1163 9.49246 23.4518 7.68538 21.3512 6.53762C19.2506 5.38987 16.8307 4.96522 14.4648 5.3292C12.0989 5.69318 9.91858 6.82556 8.26011 8.55164C6.60165 10.2777 5.55724 12.5016 5.28803 14.8801L4.00003 13.6721C3.8462 13.5257 3.64052 13.4464 3.42823 13.4516C3.21594 13.4569 3.01443 13.5463 2.86803 13.7001C2.72163 13.8539 2.64233 14.0596 2.64758 14.2719C2.65284 14.4842 2.7422 14.6857 2.89603 14.8321L5.60003 17.4081C5.74833 17.551 5.94605 17.6313 6.15203 17.6321C6.25979 17.6317 6.36636 17.6095 6.46534 17.5669C6.56432 17.5243 6.65367 17.4621 6.72803 17.3841Z" fill="#010101"/>
<path d="M29.328 17.944L27.048 14.976C26.919 14.809 26.7292 14.6997 26.52 14.672C26.4156 14.6584 26.3096 14.6655 26.208 14.693C26.1065 14.7204 26.0113 14.7677 25.928 14.832L22.928 17.136C22.7748 17.2701 22.6785 17.4576 22.6588 17.6603C22.6391 17.863 22.6974 18.0656 22.8218 18.2268C22.9463 18.3879 23.1275 18.4956 23.3286 18.5278C23.5297 18.56 23.7354 18.5143 23.904 18.4L25.312 17.32C25.0328 19.3023 24.1217 21.1418 22.7139 22.5651C21.3061 23.9884 19.4768 24.9197 17.4976 25.2207C15.5185 25.5217 13.495 25.1762 11.7278 24.2357C9.96056 23.2952 8.54382 21.8097 7.68799 20C7.59537 19.812 7.43267 19.6678 7.23487 19.5985C7.03708 19.5292 6.81999 19.5403 6.63029 19.6294C6.44059 19.7185 6.29342 19.8785 6.22043 20.0749C6.14744 20.2714 6.15446 20.4886 6.23999 20.68C7.11031 22.5546 8.49807 24.1416 10.2399 25.2542C11.9817 26.3668 14.0052 26.9586 16.072 26.96C16.8247 26.9616 17.5756 26.8838 18.312 26.728C20.539 26.2755 22.5674 25.1345 24.1106 23.4664C25.6539 21.7983 26.6338 19.6874 26.912 17.432L28.056 18.912C28.1297 19.0103 28.225 19.0902 28.3346 19.1457C28.4442 19.2012 28.5651 19.2307 28.688 19.232C28.8379 19.2331 28.9852 19.1921 29.1129 19.1136C29.2407 19.0351 29.3438 18.9223 29.4105 18.788C29.4772 18.6537 29.5049 18.5034 29.4903 18.3541C29.4757 18.2049 29.4195 18.0628 29.328 17.944Z" fill="#010101"/>
</svg>
