<svg width="32" height="32" viewBox="0 0 32 32" fill="none" xmlns="http://www.w3.org/2000/svg">
<path d="M27.9999 18.3521C27.7878 18.3521 27.5843 18.4363 27.4343 18.5864C27.2842 18.7364 27.1999 18.9399 27.1999 19.1521V25.848C27.1968 26.1338 27.1374 26.4162 27.0252 26.679C26.9129 26.9418 26.75 27.1799 26.5457 27.3797C26.3414 27.5796 26.0997 27.7372 25.8345 27.8436C25.5693 27.9501 25.2857 28.0032 24.9999 28H6.99995C6.71419 28.0032 6.4306 27.9501 6.16538 27.8436C5.90017 27.7372 5.65851 27.5796 5.45422 27.3797C5.24993 27.1799 5.087 26.9418 4.97474 26.679C4.86248 26.4162 4.80309 26.1338 4.79995 25.848V19.1521C4.79995 18.9399 4.71567 18.7364 4.56564 18.5864C4.41561 18.4363 4.21212 18.3521 3.99995 18.3521C3.78778 18.3521 3.58429 18.4363 3.43427 18.5864C3.28424 18.7364 3.19995 18.9399 3.19995 19.1521V25.848C3.20309 26.3439 3.30388 26.8343 3.49655 27.2912C3.68922 27.7482 3.97 28.1627 4.32286 28.5111C4.67573 28.8595 5.09376 29.135 5.5531 29.3218C6.01244 29.5087 6.50408 29.6032 6.99995 29.6H24.9999C25.4958 29.6032 25.9875 29.5087 26.4468 29.3218C26.9061 29.135 27.3242 28.8595 27.677 28.5111C28.0299 28.1627 28.3107 27.7482 28.5034 27.2912C28.696 26.8343 28.7968 26.3439 28.7999 25.848V19.1521C28.7999 18.9399 28.7157 18.7364 28.5656 18.5864C28.4156 18.4363 28.2121 18.3521 27.9999 18.3521Z" fill="black"/>
<path d="M10.5601 9.67986L15.2001 5.11186V22.3999C15.2001 22.612 15.2844 22.8155 15.4344 22.9655C15.5844 23.1156 15.7879 23.1999 16.0001 23.1999C16.2122 23.1999 16.4157 23.1156 16.5658 22.9655C16.7158 22.8155 16.8001 22.612 16.8001 22.3999V5.11186L21.4401 9.67986C21.5904 9.82473 21.7913 9.90511 22.0001 9.90386C22.1054 9.90447 22.2097 9.88429 22.3072 9.84448C22.4047 9.80466 22.4933 9.746 22.5681 9.67186C22.6431 9.59749 22.7026 9.50901 22.7432 9.41152C22.7838 9.31403 22.8047 9.20947 22.8047 9.10386C22.8047 8.99825 22.7838 8.89369 22.7432 8.7962C22.7026 8.69871 22.6431 8.61023 22.5681 8.53586L16.5681 2.63186H16.5121C16.4504 2.58181 16.3833 2.53887 16.3121 2.50386C16.1173 2.42384 15.8988 2.42384 15.7041 2.50386C15.6328 2.53887 15.5657 2.58181 15.5041 2.63186H15.4481L9.44007 8.53586C9.28837 8.68438 9.20188 8.88708 9.19963 9.09937C9.19738 9.31166 9.27955 9.51615 9.42807 9.66786C9.5766 9.81956 9.7793 9.90605 9.99159 9.9083C10.2039 9.91055 10.4084 9.82838 10.5601 9.67986Z" fill="black"/>
</svg>
