<svg width="32" height="32" viewBox="0 0 32 32" fill="none" xmlns="http://www.w3.org/2000/svg">
<path d="M29.504 15.6239C29.304 15.2479 24.528 6.3999 16 6.3999C7.47197 6.3999 2.69597 15.2479 2.49597 15.6239C2.43433 15.7396 2.4021 15.8688 2.4021 15.9999C2.4021 16.131 2.43433 16.2602 2.49597 16.3759C2.69597 16.7519 7.47197 25.5999 16 25.5999C24.528 25.5999 29.304 16.7519 29.504 16.3759C29.5656 16.2602 29.5978 16.131 29.5978 15.9999C29.5978 15.8688 29.5656 15.7396 29.504 15.6239ZM16 23.9999C9.37597 23.9999 5.10397 17.5999 4.11997 15.9999C5.10397 14.3999 9.37597 7.9999 16 7.9999C22.624 7.9999 26.896 14.3999 27.88 15.9999C26.896 17.5999 22.624 23.9999 16 23.9999Z" fill="black"/>
<path d="M16 11.904C15.4495 11.8912 14.9018 11.987 14.3884 12.186C13.8749 12.385 13.4056 12.6832 13.0074 13.0636C12.6092 13.4439 12.2898 13.899 12.0676 14.4029C11.8453 14.9067 11.7245 15.4494 11.712 16C11.7245 16.5505 11.8453 17.0932 12.0676 17.597C12.2898 18.1009 12.6092 18.556 13.0074 18.9364C13.4056 19.3167 13.8749 19.6149 14.3884 19.8139C14.9018 20.0129 15.4495 20.1087 16 20.096C16.5506 20.1087 17.0982 20.0129 17.6117 19.8139C18.1252 19.6149 18.5945 19.3167 18.9927 18.9364C19.3909 18.556 19.7102 18.1009 19.9325 17.597C20.1548 17.0932 20.2756 16.5505 20.288 16C20.2756 15.4494 20.1548 14.9067 19.9325 14.4029C19.7102 13.899 19.3909 13.4439 18.9927 13.0636C18.5945 12.6832 18.1252 12.385 17.6117 12.186C17.0982 11.987 16.5506 11.8912 16 11.904ZM16 18.496C15.313 18.5198 14.6446 18.2705 14.1408 17.8028C13.6371 17.335 13.3391 16.6868 13.312 16C13.3391 15.3131 13.6371 14.6649 14.1408 14.1971C14.6446 13.7294 15.313 13.4802 16 13.504C16.687 13.4802 17.3555 13.7294 17.8592 14.1971C18.363 14.6649 18.661 15.3131 18.688 16C18.661 16.6868 18.363 17.335 17.8592 17.8028C17.3555 18.2705 16.687 18.5198 16 18.496Z" fill="black"/>
</svg>
