<svg width="32" height="32" viewBox="0 0 32 32" fill="none" xmlns="http://www.w3.org/2000/svg">
<path d="M24.4578 9.81596H5.56421C5.61271 9.61773 5.71929 9.43849 5.8703 9.30121C6.02131 9.16394 6.20986 9.07487 6.4118 9.04542L21.3371 6.55658C21.4855 6.53159 21.6376 6.53932 21.7826 6.57925C21.9277 6.61918 22.0623 6.69034 22.177 6.78775C22.2905 6.882 22.3823 6.99963 22.4461 7.13262C22.5099 7.2656 22.5443 7.4108 22.5469 7.55828V8.48293C22.5469 8.68729 22.6281 8.88328 22.7726 9.02778C22.9171 9.17229 23.1131 9.25347 23.3174 9.25347C23.5218 9.25347 23.7178 9.17229 23.8623 9.02778C24.0068 8.88328 24.088 8.68729 24.088 8.48293V7.59681C24.0871 7.22279 24.0052 6.85341 23.8479 6.51407C23.6906 6.17474 23.4616 5.87351 23.1767 5.63113C22.8919 5.38875 22.5579 5.21097 22.1978 5.11001C21.8376 5.00906 21.4599 4.98733 21.0906 5.04633L6.15752 7.49664C5.55394 7.59394 5.00493 7.90357 4.60938 8.36975C4.21383 8.83594 3.99773 9.42804 4.00002 10.0394V24.1788C4.00002 24.5178 4.06679 24.8534 4.19651 25.1666C4.32623 25.4798 4.51637 25.7644 4.75606 26.0041C4.99576 26.2437 5.28032 26.4339 5.5935 26.5636C5.90668 26.6933 6.24234 26.7601 6.58132 26.7601H24.4578C24.7968 26.7601 25.1325 26.6933 25.4456 26.5636C25.7588 26.4339 26.0434 26.2437 26.2831 26.0041C26.5228 25.7644 26.7129 25.4798 26.8426 25.1666C26.9723 24.8534 27.0391 24.5178 27.0391 24.1788V12.3973C27.0391 11.7127 26.7672 11.0561 26.2831 10.572C25.799 10.0879 25.1424 9.81596 24.4578 9.81596ZM25.498 24.1788C25.496 24.4541 25.3858 24.7175 25.1911 24.9121C24.9965 25.1068 24.7331 25.217 24.4578 25.219H6.58132C6.30544 25.219 6.04085 25.1094 5.84577 24.9143C5.65069 24.7193 5.54109 24.4547 5.54109 24.1788V11.357H24.4578C24.7337 11.357 24.9983 11.4666 25.1934 11.6617C25.3884 11.8568 25.498 12.1214 25.498 12.3973V24.1788Z" fill="#010101"/>
<path d="M20.7207 19.7327C21.5208 19.7327 22.1693 19.0841 22.1693 18.2841C22.1693 17.484 21.5208 16.8354 20.7207 16.8354C19.9207 16.8354 19.2721 17.484 19.2721 18.2841C19.2721 19.0841 19.9207 19.7327 20.7207 19.7327Z" fill="#010101"/>
</svg>
