<svg width="32" height="32" viewBox="0 0 32 32" fill="none" xmlns="http://www.w3.org/2000/svg">
<path d="M29.6 16C29.5949 12.5475 28.2769 9.22612 25.9133 6.70949C23.5497 4.19287 20.3174 2.66939 16.872 2.44802C16.7027 2.41979 16.5316 2.40374 16.36 2.40002H16C12.393 2.40002 8.93384 3.83288 6.38334 6.38337C3.83285 8.93387 2.39999 12.3931 2.39999 16C2.39999 19.607 3.83285 23.0662 6.38334 25.6167C8.93384 28.1672 12.393 29.6 16 29.6H16.36C16.5316 29.5963 16.7027 29.5803 16.872 29.552C20.3174 29.3307 23.5497 27.8072 25.9133 25.2906C28.2769 22.7739 29.5949 19.4526 29.6 16ZM3.99999 16C4.00117 14.8266 4.17366 13.6596 4.51199 12.536H8.95999C8.61872 14.8327 8.61872 17.1673 8.95999 19.464H4.51199C4.17366 18.3404 4.00117 17.1735 3.99999 16V16ZM10.304 16C10.3033 14.84 10.3942 13.6817 10.576 12.536H15.2V19.464H10.576C10.3942 18.3183 10.3033 17.1601 10.304 16V16ZM21.824 10.936H16.8V4.04802C18.992 4.37602 20.896 7.13602 21.824 10.936ZM15.2 4.24002V10.936H10.904C11.72 7.56002 13.32 5.00002 15.2 4.24002ZM15.2 21.04V27.76C13.32 26.96 11.72 24.44 10.904 21.064L15.2 21.04ZM16.8 27.928V21.064H21.824C20.896 24.864 18.992 27.624 16.8 27.952V27.928ZM16.8 19.44V12.536H22.152C22.3217 13.6828 22.4046 14.8408 22.4 16C22.3993 17.1597 22.311 18.3176 22.136 19.464L16.8 19.44ZM23.768 12.512H27.488C28.1691 14.7711 28.1691 17.1809 27.488 19.44H23.768C23.9274 18.3004 24.0049 17.1508 24 16C24.0061 14.8413 23.9285 13.6836 23.768 12.536V12.512ZM26.864 10.912H23.48C23.0729 8.80859 22.219 6.81705 20.976 5.07202C23.572 6.26656 25.6589 8.34493 26.864 10.936V10.912ZM12.072 4.67202C10.645 6.50613 9.67432 8.65312 9.23999 10.936H5.13599C5.817 9.48283 6.78129 8.18022 7.97232 7.10458C9.16335 6.02894 10.5571 5.20193 12.072 4.67202V4.67202ZM5.13599 21.064H9.23999C9.67432 23.3469 10.645 25.4939 12.072 27.328C10.5571 26.7981 9.16335 25.9711 7.97232 24.8955C6.78129 23.8198 5.817 22.5172 5.13599 21.064V21.064ZM20.976 26.904C22.219 25.159 23.0729 23.1675 23.48 21.064H26.864C25.6543 23.6461 23.5679 25.7155 20.976 26.904V26.904Z" fill="black"/>
</svg>
