<svg width="32" height="32" viewBox="0 0 32 32" fill="none" xmlns="http://www.w3.org/2000/svg">
<path d="M27.2 4H4.80002C4.17444 3.99978 3.57349 4.24383 3.1252 4.68017C2.67691 5.11651 2.41671 5.71064 2.40002 6.336V20.736C2.41671 21.3614 2.67691 21.9555 3.1252 22.3918C3.57349 22.8282 4.17444 23.0722 4.80002 23.072H11.84L8.23203 26.688C8.0902 26.8368 8.01108 27.0344 8.01108 27.24C8.01108 27.4456 8.0902 27.6432 8.23203 27.792C8.3064 27.867 8.39488 27.9265 8.49236 27.9671C8.58985 28.0077 8.69442 28.0286 8.80002 28.0286C8.90563 28.0286 9.0102 28.0077 9.10769 27.9671C9.20517 27.9265 9.29365 27.867 9.36802 27.792L13.992 23.168H17.992L22.624 27.792C22.7017 27.8628 22.7925 27.9176 22.8913 27.9533C22.9902 27.989 23.0951 28.0049 23.2 28C23.4088 28.0013 23.6097 27.9209 23.76 27.776C23.9019 27.6272 23.981 27.4296 23.981 27.224C23.981 27.0184 23.9019 26.8208 23.76 26.672L20.136 23.056H27.2C27.8256 23.0562 28.4266 22.8122 28.8748 22.3758C29.3231 21.9395 29.5833 21.3454 29.6 20.72V6.32C29.5793 5.69745 29.3173 5.10736 28.8694 4.67443C28.4216 4.2415 27.8229 3.99965 27.2 4ZM28 20.72C28 20.9322 27.9157 21.1357 27.7657 21.2857C27.6157 21.4357 27.4122 21.52 27.2 21.52H4.80002C4.58785 21.52 4.38437 21.4357 4.23434 21.2857C4.08431 21.1357 4.00002 20.9322 4.00002 20.72V6.32C4.01992 6.12198 4.11292 5.93849 4.26084 5.80535C4.40877 5.67222 4.60101 5.599 4.80002 5.6H27.2C27.4122 5.6 27.6157 5.68429 27.7657 5.83431C27.9157 5.98434 28 6.18783 28 6.4V20.72Z" fill="black"/>
<path d="M19.672 12.3041L13.896 8.95207C13.6598 8.81478 13.3918 8.74191 13.1186 8.74074C12.8455 8.73957 12.5768 8.81015 12.3395 8.94541C12.1021 9.08067 11.9045 9.27588 11.7663 9.51151C11.6281 9.74713 11.5542 10.0149 11.552 10.2881V16.8001C11.5533 17.074 11.6283 17.3426 11.769 17.5776C11.9098 17.8127 12.1111 18.0055 12.352 18.1361C12.5958 18.2743 12.8717 18.346 13.152 18.3441C13.4123 18.3441 13.6683 18.2781 13.896 18.1521L19.68 15.0001C19.9202 14.8709 20.1213 14.6794 20.262 14.4457C20.4028 14.2121 20.4781 13.9448 20.48 13.6721C20.4865 13.3914 20.4142 13.1144 20.2714 12.8727C20.1286 12.6309 19.921 12.4339 19.672 12.3041ZM13.152 16.8001L13.08 10.3201L18.84 13.6001L13.152 16.8001Z" fill="black"/>
</svg>
