<svg width="32" height="32" viewBox="0 0 32 32" fill="none" xmlns="http://www.w3.org/2000/svg">
<path d="M29.368 28.2319L23.72 22.6319C25.8109 20.2482 26.8931 17.1449 26.7378 13.978C26.5825 10.811 25.2018 7.82845 22.8877 5.6608C20.5736 3.49314 17.5073 2.31019 14.3369 2.36198C11.1665 2.41378 8.14051 3.69625 5.89842 5.93834C3.65633 8.18043 2.37386 11.2064 2.32207 14.3768C2.27027 17.5472 3.45322 20.6135 5.62088 22.9276C7.78854 25.2417 10.7711 26.6224 13.938 26.7777C17.105 26.933 20.2083 25.8509 22.592 23.7599L28.232 29.4079C28.3064 29.4829 28.3949 29.5424 28.4924 29.5831C28.5898 29.6237 28.6944 29.6446 28.8 29.6446C28.9056 29.6446 29.0102 29.6237 29.1077 29.5831C29.2052 29.5424 29.2937 29.4829 29.368 29.4079C29.4492 29.333 29.514 29.2421 29.5584 29.1409C29.6027 29.0397 29.6256 28.9304 29.6256 28.8199C29.6256 28.7095 29.6027 28.6002 29.5584 28.499C29.514 28.3978 29.4492 28.3069 29.368 28.2319ZM4.00002 14.5759C4.00057 12.8384 4.42922 11.1277 5.24807 9.59522C6.06692 8.06271 7.25073 6.75555 8.69486 5.78933C10.139 4.8231 11.7989 4.22756 13.5279 4.05537C15.2569 3.88317 17.0017 4.13963 18.6081 4.80206C20.2144 5.46449 21.6327 6.51249 22.7378 7.8534C23.8428 9.19431 24.6004 10.7868 24.9436 12.4901C25.2869 14.1935 25.2051 15.9551 24.7057 17.6193C24.2062 19.2836 23.3044 20.7991 22.08 22.0319C20.6036 23.5185 18.719 24.533 16.6652 24.9469C14.6114 25.3608 12.4809 25.1553 10.544 24.3565C8.60711 23.5578 6.9511 22.2018 5.78604 20.4605C4.62098 18.7192 3.99935 16.6711 4.00002 14.5759Z" fill="black"/>
<path d="M18.8481 13.776H15.3761V10.312C15.3761 10.0998 15.2918 9.89631 15.1418 9.74628C14.9917 9.59625 14.7883 9.51196 14.5761 9.51196C14.3639 9.51196 14.1604 9.59625 14.0104 9.74628C13.8604 9.89631 13.7761 10.0998 13.7761 10.312V13.776H10.3121C10.0999 13.776 9.89643 13.8602 9.7464 14.0103C9.59637 14.1603 9.51208 14.3638 9.51208 14.576C9.51208 14.7881 9.59637 14.9916 9.7464 15.1416C9.89643 15.2917 10.0999 15.376 10.3121 15.376H13.7761V18.848C13.7761 19.0601 13.8604 19.2636 14.0104 19.4136C14.1604 19.5637 14.3639 19.648 14.5761 19.648C14.7883 19.648 14.9917 19.5637 15.1418 19.4136C15.2918 19.2636 15.3761 19.0601 15.3761 18.848V15.376H18.8481C19.0603 15.376 19.2637 15.2917 19.4138 15.1416C19.5638 14.9916 19.6481 14.7881 19.6481 14.576C19.6481 14.3638 19.5638 14.1603 19.4138 14.0103C19.2637 13.8602 19.0603 13.776 18.8481 13.776Z" fill="black"/>
</svg>
