<svg width="32" height="32" viewBox="0 0 32 32" fill="none" xmlns="http://www.w3.org/2000/svg">
<path d="M29.3681 28.2319L23.7201 22.6319C25.8111 20.2482 26.8932 17.1449 26.7379 13.978C26.5826 10.811 25.2019 7.82845 22.8878 5.6608C20.5737 3.49314 17.5074 2.31019 14.337 2.36198C11.1667 2.41378 8.14063 3.69625 5.89854 5.93834C3.65645 8.18043 2.37398 11.2064 2.32219 14.3768C2.2704 17.5472 3.45334 20.6135 5.621 22.9276C7.78866 25.2417 10.7712 26.6224 13.9382 26.7777C17.1051 26.933 20.2084 25.8509 22.5921 23.7599L28.2321 29.4079C28.3065 29.4829 28.395 29.5424 28.4925 29.5831C28.59 29.6237 28.6945 29.6446 28.8001 29.6446C28.9058 29.6446 29.0103 29.6237 29.1078 29.5831C29.2053 29.5424 29.2938 29.4829 29.3681 29.4079C29.4493 29.333 29.5142 29.2421 29.5585 29.1409C29.6028 29.0397 29.6257 28.9304 29.6257 28.8199C29.6257 28.7095 29.6028 28.6002 29.5585 28.499C29.5142 28.3978 29.4493 28.3069 29.3681 28.2319ZM4.00014 14.5759C4.0007 12.8384 4.42934 11.1277 5.24819 9.59522C6.06704 8.06271 7.25086 6.75555 8.69498 5.78933C10.1391 4.8231 11.7991 4.22756 13.5281 4.05537C15.2571 3.88317 17.0018 4.13963 18.6082 4.80206C20.2145 5.46449 21.6329 6.51249 22.7379 7.8534C23.8429 9.19431 24.6005 10.7868 24.9437 12.4901C25.287 14.1935 25.2053 15.9551 24.7058 17.6193C24.2064 19.2836 23.3046 20.7991 22.0801 22.0319C20.6038 23.5185 18.7191 24.533 16.6653 24.9469C14.6115 25.3608 12.481 25.1553 10.5441 24.3565C8.60723 23.5578 6.95123 22.2018 5.78616 20.4605C4.6211 18.7192 3.99948 16.6711 4.00014 14.5759Z" fill="black"/>
<path d="M18.848 13.7761H10.312C10.0998 13.7761 9.89631 13.8604 9.74628 14.0104C9.59625 14.1605 9.51196 14.3639 9.51196 14.5761C9.51196 14.7883 9.59625 14.9918 9.74628 15.1418C9.89631 15.2918 10.0998 15.3761 10.312 15.3761H18.848C19.0601 15.3761 19.2636 15.2918 19.4136 15.1418C19.5637 14.9918 19.648 14.7883 19.648 14.5761C19.648 14.3639 19.5637 14.1605 19.4136 14.0104C19.2636 13.8604 19.0601 13.7761 18.848 13.7761Z" fill="black"/>
</svg>
